<svg width="38" height="40" viewBox="0 0 38 40" fill="none" xmlns="http://www.w3.org/2000/svg">
<path d="M36.3281 9.375C36.9753 9.375 37.5 8.85031 37.5 8.20312V4.6875C37.5 2.10281 35.3972 0 32.8125 0H4.6875C2.10281 0 0 2.10281 0 4.6875V35.3125C0 37.8972 2.10281 40 4.6875 40H32.8125C35.3972 40 37.5 37.8972 37.5 35.3125V31.7969C37.5 31.1497 36.9753 30.625 36.3281 30.625H30.4688V9.375H36.3281ZM30.4688 4.6875C30.4688 3.39516 31.5202 2.34375 32.8125 2.34375C34.1048 2.34375 35.1562 3.39516 35.1562 4.6875V7.03125H30.4688V4.6875ZM28.7556 37.6562H4.6875C3.39516 37.6562 2.34375 36.6048 2.34375 35.3125V4.6875C2.34375 3.39516 3.39516 2.33594 4.6875 2.33594H28.7556C28.3554 3.02602 28.125 3.83398 28.125 4.6875C28.125 6.20992 28.125 33.776 28.125 35.3125C28.125 36.166 28.3554 36.9662 28.7556 37.6562ZM35.1562 32.9688V35.3125C35.1562 36.6048 34.1048 37.6562 32.8125 37.6562C31.5202 37.6562 30.4688 36.6048 30.4688 35.3125V32.9688H35.1562Z" fill="#E53935"/>
<path d="M19.9219 16.4844C16.691 16.4844 14.0625 19.1129 14.0625 22.3437C14.0625 24.2566 14.9841 25.958 16.4062 27.028V34.1406C16.4062 34.6146 16.6918 35.042 17.1297 35.2233C17.5676 35.4046 18.0716 35.3043 18.4068 34.9692L19.9219 33.4541L21.437 34.9692C21.7727 35.305 22.277 35.4043 22.7141 35.2233C23.152 35.0419 23.4376 34.6145 23.4376 34.1406V27.028C24.8598 25.958 25.7813 24.2566 25.7813 22.3437C25.7813 19.1129 23.1527 16.4844 19.9219 16.4844ZM21.0938 31.3115L20.7505 30.9683C20.2929 30.5106 19.5509 30.5106 19.0932 30.9683L18.75 31.3115V28.0852C19.1287 28.1624 19.5206 28.2031 19.9219 28.2031C20.3231 28.2031 20.715 28.1624 21.0938 28.0852V31.3115ZM19.9219 25.8594C17.9834 25.8594 16.4062 24.2823 16.4062 22.3437C16.4062 20.4052 17.9834 18.8281 19.9219 18.8281C21.8604 18.8281 23.4375 20.4052 23.4375 22.3437C23.4375 24.2823 21.8604 25.8594 19.9219 25.8594Z" fill="#E53935"/>
<path d="M19.9219 4.6875H12.8906C12.2434 4.6875 11.7188 5.21219 11.7188 5.85938C11.7188 6.50656 12.2434 7.03125 12.8906 7.03125H19.9219C20.5691 7.03125 21.0938 6.50656 21.0938 5.85938C21.0938 5.21219 20.5691 4.6875 19.9219 4.6875Z" fill="#E53935"/>
<path d="M24.6094 9.375H5.85938C5.21219 9.375 4.6875 9.89969 4.6875 10.5469C4.6875 11.1941 5.21219 11.7188 5.85938 11.7188H24.6094C25.2566 11.7188 25.7812 11.1941 25.7812 10.5469C25.7812 9.89969 25.2566 9.375 24.6094 9.375Z" fill="#E53935"/>
<path d="M10.5469 16.4844H5.85938C5.21219 16.4844 4.6875 17.0091 4.6875 17.6562C4.6875 18.3034 5.21219 18.8281 5.85938 18.8281H10.5469C11.1941 18.8281 11.7188 18.3034 11.7188 17.6562C11.7188 17.0091 11.1941 16.4844 10.5469 16.4844Z" fill="#E53935"/>
<path d="M10.5469 30.625H5.85938C5.21219 30.625 4.6875 31.1497 4.6875 31.7969C4.6875 32.4441 5.21219 32.9688 5.85938 32.9688H10.5469C11.1941 32.9688 11.7188 32.4441 11.7188 31.7969C11.7188 31.1497 11.1941 30.625 10.5469 30.625Z" fill="#E53935"/>
<path d="M10.5469 23.5156H5.85938C5.21219 23.5156 4.6875 24.0403 4.6875 24.6875C4.6875 25.3347 5.21219 25.8594 5.85938 25.8594H10.5469C11.1941 25.8594 11.7188 25.3347 11.7188 24.6875C11.7188 24.0403 11.1941 23.5156 10.5469 23.5156Z" fill="#E53935"/>
</svg>
