<svg width="70" height="70" viewBox="0 0 70 70" fill="none" xmlns="http://www.w3.org/2000/svg">
<path d="M59.9171 0H43.75H26.25H10.0829C4.51418 0 0 4.51418 0 10.0829V59.917C0 65.4858 4.51418 70 10.0829 70H26.25C27.8608 70 29.1666 68.6942 29.1666 67.0834C29.1666 65.4726 27.8608 64.1668 26.25 64.1668H10.0829C7.73582 64.1668 5.83324 62.2643 5.83324 59.9171V10.0829C5.83324 7.73582 7.73568 5.83324 10.0829 5.83324H23.3332V20.4166C23.3332 22.7462 25.9295 24.1356 27.8678 22.8434L35 18.0887L42.1321 22.8435C44.0703 24.1356 46.6666 22.7462 46.6666 20.4168V5.83338H59.917C62.264 5.83338 64.1666 7.73582 64.1666 10.083V20.4168C64.1666 22.0276 65.4724 23.3334 67.0832 23.3334C68.6941 23.3334 70 22.0274 70 20.4166V10.0829C70 4.51418 65.4858 0 59.9171 0ZM40.8334 14.9669L36.6179 12.1566C35.6382 11.5035 34.3619 11.5035 33.3822 12.1566L29.1668 14.9669V5.83338H40.8334V14.9669Z" fill="url(#paint0_linear)"/>
<path d="M56.7212 41.1411C55.2805 40.4207 53.5284 41.0046 52.808 42.4455L48.7844 50.4928L45.8126 47.5209C44.6735 46.3819 42.8268 46.3819 41.6877 47.5209C40.5487 48.6599 40.5487 50.5067 41.6877 51.6457L47.5211 57.4791C47.5256 57.4836 47.5306 57.4873 47.5351 57.4917C47.582 57.5379 47.6319 57.5814 47.6822 57.6247C47.7077 57.6467 47.7325 57.6701 47.7585 57.691C47.7974 57.7222 47.8389 57.7508 47.8796 57.7802C47.9205 57.8097 47.9609 57.8402 48.0031 57.8674C48.0311 57.8854 48.0608 57.9013 48.0896 57.9185C48.1468 57.9527 48.204 57.9865 48.2628 58.0164C48.2684 58.0193 48.2735 58.0227 48.2791 58.0256C48.3 58.0361 48.3216 58.0435 48.3427 58.0535C48.4038 58.0822 48.4649 58.1102 48.5274 58.1344C48.5631 58.1483 48.599 58.1597 48.635 58.172C48.6876 58.19 48.7402 58.2082 48.7936 58.2233C48.8402 58.2364 48.8868 58.2468 48.9337 58.2574C48.9772 58.2673 49.0204 58.2777 49.0641 58.2855C49.118 58.2953 49.172 58.3022 49.226 58.3089C49.2643 58.3135 49.3023 58.3187 49.3407 58.3218C49.3969 58.3265 49.4528 58.3284 49.5087 58.3299C49.5468 58.3309 49.5848 58.3321 49.6228 58.3315C49.6762 58.3307 49.7293 58.3276 49.7825 58.3239C49.8244 58.321 49.8661 58.3181 49.908 58.3135C49.9555 58.3082 50.0027 58.3006 50.0499 58.293C50.0972 58.2853 50.1444 58.2774 50.1912 58.2674C50.2323 58.2587 50.2727 58.2481 50.3133 58.2376C50.365 58.2244 50.4166 58.2104 50.4677 58.1943C50.5038 58.1828 50.5393 58.1697 50.5749 58.1568C50.6278 58.1377 50.6804 58.1181 50.7322 58.0958C50.7674 58.0808 50.8017 58.064 50.8363 58.0476C50.8856 58.0241 50.9347 58.0004 50.983 57.974C51.0219 57.9528 51.0595 57.9295 51.0976 57.9064C51.1387 57.8813 51.1799 57.8566 51.2201 57.8294C51.2659 57.7983 51.3097 57.7647 51.3539 57.7309C51.3843 57.7077 51.415 57.6854 51.4445 57.6608C51.496 57.6181 51.5449 57.5725 51.5936 57.5261C51.6105 57.5099 51.6288 57.4958 51.6455 57.4791C51.65 57.4746 51.6537 57.4697 51.6581 57.4652C51.7043 57.4184 51.7478 57.3684 51.791 57.3182C51.813 57.2926 51.8364 57.2679 51.8574 57.2418C51.8886 57.2028 51.9172 57.1614 51.9466 57.1205C51.9761 57.0796 52.0066 57.0391 52.0338 56.9972C52.0518 56.9691 52.0678 56.9393 52.0851 56.9105C52.1193 56.8533 52.1529 56.7962 52.1828 56.7374C52.1857 56.7318 52.1893 56.7267 52.192 56.7211L58.0254 45.0545C58.746 43.6134 58.1619 41.8615 56.7212 41.1411Z" fill="url(#paint1_linear)"/>
<path d="M49.5834 29.1665C38.3067 29.1665 29.1667 38.3066 29.1667 49.5831C29.1667 60.8597 38.3067 69.9999 49.5834 69.9999C60.8601 69.9999 70 60.8598 70 49.5833C70 38.3067 60.8599 29.1665 49.5834 29.1665ZM49.5834 64.1665C41.5283 64.1665 35 57.6382 35 49.5833C35 41.5282 41.5283 34.9999 49.5834 34.9999C57.6384 34.9999 64.1667 41.5282 64.1667 49.5833C64.1666 57.6382 57.6383 64.1665 49.5834 64.1665Z" fill="url(#paint2_linear)"/>
<defs>
<linearGradient id="paint0_linear" x1="35" y1="0" x2="35" y2="70" gradientUnits="userSpaceOnUse">
<stop stop-color="#E53935"/>
<stop offset="1" stop-color="#C7141A"/>
</linearGradient>
<linearGradient id="paint1_linear" x1="49.5838" y1="40.8325" x2="49.5838" y2="58.3317" gradientUnits="userSpaceOnUse">
<stop stop-color="#E53935"/>
<stop offset="1" stop-color="#C7141A"/>
</linearGradient>
<linearGradient id="paint2_linear" x1="49.5834" y1="29.1665" x2="49.5834" y2="69.9999" gradientUnits="userSpaceOnUse">
<stop stop-color="#E53935"/>
<stop offset="1" stop-color="#C7141A"/>
</linearGradient>
</defs>
</svg>
