<svg width="70" height="70" viewBox="0 0 70 70" fill="none" xmlns="http://www.w3.org/2000/svg">
<path d="M59.9171 0H43.75H26.25H10.0829C4.51418 0 0 4.51418 0 10.0829V59.917C0 65.4858 4.51418 70 10.0829 70H26.25C27.8608 70 29.1666 68.6942 29.1666 67.0834C29.1666 65.4726 27.8608 64.1668 26.25 64.1668H10.0829C7.73582 64.1668 5.83324 62.2643 5.83324 59.9171V10.0829C5.83324 7.73582 7.73568 5.83324 10.0829 5.83324H23.3332V20.4166C23.3332 22.7462 25.9295 24.1356 27.8678 22.8434L35 18.0887L42.1321 22.8435C44.0703 24.1356 46.6666 22.7462 46.6666 20.4168V5.83338H59.917C62.264 5.83338 64.1666 7.73582 64.1666 10.083V20.4168C64.1666 22.0276 65.4724 23.3334 67.0832 23.3334C68.6941 23.3334 70 22.0274 70 20.4166V10.0829C70 4.51418 65.4858 0 59.9171 0ZM40.8334 14.9669L36.6179 12.1566C35.6382 11.5035 34.3619 11.5035 33.3822 12.1566L29.1668 14.9669V5.83338H40.8334V14.9669Z" fill="url(#paint0_linear)"/>
<path d="M52.268 46.2322L49.6052 40.8335L46.9421 46.2322L40.9834 47.0985L45.2943 51.2985L44.2764 57.2339L49.6052 54.431L54.9339 57.2339L53.9159 51.2985L58.2268 47.0985L52.268 46.2322Z" fill="url(#paint1_linear)"/>
<path d="M49.5834 29.1665C38.3067 29.1665 29.1667 38.3066 29.1667 49.5831C29.1667 60.8597 38.3067 69.9999 49.5834 69.9999C60.8601 69.9999 70 60.8598 70 49.5833C70 38.3067 60.8599 29.1665 49.5834 29.1665ZM49.5834 64.1665C41.5283 64.1665 35 57.6382 35 49.5833C35 41.5282 41.5283 34.9999 49.5834 34.9999C57.6384 34.9999 64.1667 41.5282 64.1667 49.5833C64.1666 57.6382 57.6383 64.1665 49.5834 64.1665Z" fill="url(#paint2_linear)"/>
<defs>
<linearGradient id="paint0_linear" x1="35" y1="0" x2="35" y2="70" gradientUnits="userSpaceOnUse">
<stop stop-color="#E53935"/>
<stop offset="1" stop-color="#C7141A"/>
</linearGradient>
<linearGradient id="paint1_linear" x1="49.6051" y1="40.8335" x2="49.6051" y2="57.2339" gradientUnits="userSpaceOnUse">
<stop stop-color="#E53935"/>
<stop offset="1" stop-color="#C7141A"/>
</linearGradient>
<linearGradient id="paint2_linear" x1="49.5834" y1="29.1665" x2="49.5834" y2="69.9999" gradientUnits="userSpaceOnUse">
<stop stop-color="#E53935"/>
<stop offset="1" stop-color="#C7141A"/>
</linearGradient>
</defs>
</svg>
