<svg width="20" height="20" viewBox="0 0 20 20" fill="none" xmlns="http://www.w3.org/2000/svg">
<path d="M19.846 17.1375C19.7585 16.7151 19.3468 16.444 18.9267 16.5319C18.5064 16.6199 18.2367 17.0336 18.3242 17.456C18.3746 17.6993 18.3146 17.9487 18.1596 18.1403C18.0698 18.2513 17.8696 18.4374 17.5378 18.4374H14.0284C13.5992 18.4374 13.2512 18.7872 13.2512 19.2187C13.2512 19.6502 13.5992 19.9999 14.0284 19.9999H17.5378C18.2501 19.9999 18.9163 19.6815 19.3655 19.1261C19.817 18.5681 19.9922 17.8433 19.846 17.1375Z" fill="#C7141A"/>
<path d="M10.7374 10.655C13.2909 10.8914 15.6136 12.2671 17.0602 14.4358C17.2992 14.7942 17.7821 14.89 18.1386 14.6496C18.4951 14.4093 18.5903 13.924 18.3513 13.5657C17.0759 11.6537 15.224 10.2637 13.1124 9.5652C14.3993 8.59531 15.2334 7.05 15.2334 5.3125C15.2334 2.38316 12.8625 0 9.94834 0C7.03417 0 4.66328 2.38316 4.66328 5.3125C4.66328 7.05113 5.49847 8.59734 6.78675 9.56707C5.6065 9.95762 4.49897 10.565 3.52971 11.3664C1.75253 12.8358 0.516872 14.8854 0.0504263 17.1376C-0.0957679 17.8433 0.0793776 18.5681 0.530862 19.1262C0.980092 19.6815 1.64628 20 2.35856 20H5.75138C6.18063 20 6.52859 19.6502 6.52859 19.2188C6.52859 18.7873 6.18063 18.4375 5.75138 18.4375H2.35848C2.02669 18.4375 1.82656 18.2514 1.73675 18.1404C1.58173 17.9487 1.52173 17.6994 1.57214 17.4561C2.33319 13.7815 5.41857 11.0419 9.07953 10.6637L7.59579 17.4492C7.53893 17.7095 7.6179 17.9809 7.80532 18.1693L9.35983 19.7321C9.50556 19.8786 9.70328 19.9609 9.90948 19.9609C10.1156 19.9609 10.3133 19.8786 10.4591 19.7321L12.0134 18.1693C12.2009 17.9809 12.2798 17.7095 12.2229 17.4492L10.7374 10.655ZM6.21771 5.3125C6.21771 3.24473 7.89125 1.5625 9.94834 1.5625C12.0054 1.5625 13.679 3.24473 13.679 5.3125C13.679 7.31785 12.1049 8.96051 10.1335 9.05789C10.0719 9.05676 10.0102 9.05602 9.94834 9.05602C9.88768 9.05602 9.82709 9.05691 9.76651 9.05801C7.79355 8.96234 6.21771 7.31898 6.21771 5.3125ZM9.90944 18.0747L9.2054 17.3669L9.90944 14.1472L10.6134 17.367L9.90944 18.0747Z" fill="#C7141A"/>
</svg>
