<svg width="20" height="21" viewBox="0 0 20 21" fill="none" xmlns="http://www.w3.org/2000/svg">
<path d="M1.77069 11.0933L0.220053 12.7C-0.079754 13.0107 -0.072293 13.5069 0.236811 13.8083C0.388296 13.9561 0.58404 14.0295 0.779666 14.0295C0.983183 14.0295 1.18654 13.9499 1.3394 13.7915L2.89003 12.1848C3.18984 11.8741 3.18238 11.3779 2.87327 11.0765C2.56417 10.775 2.07053 10.7826 1.77069 11.0933Z" fill="#C7141A"/>
<path d="M5.38007 11.6001C4.94948 11.6001 4.60034 11.951 4.60034 12.3839V19.2812C4.60034 19.714 4.94945 20.065 5.38007 20.065H5.38011C5.8107 20.065 6.15984 19.714 6.15984 19.2812L6.15976 12.3838C6.15976 11.951 5.8107 11.6001 5.38007 11.6001Z" fill="#C7141A"/>
<path d="M8.42084 9.87573C7.99026 9.87573 7.64111 10.2266 7.64111 10.6595V19.2811C7.64111 19.7139 7.99022 20.0649 8.42084 20.0649C8.85147 20.0649 9.20058 19.714 9.20058 19.2811V10.6595C9.20054 10.2266 8.85147 9.87573 8.42084 9.87573Z" fill="#C7141A"/>
<path d="M17.6607 0H15.3215C14.8909 0 14.5417 0.350916 14.5417 0.783779C14.5417 1.21664 14.8909 1.56756 15.3215 1.56756H17.3766L11.6511 7.32149C11.4976 7.47592 11.2965 7.56376 11.0977 7.56376C11.0936 7.56376 11.0893 7.56372 11.0851 7.56364C10.8937 7.56003 10.698 7.4718 10.5485 7.32145L9.63176 6.39997C9.18297 5.94885 8.58718 5.68734 7.99706 5.68247C7.99132 5.68243 7.98561 5.68243 7.97991 5.68243C7.36913 5.68243 6.7592 5.95081 6.30338 6.42058L4.63243 8.10778C4.3286 8.41457 4.32969 8.9108 4.63489 9.21621C4.787 9.36844 4.98599 9.44454 5.18497 9.44454C5.38509 9.44454 5.58521 9.36754 5.73755 9.2137L7.41155 7.52347C7.41385 7.5212 7.41608 7.51888 7.41835 7.51656C7.58116 7.348 7.79335 7.24803 7.98429 7.24995C8.16597 7.25144 8.36964 7.34804 8.52913 7.50836L9.44586 8.42984C9.88438 8.87067 10.4563 9.11966 11.0561 9.13089C11.6799 9.14267 12.2992 8.88709 12.7539 8.42992L18.4404 2.71505V4.66349C18.4404 5.09635 18.7895 5.44727 19.2201 5.44727C19.6508 5.44727 19.9999 5.09635 19.9999 4.66349V2.35134C19.9999 1.05483 18.9505 0 17.6607 0Z" fill="#C7141A"/>
<path d="M2.30265 15.127C1.87101 15.1255 1.52026 15.4768 1.52026 15.9107V19.281C1.52026 19.7138 1.86937 20.0648 2.29999 20.0648H2.30003C2.73066 20.0648 3.07977 19.7138 3.07977 19.281V15.9107C3.07973 15.4789 2.7323 15.1284 2.30265 15.127Z" fill="#C7141A"/>
<path d="M17.6218 6.70142C17.1911 6.70142 16.842 7.05233 16.842 7.4852V19.2811C16.842 19.7139 17.1911 20.0649 17.6218 20.0649H17.6218C18.0524 20.0649 18.4015 19.714 18.4015 19.2811V7.4852C18.4015 7.05229 18.0524 6.70142 17.6218 6.70142Z" fill="#C7141A"/>
<path d="M11.4619 10.8552C11.0312 10.8552 10.6821 11.2061 10.6821 11.639V19.2809C10.6821 19.7137 11.0312 20.0646 11.4619 20.0646H11.4619C11.8925 20.0646 12.2416 19.7137 12.2416 19.2809V11.639C12.2416 11.2061 11.8925 10.8552 11.4619 10.8552Z" fill="#C7141A"/>
<path d="M14.5393 9.36622C14.1098 9.36779 13.7625 9.71827 13.7625 10.15V19.2811C13.7625 19.7139 14.1116 20.0649 14.5422 20.0649H14.5422C14.9728 20.0649 15.322 19.7139 15.322 19.2811V10.15C15.3219 9.71599 14.9711 9.36461 14.5393 9.36622Z" fill="#C7141A"/>
</svg>
