<svg width="20" height="20" viewBox="0 0 20 20" fill="none" xmlns="http://www.w3.org/2000/svg">
<path d="M14.6484 8.59375C14.217 8.59375 13.8672 8.24398 13.8672 7.8125C13.8672 7.59711 13.692 7.42188 13.4766 7.42188C13.2612 7.42188 13.0859 7.59711 13.0859 7.8125C13.0859 8.24398 12.7362 8.59375 12.3047 8.59375C11.8732 8.59375 11.5234 8.24398 11.5234 7.8125C11.5234 6.73555 12.3996 5.85938 13.4766 5.85938C14.5535 5.85938 15.4297 6.73555 15.4297 7.8125C15.4297 8.24398 15.0799 8.59375 14.6484 8.59375ZM8.51562 7.8125C8.51562 6.73555 7.63945 5.85938 6.5625 5.85938C5.48555 5.85938 4.60938 6.73555 4.60938 7.8125C4.60938 8.24398 4.95914 8.59375 5.39062 8.59375C5.82211 8.59375 6.17188 8.24398 6.17188 7.8125C6.17188 7.59711 6.34711 7.42188 6.5625 7.42188C6.77789 7.42188 6.95312 7.59711 6.95312 7.8125C6.95312 8.24398 7.30289 8.59375 7.73438 8.59375C8.16586 8.59375 8.51562 8.24398 8.51562 7.8125ZM15.1743 18.5589C15.5433 18.3353 15.6613 17.8549 15.4377 17.4859C15.2142 17.1168 14.7338 16.9989 14.3648 17.2224C13.0525 18.0173 11.5432 18.4375 10 18.4375C5.34754 18.4375 1.5625 14.6525 1.5625 10C1.5625 5.34754 5.34754 1.5625 10 1.5625C14.6525 1.5625 18.4375 5.34754 18.4375 10C18.4375 11.6636 17.9428 13.283 17.0068 14.683C16.767 15.0417 16.8634 15.5269 17.2221 15.7667C17.5808 16.0065 18.066 15.9101 18.3057 15.5514C19.4141 13.8935 20 11.9739 20 10C20 7.32891 18.9598 4.8177 17.0711 2.92891C15.1823 1.0402 12.6711 0 10 0C7.32891 0 4.8177 1.0402 2.92891 2.92891C1.0402 4.8177 0 7.32891 0 10C0 12.6711 1.0402 15.1823 2.92891 17.0711C4.8177 18.9598 7.32891 20 10 20C11.8286 20 13.6179 19.5017 15.1743 18.5589ZM13.3594 11.3672C13.105 11.3672 12.8797 11.4893 12.737 11.6775C12.737 11.6775 11.7207 12.7734 10 12.7734C8.2793 12.7734 7.26297 11.6775 7.26297 11.6775C7.12031 11.4893 6.895 11.3672 6.64062 11.3672C6.20914 11.3672 5.85938 11.717 5.85938 12.1484C5.85938 12.3707 5.95266 12.5709 6.10172 12.7131C6.24301 12.8698 7.62902 14.3359 10 14.3359C12.371 14.3359 13.757 12.8698 13.8983 12.7131C14.0473 12.5709 14.1406 12.3707 14.1406 12.1484C14.1406 11.717 13.7909 11.3672 13.3594 11.3672Z" fill="#C7141A"/>
</svg>
