<svg width="13" height="13" viewBox="0 0 13 13" fill="none" xmlns="http://www.w3.org/2000/svg">
<path d="M0.847986 0.902551C-0.170662 1.96042 0.0378204 3.08417 0.0378204 6.49808C0.0378204 9.3331 -0.456921 12.1751 2.13237 12.8442C2.94091 13.0521 10.1049 13.0521 10.9124 12.8431C11.9905 12.565 12.8676 11.6908 12.9875 10.1663C13.0043 9.95357 13.0043 3.04637 12.987 2.82929C12.8595 1.20549 11.8598 0.269666 10.5424 0.080124C10.2405 0.0363836 10.18 0.0234235 8.63098 0.0207235C3.13643 0.0234235 1.93199 -0.221199 0.847986 0.902551Z" fill="url(#paint0_linear)"/>
<path d="M6.51806 1.7158C4.55692 1.7158 2.69462 1.54138 1.98329 3.36659C1.68947 4.12044 1.73214 5.09947 1.73214 6.50132C1.73214 7.73145 1.69271 8.8876 1.98329 9.6355C2.693 11.4618 4.57042 11.2868 6.51698 11.2868C8.39494 11.2868 10.3312 11.4823 11.0512 9.6355C11.3456 8.8741 11.3024 7.90965 11.3024 6.50132C11.3024 4.63182 11.4055 3.42491 10.4987 2.51879C9.58049 1.60078 8.33877 1.7158 6.5159 1.7158H6.51806ZM6.08921 2.57819C10.18 2.57171 10.7007 2.11702 10.4133 8.43345C10.3113 10.6675 8.60991 10.4223 6.5186 10.4223C2.70542 10.4223 2.59578 10.3132 2.59578 6.49916C2.59578 2.64083 2.89824 2.58035 6.08921 2.57711V2.57819ZM9.07278 3.37253C8.75574 3.37253 8.49865 3.62958 8.49865 3.94656C8.49865 4.26354 8.75574 4.52058 9.07278 4.52058C9.38983 4.52058 9.64692 4.26354 9.64692 3.94656C9.64692 3.62958 9.38983 3.37253 9.07278 3.37253V3.37253ZM6.51806 4.04376C5.16076 4.04376 4.06056 5.14429 4.06056 6.50132C4.06056 7.85835 5.16076 8.95834 6.51806 8.95834C7.87536 8.95834 8.97502 7.85835 8.97502 6.50132C8.97502 5.14429 7.87536 4.04376 6.51806 4.04376V4.04376ZM6.51806 4.90615C8.62719 4.90615 8.62989 8.09649 6.51806 8.09649C4.40947 8.09649 4.40623 4.90615 6.51806 4.90615Z" fill="white"/>
<defs>
<linearGradient id="paint0_linear" x1="0.872842" y1="12.1531" x2="12.9182" y2="1.72586" gradientUnits="userSpaceOnUse">
<stop stop-color="#FFDD55"/>
<stop offset="0.5" stop-color="#FF543E"/>
<stop offset="1" stop-color="#C837AB"/>
</linearGradient>
</defs>
</svg>
