<svg width="16" height="16" viewBox="0 0 16 16" fill="none" xmlns="http://www.w3.org/2000/svg">
<path d="M4.10961 14.75H1.89689C1.63008 14.75 1.46911 14.6011 1.39692 14.5123C1.2723 14.359 1.22402 14.1595 1.26455 13.9648C1.91358 10.8473 4.66483 8.57059 7.84096 8.49672C7.89386 8.49869 7.94689 8.5 8.00024 8.5C8.05405 8.5 8.10755 8.49866 8.16092 8.49666C8.93758 8.51438 9.6962 8.66041 10.4183 8.93156C10.7414 9.05297 11.1018 8.88931 11.2231 8.56616C11.3445 8.24303 11.1809 7.88269 10.8577 7.76134C10.7542 7.72247 10.65 7.68609 10.5454 7.65159C11.5798 6.87566 12.2502 5.63966 12.2502 4.25C12.2502 1.90656 10.3437 0 8.00024 0C5.65677 0 3.75024 1.90656 3.75024 4.25C3.75024 5.64091 4.42186 6.87787 5.45783 7.65369C4.50874 7.96612 3.61811 8.452 2.83867 9.09313C1.40955 10.2687 0.415892 11.9083 0.0407985 13.7101C-0.0767641 14.2747 0.0640485 14.8545 0.427142 15.301C0.788392 15.7452 1.32411 16 1.89689 16H4.10961C4.4548 16 4.73461 15.7202 4.73461 15.375C4.73461 15.0298 4.4548 14.75 4.10961 14.75ZM5.00024 4.25C5.00024 2.59578 6.34602 1.25 8.00024 1.25C9.65446 1.25 11.0002 2.59578 11.0002 4.25C11.0002 5.85522 9.73292 7.16994 8.1463 7.24641C8.09764 7.24553 8.04899 7.24478 8.00024 7.24478C7.95136 7.24478 7.90252 7.2455 7.85371 7.24638C6.2673 7.16969 5.00024 5.85506 5.00024 4.25Z" fill="white"/>
<path d="M15.5215 10.769C15.254 10.1705 14.6514 9.78279 13.9848 9.78126H12.0315C11.3284 9.78126 10.7149 10.1956 10.4681 10.8377C10.4353 10.9232 10.3951 11.0308 10.3532 11.1563H6.26113C6.09216 11.1563 5.93041 11.2247 5.8127 11.3459L4.73907 12.4518C4.5026 12.6953 4.50379 13.0831 4.74173 13.3252L5.83548 14.4381C5.95298 14.5576 6.1136 14.625 6.28123 14.625H8.31248C8.65766 14.625 8.93748 14.3452 8.93748 14C8.93748 13.6548 8.65766 13.375 8.31248 13.375H6.54329L6.06116 12.8844L6.52545 12.4063H10.822C11.11 12.4063 11.3606 12.2095 11.4291 11.9299C11.4797 11.7234 11.5431 11.5249 11.6349 11.2863C11.6954 11.1289 11.8473 11.0313 12.033 11.0313H13.9833C14.1601 11.0317 14.3122 11.1267 14.3804 11.2791C14.5481 11.6545 14.7485 12.2356 14.75 12.8724C14.7515 13.514 14.5514 14.1084 14.3831 14.4941C14.3153 14.6497 14.1619 14.75 13.9906 14.75H12.0169C11.844 14.7496 11.6821 14.6384 11.6139 14.4732C11.5409 14.296 11.4775 14.0936 11.4203 13.8545C11.3399 13.5189 11.0026 13.3119 10.667 13.3922C10.3313 13.4725 10.1243 13.8098 10.2046 14.1455C10.2772 14.4486 10.3602 14.7117 10.4584 14.9498C10.7209 15.5862 11.3315 15.9984 12.0155 16H13.9921C14.6593 15.9999 15.2623 15.6053 15.529 14.9937C15.745 14.4984 16.002 13.7277 16 12.8695C15.998 12.0136 15.7387 11.2548 15.5215 10.769Z" fill="white"/>
<path d="M13.4687 13.5C13.8139 13.5 14.0937 13.2202 14.0937 12.875C14.0937 12.5298 13.8139 12.25 13.4687 12.25C13.1235 12.25 12.8437 12.5298 12.8437 12.875C12.8437 13.2202 13.1235 13.5 13.4687 13.5Z" fill="white"/>
</svg>
