<svg width="13" height="13" viewBox="0 0 13 13" fill="none" xmlns="http://www.w3.org/2000/svg">
<path d="M12.9987 10.475C12.9806 9.97213 12.7711 9.50286 12.4089 9.15361C11.6997 8.46976 11.1055 8.07498 10.539 7.91126C9.75834 7.68564 9.03522 7.8908 8.38989 8.52105C8.38893 8.52199 8.38796 8.52295 8.387 8.52392L7.70043 9.20535C7.27136 8.96348 6.43702 8.43241 5.5356 7.53099L5.46878 7.46421C4.56721 6.56266 4.03616 5.72817 3.79452 5.29957L4.476 4.61298C4.47697 4.61201 4.47793 4.61105 4.4789 4.61006C5.10912 3.96478 5.31427 3.2417 5.08868 2.46096C4.92494 1.89442 4.53019 1.30022 3.84632 0.591033C3.49709 0.228885 3.02785 0.0194111 2.52499 0.00128214C2.02182 -0.0168722 1.539 0.158273 1.16453 0.494396L1.14996 0.507498C1.14321 0.513566 1.13661 0.519837 1.13016 0.526261C0.384713 1.27171 -0.00604836 2.31529 7.07783e-05 3.54423C0.0105063 5.63191 1.15788 8.01935 3.06926 9.93072C3.42968 10.2911 3.83931 10.6478 4.28674 10.9909C4.50929 11.1615 4.82804 11.1195 4.99869 10.8969C5.16937 10.6743 5.12727 10.3556 4.9047 10.1849C4.49248 9.86884 4.11657 9.5417 3.78741 9.21261C2.06095 7.48615 1.02478 5.36526 1.01567 3.53918C1.01097 2.59271 1.29568 1.80273 1.83911 1.25363L1.843 1.25013C2.2121 0.918802 2.77092 0.938963 3.11527 1.29603C4.42997 2.65947 4.33478 3.30315 3.75384 3.89886L2.81251 4.84726C2.66489 4.996 2.62378 5.22015 2.70902 5.41159C2.73291 5.46527 3.31103 6.74275 4.75081 8.18254L4.81766 8.24929C6.25726 9.68892 7.53476 10.267 7.58844 10.2909C7.77983 10.3762 8.00403 10.3351 8.15274 10.1874L9.10116 9.24608C9.69695 8.66511 10.3406 8.56997 11.704 9.88468C12.061 10.229 12.0812 10.7878 11.75 11.1569L11.7464 11.1609C11.2017 11.6999 10.4202 11.9844 9.48402 11.9844C9.4763 11.9844 9.46858 11.9844 9.46084 11.9843C8.71255 11.9806 7.84605 11.7755 6.95507 11.3911C6.69761 11.28 6.39873 11.3988 6.28767 11.6563C6.17659 11.9138 6.29529 12.2126 6.55283 12.3237C7.58272 12.768 8.5594 12.9955 9.45579 12.9999C9.46531 13 9.47475 13 9.48428 13C10.7008 13 11.7341 12.6095 12.4737 11.8699C12.4802 11.8634 12.4864 11.8568 12.4925 11.8501L12.5057 11.8354C12.8418 11.461 13.0169 10.9778 12.9987 10.475Z" fill="#C7141A"/>
</svg>
