<svg width="13" height="13" viewBox="0 0 13 13" fill="none" xmlns="http://www.w3.org/2000/svg">
<path d="M0 6.22917C0 3.29271 0 1.82448 0.91224 0.91224C1.82448 0 3.29271 0 6.22917 0H6.77083C9.70729 0 11.1755 0 12.0878 0.91224C13 1.82448 13 3.29271 13 6.22917V6.77083C13 9.70729 13 11.1755 12.0878 12.0878C11.1755 13 9.70729 13 6.77083 13H6.22917C3.29271 13 1.82448 13 0.91224 12.0878C0 11.1755 0 9.70729 0 6.77083L0 6.22917Z" fill="#2787F5"/>
<path fill-rule="evenodd" clip-rule="evenodd" d="M3.52102 4.0625H2.57288C2.30199 4.0625 2.2478 4.19001 2.2478 4.33057C2.2478 4.58166 2.56924 5.82692 3.74448 7.47389C4.52798 8.59863 5.63184 9.20833 6.63633 9.20833C7.23902 9.20833 7.31358 9.07292 7.31358 8.83968V7.98958C7.31358 7.71875 7.37067 7.66469 7.5615 7.66469C7.70214 7.66469 7.94321 7.735 8.50573 8.27729C9.14861 8.92 9.25459 9.20833 9.61618 9.20833H10.5643C10.8352 9.20833 10.9707 9.07292 10.8925 8.80569C10.807 8.53935 10.5001 8.1529 10.0928 7.69483C9.87181 7.43372 9.54034 7.15255 9.43989 7.01193C9.29927 6.83117 9.33944 6.75082 9.43989 6.59016C9.43989 6.59016 10.595 4.96326 10.7156 4.41095C10.7759 4.21008 10.7156 4.0625 10.4289 4.0625H9.48073C9.23966 4.0625 9.12851 4.19001 9.06823 4.33057C9.06823 4.33057 8.58609 5.50555 7.90305 6.26879C7.68205 6.48971 7.58159 6.56002 7.46105 6.56002C7.40079 6.56002 7.31355 6.48971 7.31355 6.28889V4.41095C7.31355 4.16991 7.2436 4.0625 7.04266 4.0625H5.55273C5.40209 4.0625 5.31147 4.17435 5.31147 4.28039C5.31147 4.50886 5.65299 4.56156 5.6882 5.20428V6.60021C5.6882 6.90625 5.63289 6.96174 5.51237 6.96174C5.19095 6.96174 4.40908 5.78151 3.94536 4.43102C3.85449 4.16853 3.76333 4.0625 3.52102 4.0625V4.0625Z" fill="white"/>
</svg>
