<svg width="13" height="13" viewBox="0 0 13 13" fill="none" xmlns="http://www.w3.org/2000/svg">
<path d="M6.50162 0H6.49838C2.91444 0 0 2.91525 0 6.5C0 7.92188 0.45825 9.23975 1.23744 10.3098L0.427375 12.7246L2.92581 11.9259C3.95363 12.6068 5.17969 13 6.50162 13C10.0856 13 13 10.0839 13 6.5C13 2.91606 10.0856 0 6.50162 0Z" fill="#4CAF50"/>
<path d="M10.2837 9.17877C10.1269 9.62159 9.50451 9.98884 9.00808 10.0961C8.66845 10.1684 8.22483 10.2261 6.73145 9.60696C4.82126 8.81559 3.59114 6.87452 3.49526 6.74859C3.40345 6.62265 2.72339 5.72077 2.72339 4.78803C2.72339 3.85528 3.19708 3.40109 3.38801 3.20609C3.54483 3.04603 3.80401 2.9729 4.05264 2.9729C4.13308 2.9729 4.20539 2.97696 4.27039 2.98021C4.46133 2.98834 4.5572 2.99971 4.68314 3.30115C4.83995 3.67896 5.22183 4.61171 5.26733 4.70759C5.31364 4.80346 5.35995 4.93346 5.29495 5.0594C5.23401 5.1894 5.18039 5.24709 5.08451 5.35759C4.98864 5.46809 4.89764 5.55259 4.80176 5.67121C4.71401 5.7744 4.61489 5.8849 4.72539 6.07584C4.83589 6.26271 5.21776 6.8859 5.78001 7.3864C6.50558 8.03234 7.09383 8.23871 7.30426 8.32646C7.46108 8.39146 7.64795 8.37602 7.76251 8.25415C7.90795 8.09734 8.08751 7.83734 8.27033 7.5814C8.40033 7.39777 8.56445 7.37502 8.7367 7.44002C8.9122 7.50096 9.84089 7.96002 10.0318 8.05509C10.2228 8.15096 10.3487 8.19646 10.395 8.2769C10.4405 8.35734 10.4405 8.73515 10.2837 9.17877Z" fill="#FAFAFA"/>
</svg>
