<svg width="40" height="40" viewBox="0 0 40 40" fill="none" xmlns="http://www.w3.org/2000/svg">
<path d="M36.1411 16.7495C35.9213 16.5297 35.6232 16.4062 35.3125 16.4062H23.5156V11.7188H35.3125C35.6232 11.7188 35.9213 11.5953 36.1411 11.3755L39.6567 7.85992C40.1143 7.40227 40.1143 6.66031 39.6567 6.20266L36.1411 2.68703C35.9213 2.46719 35.6232 2.34375 35.3125 2.34375H23.314C22.8303 0.979766 21.5277 0 20 0C18.0614 0 16.4843 1.57711 16.4843 3.51562V9.375H4.68746C4.37668 9.375 4.07863 9.49844 3.85887 9.7182L0.343242 13.2338C-0.114414 13.6915 -0.114414 14.4334 0.343242 14.8911L3.85887 18.4067C4.07863 18.6266 4.37668 18.75 4.68746 18.75H16.4843V33.0866C14.1918 33.5538 12.382 35.3638 11.9147 37.6562H10.625C9.97777 37.6562 9.45309 38.1809 9.45309 38.8281C9.45309 39.4753 9.97777 40 10.625 40H29.375C30.0222 40 30.5468 39.4753 30.5468 38.8281C30.5468 38.1809 30.0222 37.6562 29.375 37.6562H28.0852C27.618 35.3638 25.8081 33.5539 23.5156 33.0866V25.7812H35.3125C35.6232 25.7812 35.9213 25.6578 36.1411 25.438L39.6567 21.9224C40.1143 21.4648 40.1143 20.7228 39.6567 20.2652L36.1411 16.7495ZM23.5156 4.6875H34.8271L37.1708 7.03125L34.8271 9.375H23.5156V4.6875ZM18.8281 3.51562C18.8281 2.86945 19.3538 2.34375 20 2.34375C20.6461 2.34375 21.1718 2.86945 21.1718 3.51562V32.9688H18.8281V3.51562ZM5.17285 16.4062L2.8291 14.0625L5.17285 11.7188H16.4843V16.4062H5.17285ZM25.6578 37.6562H14.3421C14.8259 36.2923 16.1285 35.3125 17.6562 35.3125H22.3437C23.8714 35.3125 25.174 36.2923 25.6578 37.6562ZM34.8271 23.4375H23.5156V18.75H34.8271L37.1708 21.0938L34.8271 23.4375Z" fill="#E53935"/>
</svg>
