<svg width="40" height="38" viewBox="0 0 40 38" fill="none" xmlns="http://www.w3.org/2000/svg">
<path d="M36.4844 30.7188C34.9566 30.7188 33.6541 31.6986 33.1703 33.0625H23.3141C22.8303 31.6986 21.5277 30.7188 20 30.7188C18.4723 30.7188 17.1697 31.6986 16.6859 33.0625H14.1406C12.8483 33.0625 11.7969 32.0111 11.7969 30.7188C11.7969 29.4264 12.8483 28.375 14.1406 28.375H25.8594C28.4441 28.375 30.5469 26.2722 30.5469 23.6875C30.5469 21.1028 28.4441 19 25.8594 19H23.3141C22.8303 17.6361 21.5277 16.6562 20 16.6562C18.4723 16.6562 17.1697 17.6361 16.6859 19H10.547L14.7689 13.3713V13.3713C15.84 11.9434 16.4062 10.2425 16.4062 8.45312C16.4062 3.92992 12.7263 0.25 8.20312 0.25C3.67992 0.25 0 3.92992 0 8.45312C0 10.2426 0.566094 11.9431 1.63719 13.371V13.371L7.2518 20.8566C7.43484 21.1089 7.73469 21.2994 8.07812 21.3365C8.11945 21.3409 8.16086 21.3439 8.20219 21.3439L8.20352 21.3438H16.6859C17.1697 22.7077 18.4723 23.6876 20 23.6876C21.5277 23.6876 22.8303 22.7077 23.3141 21.3438H25.8594C27.1517 21.3438 28.2031 22.3952 28.2031 23.6876C28.2031 24.9799 27.1517 26.0313 25.8594 26.0313H14.1406C11.5559 26.0313 9.45312 28.1341 9.45312 30.7188C9.45312 33.3035 11.5559 35.4063 14.1406 35.4063H16.6859C17.1697 36.7702 18.4723 37.7501 20 37.7501C21.5277 37.7501 22.8303 36.7702 23.3141 35.4063H33.1703C33.6541 36.7702 34.9566 37.7501 36.4844 37.7501C38.4229 37.7501 40 36.173 40 34.2345C40 32.2959 38.4229 30.7188 36.4844 30.7188ZM8.20312 18.2188L3.51227 11.9648C2.74789 10.9459 2.34375 9.73141 2.34375 8.45312C2.34375 5.22227 4.97227 2.59375 8.20312 2.59375C11.434 2.59375 14.0625 5.22227 14.0625 8.45312C14.0625 9.73148 13.6584 10.9458 12.8941 11.9648L8.20312 18.2188ZM20 21.3438C19.3538 21.3438 18.8281 20.818 18.8281 20.1719C18.8281 19.5257 19.3538 19 20 19C20.6462 19 21.1719 19.5257 21.1719 20.1719C21.1719 20.818 20.6462 21.3438 20 21.3438ZM20 35.4062C19.3538 35.4062 18.8281 34.8805 18.8281 34.2344C18.8281 33.5882 19.3538 33.0625 20 33.0625C20.6462 33.0625 21.1719 33.5882 21.1719 34.2344C21.1719 34.8805 20.6462 35.4062 20 35.4062ZM36.4844 35.4062C35.8382 35.4062 35.3125 34.8805 35.3125 34.2344C35.3125 33.5882 35.8382 33.0625 36.4844 33.0625C37.1305 33.0625 37.6562 33.5882 37.6562 34.2344C37.6562 34.8805 37.1305 35.4062 36.4844 35.4062Z" fill="#E53935"/>
<path d="M8.20312 4.9375C6.26461 4.9375 4.6875 6.51461 4.6875 8.45312C4.6875 10.3916 6.26461 11.9688 8.20312 11.9688C10.1416 11.9688 11.7188 10.3916 11.7188 8.45312C11.7188 6.51461 10.1416 4.9375 8.20312 4.9375ZM8.20312 9.625C7.55695 9.625 7.03125 9.0993 7.03125 8.45312C7.03125 7.80695 7.55695 7.28125 8.20312 7.28125C8.8493 7.28125 9.375 7.80695 9.375 8.45312C9.375 9.0993 8.8493 9.625 8.20312 9.625Z" fill="#E53935"/>
</svg>
