<svg width="334" height="323" viewBox="0 0 334 323" fill="none" xmlns="http://www.w3.org/2000/svg">
<path d="M158.1 268.19C159.548 268.19 160.937 267.614 161.961 266.59C162.985 265.566 163.56 264.178 163.56 262.73C163.56 261.281 162.985 259.893 161.961 258.869C160.937 257.845 159.548 257.27 158.1 257.27H114.45C113.002 257.27 111.613 257.845 110.589 258.869C109.565 259.893 108.99 261.281 108.99 262.73C108.99 264.178 109.565 265.566 110.589 266.59C111.613 267.614 113.002 268.19 114.45 268.19H158.1Z" fill="#E53935"/>
<path d="M179.92 279.1H92.6301C91.8941 279.068 91.1594 279.186 90.47 279.446C89.7807 279.706 89.1512 280.103 88.6192 280.612C88.0873 281.122 87.664 281.734 87.3748 282.411C87.0856 283.089 86.9365 283.818 86.9365 284.555C86.9365 285.291 87.0856 286.02 87.3748 286.698C87.664 287.376 88.0873 287.988 88.6192 288.497C89.1512 289.007 89.7807 289.404 90.47 289.664C91.1594 289.923 91.8941 290.041 92.6301 290.01H179.92C180.656 290.041 181.391 289.923 182.08 289.664C182.77 289.404 183.399 289.007 183.931 288.497C184.463 287.988 184.886 287.376 185.175 286.698C185.465 286.02 185.614 285.291 185.614 284.555C185.614 283.818 185.465 283.089 185.175 282.411C184.886 281.734 184.463 281.122 183.931 280.612C183.399 280.103 182.77 279.706 182.08 279.446C181.391 279.186 180.656 279.068 179.92 279.1Z" fill="#E53935"/>
<path d="M179.92 235.45H92.6301C91.8941 235.419 91.1594 235.537 90.47 235.796C89.7807 236.056 89.1512 236.453 88.6192 236.963C88.0873 237.472 87.664 238.084 87.3748 238.762C87.0856 239.44 86.9365 240.169 86.9365 240.905C86.9365 241.642 87.0856 242.371 87.3748 243.049C87.664 243.726 88.0873 244.338 88.6192 244.848C89.1512 245.357 89.7807 245.754 90.47 246.014C91.1594 246.274 91.8941 246.392 92.6301 246.36H179.92C180.656 246.392 181.391 246.274 182.08 246.014C182.77 245.754 183.399 245.357 183.931 244.848C184.463 244.338 184.886 243.726 185.175 243.049C185.465 242.371 185.614 241.642 185.614 240.905C185.614 240.169 185.465 239.44 185.175 238.762C184.886 238.084 184.463 237.472 183.931 236.963C183.399 236.453 182.77 236.056 182.08 235.796C181.391 235.537 180.656 235.419 179.92 235.45Z" fill="#E53935"/>
<path d="M218.11 201.44V306.38C218.11 307.826 217.536 309.214 216.514 310.237C215.492 311.261 214.106 311.837 212.66 311.84H27.1599C25.7126 311.837 24.3254 311.261 23.302 310.238C22.2786 309.215 21.7025 307.827 21.6999 306.38V279.1H33.6199C34.9068 282.741 37.4394 285.81 40.7702 287.764C44.101 289.719 48.0154 290.432 51.8216 289.78C55.6278 289.127 59.0806 287.149 61.5698 284.197C64.059 281.244 65.4243 277.507 65.4243 273.645C65.4243 269.783 64.059 266.046 61.5698 263.093C59.0806 260.141 55.6278 258.164 51.8216 257.511C48.0154 256.858 44.101 257.572 40.7702 259.526C37.4394 261.48 34.9068 264.549 33.6199 268.19H21.6999V224.54H33.6199C34.9068 228.181 37.4394 231.25 40.7702 233.204C44.101 235.159 48.0154 235.872 51.8216 235.22C55.6278 234.567 59.0806 232.589 61.5698 229.637C64.059 226.684 65.4243 222.947 65.4243 219.085C65.4243 215.223 64.059 211.486 61.5698 208.533C59.0806 205.581 55.6278 203.604 51.8216 202.951C48.0154 202.298 44.101 203.012 40.7702 204.966C37.4394 206.92 34.9068 209.989 33.6199 213.63H21.6999V170H33.6199C34.9068 173.641 37.4394 176.71 40.7702 178.664C44.101 180.619 48.0154 181.332 51.8216 180.68C55.6278 180.027 59.0806 178.049 61.5698 175.097C64.059 172.144 65.4243 168.407 65.4243 164.545C65.4243 160.683 64.059 156.946 61.5698 153.993C59.0806 151.041 55.6278 149.064 51.8216 148.411C48.0154 147.758 44.101 148.472 40.7702 150.426C37.4394 152.38 34.9068 155.449 33.6199 159.09H21.6999V115.42H33.6199C34.9068 119.061 37.4394 122.13 40.7702 124.084C44.101 126.039 48.0154 126.752 51.8216 126.1C55.6278 125.447 59.0806 123.469 61.5698 120.517C64.059 117.564 65.4243 113.827 65.4243 109.965C65.4243 106.103 64.059 102.366 61.5698 99.4135C59.0806 96.461 55.6278 94.4835 51.8216 93.8307C48.0154 93.1779 44.101 93.8917 40.7702 95.8459C37.4394 97.8002 34.9068 100.869 33.6199 104.51H21.6999V77.2301C21.7025 75.7838 22.279 74.3976 23.3026 73.3758C24.3263 72.354 25.7136 71.7801 27.1599 71.7801H91.0699C92.6731 68.0302 94.5135 64.3861 96.5799 60.8701H27.1599C22.8209 60.8728 18.6601 62.5969 15.591 65.6642C12.5219 68.7314 10.7952 72.8911 10.7899 77.2301V104.51H5.3299C3.92356 104.57 2.5948 105.171 1.62098 106.188C0.647157 107.204 0.103516 108.557 0.103516 109.965C0.103516 111.373 0.647157 112.726 1.62098 113.742C2.5948 114.759 3.92356 115.36 5.3299 115.42H10.7899V159.07H5.3299C3.92356 159.13 2.5948 159.731 1.62098 160.748C0.647157 161.764 0.103516 163.117 0.103516 164.525C0.103516 165.933 0.647157 167.286 1.62098 168.302C2.5948 169.319 3.92356 169.92 5.3299 169.98H10.7899V213.63H5.3299C3.92356 213.69 2.5948 214.291 1.62098 215.308C0.647157 216.324 0.103516 217.677 0.103516 219.085C0.103516 220.493 0.647157 221.846 1.62098 222.862C2.5948 223.879 3.92356 224.48 5.3299 224.54H10.7899V268.19H5.3299C3.92356 268.25 2.5948 268.851 1.62098 269.868C0.647157 270.884 0.103516 272.237 0.103516 273.645C0.103516 275.053 0.647157 276.406 1.62098 277.422C2.5948 278.439 3.92356 279.04 5.3299 279.1H10.7899V306.38C10.7952 310.72 12.5216 314.881 15.5904 317.95C18.6592 321.018 22.8199 322.745 27.1599 322.75H212.66C216.995 322.737 221.148 321.007 224.21 317.939C227.272 314.871 228.995 310.715 229 306.38V196.22C225.484 198.189 221.847 199.933 218.11 201.44ZM48.9999 268.19C50.0802 268.19 51.1362 268.511 52.0344 269.111C52.9325 269.711 53.6323 270.565 54.0452 271.563C54.4582 272.561 54.5657 273.66 54.3542 274.719C54.1428 275.778 53.6217 276.751 52.8572 277.514C52.0926 278.278 51.1187 278.797 50.059 279.006C48.9992 279.216 47.901 279.106 46.9035 278.692C45.906 278.277 45.054 277.575 44.4552 276.676C43.8565 275.777 43.5379 274.72 43.5399 273.64C43.5425 272.194 44.119 270.808 45.1426 269.786C46.1663 268.764 47.5536 268.19 48.9999 268.19ZM48.9999 213.63C50.0798 213.63 51.1354 213.95 52.0333 214.55C52.9312 215.15 53.631 216.003 54.0443 217.001C54.4575 217.998 54.5657 219.096 54.355 220.155C54.1443 221.214 53.6243 222.187 52.8607 222.951C52.0971 223.715 51.1242 224.235 50.0651 224.445C49.006 224.656 47.9081 224.548 46.9105 224.134C45.9128 223.721 45.06 223.021 44.4601 222.124C43.8601 221.226 43.5399 220.17 43.5399 219.09C43.5425 217.643 44.1186 216.256 45.142 215.232C46.1654 214.209 47.5526 213.633 48.9999 213.63ZM48.9999 159.07C50.0798 159.07 51.1354 159.39 52.0333 159.99C52.9312 160.59 53.631 161.443 54.0443 162.441C54.4575 163.438 54.5657 164.536 54.355 165.595C54.1443 166.654 53.6243 167.627 52.8607 168.391C52.0971 169.155 51.1242 169.675 50.0651 169.885C49.006 170.096 47.9081 169.988 46.9105 169.574C45.9128 169.161 45.06 168.461 44.4601 167.564C43.8601 166.666 43.5399 165.61 43.5399 164.53C43.5425 163.083 44.1186 161.696 45.142 160.672C46.1654 159.649 47.5526 159.073 48.9999 159.07ZM48.9999 104.51C50.0798 104.51 51.1354 104.83 52.0333 105.43C52.9312 106.03 53.631 106.883 54.0443 107.881C54.4575 108.878 54.5657 109.976 54.355 111.035C54.1443 112.094 53.6243 113.067 52.8607 113.831C52.0971 114.595 51.1242 115.115 50.0651 115.325C49.006 115.536 47.9081 115.428 46.9105 115.015C45.9128 114.601 45.06 113.901 44.4601 113.004C43.8601 112.106 43.5399 111.05 43.5399 109.97C43.5425 108.523 44.1186 107.136 45.142 106.112C46.1654 105.089 47.5526 104.513 48.9999 104.51Z" fill="#E53935"/>
<path d="M233.83 161.69L210.76 155.93L209 148.78C215.978 141.478 220.632 132.269 222.37 122.32C224.478 121.494 226.325 120.116 227.717 118.33C229.109 116.544 229.994 114.416 230.28 112.17L232 97.93C232.321 95.3752 231.847 92.7835 230.643 90.5075C229.439 88.2315 227.563 86.3818 225.27 85.21L225.82 73.84L228 71.64C231.67 67.74 236.61 59.37 228.59 47.13C222.93 38.4 213.32 34 200.1 34C195.05 34 183.49 34 172.54 41.14C140.9 41.98 136.79 57.74 136.79 71.47C136.79 74.47 137.42 80.56 137.92 84.97C136.332 85.6914 134.917 86.7451 133.77 88.06C132.594 89.3988 131.714 90.9711 131.189 92.6739C130.663 94.3766 130.503 96.1712 130.72 97.94L132.5 112.18C132.806 114.58 133.795 116.841 135.35 118.693C136.905 120.546 138.96 121.913 141.27 122.63C143.006 132.152 147.395 140.991 153.93 148.13L152 155.92L128.93 161.68C127.527 162.03 126.321 162.923 125.576 164.163C124.832 165.402 124.61 166.887 124.96 168.29C125.31 169.693 126.203 170.899 127.443 171.644C128.682 172.389 130.167 172.61 131.57 172.26L157.82 165.7C158.788 165.46 159.671 164.961 160.376 164.256C161.081 163.551 161.58 162.667 161.82 161.7L165.3 147.75C165.536 146.805 165.514 145.815 165.238 144.881C164.962 143.948 164.441 143.105 163.73 142.44C156.765 135.788 152.451 126.833 151.59 117.24C151.479 115.877 150.859 114.605 149.853 113.678C148.847 112.752 147.528 112.238 146.16 112.24H145C144.597 112.241 144.207 112.093 143.905 111.826C143.603 111.559 143.409 111.19 143.36 110.79L141.58 96.56C141.544 96.3272 141.561 96.0891 141.63 95.8638C141.699 95.6385 141.819 95.432 141.98 95.26C142.17 95.04 142.57 94.69 143.98 94.69C144.754 94.692 145.519 94.5289 146.225 94.2115C146.931 93.8941 147.561 93.4299 148.073 92.8497C148.585 92.2695 148.967 91.5867 149.194 90.847C149.421 90.1073 149.488 89.3276 149.39 88.56C148.93 84.95 147.75 74.83 147.75 71.45C147.75 62.91 147.75 52.27 174.37 52C175.487 51.9914 176.576 51.6425 177.49 51C184.99 45.62 193.16 44.9 200.15 44.9C209.59 44.9 215.94 47.58 219.56 53.11C224.07 59.99 221.5 62.71 220.26 64.04L216.7 67.6C215.742 68.5612 215.175 69.8443 215.11 71.2L214.21 89C214.172 89.7321 214.283 90.4643 214.536 91.1524C214.789 91.8405 215.178 92.4703 215.681 93.0039C216.183 93.5374 216.789 93.9636 217.461 94.2569C218.133 94.5501 218.857 94.7042 219.59 94.71C219.824 94.7137 220.054 94.7664 220.266 94.8646C220.477 94.9628 220.666 95.1043 220.82 95.28C220.974 95.4544 221.088 95.6599 221.156 95.8825C221.223 96.1051 221.241 96.3396 221.21 96.57L219.44 110.8C219.357 111.253 219.103 111.657 218.731 111.929C218.359 112.2 217.897 112.319 217.44 112.26C216.071 112.258 214.751 112.771 213.743 113.697C212.735 114.624 212.113 115.896 212 117.26C211.141 127.13 206.605 136.318 199.29 143C198.553 143.665 198.011 144.518 197.72 145.467C197.43 146.416 197.402 147.426 197.64 148.39L201 161.74C201.236 162.709 201.734 163.595 202.439 164.301C203.145 165.006 204.031 165.504 205 165.74L231.24 172.29C231.672 172.4 232.115 172.457 232.56 172.46C233.887 172.45 235.164 171.957 236.154 171.074C237.144 170.191 237.778 168.977 237.939 167.661C238.099 166.344 237.775 165.014 237.026 163.918C236.277 162.823 235.155 162.038 233.87 161.71L233.83 161.69Z" fill="#E53935"/>
<path d="M332.53 253.83L262.16 183.46C281.381 162.252 291.552 134.372 290.503 105.77C289.454 77.1671 277.267 50.1073 256.545 30.3649C235.822 10.6225 208.203 -0.238973 179.584 0.0984533C150.964 0.435879 123.609 11.9454 103.357 32.171C83.1057 52.3965 71.5607 79.7361 71.1862 108.355C70.8116 136.975 81.6373 164.607 101.353 185.356C121.068 206.104 148.112 218.326 176.714 219.412C205.315 220.498 233.208 210.363 254.44 191.17L324.81 261.54C325.846 262.495 327.211 263.012 328.62 262.984C330.029 262.956 331.372 262.384 332.369 261.388C333.366 260.393 333.939 259.05 333.969 257.641C333.999 256.233 333.484 254.867 332.53 253.83ZM181.36 208.58C161.936 208.58 142.948 202.82 126.798 192.028C110.647 181.237 98.0593 165.899 90.626 147.953C83.1927 130.007 81.2478 110.261 85.0373 91.2098C88.8267 72.159 98.1803 54.6596 111.915 40.9247C125.65 27.1898 143.149 17.8362 162.2 14.0467C181.251 10.2573 200.998 12.2022 218.944 19.6354C236.889 27.0687 252.227 39.6566 263.019 55.8071C273.81 71.9577 279.57 90.9455 279.57 110.37C279.541 136.408 269.185 161.371 250.773 179.782C232.361 198.194 207.398 208.551 181.36 208.58Z" fill="#E53935"/>
</svg>
