<svg width="261" height="261" viewBox="0 0 261 261" fill="none" xmlns="http://www.w3.org/2000/svg">
<path d="M136 65.2197C125.472 65.2236 115.08 67.5919 105.59 72.1497C104.288 72.7717 103.286 73.8854 102.805 75.246C102.324 76.6066 102.403 78.1025 103.025 79.4047C103.647 80.7069 104.761 81.7088 106.121 82.1898C107.482 82.6708 108.978 82.5917 110.28 81.9697C118.303 78.1032 127.094 76.0934 136 76.0897C150.339 76.1511 164.181 81.3455 175.021 90.7321C185.86 100.119 192.98 113.077 195.09 127.26C195.277 128.552 195.922 129.735 196.907 130.592C197.893 131.449 199.154 131.924 200.46 131.93C200.721 131.935 200.982 131.915 201.24 131.87C201.947 131.769 202.627 131.53 203.241 131.167C203.855 130.803 204.392 130.322 204.82 129.751C205.248 129.179 205.56 128.529 205.736 127.838C205.913 127.146 205.952 126.426 205.85 125.72C203.344 108.958 194.925 93.6465 182.114 82.5509C169.304 71.4553 152.947 65.3079 136 65.2197Z" fill="#E53935"/>
<path d="M79.0601 49.7501C95.9321 38.5413 115.744 32.5775 136 32.6101C192.94 32.6101 239.27 78.9401 239.23 136.61C239.23 136.71 239.17 137.73 239.17 137.83C239.12 140.77 241.45 142.75 244.4 142.83H244.59C247.45 142.83 249.88 140.18 250.08 137.31C250.08 137.18 250.15 135.99 250.15 135.87C250.154 115.257 244.572 95.0273 233.999 77.3323C223.425 59.6373 208.254 45.1379 190.099 35.3752C171.944 25.6125 151.483 20.9513 130.891 21.8872C110.299 22.823 90.3448 29.3209 73.1501 40.6901C71.9487 41.4858 71.1125 42.7261 70.8256 44.1382C70.5387 45.5504 70.8245 47.0187 71.6201 48.2201C72.4158 49.4215 73.6561 50.2577 75.0683 50.5446C76.4804 50.8316 77.9487 50.5458 79.1501 49.7501H79.0601Z" fill="#E53935"/>
<path d="M238.54 226.68L222.22 222.6L221.54 219.88C225.807 215.103 228.727 209.277 230 203C231.468 202.243 232.73 201.14 233.676 199.786C234.622 198.433 235.224 196.869 235.43 195.23L236.61 185.77C236.789 184.351 236.666 182.911 236.247 181.544C235.828 180.177 235.123 178.914 234.18 177.84C233.59 177.178 232.918 176.593 232.18 176.1L232.45 170.32L233.45 169.32C236.25 166.32 240.04 159.98 234.04 150.8C231.2 146.44 225.33 141.25 213.57 141.25C210.1 141.25 202.28 141.25 194.69 146C172.32 146.79 169.69 158.85 169.69 167.95C169.69 169.74 170.02 173.1 170.32 175.9C168.695 176.936 167.397 178.411 166.576 180.154C165.755 181.897 165.444 183.838 165.68 185.75L166.86 195.21C167.075 196.941 167.742 198.586 168.796 199.976C169.849 201.367 171.251 202.455 172.86 203.13C174.106 209.128 176.859 214.71 180.86 219.35L180.07 222.54L163.75 226.62C157.335 228.219 151.64 231.92 147.573 237.132C143.506 242.345 141.301 248.769 141.31 255.38C141.306 256.094 141.444 256.802 141.715 257.463C141.986 258.124 142.386 258.724 142.89 259.23C143.915 260.245 145.298 260.816 146.74 260.82H255.55C256.992 260.817 258.374 260.243 259.394 259.224C260.413 258.204 260.987 256.822 260.99 255.38C260.987 248.777 258.775 242.365 254.707 237.165C250.639 231.964 244.948 228.273 238.54 226.68ZM153.06 250C154.004 246.888 155.738 244.074 158.094 241.833C160.449 239.591 163.345 237.998 166.5 237.21L186 232.34C186.963 232.108 187.845 231.618 188.55 230.922C189.255 230.226 189.756 229.35 190 228.39L192.32 219.12C192.554 218.178 192.532 217.191 192.256 216.261C191.98 215.331 191.46 214.492 190.75 213.83C186.456 209.722 183.795 204.198 183.26 198.28C183.03 195.46 180.62 193.9 177.78 193.9L176.38 185.25C177.151 185.25 177.913 185.087 178.615 184.77C179.318 184.453 179.945 183.99 180.455 183.412C180.965 182.834 181.346 182.154 181.573 181.418C181.799 180.681 181.867 179.905 181.77 179.14C181.36 175.85 180.7 169.92 180.7 168.01C180.7 162.38 180.7 157.06 196.59 156.9C197.704 156.891 198.79 156.542 199.7 155.9C204.87 152.19 210.83 152.19 213.7 152.19C219.32 152.19 223.04 153.7 225.09 156.82C227.29 160.2 226.39 161.16 225.78 161.82L223.42 164.18C222.468 165.136 221.905 166.412 221.84 167.76L221.26 179.58C221.16 180.225 221.209 180.885 221.404 181.507C221.6 182.13 221.935 182.7 222.386 183.173C222.836 183.645 223.389 184.008 224.002 184.233C224.615 184.458 225.271 184.539 225.92 184.47L225.23 193.31C223.863 193.308 222.546 193.822 221.541 194.749C220.537 195.676 219.918 196.947 219.81 198.31C219.231 204.384 216.433 210.031 211.95 214.17C211.218 214.832 210.679 215.68 210.39 216.623C210.101 217.567 210.074 218.572 210.31 219.53L212.53 228.41C212.765 229.38 213.262 230.266 213.968 230.972C214.674 231.678 215.56 232.175 216.53 232.41L236.01 237.27C239.132 238.072 241.995 239.665 244.322 241.894C246.65 244.124 248.364 246.916 249.3 250H153.06Z" fill="#E53935"/>
<path d="M156.43 198C156.089 196.601 155.207 195.394 153.977 194.644C152.747 193.894 151.27 193.663 149.87 194C110.44 203.33 76.1801 173.38 76.1801 135.91C76.1806 127.01 78.1906 118.225 82.0601 110.21C82.6492 108.914 82.7066 107.439 82.2202 106.101C81.7337 104.763 80.7421 103.669 79.4581 103.054C78.1741 102.438 76.7001 102.351 75.3525 102.81C74.0049 103.27 72.891 104.239 72.2501 105.51C67.6805 114.993 65.3083 125.384 65.3101 135.91C65.3392 154.643 72.7984 172.599 86.0511 185.839C99.3037 199.078 117.267 206.52 136 206.53C141.542 206.499 147.062 205.828 152.45 204.53C153.839 204.185 155.036 203.305 155.781 202.083C156.526 200.86 156.759 199.394 156.43 198Z" fill="#E53935"/>
<path d="M127.11 238.68C74.1701 234.18 32.7001 189.03 32.7001 135.87C32.689 115.639 38.6516 95.8557 49.8401 79.0003C50.5841 77.7977 50.8305 76.3526 50.5272 74.9714C50.2239 73.5902 49.3946 72.3814 48.2152 71.6012C47.0358 70.8209 45.5989 70.5307 44.2091 70.7918C42.8193 71.053 41.5858 71.8451 40.7701 73.0003C28.4022 91.6489 21.8136 113.533 21.8301 135.91C21.8301 194.67 67.6801 244.59 126.2 249.56C126.357 249.571 126.514 249.571 126.67 249.56C128.07 249.554 129.414 249.008 130.422 248.035C131.43 247.063 132.024 245.74 132.08 244.341C132.137 242.941 131.652 241.574 130.726 240.524C129.8 239.473 128.505 238.82 127.11 238.7V238.68Z" fill="#E53935"/>
<path d="M27.2602 54.3496H46.7502L113.31 120.92C110.594 125.013 109.04 129.767 108.815 134.675C108.589 139.582 109.701 144.459 112.03 148.784C114.36 153.109 117.82 156.721 122.041 159.233C126.263 161.746 131.088 163.065 136 163.05C140.243 163.056 144.428 162.069 148.221 160.167C152.014 158.266 155.309 155.503 157.842 152.099C160.376 148.696 162.077 144.747 162.81 140.568C163.544 136.389 163.289 132.096 162.065 128.034C160.842 123.971 158.685 120.251 155.766 117.172C152.848 114.093 149.249 111.739 145.257 110.3C141.266 108.862 136.993 108.377 132.781 108.886C128.569 109.394 124.534 110.882 121 113.23L54.4402 46.6596V27.1696C54.4361 25.7303 53.8648 24.3506 52.8502 23.3296L31.1102 1.58962C30.3488 0.8309 29.3798 0.314732 28.3254 0.106247C27.2709 -0.102237 26.1784 0.00631511 25.1856 0.418198C24.1928 0.830081 23.3442 1.52683 22.7471 2.42052C22.1499 3.31421 21.8308 4.36477 21.8302 5.43962V21.7396H5.52019C4.44534 21.7403 3.39478 22.0593 2.50109 22.6565C1.6074 23.2537 0.910647 24.1022 0.498764 25.095C0.0868815 26.0878 -0.0216709 27.1804 0.186814 28.2348C0.395299 29.2892 0.911474 30.2583 1.67019 31.0196L23.4102 52.7596C24.436 53.773 25.8182 54.3438 27.2602 54.3496ZM121.26 128.9L132.08 139.72C133.109 140.692 134.475 141.225 135.89 141.206C137.305 141.187 138.657 140.618 139.659 139.618C140.661 138.619 141.234 137.268 141.257 135.853C141.279 134.439 140.75 133.07 139.78 132.04L129 121.2C131.181 120.136 133.574 119.579 136 119.57C139.227 119.568 142.382 120.523 145.065 122.314C147.749 124.106 149.841 126.653 151.077 129.633C152.312 132.614 152.636 135.894 152.007 139.059C151.378 142.224 149.825 145.131 147.543 147.413C145.262 149.694 142.354 151.248 139.19 151.877C136.025 152.506 132.745 152.182 129.764 150.946C126.783 149.71 124.236 147.618 122.445 144.935C120.653 142.251 119.698 139.096 119.7 135.87C119.702 133.457 120.246 131.075 121.29 128.9H121.26ZM27.2602 32.6096C28.7022 32.607 30.0843 32.033 31.1039 31.0134C32.1236 29.9937 32.6975 28.6116 32.7002 27.1696V18.5496L43.5702 29.4196V43.4796H29.5102L18.6402 32.6096H27.2602Z" fill="#E53935"/>
</svg>
