<svg width="70" height="70" viewBox="0 0 70 70" fill="none" xmlns="http://www.w3.org/2000/svg">
<path d="M54.5552 36.3562L47.1598 43.749H43.2493C43.5738 42.836 43.7505 41.8542 43.7505 40.8324C43.7505 36.0132 39.8197 32.0824 35.0005 32.0824H20.8901L17.5 30.9534V26.2501C17.5 24.6393 16.1942 23.3335 14.5834 23.3335H2.91662C1.3058 23.3335 0 24.6393 0 26.2501V67.0835C0 68.6943 1.3058 70.0001 2.91662 70.0001H14.5832C16.1941 70.0001 17.4999 68.6943 17.4999 67.0835V64.1657H34.8722C43.1296 64.1657 51.2153 61.8114 58.1844 57.3778L58.6816 56.979L66.93 48.7278C70.338 45.3242 70.338 39.7634 66.9296 36.355C63.5212 32.9465 57.9605 32.9465 54.5552 36.3562ZM11.6666 64.1667H5.83338V29.1667H11.6668V64.1667H11.6666ZM62.8061 44.6019L54.787 52.6237C48.8143 56.3535 41.9155 58.3323 34.8722 58.3323H17.5005V37.1018L19.4957 37.7662C19.7928 37.8652 20.1039 37.9156 20.4172 37.9156H35.0005C36.5981 37.9156 37.9172 39.2348 37.9172 40.8323C37.9172 42.4298 36.598 43.7489 35.0005 43.7489C31.1117 43.7489 31.1117 49.5823 35.0005 49.5823H48.3677C49.1411 49.5823 49.8828 49.2751 50.4297 48.7283L58.6809 40.4799C59.8098 39.3497 61.6749 39.3497 62.8048 40.4795C63.9346 41.6094 63.9347 43.4748 62.8061 44.6019Z" fill="url(#paint0_linear)"/>
<path d="M67.0833 0H43.7499C42.1391 0 40.8333 1.3058 40.8333 2.91662V26.25C40.8333 27.8608 42.1391 29.1666 43.7499 29.1666H67.0833C68.6941 29.1666 69.9999 27.8608 69.9999 26.25V2.91662C69.9999 1.3058 68.6941 0 67.0833 0ZM64.1665 23.3334H46.6665V5.83338H52.4999V11.6668C52.4999 13.2776 53.8057 14.5834 55.4165 14.5834C57.0273 14.5834 58.3331 13.2776 58.3331 11.6668V5.83338H64.1665V23.3334Z" fill="url(#paint1_linear)"/>
<defs>
<linearGradient id="paint0_linear" x1="34.743" y1="23.3335" x2="34.743" y2="70.0001" gradientUnits="userSpaceOnUse">
<stop stop-color="#E53935"/>
<stop offset="1" stop-color="#C7141A"/>
</linearGradient>
<linearGradient id="paint1_linear" x1="55.4166" y1="0" x2="55.4166" y2="29.1666" gradientUnits="userSpaceOnUse">
<stop stop-color="#E53935"/>
<stop offset="1" stop-color="#C7141A"/>
</linearGradient>
</defs>
</svg>
