<svg width="60" height="83" viewBox="0 0 60 83" fill="none" xmlns="http://www.w3.org/2000/svg">
<path d="M26.4697 38.0602C26.7005 38.0609 26.9291 38.0166 27.1423 37.93C27.3556 37.8435 27.5491 37.7163 27.7118 37.5559L41.8292 23.7284C42.1601 23.4043 42.3459 22.9648 42.3459 22.5065C42.3459 22.0481 42.1601 21.6086 41.8292 21.2845C41.4983 20.9604 41.0495 20.7783 40.5816 20.7783C40.1136 20.7783 39.6649 20.9604 39.334 21.2845L26.462 33.8921L20.6531 28.2025C20.3222 27.8784 19.8734 27.6964 19.4055 27.6964C18.9375 27.6964 18.4888 27.8784 18.1579 28.2025C17.827 28.5266 17.6411 28.9662 17.6411 29.4245C17.6411 29.8828 17.827 30.3224 18.1579 30.6465L25.2166 37.5602C25.5504 37.8826 26.0009 38.0623 26.4697 38.0602Z" fill="#144353"/>
<path d="M49.4599 51.7389C54.1289 47.8396 57.4649 42.6318 59.0179 36.8176C60.5708 31.0035 60.2661 24.8627 58.1448 19.2234C56.0235 13.5842 52.1876 8.71773 47.1545 5.28034C42.1214 1.84296 36.1331 0 29.9973 0C23.8614 0 17.8732 1.84296 12.8401 5.28034C7.80694 8.71773 3.97107 13.5842 1.84976 19.2234C-0.271554 24.8627 -0.576272 31.0035 0.9767 36.8176C2.52967 42.6318 5.86564 47.8396 10.5347 51.7389L0.0995733 80.6999C-0.0162721 81.0247 -0.0308469 81.3759 0.0577058 81.7088C0.146259 82.0417 0.33393 82.3413 0.596846 82.5695C0.861583 82.7961 1.18913 82.9404 1.53784 82.9841C1.88655 83.0279 2.24066 82.9691 2.55515 82.8152L15.6637 76.396L23.6047 82.6212C23.8397 82.8036 24.1179 82.9249 24.4135 82.9739C24.7091 83.0229 25.0126 82.9979 25.2957 82.9014C25.5785 82.8043 25.8312 82.6382 26.0301 82.4187C26.229 82.1992 26.3674 81.9336 26.4322 81.6471L28.8713 70.9036L33.668 81.9477C33.7749 82.1931 33.9382 82.4111 34.1452 82.5844C34.3523 82.7579 34.5974 82.882 34.8615 82.9473C35.1256 83.0126 35.4016 83.0173 35.6678 82.9609C35.9341 82.9045 36.1834 82.7886 36.3964 82.6223L44.3375 76.3971L57.4449 82.8163C57.6908 82.9359 57.9614 82.9985 58.2359 82.9994C58.5181 83 58.7963 82.9342 59.0471 82.8074C59.2979 82.6806 59.5138 82.4967 59.6768 82.271C59.8398 82.0454 59.945 81.7847 59.9835 81.5108C60.022 81.237 59.9928 80.9582 59.8983 80.6977L49.4599 51.7389ZM3.5299 29.4179C3.5299 24.2901 5.08235 19.2775 7.99092 15.0139C10.8995 10.7503 15.0336 7.42725 19.8704 5.46493C24.7071 3.50261 30.0294 2.98918 35.1641 3.98956C40.2988 4.98994 45.0153 7.45921 48.7172 11.0851C52.4191 14.711 54.9402 19.3307 55.9615 24.3599C56.9829 29.3892 56.4587 34.6021 54.4552 39.3396C52.4518 44.077 49.059 48.1262 44.706 50.9751C40.3531 53.8239 35.2353 55.3445 30 55.3445C22.982 55.3373 16.2534 52.6035 11.2909 47.7429C6.32833 42.8823 3.53718 36.2919 3.5299 29.4179ZM23.597 78.1902L16.9828 73.0081C16.7191 72.8026 16.4011 72.6748 16.0659 72.6399C15.7308 72.605 15.3925 72.6643 15.0905 72.8109L4.87982 77.8098L13.4887 53.9231C16.4744 55.8566 19.7911 57.2477 23.2802 58.0298L26.4949 65.4306L23.597 78.1902ZM44.903 72.8109C44.6011 72.6645 44.263 72.6053 43.9281 72.6402C43.5932 72.6752 43.2753 72.8028 43.0118 73.0081L36.0059 78.5038L27.3871 58.6763C28.2486 58.7485 29.1166 58.8046 29.9989 58.8046C35.8724 58.8083 41.6161 57.1127 46.5092 53.9307L55.1136 77.8141L44.903 72.8109Z" fill="#144353"/>
<path d="M29.9988 48.4309C33.838 48.4309 37.5911 47.3158 40.7832 45.2266C43.9754 43.1375 46.4634 40.1681 47.9327 36.694C49.4019 33.2198 49.7863 29.397 49.0373 25.7089C48.2883 22.0207 46.4395 18.633 43.7248 15.974C41.01 13.315 37.5513 11.5042 33.7858 10.7706C30.0204 10.037 26.1174 10.4135 22.5704 11.8525C19.0234 13.2916 15.9918 15.7285 13.8588 18.8551C11.7259 21.9818 10.5874 25.6577 10.5874 29.4181C10.5935 34.4587 12.6406 39.2912 16.2796 42.8555C19.9187 46.4198 24.8525 48.4249 29.9988 48.4309ZM29.9988 13.8632C33.14 13.8632 36.2106 14.7756 38.8224 16.4849C41.4342 18.1942 43.4699 20.6237 44.672 23.4662C45.874 26.3086 46.1885 29.4364 45.5757 32.454C44.9629 35.4715 43.4503 38.2433 41.2292 40.4189C39.008 42.5944 36.1781 44.0759 33.0973 44.6762C30.0165 45.2764 26.8231 44.9683 23.921 43.7909C21.019 42.6136 18.5385 40.6197 16.7934 38.0616C15.0482 35.5034 14.1168 32.4958 14.1168 29.4192C14.1217 25.295 15.7966 21.3411 18.774 18.4248C21.7514 15.5086 25.7882 13.8681 29.9988 13.8632Z" fill="#144353"/>
</svg>
