<svg width="50" height="50" viewBox="0 0 50 50" fill="none" xmlns="http://www.w3.org/2000/svg">
<path d="M42.5983 7.31366C39.6433 4.35666 35.9927 2.18955 31.9817 1.01138C27.9708 -0.166795 23.7281 -0.318264 19.6433 0.570885C15.5585 1.46003 11.7627 3.3613 8.60432 6.10004C5.44598 8.83879 3.02641 12.3272 1.56787 16.2449C0.10932 20.1627 -0.341457 24.3841 0.256941 28.5214C0.855338 32.6588 2.48372 36.5795 4.99254 39.9234C7.50135 43.2673 10.8102 45.9272 14.6151 47.6588C18.42 49.3905 22.599 50.1383 26.7683 49.8337H49.9583V24.9537C49.9549 21.6733 49.303 18.4261 48.0398 15.3987C46.7767 12.3713 44.9274 9.62359 42.5983 7.31366V7.31366Z" fill="#FF0000"/>
<path d="M24.9631 37.9541C21.046 37.9541 20.5726 37.9541 19.0224 37.8613C17.9857 37.8479 16.9589 37.6565 15.9871 37.2955C15.221 37.0062 14.5273 36.5536 13.9542 35.9691C13.3619 35.4007 12.9051 34.7064 12.6175 33.9377C12.2535 32.9737 12.0619 31.9533 12.0513 30.9231C11.9771 29.3647 11.9585 28.9009 11.9585 24.9866C11.9585 21.0722 11.9585 20.5991 12.0513 19.0408C12.0648 18.0048 12.2563 16.9788 12.6175 16.0076C12.907 15.2421 13.36 14.5489 13.9449 13.9762C14.5173 13.371 15.2184 12.9019 15.9963 12.6034C16.9623 12.2444 17.9826 12.053 19.0131 12.0376C20.5726 11.9634 21.0367 11.9541 24.9539 11.9541C28.871 11.9541 29.3351 11.9541 30.9039 12.0376C31.9402 12.0555 32.9661 12.2468 33.9392 12.6034C34.7052 12.8927 35.399 13.3453 35.9721 13.9298C36.5563 14.5067 37.009 15.2028 37.2994 15.9705C37.6645 16.9374 37.8562 17.961 37.8657 18.9944C37.9585 20.5806 37.9585 21.0444 37.9585 24.968C37.9585 28.8917 37.9585 29.3462 37.875 30.9045C37.854 31.9406 37.6595 32.9659 37.2994 33.9377C37.0042 34.7004 36.5528 35.393 35.9742 35.9712C35.3955 36.5494 34.7024 37.0005 33.9392 37.2955C32.9673 37.6565 31.9406 37.8479 30.9039 37.8613C29.3444 37.9355 28.8803 37.9541 24.9631 37.9541Z" fill="white"/>
<path d="M24.9585 31.9541C23.574 31.9541 22.2207 31.5436 21.0695 30.7744C19.9184 30.0052 19.0212 28.912 18.4913 27.6329C17.9615 26.3538 17.8229 24.9463 18.093 23.5885C18.3631 22.2306 19.0298 20.9833 20.0088 20.0044C20.9877 19.0254 22.235 18.3587 23.5929 18.0886C24.9507 17.8185 26.3582 17.9571 27.6373 18.4869C28.9164 19.0168 30.0096 19.914 30.7788 21.0651C31.548 22.2163 31.9585 23.5696 31.9585 24.9541C31.9556 26.8097 31.2172 28.5886 29.9051 29.9007C28.593 31.2128 26.8141 31.9513 24.9585 31.9541V31.9541ZM24.9585 19.9356C23.9659 19.9356 22.9957 20.23 22.1704 20.7814C21.3451 21.3328 20.7019 22.1166 20.322 23.0336C19.9422 23.9506 19.8428 24.9597 20.0365 25.9332C20.2301 26.9066 20.7081 27.8008 21.4099 28.5027C22.1118 29.2045 23.006 29.6825 23.9794 29.8761C24.9529 30.0698 25.962 29.9704 26.879 29.5906C27.796 29.2107 28.5798 28.5675 29.1312 27.7422C29.6826 26.9169 29.977 25.9467 29.977 24.9541C29.977 23.6231 29.4482 22.3467 28.5071 21.4055C27.5659 20.4644 26.2895 19.9356 24.9585 19.9356V19.9356Z" fill="#FF0000"/>
<path d="M33.4671 17.9541C33.1701 17.9558 32.8792 17.8693 32.6314 17.7055C32.3836 17.5417 32.19 17.308 32.0752 17.0341C31.9603 16.7602 31.9294 16.4583 31.9863 16.1668C32.0432 15.8752 32.1854 15.6071 32.3948 15.3965C32.6042 15.1859 32.8715 15.0421 33.1627 14.9836C33.4539 14.925 33.7559 14.9542 34.0305 15.0675C34.3051 15.1807 34.5399 15.373 34.7051 15.6198C34.8703 15.8667 34.9585 16.157 34.9585 16.4541C34.9585 16.8504 34.8017 17.2306 34.5222 17.5117C34.2428 17.7928 33.8634 17.9518 33.4671 17.9541V17.9541Z" fill="#FF0000"/>
</svg>
