<svg id="Capa_1" enable-background="new 0 0 512 512" height="512" viewBox="0 0 512 512" width="512" xmlns="http://www.w3.org/2000/svg"><g><path d="m445.315 0h-328.065c-2.845 0-5.151 2.306-5.151 5.151v432.867l1.367 1h69.726c5.137 0 9.302 4.165 9.302 9.302v21.524h8.848c5.137 0 9.302 4.165 9.302 9.302v31.854l1 1h233.671c2.844 0 5.15-2.306 5.15-5.15v-501.7c0-2.844-2.306-5.15-5.15-5.15z" fill="#fff3de"/><g fill="#ffe5c2"><path d="m145.882 147.963c.308 0 .613.012.919.023v-142.835c0-2.845 2.306-5.151 5.151-5.151h-34.702c-2.845 0-5.151 2.306-5.151 5.151v142.812z"/><path d="m145.882 395.743h-33.783v42.275h34.702v-42.298c-.306.011-.611.023-.919.023z"/></g><g><g fill="#883f2e"><path d="m155.378 254.239h49.686v35.229h-49.686z"/><path d="m235.944 254.239h70.109v35.229h-70.109z"/></g><g fill="#6d3326"><path d="m155.378 272.483h49.686v16.985h-49.686z"/><path d="m235.944 272.483h70.109v16.985h-70.109z"/></g><g><path d="m496.467 271.853c0 14.268-11.567 25.835-25.835 25.835h-159.706c-3.243 0-5.872-2.629-5.872-5.872v-39.926c0-3.243 2.629-5.872 5.872-5.872h159.706c14.268 0 25.835 11.567 25.835 25.835z" fill="#ca6e59"/></g><g><path d="m340.165 275.573c-3.243 0-5.871-2.629-5.871-5.872v-23.684h-23.368c-3.243 0-5.872 2.629-5.872 5.872v39.927c0 3.243 2.629 5.872 5.872 5.872h159.706c13.004 0 23.76-9.61 25.564-22.115z" fill="#bb5d4c"/></g><g><path d="m236.944 251.169v41.368c0 2.845-2.306 5.151-5.151 5.151h-22.579c-2.845 0-5.151-2.306-5.151-5.151v-41.368c0-2.845 2.306-5.151 5.151-5.151h22.579c2.845 0 5.151 2.306 5.151 5.151z" fill="#ca6e59"/></g><g><path d="m218.998 292.537v-41.368c0-2.845 2.306-5.151 5.151-5.151h-14.935c-2.845 0-5.151 2.306-5.151 5.151v41.368c0 2.845 2.306 5.151 5.151 5.151h14.935c-2.844 0-5.151-2.306-5.151-5.151z" fill="#bb5d4c"/></g><g><path d="m146.076 313.128h-64.975c-.535 0-1.057-.055-1.567-.143v33.333c.583-.042 1.169-.071 1.762-.071h64.587c.593 0 1.179.029 1.761.071v-33.333c-.511.088-1.033.143-1.568.143z" fill="#883f2e"/><path d="m81.101 313.128c-.535 0-1.057-.055-1.567-.143v33.333c.583-.042 1.169-.071 1.762-.071h24.18v-33.119z" fill="#6d3326"/><path d="m81.101 230.578h64.976c.535 0 1.057.055 1.567.143v-33.333c-.583.042-1.168.071-1.761.071h-64.588c-.593 0-1.179-.029-1.762-.071v33.333c.511-.087 1.032-.143 1.568-.143z" fill="#883f2e"/><path d="m81.101 230.578h24.375v-33.12h-24.18c-.593 0-1.179-.029-1.762-.071v33.333c.51-.086 1.031-.142 1.567-.142z" fill="#6d3326"/></g><g><path d="m156.378 239.88v63.947c0 5.69-4.612 10.302-10.302 10.302h-64.975c-5.69 0-10.302-4.612-10.302-10.302v-63.947c0-5.69 4.612-10.302 10.302-10.302h64.975c5.689 0 10.302 4.612 10.302 10.302z" fill="#ca6e59"/></g><g><path d="m105.594 303.827v-63.947c0-5.69 4.612-10.302 10.302-10.302h-34.795c-5.69 0-10.302 4.612-10.302 10.302v63.947c0 5.69 4.612 10.302 10.302 10.302h34.795c-5.69-.001-10.302-4.613-10.302-10.302z" fill="#bb5d4c"/></g><path d="m193.494 469.844v-21.524c0-5.69-4.612-10.302-10.302-10.302h-139.208c-5.69 0-10.302 4.612-10.302 10.302v21.524z" fill="#ca6e59"/><path d="m68.559 469.844c-.033-.338-.052-.68-.052-1.027v-20.497c0-5.69 4.612-10.302 10.302-10.302h-34.825c-5.69 0-10.302 4.612-10.302 10.302v21.524z" fill="#bb5d4c"/><g><path d="m211.643 512h-190.959c-2.845 0-5.151-2.306-5.151-5.151v-27.703c0-5.69 4.612-10.302 10.302-10.302h175.506c5.69 0 10.302 4.612 10.302 10.302z" fill="#883f2e"/></g><g><path d="m49.964 506.849v-27.703c0-5.69 4.612-10.302 10.302-10.302h-34.431c-5.69 0-10.302 4.612-10.302 10.302v27.703c0 2.845 2.306 5.151 5.151 5.151h34.431c-2.845 0-5.151-2.306-5.151-5.151z" fill="#6d3326"/></g><g><g><path d="m171.13 370.495c0 13.944-11.304 25.248-25.248 25.248h-64.587c-13.944 0-25.248-11.304-25.248-25.248 0-13.944 11.304-25.248 25.248-25.248h64.587c13.944.001 25.248 11.304 25.248 25.248z" fill="#ca6e59"/></g><g><path d="m90.439 370.495c0-13.944 11.304-25.248 25.248-25.248h-34.392c-13.944 0-25.248 11.304-25.248 25.248s11.304 25.248 25.248 25.248h34.392c-13.945 0-25.248-11.304-25.248-25.248z" fill="#bb5d4c"/></g><g><path d="m171.13 173.211c0 13.944-11.304 25.248-25.248 25.248h-64.587c-13.944 0-25.248-11.304-25.248-25.248 0-13.944 11.304-25.248 25.248-25.248h64.587c13.944 0 25.248 11.304 25.248 25.248z" fill="#ca6e59"/></g><g><path d="m90.439 173.211c0-13.944 11.304-25.248 25.248-25.248h-34.392c-13.944 0-25.248 11.304-25.248 25.248 0 13.944 11.304 25.248 25.248 25.248h34.392c-13.945 0-25.248-11.304-25.248-25.248z" fill="#bb5d4c"/></g></g></g><g><g><circle cx="281.282" cy="120.3" fill="#4fc123" r="72.287"/></g><g><path d="m243.638 120.3c0-33.95 23.41-62.42 54.966-70.183-5.551-1.366-11.349-2.104-17.322-2.104-39.923 0-72.287 32.364-72.287 72.287s32.364 72.287 72.287 72.287c5.973 0 11.77-.738 17.322-2.104-31.556-7.763-54.966-36.232-54.966-70.183z" fill="#47a920"/></g><g><path d="m281.281 200.087c-43.994 0-79.786-35.792-79.786-79.787s35.792-79.787 79.786-79.787c43.995 0 79.787 35.792 79.787 79.787s-35.792 79.787-79.787 79.787zm0-144.574c-35.724 0-64.786 29.063-64.786 64.787s29.063 64.787 64.786 64.787 64.787-29.063 64.787-64.787-29.063-64.787-64.787-64.787z" fill="#68ca44"/></g><g><path d="m277.544 148.55c-1.92 0-3.839-.732-5.304-2.197l-23.766-23.766c-2.929-2.929-2.929-7.678 0-10.606 2.93-2.929 7.678-2.929 10.607 0l18.462 18.462 31.534-31.534c2.931-2.93 7.679-2.929 10.607 0 2.929 2.929 2.929 7.678 0 10.606l-36.838 36.837c-1.463 1.466-3.383 2.198-5.302 2.198z" fill="#fff"/></g></g><g><g><path d="m393.127 344.44h-142.092c-4.143 0-7.5-3.358-7.5-7.5s3.357-7.5 7.5-7.5h142.092c4.143 0 7.5 3.358 7.5 7.5s-3.357 7.5-7.5 7.5z" fill="#f6a96c"/></g><g><path d="m393.127 382.018h-73.256c-4.143 0-7.5-3.358-7.5-7.5s3.357-7.5 7.5-7.5h73.256c4.143 0 7.5 3.358 7.5 7.5s-3.357 7.5-7.5 7.5z" fill="#f6a96c"/></g><g><path d="m293.087 382.018h-42.052c-4.143 0-7.5-3.358-7.5-7.5s3.357-7.5 7.5-7.5h42.052c4.143 0 7.5 3.358 7.5 7.5s-3.358 7.5-7.5 7.5z" fill="#f6a96c"/></g><g><path d="m393.127 419.596h-142.092c-4.143 0-7.5-3.358-7.5-7.5s3.357-7.5 7.5-7.5h142.092c4.143 0 7.5 3.358 7.5 7.5s-3.357 7.5-7.5 7.5z" fill="#f6a96c"/></g><g><path d="m393.127 457.174h-37.199c-4.143 0-7.5-3.358-7.5-7.5s3.357-7.5 7.5-7.5h37.199c4.143 0 7.5 3.358 7.5 7.5s-3.357 7.5-7.5 7.5z" fill="#f6a96c"/></g><g><path d="m332.233 457.174h-81.198c-4.143 0-7.5-3.358-7.5-7.5s3.357-7.5 7.5-7.5h81.198c4.143 0 7.5 3.358 7.5 7.5s-3.357 7.5-7.5 7.5z" fill="#f6a96c"/></g></g></g></svg>