<svg width="70" height="70" viewBox="0 0 70 70" fill="none" xmlns="http://www.w3.org/2000/svg">
<path d="M67.0834 17.5H58.3334V11.6666C58.3334 10.0558 57.0276 8.75 55.4168 8.75H52.5V2.91662C52.5 1.3058 51.1942 0 49.5834 0H20.4166C18.8058 0 17.5 1.3058 17.5 2.91662V8.75H14.5834C12.9726 8.75 11.6668 10.0558 11.6668 11.6666V17.5H2.91676C1.3058 17.5 0 18.8058 0 20.4166V67.0832C0 68.6942 1.3058 70 2.91662 70H55.4166C55.9437 70 56.4056 69.8791 56.799 69.6746C57.2513 69.4989 57.4865 69.4068 57.7456 69.3025C59.3603 68.6521 60.518 68.0489 61.6453 67.1613C66.646 63.232 70 55.7793 70 48.9796V39.0221V20.4166C70 18.8058 68.6942 17.5 67.0834 17.5ZM52.5 14.5834V17.5H46.6666V14.5834H52.5ZM23.3334 5.83338H46.6668V8.75H43.75C42.1392 8.75 40.8334 10.0558 40.8334 11.6666V17.5H29.1668V11.6666C29.1666 10.0558 27.8608 8.75 26.25 8.75H23.3334V5.83338ZM17.5 14.5834H23.3334V17.5H17.5V14.5834ZM5.83338 64.1666V23.3334H14.5834H26.25H43.75H55.4166H64.1666V35.5235C64.1482 35.519 64.1296 35.5146 64.1111 35.5101C63.9524 35.4713 63.7945 35.4318 63.6382 35.3909C63.6279 35.3881 63.6178 35.3853 63.6074 35.3827C63.4599 35.3438 63.3138 35.3039 63.1686 35.2632C63.1282 35.2518 63.0879 35.2405 63.0477 35.229C62.9017 35.1874 62.7566 35.1452 62.6131 35.1019C62.6047 35.0994 62.5963 35.0969 62.5879 35.0945C62.4373 35.0488 62.2885 35.0018 62.1406 34.9542C62.102 34.9418 62.0636 34.9293 62.0252 34.9167C61.896 34.8745 61.7678 34.8316 61.6407 34.7879C61.6206 34.7811 61.6003 34.7743 61.5803 34.7674C61.4372 34.7178 61.2958 34.6671 61.1557 34.6158C61.12 34.6027 61.0846 34.5894 61.049 34.5763C60.9313 34.5326 60.8146 34.4883 60.6992 34.4434C60.673 34.4333 60.6467 34.4233 60.6207 34.4131C60.4851 34.3597 60.3512 34.3057 60.219 34.2509C60.1873 34.2378 60.1561 34.2245 60.1247 34.2114C60.0152 34.1655 59.9069 34.1191 59.7998 34.0722C59.771 34.0597 59.7419 34.0471 59.7133 34.0344C59.5856 33.9778 59.4595 33.9205 59.3355 33.8626C59.3093 33.8505 59.2836 33.838 59.2576 33.8257C59.1541 33.7769 59.052 33.7276 58.9511 33.6778C58.9218 33.6633 58.8923 33.6489 58.8632 33.6345C58.7438 33.5748 58.626 33.5147 58.5106 33.454C58.4909 33.4436 58.4716 33.4331 58.4521 33.4227C58.3533 33.3702 58.2563 33.3174 58.1606 33.2642C58.1317 33.2482 58.1029 33.2322 58.0743 33.2161C57.9638 33.1537 57.855 33.0911 57.7488 33.028C57.7373 33.0211 57.7263 33.0143 57.715 33.0075C57.619 32.9499 57.5251 32.8919 57.4327 32.8337C57.4057 32.8167 57.3789 32.7998 57.3524 32.7827C57.2513 32.7179 57.1516 32.653 57.0551 32.5873C56.066 31.9158 54.7672 31.9158 53.7782 32.5873C52.2618 33.617 49.4785 34.2461 43.381 35.0238C41.9247 35.2095 40.8332 36.4488 40.8332 37.917V49.5837C40.8332 49.7738 40.8367 49.9641 40.842 50.1545C40.8436 50.2128 40.8461 50.2712 40.8483 50.3295C40.8532 50.4649 40.8592 50.6004 40.8667 50.7361C40.8703 50.7996 40.8738 50.8632 40.878 50.9268C40.8872 51.0705 40.8982 51.214 40.9104 51.3576C40.9145 51.406 40.9179 51.4544 40.9222 51.5028C40.9396 51.6925 40.9593 51.882 40.9817 52.0717C40.9866 52.1129 40.9924 52.1541 40.9976 52.1954C41.0162 52.3454 41.036 52.4954 41.0576 52.6451C41.0666 52.7075 41.0762 52.77 41.0858 52.8325C41.1063 52.9663 41.128 53.1002 41.151 53.2338C41.1614 53.2939 41.1713 53.3542 41.1821 53.4144C41.2122 53.5817 41.2441 53.7488 41.278 53.9156C41.2825 53.9376 41.2863 53.9596 41.2908 53.9815C41.3297 54.1696 41.3712 54.3573 41.4147 54.5445C41.4274 54.5989 41.4408 54.6532 41.4539 54.7076C41.4865 54.8432 41.5201 54.9787 41.5551 55.1138C41.5713 55.1761 41.5877 55.2383 41.6042 55.3007C41.6407 55.4373 41.6787 55.5734 41.7178 55.7095C41.7326 55.7612 41.7469 55.813 41.7621 55.8645C41.8164 56.0489 41.8727 56.233 41.9315 56.4162C41.9412 56.4464 41.9516 56.4763 41.9614 56.5065C42.0115 56.6604 42.063 56.8138 42.1162 56.9665C42.1367 57.0255 42.1579 57.0843 42.179 57.1432C42.2246 57.2712 42.2714 57.3988 42.3192 57.5261C42.3414 57.585 42.3634 57.6438 42.386 57.7026C42.4426 57.8497 42.5008 57.9961 42.5603 58.1421C42.5738 58.1755 42.5868 58.2091 42.6006 58.2423C42.674 58.4201 42.7498 58.5967 42.8273 58.7725C42.8482 58.8201 42.8701 58.8671 42.8913 58.9144C42.9498 59.0446 43.0091 59.1743 43.0698 59.3033C43.0973 59.3616 43.1251 59.4199 43.1531 59.4781C43.2128 59.6025 43.2738 59.7263 43.3357 59.8496C43.3614 59.9007 43.3867 59.9521 43.4128 60.0031C43.5002 60.174 43.5891 60.344 43.6803 60.5124C43.6878 60.5263 43.6957 60.54 43.7034 60.554C43.7876 60.7087 43.8737 60.8623 43.9614 61.0148C43.9913 61.0671 44.0219 61.1189 44.0523 61.1708C44.1206 61.2877 44.1898 61.4041 44.2601 61.5196C44.293 61.5737 44.326 61.6279 44.3594 61.6818C44.4374 61.8079 44.5169 61.933 44.5972 62.0575C44.6209 62.0941 44.6441 62.1313 44.6681 62.1678C44.7721 62.3269 44.8781 62.4846 44.9858 62.6406C45.0118 62.6783 45.0386 62.7154 45.0648 62.753C45.1482 62.8723 45.2326 62.9908 45.3182 63.1083C45.3552 63.1591 45.3925 63.2096 45.43 63.2602C45.51 63.3682 45.5911 63.4752 45.6728 63.5815C45.7088 63.6282 45.7445 63.6751 45.7807 63.7215C45.8914 63.8628 46.0033 64.003 46.1171 64.1412C46.123 64.1484 46.1288 64.1558 46.1348 64.1629C46.1357 64.1642 46.1367 64.1654 46.1378 64.1666H5.83338ZM64.1666 48.9796C64.1666 54.0488 61.5815 59.7927 58.0392 62.5763C57.4294 63.0563 56.7123 63.43 55.5663 63.8915C55.5162 63.9118 55.4672 63.9313 55.4165 63.9516C55.4117 63.9496 55.4069 63.9477 55.4021 63.9458C55.3536 63.9265 55.3062 63.9075 55.258 63.8881C54.1163 63.4282 53.4015 63.0555 52.7985 62.5797C49.1407 59.7056 46.6665 54.5025 46.6665 49.5834V40.4678C50.7862 39.8795 53.3586 39.3021 55.352 38.3764C55.5256 38.4725 55.7033 38.5671 55.8832 38.6606C55.9392 38.6898 55.9963 38.7183 56.0528 38.7472C56.1802 38.8123 56.3088 38.8768 56.4393 38.9405C56.5041 38.9722 56.5693 39.0037 56.6348 39.0351C56.7664 39.0981 56.8996 39.1602 57.034 39.2219C57.0939 39.2494 57.1532 39.2771 57.2138 39.3043C57.4064 39.391 57.6011 39.4764 57.7991 39.5601C57.8004 39.5607 57.8018 39.5612 57.8032 39.5619C58.0017 39.6457 58.2035 39.7276 58.4071 39.8083C58.4706 39.8334 58.5353 39.858 58.5993 39.8829C58.7431 39.9388 58.888 39.9941 59.0343 40.0483C59.1076 40.0755 59.1812 40.1025 59.2551 40.1293C59.4022 40.1826 59.5507 40.235 59.7002 40.2866C59.7673 40.3099 59.8339 40.3334 59.9014 40.3562C60.1163 40.429 60.3329 40.5005 60.5522 40.5695C60.5525 40.5696 60.5529 40.5698 60.5531 40.5698C60.7727 40.639 60.9949 40.7058 61.2184 40.7713C61.2879 40.7917 61.3581 40.8112 61.4281 40.8312C61.5858 40.8762 61.744 40.9205 61.9035 40.9635C61.9831 40.985 62.0628 41.0063 62.1428 41.0272C62.3027 41.0692 62.4638 41.1101 62.6254 41.1502C62.698 41.1682 62.7703 41.1865 62.8433 41.2042C63.0746 41.2599 63.3071 41.3141 63.5415 41.3656C63.5425 41.3659 63.5436 41.366 63.5445 41.3663C63.7507 41.4116 63.9581 41.4552 64.1666 41.4972V48.9796Z" fill="url(#paint0_linear)"/>
<defs>
<linearGradient id="paint0_linear" x1="35" y1="0" x2="35" y2="70" gradientUnits="userSpaceOnUse">
<stop stop-color="#E53935"/>
<stop offset="1" stop-color="#C7141A"/>
</linearGradient>
</defs>
</svg>
