<svg id="Слой_1" data-name="Слой 1" xmlns="http://www.w3.org/2000/svg" viewBox="0 0 50 50"><defs><style>.cls-1{fill:red;}.cls-2{fill:#fff;}</style></defs><path class="cls-1" d="M42.64,7.36A24.95,24.95,0,1,0,26.81,49.88H50V25A24.88,24.88,0,0,0,42.64,7.36Z"/><path class="cls-2" d="M14.82,15.9Zm21.54,0h0Z"/><path class="cls-2" d="M40.1,15.71l-.05-.07a6.15,6.15,0,0,0-.83-.86L39,14.64a3.79,3.79,0,0,0-.35-.25l-.23-.14-.4-.22-.42-.18-.29-.1-.14,0-.15,0-.15,0a4.77,4.77,0,0,0-.66-.1H15a5,5,0,0,0-.66.1l-.15,0-.14,0-.15,0-.14.05-.14,0-.42.18L13,14.1l-.26.14h0l-.19.11-.1.07-.28.21-.19.14a6.86,6.86,0,0,0-.83.87l-.05.06a6.71,6.71,0,0,0-1.33,4.05V30.82a6.58,6.58,0,0,0,1.69,4.47h0c.12.13.24.25.37.37a5.2,5.2,0,0,0,3.51,1.39h20.5a5.2,5.2,0,0,0,3.5-1.39c.13-.12.26-.24.38-.37h0a6.54,6.54,0,0,0,1.7-4.47V19.76A6.72,6.72,0,0,0,40.1,15.71Zm-25.25.19a.51.51,0,0,1,.17,0h0l.17,0H36l.16,0h0a.45.45,0,0,1,.16,0h0L25.61,26,14.82,15.9h0ZM12.1,30.82V19.76a4.46,4.46,0,0,1,.76-2.52l8.33,7.82L12.63,33A4.37,4.37,0,0,1,12.1,30.82Zm23.76,3.92H15.36a2.74,2.74,0,0,1-1-.2l8.55-7.88,2.73,2.55,2.72-2.55,8.55,7.88A2.73,2.73,0,0,1,35.86,34.74Zm3.26-3.92A4.55,4.55,0,0,1,38.59,33L30,25.06l8.33-7.82a4.39,4.39,0,0,1,.77,2.52Z"/><path class="cls-2" d="M11.85,35.67a.91.91,0,0,1-.24-.2,1.09,1.09,0,0,1-.13-.17C11.6,35.43,11.72,35.55,11.85,35.67Z"/><path class="cls-2" d="M39.74,35.3l-.13.17a1.16,1.16,0,0,1-.25.2C39.49,35.55,39.62,35.43,39.74,35.3Z"/></svg>