<svg width="16" height="12" viewBox="0 0 16 12" fill="none" xmlns="http://www.w3.org/2000/svg">
<path d="M15.375 7.08951C15.7202 7.08951 16 6.81471 16 6.4757V2.45524C16 1.10142 14.8785 0 13.5 0H2.5C1.1215 0 0 1.10142 0 2.45524V9.54476C0 10.8986 1.1215 12 2.5 12H13.5C14.8785 12 16 10.8986 16 9.54476C16 9.20575 15.7202 8.93095 15.375 8.93095C15.0298 8.93095 14.75 9.20575 14.75 9.54476C14.75 10.2217 14.1892 10.7724 13.5 10.7724H2.5C1.81075 10.7724 1.25 10.2217 1.25 9.54476V2.58531L6.67984 5.90127C7.087 6.14989 7.5435 6.27422 8 6.27422C8.4565 6.27422 8.913 6.14989 9.32016 5.90127L14.75 2.58531V6.4757C14.75 6.81471 15.0298 7.08951 15.375 7.08951ZM8.66006 4.85874C8.25294 5.10737 7.74706 5.1074 7.33994 4.85874L1.77153 1.45817C1.97678 1.31313 2.22841 1.22762 2.5 1.22762H13.5C13.7716 1.22762 14.0232 1.31316 14.2285 1.4582L8.66006 4.85874Z" fill="#C7141A"/>
</svg>
