<svg width="70" height="70" viewBox="0 0 70 70" fill="none" xmlns="http://www.w3.org/2000/svg">
<path d="M34.9944 58.3316C41.4371 58.3316 46.6592 53.1095 46.6592 46.6668C46.6592 40.2241 41.4371 35.002 34.9944 35.002C28.5517 35.002 23.3296 40.2241 23.3296 46.6668C23.3296 53.1095 28.5517 58.3316 34.9944 58.3316ZM34.9944 40.8345C38.216 40.8345 40.8268 43.4453 40.8268 46.6669C40.8268 49.8885 38.216 52.4993 34.9944 52.4993C31.7728 52.4993 29.162 49.8885 29.162 46.6669C29.162 43.4453 31.7728 40.8345 34.9944 40.8345Z" fill="url(#paint0_linear)"/>
<path d="M69.6471 24.8226C69.6413 24.8116 69.6352 24.8009 69.6293 24.7901C69.609 24.7548 69.5883 24.7198 69.5661 24.6852C69.2651 24.1911 68.8002 23.7818 68.1623 23.5435L18.7389 0.285463C16.8048 -0.624712 14.581 0.786543 14.581 2.92414V12.7814L9.32046 11.7293C7.51592 11.3683 5.83241 12.7487 5.83241 14.5888V23.3374H2.9162C1.3056 23.3374 0 24.643 0 26.2536V67.0805C0 68.6911 1.3056 69.9967 2.9162 69.9967H67.0727C68.6833 69.9967 69.9889 68.6911 69.9889 67.0805V26.4453C70.035 25.8904 69.9281 25.3247 69.6471 24.8226ZM20.4134 7.5193L44.1709 18.6994L20.4134 13.9479V7.5193ZM11.6648 18.1461L16.9252 19.1982L32.0023 22.2137L37.6219 23.3376H11.6648V18.1461ZM64.1565 64.1643H5.83241V29.1698H8.74861H64.1565V64.1643Z" fill="url(#paint1_linear)"/>
<path d="M14.581 37.9179C16.1908 37.9179 17.4972 36.6114 17.4972 35.0017C17.4972 33.3919 16.1908 32.0854 14.581 32.0854C12.9712 32.0854 11.6648 33.3919 11.6648 35.0017C11.6648 36.6114 12.9712 37.9179 14.581 37.9179Z" fill="url(#paint2_linear)"/>
<path d="M55.4079 37.9179C57.0177 37.9179 58.3241 36.6114 58.3241 35.0017C58.3241 33.3919 57.0177 32.0854 55.4079 32.0854C53.7982 32.0854 52.4917 33.3919 52.4917 35.0017C52.4917 36.6114 53.7982 37.9179 55.4079 37.9179Z" fill="url(#paint3_linear)"/>
<path d="M14.581 61.2474C16.1908 61.2474 17.4972 59.941 17.4972 58.3312C17.4972 56.7215 16.1908 55.415 14.581 55.415C12.9712 55.415 11.6648 56.7215 11.6648 58.3312C11.6648 59.9409 12.9712 61.2474 14.581 61.2474Z" fill="url(#paint4_linear)"/>
<path d="M55.4079 61.2474C57.0177 61.2474 58.3241 59.941 58.3241 58.3312C58.3241 56.7215 57.0177 55.415 55.4079 55.415C53.7982 55.415 52.4917 56.7215 52.4917 58.3312C52.4917 59.9409 53.7982 61.2474 55.4079 61.2474Z" fill="url(#paint5_linear)"/>
<defs>
<linearGradient id="paint0_linear" x1="34.9944" y1="35.002" x2="34.9944" y2="58.3316" gradientUnits="userSpaceOnUse">
<stop stop-color="#E53935"/>
<stop offset="1" stop-color="#C7141A"/>
</linearGradient>
<linearGradient id="paint1_linear" x1="34.9996" y1="0.00439453" x2="34.9996" y2="69.9967" gradientUnits="userSpaceOnUse">
<stop stop-color="#E53935"/>
<stop offset="1" stop-color="#C7141A"/>
</linearGradient>
<linearGradient id="paint2_linear" x1="14.581" y1="32.0854" x2="14.581" y2="37.9179" gradientUnits="userSpaceOnUse">
<stop stop-color="#E53935"/>
<stop offset="1" stop-color="#C7141A"/>
</linearGradient>
<linearGradient id="paint3_linear" x1="55.4079" y1="32.0854" x2="55.4079" y2="37.9179" gradientUnits="userSpaceOnUse">
<stop stop-color="#E53935"/>
<stop offset="1" stop-color="#C7141A"/>
</linearGradient>
<linearGradient id="paint4_linear" x1="14.581" y1="55.415" x2="14.581" y2="61.2474" gradientUnits="userSpaceOnUse">
<stop stop-color="#E53935"/>
<stop offset="1" stop-color="#C7141A"/>
</linearGradient>
<linearGradient id="paint5_linear" x1="55.4079" y1="55.415" x2="55.4079" y2="61.2474" gradientUnits="userSpaceOnUse">
<stop stop-color="#E53935"/>
<stop offset="1" stop-color="#C7141A"/>
</linearGradient>
</defs>
</svg>
