<svg width="259" height="286" viewBox="0 0 259 286" fill="none" xmlns="http://www.w3.org/2000/svg">
<path d="M159 73.5302C159.736 73.5618 160.471 73.444 161.16 73.1841C161.849 72.9241 162.479 72.5274 163.011 72.0178C163.543 71.5081 163.966 70.8961 164.255 70.2185C164.544 69.541 164.693 68.8119 164.693 68.0752C164.693 67.3386 164.544 66.6095 164.255 65.9319C163.966 65.2544 163.543 64.6424 163.011 64.1327C162.479 63.6231 161.849 63.2263 161.16 62.9664C160.471 62.7065 159.736 62.5887 159 62.6202H115.31C114.574 62.5887 113.839 62.7065 113.15 62.9664C112.46 63.2263 111.831 63.6231 111.299 64.1327C110.767 64.6424 110.344 65.2544 110.054 65.9319C109.765 66.6095 109.616 67.3386 109.616 68.0752C109.616 68.8119 109.765 69.541 110.054 70.2185C110.344 70.8961 110.767 71.5081 111.299 72.0178C111.831 72.5274 112.46 72.9241 113.15 73.1841C113.839 73.444 114.574 73.5618 115.31 73.5302H159Z" fill="#E53935"/>
<path d="M180.78 84.4502H93.4798C92.0735 84.5104 90.7447 85.1115 89.7709 86.1279C88.7971 87.1443 88.2534 88.4976 88.2534 89.9052C88.2534 91.3128 88.7971 92.6661 89.7709 93.6825C90.7447 94.6989 92.0735 95.3 93.4798 95.3602H180.78C182.186 95.3 183.515 94.6989 184.489 93.6825C185.463 92.6661 186.006 91.3128 186.006 89.9052C186.006 88.4976 185.463 87.1443 184.489 86.1279C183.515 85.1115 182.186 84.5104 180.78 84.4502Z" fill="#E53935"/>
<path d="M180.78 128.45H93.4798C92.0735 128.51 90.7447 129.111 89.7709 130.128C88.7971 131.144 88.2534 132.498 88.2534 133.905C88.2534 135.313 88.7971 136.666 89.7709 137.682C90.7447 138.699 92.0735 139.3 93.4798 139.36H180.78C182.186 139.3 183.515 138.699 184.489 137.682C185.463 136.666 186.006 135.313 186.006 133.905C186.006 132.498 185.463 131.144 184.489 130.128C183.515 129.111 182.186 128.51 180.78 128.45Z" fill="#E53935"/>
<path d="M180.78 106.45H93.4798C92.0735 106.51 90.7447 107.111 89.7709 108.128C88.7971 109.144 88.2534 110.498 88.2534 111.905C88.2534 113.313 88.7971 114.666 89.7709 115.683C90.7447 116.699 92.0735 117.3 93.4798 117.36H180.78C182.186 117.3 183.515 116.699 184.489 115.683C185.463 114.666 186.006 113.313 186.006 111.905C186.006 110.498 185.463 109.144 184.489 108.128C183.515 107.111 182.186 106.51 180.78 106.45Z" fill="#E53935"/>
<path d="M180.78 40.7998H93.4798C92.0735 40.86 90.7447 41.4611 89.7709 42.4775C88.7971 43.4939 88.2534 44.8472 88.2534 46.2548C88.2534 47.6624 88.7971 49.0157 89.7709 50.0321C90.7447 51.0485 92.0735 51.6496 93.4798 51.7098H180.78C182.186 51.6496 183.515 51.0485 184.489 50.0321C185.463 49.0157 186.006 47.6624 186.006 46.2548C186.006 44.8472 185.463 43.4939 184.489 42.4775C183.515 41.4611 182.186 40.86 180.78 40.7998Z" fill="#E53935"/>
<path d="M213.51 0.219727H28C23.6609 0.222372 19.5002 1.94654 16.4311 5.01378C13.362 8.08101 11.6353 12.2407 11.63 16.5797V43.8597H6.16996C4.76361 43.92 3.43487 44.521 2.46104 45.5374C1.48722 46.5538 0.943573 47.9071 0.943573 49.3147C0.943573 50.7224 1.48722 52.0756 2.46104 53.092C3.43487 54.1084 4.76361 54.7095 6.16996 54.7697H11.63V98.4197H6.16996C4.76361 98.4799 3.43487 99.081 2.46104 100.097C1.48722 101.114 0.943573 102.467 0.943573 103.875C0.943573 105.282 1.48722 106.636 2.46104 107.652C3.43487 108.668 4.76361 109.27 6.16996 109.33H11.63V153H6.16996C4.76361 153.06 3.43487 153.661 2.46104 154.677C1.48722 155.694 0.943573 157.047 0.943573 158.455C0.943573 159.862 1.48722 161.216 2.46104 162.232C3.43487 163.248 4.76361 163.85 6.16996 163.91H11.63V207.55H6.16996C4.72188 207.55 3.33311 208.125 2.30916 209.149C1.28521 210.173 0.709961 211.562 0.709961 213.01C0.709961 214.458 1.28521 215.847 2.30916 216.871C3.33311 217.894 4.72188 218.47 6.16996 218.47H11.63V245.74C11.6379 250.077 13.3658 254.234 16.4346 257.299C19.5034 260.364 23.6626 262.087 28 262.09H165.56C162.012 258.913 158.943 255.238 156.45 251.18H28C26.5527 251.177 25.1655 250.601 24.1421 249.578C23.1187 248.554 22.5426 247.167 22.54 245.72V218.45H34.46C35.7479 222.09 38.2811 225.158 41.6119 227.111C44.9428 229.064 48.8569 229.777 52.6625 229.124C56.4681 228.47 59.9203 226.493 62.409 223.54C64.8976 220.588 66.2626 216.851 66.2626 212.99C66.2626 209.128 64.8976 205.391 62.409 202.439C59.9203 199.487 56.4681 197.509 52.6625 196.856C48.8569 196.202 44.9428 196.915 41.6119 198.869C38.2811 200.822 35.7479 203.89 34.46 207.53H22.56V163.89H34.48C35.7668 167.531 38.2995 170.6 41.6303 172.554C44.961 174.508 48.8755 175.222 52.6817 174.569C56.4879 173.916 59.9407 171.939 62.4299 168.986C64.9191 166.034 66.2843 162.296 66.2843 158.435C66.2843 154.573 64.9191 150.836 62.4299 147.883C59.9407 144.931 56.4879 142.953 52.6817 142.3C48.8755 141.647 44.961 142.361 41.6303 144.316C38.2995 146.27 35.7668 149.339 34.48 152.98H22.56V109.33H34.48C35.7668 112.971 38.2995 116.04 41.6303 117.994C44.961 119.948 48.8755 120.662 52.6817 120.009C56.4879 119.356 59.9407 117.379 62.4299 114.426C64.9191 111.474 66.2843 107.736 66.2843 103.875C66.2843 100.013 64.9191 96.2755 62.4299 93.323C59.9407 90.3706 56.4879 88.3932 52.6817 87.7403C48.8755 87.0875 44.961 87.8013 41.6303 89.7556C38.2995 91.7098 35.7668 94.7787 34.48 98.4197H22.56V54.7697H34.48C35.7668 58.4108 38.2995 61.4796 41.6303 63.4339C44.961 65.3882 48.8755 66.102 52.6817 65.4491C56.4879 64.7963 59.9407 62.8189 62.4299 59.8664C64.9191 56.9139 66.2843 53.1765 66.2843 49.3147C66.2843 45.453 64.9191 41.7155 62.4299 38.763C59.9407 35.8106 56.4879 33.8332 52.6817 33.1803C48.8755 32.5275 44.961 33.2413 41.6303 35.1956C38.2995 37.1498 35.7668 40.2187 34.48 43.8597H22.56V16.5797C22.5626 15.1334 23.139 13.7472 24.1627 12.7254C25.1864 11.7036 26.5736 11.1297 28.02 11.1297H213.51C214.956 11.1297 216.344 11.7036 217.367 12.7254C218.391 13.7472 218.967 15.1334 218.97 16.5797V181C222.901 182.838 226.57 185.192 229.88 188V16.5797C229.872 12.2415 228.144 8.08336 225.076 5.01669C222.007 1.95003 217.848 0.225013 213.51 0.219727ZM49.84 207.53C50.9198 207.53 51.9755 207.85 52.8734 208.45C53.7713 209.05 54.4711 209.903 54.8843 210.9C55.2976 211.898 55.4057 212.996 55.195 214.055C54.9844 215.114 54.4644 216.087 53.7008 216.851C52.9372 217.614 51.9643 218.134 50.9052 218.345C49.846 218.555 48.7482 218.447 47.7505 218.034C46.7528 217.621 45.9001 216.921 45.3001 216.023C44.7002 215.125 44.38 214.07 44.38 212.99C44.3826 211.542 44.9587 210.155 45.9821 209.132C47.0055 208.108 48.3927 207.532 49.84 207.53ZM49.84 152.98C50.9203 152.98 51.9763 153.3 52.8744 153.901C53.7725 154.501 54.4723 155.354 54.8853 156.353C55.2983 157.351 55.4058 158.449 55.1943 159.509C54.9828 160.568 54.4618 161.541 53.6972 162.304C52.9326 163.067 51.9588 163.586 50.899 163.796C49.8392 164.006 48.7411 163.896 47.7436 163.481C46.7461 163.066 45.894 162.365 45.2953 161.466C44.6965 160.567 44.378 159.51 44.38 158.43C44.3879 156.987 44.9666 155.606 45.9897 154.588C47.0128 153.571 48.3971 153 49.84 153V152.98ZM49.84 98.4197C50.9198 98.4197 51.9755 98.74 52.8734 99.3399C53.7713 99.9399 54.4711 100.793 54.8843 101.79C55.2976 102.788 55.4057 103.886 55.195 104.945C54.9844 106.004 54.4644 106.977 53.7008 107.741C52.9372 108.504 51.9643 109.024 50.9052 109.235C49.846 109.445 48.7482 109.337 47.7505 108.924C46.7528 108.511 45.9001 107.811 45.3001 106.913C44.7002 106.015 44.38 104.96 44.38 103.88C44.3826 102.432 44.9587 101.045 45.9821 100.022C47.0055 98.9985 48.3927 98.4224 49.84 98.4197ZM49.84 43.8597C50.9198 43.8597 51.9755 44.18 52.8734 44.7799C53.7713 45.3799 54.4711 46.2326 54.8843 47.2303C55.2976 48.228 55.4057 49.3258 55.195 50.3849C54.9844 51.4441 54.4644 52.4169 53.7008 53.1805C52.9372 53.9441 51.9643 54.4641 50.9052 54.6748C49.846 54.8855 48.7482 54.7774 47.7505 54.3641C46.7528 53.9509 45.9001 53.251 45.3001 52.3531C44.7002 51.4552 44.38 50.3996 44.38 49.3197C44.3826 47.8725 44.9587 46.4852 45.9821 45.4618C47.0055 44.4385 48.3927 43.8624 49.84 43.8597Z" fill="#E53935"/>
<path d="M198.31 165.52C186.443 165.52 174.843 169.038 164.976 175.631C155.109 182.224 147.419 191.595 142.877 202.559C138.336 213.522 137.148 225.586 139.463 237.225C141.778 248.864 147.493 259.555 155.884 267.946C164.275 276.337 174.966 282.052 186.605 284.367C198.244 286.682 210.308 285.494 221.271 280.952C232.235 276.411 241.605 268.721 248.198 258.854C254.791 248.987 258.31 237.386 258.31 225.52C258.286 209.614 251.957 194.366 240.71 183.119C229.463 171.872 214.216 165.543 198.31 165.52ZM198.31 274.64C188.599 274.64 179.106 271.76 171.032 266.365C162.957 260.97 156.664 253.301 152.948 244.329C149.231 235.357 148.259 225.485 150.154 215.961C152.048 206.436 156.724 197.687 163.591 190.821C170.458 183.954 179.207 179.278 188.731 177.383C198.256 175.488 208.128 176.461 217.1 180.177C226.072 183.893 233.74 190.187 239.135 198.261C244.53 206.336 247.41 215.828 247.41 225.54C247.392 238.556 242.213 251.034 233.009 260.238C223.805 269.442 211.327 274.621 198.31 274.64Z" fill="#E53935"/>
<path d="M223.68 199.66C222.655 198.642 221.269 198.071 219.825 198.071C218.38 198.071 216.995 198.642 215.97 199.66L197.97 217.66L179.97 199.66C179.471 199.119 178.868 198.684 178.197 198.382C177.526 198.08 176.8 197.916 176.065 197.901C175.329 197.887 174.597 198.021 173.915 198.296C173.232 198.571 172.612 198.981 172.092 199.502C171.572 200.023 171.162 200.643 170.888 201.327C170.614 202.01 170.481 202.741 170.496 203.477C170.512 204.213 170.676 204.938 170.979 205.609C171.282 206.279 171.718 206.882 172.26 207.38L190.26 225.38L172.26 243.38C171.417 244.435 170.995 245.765 171.076 247.113C171.156 248.461 171.733 249.731 172.695 250.679C173.658 251.626 174.937 252.183 176.286 252.242C177.635 252.302 178.958 251.859 180 251L198 233L216 251C217.037 251.954 218.403 252.469 219.812 252.439C221.22 252.409 222.563 251.836 223.558 250.839C224.554 249.842 225.126 248.498 225.154 247.09C225.182 245.681 224.665 244.316 223.71 243.28L205.71 225.28L223.71 207.28C224.697 206.255 225.246 204.886 225.24 203.464C225.234 202.041 224.675 200.677 223.68 199.66Z" fill="#E53935"/>
</svg>
