<svg xmlns="http://www.w3.org/2000/svg" xmlns:xlink="http://www.w3.org/1999/xlink" viewBox="0 0 317.18 185.99"><defs><style>.cls-1{fill:#585759;}.cls-2{fill:url(#Безымянный_градиент_8);}.cls-3{fill:url(#Безымянный_градиент_8-2);}.cls-4{fill:url(#Безымянный_градиент_8-3);}.cls-5{fill:url(#Безымянный_градиент_8-4);}.cls-6{fill:url(#Безымянный_градиент_8-5);}.cls-7{fill:url(#Безымянный_градиент_8-6);}.cls-8{fill:url(#Безымянный_градиент_9);}.cls-9{fill:url(#Безымянный_градиент_8-7);}.cls-10{fill:url(#Безымянный_градиент_8-8);}.cls-11{fill:url(#Безымянный_градиент_8-9);}.cls-12{fill:url(#Безымянный_градиент_8-10);}.cls-13{fill:url(#Безымянный_градиент_8-11);}.cls-14{fill:url(#Безымянный_градиент_8-12);}.cls-15{fill:url(#Безымянный_градиент_8-13);}.cls-16{fill:url(#Безымянный_градиент_8-14);}.cls-17{fill:url(#Безымянный_градиент_8-15);}.cls-18{fill:url(#Безымянный_градиент_8-16);}.cls-19{fill:url(#Безымянный_градиент_8-17);}.cls-20{fill:url(#Безымянный_градиент_8-18);}.cls-21{fill:url(#Безымянный_градиент_8-19);}.cls-22{fill:url(#Безымянный_градиент_8-20);}.cls-23{fill:url(#Безымянный_градиент_8-21);}.cls-24{fill:url(#Безымянный_градиент_8-22);}.cls-25{fill:url(#Безымянный_градиент_8-23);}.cls-26{fill:url(#Безымянный_градиент_8-24);}.cls-27{fill:url(#Безымянный_градиент_8-25);}.cls-28{fill:url(#Безымянный_градиент_8-26);}</style><linearGradient id="Безымянный_градиент_8" x1="161.05" y1="21.32" x2="25.25" y2="163.68" gradientUnits="userSpaceOnUse"><stop offset="0" stop-color="#1d83b7"/><stop offset="0.56" stop-color="#0faeaf"/><stop offset="1" stop-color="#107d55"/></linearGradient><linearGradient id="Безымянный_градиент_8-2" x1="138.17" y1="-0.5" x2="2.38" y2="141.86" xlink:href="#Безымянный_градиент_8"/><linearGradient id="Безымянный_градиент_8-3" x1="106.52" y1="-30.7" x2="-29.28" y2="111.66" xlink:href="#Безымянный_градиент_8"/><linearGradient id="Безымянный_градиент_8-4" x1="107.7" y1="-29.56" x2="-28.09" y2="112.8" xlink:href="#Безымянный_градиент_8"/><linearGradient id="Безымянный_градиент_8-5" x1="121.02" y1="-16.86" x2="-14.78" y2="125.49" xlink:href="#Безымянный_градиент_8"/><linearGradient id="Безымянный_градиент_8-6" x1="140.74" y1="1.95" x2="4.95" y2="144.31" xlink:href="#Безымянный_градиент_8"/><linearGradient id="Безымянный_градиент_9" x1="164.01" y1="24.14" x2="28.21" y2="166.5" gradientUnits="userSpaceOnUse"><stop offset="0.19" stop-color="#1d83b7"/><stop offset="0.56" stop-color="#0faeaf"/><stop offset="1" stop-color="#107d55"/></linearGradient><linearGradient id="Безымянный_градиент_8-7" x1="163.56" y1="23.72" x2="27.77" y2="166.08" xlink:href="#Безымянный_градиент_8"/><linearGradient id="Безымянный_градиент_8-8" x1="147.67" y1="8.56" x2="11.88" y2="150.92" xlink:href="#Безымянный_градиент_8"/><linearGradient id="Безымянный_градиент_8-9" x1="134.52" y1="-3.99" x2="-1.28" y2="138.37" xlink:href="#Безымянный_градиент_8"/><linearGradient id="Безымянный_градиент_8-10" x1="124.77" y1="-13.29" x2="-11.03" y2="129.07" xlink:href="#Безымянный_градиент_8"/><linearGradient id="Безымянный_градиент_8-11" x1="121.46" y1="-16.44" x2="-14.33" y2="125.92" xlink:href="#Безымянный_градиент_8"/><linearGradient id="Безымянный_градиент_8-12" x1="124.03" y1="-13.99" x2="-11.77" y2="128.36" xlink:href="#Безымянный_градиент_8"/><linearGradient id="Безымянный_градиент_8-13" x1="132.97" y1="-5.47" x2="-2.83" y2="136.89" xlink:href="#Безымянный_градиент_8"/><linearGradient id="Безымянный_градиент_8-14" x1="145.99" y1="6.95" x2="10.19" y2="149.31" xlink:href="#Безымянный_градиент_8"/><linearGradient id="Безымянный_градиент_8-15" x1="161.49" y1="21.74" x2="25.7" y2="164.1" xlink:href="#Безымянный_градиент_8"/><linearGradient id="Безымянный_градиент_8-16" x1="161.93" y1="22.16" x2="26.13" y2="164.52" xlink:href="#Безымянный_градиент_8"/><linearGradient id="Безымянный_градиент_8-17" x1="151.75" y1="12.45" x2="15.95" y2="154.81" xlink:href="#Безымянный_градиент_8"/><linearGradient id="Безымянный_градиент_8-18" x1="143.19" y1="4.28" x2="7.39" y2="146.64" xlink:href="#Безымянный_градиент_8"/><linearGradient id="Безымянный_градиент_8-19" x1="137.48" y1="-1.16" x2="1.68" y2="141.2" xlink:href="#Безымянный_градиент_8"/><linearGradient id="Безымянный_градиент_8-20" x1="136.31" y1="-2.27" x2="0.52" y2="140.09" xlink:href="#Безымянный_градиент_8"/><linearGradient id="Безымянный_градиент_8-21" x1="138.03" y1="-0.63" x2="2.24" y2="141.73" xlink:href="#Безымянный_градиент_8"/><linearGradient id="Безымянный_градиент_8-22" x1="144.23" y1="5.28" x2="8.44" y2="147.64" xlink:href="#Безымянный_градиент_8"/><linearGradient id="Безымянный_градиент_8-23" x1="152.94" y1="13.59" x2="17.15" y2="155.95" xlink:href="#Безымянный_градиент_8"/><linearGradient id="Безымянный_градиент_8-24" x1="163.22" y1="23.39" x2="27.43" y2="165.75" xlink:href="#Безымянный_градиент_8"/><linearGradient id="Безымянный_градиент_8-25" x1="102.88" y1="-34.16" x2="-32.91" y2="108.2" xlink:href="#Безымянный_градиент_8"/><linearGradient id="Безымянный_градиент_8-26" x1="118.81" y1="-18.97" x2="-16.99" y2="123.39" xlink:href="#Безымянный_градиент_8"/></defs><g id="Слой_2" data-name="Слой 2"><g id="Слой_1-2" data-name="Слой 1"><path class="cls-1" d="M100.67,97.68c0,8.95-2.37,11.82-9.11,11.82s-9.07-2.87-9.07-11.82,2.37-11.81,9.07-11.81S100.67,88.74,100.67,97.68ZM86,97.68c0,6.73,1.36,8.88,5.61,8.88s5.65-2.15,5.65-8.88-1.36-8.88-5.65-8.88S86,91,86,97.68Z"/><path class="cls-1" d="M111.57,96c5.71,0,7.62,1.69,7.62,6.77,0,6.07-2.77,6.63-8.22,6.63-2.24,0-4.59-.06-7.16-.29h-.07V86.29c2.41-.13,4.79-.23,7.17-.23s4.68.1,7,.23l-.26,2.78H107V96Zm0,10.57c3.5,0,4.29-.73,4.29-4,0-3-.7-4-4.29-4H107v7.95Z"/><path class="cls-1" d="M134.61,95.3c5.71,0,7.59,1.79,7.59,7.1s-2,6.93-7.1,6.93c-3.83,0-5.68,0-8.25-.26V89.23h-7.13V86.29h10.46v9Zm0,11.16c3.46,0,4.25-.82,4.25-4.13,0-3.1-.69-4.29-4.25-4.29h-4.43v8.39Z"/><path class="cls-1" d="M158.9,108.87c-3,.26-6.5.26-9.77.26-2.84,0-4.55-1.58-4.55-4.09V90.32c0-2.51,1.75-4.09,4.55-4.09,3.27,0,6.77,0,9.77.26l-.13,2.58h-9.08c-1.32,0-1.81.56-1.81,2.11v4.55h9.6v2.68h-9.6v5.81c0,1.55.49,2.11,1.81,2.11h9.08Z"/><path class="cls-1" d="M181,114.05H178.7l-.29-5H162.17l-.3,5H159.6v-7.66h2.24c2.21-4.85,2.9-10.26,3.23-15.67.1-2.74,1.92-4.43,4.89-4.43h8.18v20.1H181ZM174.84,89h-4.29c-1.61,0-2.18.59-2.31,2.24-.43,6.31-1.15,10.93-3.23,15.18h9.83Z"/><path class="cls-1" d="M197.26,109.07V93a15.13,15.13,0,0,1,.19-2.7h-.19a21.24,21.24,0,0,1-1.19,2.57l-9.57,16.21h-3.4V86.29h3.17V102.2a20.42,20.42,0,0,1-.2,2.81h.16a19.41,19.41,0,0,1,1.29-2.58L197,86.29h3.44v22.78Z"/><path class="cls-1" d="M220.92,109.07h-3.33V98.34h-9.94v10.73h-3.3V86.29h3.3V95.5h9.94V86.29h3.33Z"/><path class="cls-1" d="M239,108.87c-3,.26-6.51.26-9.77.26-2.84,0-4.56-1.58-4.56-4.09V90.32c0-2.51,1.75-4.09,4.56-4.09,3.26,0,6.76,0,9.77.26l-.14,2.58h-9.07c-1.32,0-1.82.56-1.82,2.11v4.55h9.61v2.68h-9.61v5.81c0,1.55.5,2.11,1.82,2.11h9.07ZM228.78,83.16a.75.75,0,0,1-.86-.86V80.49a.77.77,0,0,1,.86-.86h1.06a.76.76,0,0,1,.85.86V82.3c0,.59-.26.86-.85.86Zm5.87,0c-.62,0-.89-.27-.89-.86V80.49a.78.78,0,0,1,.89-.86h1a.81.81,0,0,1,.89.86V82.3a.78.78,0,0,1-.89.86Z"/><path class="cls-1" d="M258.25,109.07h-3.33V98.34H245v10.73h-3.3V86.29H245V95.5h9.93V86.29h3.33Z"/><path class="cls-1" d="M278.72,109.07h-3.33V98.34h-9.94v10.73h-3.3V86.29h3.3V95.5h9.94V86.29h3.33Z"/><path class="cls-1" d="M300,97.68c0,8.95-2.38,11.82-9.11,11.82s-9.08-2.87-9.08-11.82,2.38-11.81,9.08-11.81S300,88.74,300,97.68Zm-14.72,0c0,6.73,1.35,8.88,5.61,8.88s5.64-2.15,5.64-8.88-1.35-8.88-5.64-8.88S285.26,91,285.26,97.68Z"/><path class="cls-1" d="M317.18,108.87c-3,.26-6.51.26-9.77.26-2.84,0-4.56-1.58-4.56-4.09V90.32c0-2.51,1.75-4.09,4.56-4.09,3.26,0,6.76,0,9.77.26L317,89.07H308c-1.32,0-1.82.56-1.82,2.11v4.55h9.61v2.68h-9.61v5.81c0,1.55.5,2.11,1.82,2.11H317Z"/><path class="cls-1" d="M91.6,135.5c4.32.43,5.28,4.39,8,11.82H96.09c-2.45-7-3.37-10.57-7.43-10.53H86.38a14.6,14.6,0,0,1,.23,2.34v8.19h-3.3V124.54h3.3v7a16.37,16.37,0,0,1-.23,2.57h2.28c3.79,0,5-3.92,7-9.57H99c-2.15,6.27-3.3,10.4-7.36,10.83Z"/><path class="cls-1" d="M101.63,124.54a68.28,68.28,0,0,1,8-.29c5.57,0,7.42,1.58,7.42,7.19s-1.85,7.23-7.06,7.23a42.16,42.16,0,0,1-5-.3v8.95h-3.34Zm7.86,11.29c3.17,0,4.19-.92,4.19-4.39s-1-4.36-4.19-4.36c-1.75,0-3.3,0-4.52,0v8.71Z"/><path class="cls-1" d="M133.65,147.12c-3,.26-6.5.26-9.77.26-2.84,0-4.56-1.58-4.56-4.09V128.57c0-2.51,1.75-4.09,4.56-4.09,3.27,0,6.77,0,9.77.26l-.13,2.57h-9.08c-1.32,0-1.81.57-1.81,2.12V134h9.6v2.68h-9.6v5.8c0,1.56.49,2.12,1.81,2.12h9.08Z"/><path class="cls-1" d="M155.7,152.3h-2.25l-.29-5H136.92l-.3,5h-2.28v-7.66h2.25c2.21-4.85,2.9-10.26,3.23-15.67.1-2.74,1.92-4.43,4.89-4.43h8.18v20.1h2.81Zm-6.11-25.08H145.3c-1.62,0-2.18.59-2.31,2.24-.43,6.3-1.15,10.92-3.23,15.18h9.83Z"/><path class="cls-1" d="M172,147.32V131.24a15.13,15.13,0,0,1,.2-2.7H172a22,22,0,0,1-1.18,2.57l-9.58,16.21h-3.39V124.54H161v15.91a20.41,20.41,0,0,1-.19,2.81H161a17.75,17.75,0,0,1,1.29-2.58l9.5-16.14h3.44v22.78Z"/><path class="cls-1" d="M187.62,127.48v19.84h-3.34V127.48h-7.16v-2.94h17.73v2.94Z"/><path class="cls-1" d="M213.3,147.32H210V136.59H200v10.73h-3.3V124.54H200v9.21H210v-9.21h3.34Z"/><path class="cls-1" d="M234.56,135.93c0,8.94-2.38,11.81-9.11,11.81s-9.08-2.87-9.08-11.81,2.38-11.82,9.08-11.82S234.56,127,234.56,135.93Zm-14.72,0c0,6.73,1.35,8.88,5.61,8.88s5.64-2.15,5.64-8.88-1.35-8.88-5.64-8.88S219.84,129.2,219.84,135.93Z"/><path class="cls-1" d="M251.75,147.12c-3,.26-6.5.26-9.77.26-2.83,0-4.55-1.58-4.55-4.09V128.57c0-2.51,1.75-4.09,4.55-4.09,3.27,0,6.77,0,9.77.26l-.13,2.57h-9.07c-1.33,0-1.82.57-1.82,2.12V134h9.6v2.68h-9.6v5.8c0,1.56.49,2.12,1.82,2.12h9.07Z"/><path class="cls-1" d="M91.13,172.46c5.71,0,7.63,1.68,7.63,6.77,0,6.07-2.77,6.63-8.22,6.63-2.24,0-4.59-.07-7.16-.3h-.07V162.79c2.41-.13,4.79-.23,7.16-.23s4.69.1,7,.23l-.26,2.77H86.61v6.9Zm0,10.56c3.5,0,4.3-.72,4.3-4,0-3-.7-4-4.3-4H86.61v8Z"/><path class="cls-1" d="M109.78,172.39c.3-7.55,2.68-10,8.62-10,6.73,0,9.14,2.87,9.14,11.82S125.13,186,118.4,186c-6.17,0-8.48-2.67-8.62-10.92h-5v10.49h-3.3V162.79h3.3v9.6ZM124,174.18c0-6.74-1.38-8.88-5.64-8.88-4.09,0-5.38,2.14-5.38,8.88s1.29,8.88,5.38,8.88C122.66,183.06,124,180.91,124,174.18Z"/><path class="cls-1" d="M130.61,162.79a68,68,0,0,1,8-.3c5.58,0,7.42,1.59,7.42,7.2s-1.84,7.23-7.06,7.23a44.57,44.57,0,0,1-5-.3v8.94h-3.34Zm7.86,11.29c3.17,0,4.19-.93,4.19-4.39s-1-4.36-4.19-4.36c-1.75,0-3.3,0-4.52,0v8.72Z"/><path class="cls-1" d="M165.86,174.18c0,8.94-2.37,11.81-9.1,11.81s-9.08-2.87-9.08-11.81,2.38-11.82,9.08-11.82S165.86,165.23,165.86,174.18Zm-14.72,0c0,6.73,1.36,8.88,5.62,8.88s5.64-2.15,5.64-8.88-1.35-8.88-5.64-8.88S151.14,167.44,151.14,174.18Z"/><circle class="cls-2" cx="36.1" cy="152.3" r="11.49"/><circle class="cls-3" cx="17.95" cy="125.54" r="11.49"/><circle class="cls-4" cx="17.95" cy="62.15" r="11.49"/><circle class="cls-5" cx="62.87" cy="17.44" r="11.49"/><circle class="cls-6" cx="93.97" cy="11.49" r="11.49"/><circle class="cls-7" cx="125.97" cy="17.44" r="11.49"/><circle class="cls-8" cx="152.85" cy="35.85" r="11.49"/><circle class="cls-9" cx="134.4" cy="54.29" r="8.45"/><circle class="cls-10" cx="115.86" cy="41.91" r="8.45"/><circle class="cls-11" cx="94.47" cy="37.99" r="8.45"/><circle class="cls-12" cx="72.55" cy="41.45" r="8.45"/><circle class="cls-13" cx="54.42" cy="53.83" r="8.45"/><circle class="cls-14" cx="41.91" cy="72.09" r="8.45"/><circle class="cls-15" cx="38.01" cy="94.07" r="8.45"/><circle class="cls-16" cx="41.91" cy="116.06" r="8.45"/><circle class="cls-17" cx="54.42" cy="133.99" r="8.45"/><circle class="cls-18" cx="69.04" cy="119.53" r="5.67"/><circle class="cls-19" cx="60.42" cy="108.19" r="5.67"/><circle class="cls-20" cx="58.17" cy="93.41" r="5.67"/><circle class="cls-21" cx="60.42" cy="79.62" r="5.67"/><circle class="cls-22" cx="68.89" cy="68.41" r="5.67"/><circle class="cls-23" cx="80.23" cy="59.97" r="5.67"/><circle class="cls-24" cx="94.34" cy="57.58" r="5.67"/><circle class="cls-25" cx="108.71" cy="59.97" r="5.67"/><circle class="cls-26" cx="120.28" cy="68.41" r="5.67"/><circle class="cls-27" cx="36.1" cy="35.85" r="11.49"/><circle class="cls-28" cx="11.49" cy="93.54" r="11.49"/></g></g></svg>