<svg id="Слой_1" data-name="Слой 1" xmlns="http://www.w3.org/2000/svg" viewBox="0 0 50 50"><defs><style>.cls-1{fill:red;}.cls-2{fill:#fff;}</style></defs><path class="cls-1" d="M42.64,7.36A24.95,24.95,0,1,0,26.81,49.88H50V25A24.88,24.88,0,0,0,42.64,7.36Z"/><path class="cls-2" d="M32.63,29.56l4.3,1.82a2.53,2.53,0,0,1,1.34,3.36,1.64,1.64,0,0,1-.34.5c-3.83,3.49-7.78,2.61-12-.37a49.43,49.43,0,0,1-5.27-4.55,49.43,49.43,0,0,1-4.55-5.27c-3-4.2-3.86-8.15-.37-12a1.64,1.64,0,0,1,.5-.34,2.53,2.53,0,0,1,3.36,1.34l1.82,4.3A2.53,2.53,0,0,1,21,21c-.69.78-1.13,1.1-.71,1.82a25.77,25.77,0,0,0,3.43,4.41,25.77,25.77,0,0,0,4.41,3.43c.72.42,1,0,1.82-.71A2.53,2.53,0,0,1,32.63,29.56Z"/></svg>