<?xml version="1.0" encoding="iso-8859-1"?>
<!-- Generator: Adobe Illustrator 19.0.0, SVG Export Plug-In . SVG Version: 6.00 Build 0)  -->
<svg version="1.1" id="Capa_1" xmlns="http://www.w3.org/2000/svg" xmlns:xlink="http://www.w3.org/1999/xlink" x="0px" y="0px"
	 viewBox="0 0 512.032 512.032" style="enable-background:new 0 0 512.032 512.032;" xml:space="preserve">
<polygon points="0,99.468 429.168,99.468 429.168,63.26 163.336,63.26 141.816,41.972 0,41.972 0,67.724 "/>
<rect x="18.12" y="81.372" style="fill:#FFFFFF;" width="392.96" height="18.096"/>
<polygon style="fill:#FF0000;" points="371.8,386.78 429.168,329.404 429.168,99.468 0,99.468 0,386.788 371.808,386.788 "/>
<g style="opacity:0.75;">
	<polygon style="fill:#FFFFFF;" points="364.672,369.884 362.304,367.516 409.376,320.444 409.376,117.564 412.728,117.564 
		412.728,321.836 	"/>
</g>
<path style="fill:#CECECE;" d="M483.232,343.428h-20.744v-74.744c0.232-23.896-18.944-43.456-42.84-43.688
	c-23.896-0.232-43.456,18.944-43.688,42.84c0,0.28,0,0.568,0,0.848v74.744h-20.744v-74.744
	c-0.288-35.352,28.144-64.24,63.496-64.528s64.24,28.144,64.528,63.496c0,0.344,0,0.688,0,1.032v74.744H483.232z"/>
<g style="opacity:0.25;">
	<rect x="462.488" y="321.556" width="20.744" height="8.296"/>
</g>
<g style="opacity:0.25;">
	<rect x="355.2" y="321.556" width="20.744" height="8.296"/>
</g>
<rect x="336" y="329.796" width="166.408" height="105.664"/>
<rect x="326.432" y="435.476" width="185.6" height="34.584"/>
<g>
	<circle style="fill:#FFFFFF;" cx="419.2" cy="384.996" r="20.76"/>
	<rect x="410.4" y="396.196" style="fill:#FFFFFF;" width="17.704" height="37.936"/>
</g>
<g>
</g>
<g>
</g>
<g>
</g>
<g>
</g>
<g>
</g>
<g>
</g>
<g>
</g>
<g>
</g>
<g>
</g>
<g>
</g>
<g>
</g>
<g>
</g>
<g>
</g>
<g>
</g>
<g>
</g>
</svg>
