<svg width="70" height="70" viewBox="0 0 70 70" fill="none" xmlns="http://www.w3.org/2000/svg">
<path d="M63.048 51.8615C63.0919 51.8848 63.1333 51.9067 63.1782 51.9305C63.0822 51.8796 63.0431 51.8589 63.048 51.8615Z" fill="url(#paint0_linear)"/>
<path d="M6.82251 51.9311C6.87692 51.9022 6.92723 51.8756 6.98001 51.8477C6.98848 51.8432 6.94282 51.8674 6.82251 51.9311Z" fill="url(#paint1_linear)"/>
<path d="M65.7466 53.2909C65.1997 53.0032 63.0817 51.8795 63.0482 51.8614C62.0949 51.3565 61.3906 50.9882 60.7043 50.6377C58.8446 49.6875 57.3129 48.9729 55.8178 48.3789C54.0472 47.6753 52.3593 47.1598 50.6551 46.8195L49.5293 40.0807C51.4092 36.6821 52.5015 32.6291 52.5015 28.3628V23.0813C54.2691 21.6267 55.4175 19.3685 55.4175 16.8143C55.4176 7.57217 48.3713 0 39.5688 0H30.4339C21.6315 0 14.5851 7.57217 14.5851 16.8143C14.5851 19.3694 15.7345 21.6287 17.5023 23.0832V28.3626C17.5023 32.6291 18.5942 36.6817 20.4735 40.0802L19.3476 46.8189C17.6403 47.1598 15.9498 47.6763 14.1762 48.3816C12.6828 48.9755 11.1531 49.6896 9.29444 50.6395C8.61578 50.9863 7.91976 51.3504 6.9801 51.8479C6.92802 51.8759 4.79661 53.0068 4.25712 53.2907C1.64174 54.6674 0.000732422 57.3849 0.000732422 60.34V67.0833C0.000732422 68.6941 1.30651 69.9999 2.9173 69.9999H67.0828C68.6936 69.9999 69.9994 68.6941 69.9994 67.0833V60.34C69.9995 57.3846 68.3613 54.6674 65.7466 53.2909ZM45.1649 49.3554L41.5566 53.2564L39.3779 48.8988C41.2679 48.2975 43.0295 47.3173 44.6106 46.0369L45.1649 49.3554ZM35.0019 43.7477C32.9036 43.7477 30.8855 42.943 29.1346 41.5515C29.0999 41.5238 29.065 41.4963 29.0304 41.468C28.9998 41.4431 28.9696 41.4177 28.9391 41.3924C27.869 40.4996 26.8909 39.3703 26.0503 38.0315L25.9134 37.8323C25.9075 37.8249 25.9033 37.8194 25.898 37.8127C24.3092 35.1935 23.3354 31.9056 23.3354 28.3624V24.7593C23.642 24.7444 23.9476 24.7075 24.2583 24.6449C28.4561 23.7606 31.7956 23.3661 34.9125 23.3461C35.1485 23.3431 35.1485 23.3431 35.3542 23.3386C35.6665 23.3317 35.7973 23.3304 35.928 23.3337C38.8183 23.397 41.4776 23.7721 45.7366 24.6433C46.0517 24.7067 46.3598 24.7442 46.6682 24.7592V28.3628C46.6682 31.9051 45.6944 35.1926 44.1056 37.8118C44.1 37.8189 44.0953 37.8248 44.089 37.8327L43.9522 38.0319C43.1119 39.3703 42.134 40.4993 41.0643 41.392C41.0334 41.4177 41.0025 41.4435 40.9715 41.4688C40.9376 41.4966 40.9034 41.5235 40.8692 41.5507C39.1183 42.9425 37.1 43.7477 35.0019 43.7477ZM30.6236 48.8984L28.4447 53.2559L27.5927 52.3349L24.8377 49.3553L25.3921 46.037C26.9728 47.317 28.734 48.2971 30.6236 48.8984ZM29.1681 5.92419V8.74985C29.1681 10.3598 30.4718 11.6664 32.0847 11.6664H37.9179C39.5308 11.6664 40.8345 10.3598 40.8345 8.74985V5.92419C45.732 6.60559 49.5844 11.1813 49.5844 16.8143C49.5844 17.6741 49.1752 18.3611 48.6189 18.7048C48.545 18.731 48.4714 18.7593 48.3981 18.7919C48.1807 18.8887 47.9557 18.9289 47.7131 18.9116L47.5121 18.915C37.8936 17.0574 32.4132 16.9453 22.4898 18.915L22.2904 18.9116C22.0479 18.9289 21.8229 18.8887 21.6055 18.7919C21.5256 18.7564 21.4452 18.726 21.3647 18.6981C20.8206 18.3508 20.4181 17.6673 20.4181 16.8143C20.4182 11.1813 24.2706 6.60559 29.1681 5.92419ZM64.1664 64.1667H5.83401V60.3402C5.83401 59.5509 6.27506 58.8207 6.97382 58.4528C7.52246 58.1642 9.66836 57.0255 9.71553 57.0002C10.6292 56.5164 11.3014 56.1647 11.9489 55.8339C13.6582 54.9604 15.0324 54.3189 16.3316 53.8021C17.5938 53.3001 18.7776 52.9215 19.9426 52.6549L23.3246 56.3111L27.0253 60.3138C27.5881 60.9224 28.3277 61.226 29.0686 61.2492C29.1071 61.2504 29.1457 61.2499 29.1842 61.2496C29.2021 61.2495 29.2199 61.2502 29.2378 61.2497C30.2622 61.2236 31.2638 60.6643 31.7769 59.6381L35.0007 53.1906L38.2245 59.6381C38.7374 60.6642 39.7386 61.2235 40.7627 61.2499C41.5591 61.2707 42.3694 60.9692 42.9751 60.3143L50.0593 52.6555C51.2221 52.9217 52.404 53.2996 53.6637 53.8001C54.9644 54.3169 56.3402 54.9587 58.0504 55.8325C58.7054 56.1672 59.3858 56.5231 60.3137 57.0144C60.3471 57.0325 62.4744 58.1612 63.0297 58.4534C63.7264 58.8202 64.1663 59.5494 64.1663 60.3404V64.1667H64.1664Z" fill="url(#paint2_linear)"/>
<defs>
<linearGradient id="paint0_linear" x1="63.1129" y1="51.8613" x2="63.1129" y2="51.9305" gradientUnits="userSpaceOnUse">
<stop stop-color="#E53935"/>
<stop offset="1" stop-color="#C7141A"/>
</linearGradient>
<linearGradient id="paint1_linear" x1="6.90175" y1="51.8472" x2="6.90175" y2="51.9311" gradientUnits="userSpaceOnUse">
<stop stop-color="#E53935"/>
<stop offset="1" stop-color="#C7141A"/>
</linearGradient>
<linearGradient id="paint2_linear" x1="35.0001" y1="0" x2="35.0001" y2="69.9999" gradientUnits="userSpaceOnUse">
<stop stop-color="#E53935"/>
<stop offset="1" stop-color="#C7141A"/>
</linearGradient>
</defs>
</svg>
