<svg width="13" height="13" viewBox="0 0 13 13" fill="none" xmlns="http://www.w3.org/2000/svg">
<path d="M6.5 13C10.0899 13 13 10.0899 13 6.5C13 2.91015 10.0899 0 6.5 0C2.91015 0 0 2.91015 0 6.5C0 10.0899 2.91015 13 6.5 13Z" fill="#039BE5"/>
<path d="M2.97431 6.35903L9.2414 3.94266C9.53227 3.83758 9.78631 4.01362 9.69206 4.45345L9.6926 4.45291L8.62552 9.48012C8.54644 9.83654 8.33465 9.9232 8.03835 9.75528L6.41335 8.55766L5.62956 9.31274C5.5429 9.39941 5.46977 9.47254 5.30185 9.47254L5.41723 7.81883L8.4289 5.09803C8.55998 4.98266 8.39965 4.91766 8.22685 5.03249L4.50506 7.37574L2.90065 6.87524C2.55235 6.76474 2.54477 6.52695 2.97431 6.35903V6.35903Z" fill="white"/>
</svg>
