<svg width="61" height="77" viewBox="0 0 61 77" fill="none" xmlns="http://www.w3.org/2000/svg">
<path d="M59.343 9.62419C50.771 9.62419 38.363 7.22419 31.604 0.469188C31.3031 0.168746 30.8952 0 30.47 0C30.0448 0 29.6369 0.168746 29.336 0.469188C22.58 7.22419 10.172 9.62419 1.6 9.62419C1.17565 9.62419 0.768686 9.79276 0.468628 10.0928C0.16857 10.3929 0 10.7998 0 11.2242V43.3072C0 55.3532 17.166 72.7302 29.978 76.9072C30.301 77.0141 30.65 77.0141 30.973 76.9072C43.785 72.7272 60.951 55.3502 60.951 43.3072V11.2282C60.9515 11.0171 60.9103 10.8079 60.8296 10.6128C60.7489 10.4177 60.6304 10.2405 60.481 10.0914C60.3315 9.94229 60.154 9.82424 59.9587 9.74406C59.7634 9.66387 59.5541 9.62313 59.343 9.62419ZM57.743 43.3072C57.743 52.8222 42.843 69.3522 30.476 73.6932C18.113 69.3532 3.208 52.8222 3.208 43.3072V12.8072C11.818 12.5312 23.319 10.0452 30.475 3.79919C37.632 10.0452 49.132 12.5342 57.743 12.8072V43.3072Z" fill="#144353"/>
<path d="M53.1002 16.0489C45.3536 15.1767 37.9145 12.5216 31.3662 8.29194C31.1013 8.1162 30.7905 8.02246 30.4727 8.02246C30.1548 8.02246 29.844 8.1162 29.5792 8.29194C23.0309 12.5216 15.5917 15.1766 7.84518 16.0489C7.45072 16.0896 7.08542 16.2753 6.82009 16.57C6.55477 16.8647 6.40833 17.2474 6.40918 17.6439V43.3079C6.40918 51.0459 19.1032 65.7539 29.8272 70.4409C30.0295 70.5295 30.2479 70.5752 30.4687 70.5752C30.6895 70.5752 30.9079 70.5295 31.1102 70.4409C41.8342 65.7539 54.5282 51.0409 54.5282 43.3079V17.6439C54.5292 17.2486 54.3839 16.8669 54.1202 16.5724C53.8566 16.2779 53.4932 16.0914 53.1002 16.0489ZM51.3232 43.3069C51.3232 49.0269 40.2842 62.5479 30.4712 67.2069C20.6582 62.5459 9.61918 49.0209 9.61918 43.3069V19.0629C17.02 18.0415 24.1239 15.4775 30.4712 11.5369C36.8184 15.4775 43.9224 18.0415 51.3232 19.0629V43.3069Z" fill="#144353"/>
<path d="M30.4722 19.2471C28.886 19.2471 27.3354 19.7174 26.0165 20.5987C24.6976 21.4799 23.6697 22.7325 23.0626 24.1979C22.4556 25.6634 22.2968 27.276 22.6063 28.8317C22.9157 30.3874 23.6795 31.8164 24.8012 32.9381C25.9228 34.0597 27.3518 34.8235 28.9075 35.133C30.4633 35.4424 32.0758 35.2836 33.5413 34.6766C35.0067 34.0696 36.2593 33.0416 37.1405 31.7227C38.0218 30.4039 38.4922 28.8533 38.4922 27.2671C38.4893 25.1409 37.6434 23.1027 36.1399 21.5993C34.6365 20.0959 32.5983 19.25 30.4722 19.2471ZM30.4722 32.0791C29.5204 32.0791 28.5901 31.7968 27.7988 31.2681C27.0074 30.7393 26.3907 29.9878 26.0264 29.1085C25.6622 28.2293 25.5669 27.2617 25.7526 26.3283C25.9383 25.3949 26.3966 24.5374 27.0696 23.8645C27.7425 23.1915 28.5999 22.7332 29.5334 22.5475C30.4668 22.3619 31.4344 22.4571 32.3136 22.8214C33.1929 23.1856 33.9444 23.8023 34.4732 24.5937C35.0019 25.385 35.2842 26.3153 35.2842 27.2671C35.2826 28.5428 34.7751 29.7658 33.873 30.6679C32.9709 31.57 31.7479 32.0775 30.4722 32.0791Z" fill="#144353"/>
<path d="M30.4722 32.0791C26.6444 32.0828 22.9744 33.6048 20.2674 36.3112C17.5605 39.0176 16.0377 42.6873 16.0332 46.5151C16.0332 46.9394 16.2018 47.3464 16.5018 47.6465C16.8019 47.9465 17.2089 48.1151 17.6332 48.1151H43.2972C43.7216 48.1151 44.1285 47.9465 44.4286 47.6465C44.7286 47.3464 44.8972 46.9394 44.8972 46.5151C44.8924 42.6898 43.3715 39.0224 40.6676 36.3164C37.9638 33.6105 34.2975 32.0868 30.4722 32.0791ZM19.3602 44.9111C19.7457 42.2384 21.0814 39.794 23.1226 38.0261C25.1638 36.2582 27.7738 35.285 30.4742 35.285C33.1746 35.285 35.7845 36.2582 37.8258 38.0261C39.867 39.794 41.2027 42.2384 41.5882 44.9111H19.3602Z" fill="#144353"/>
</svg>
