<svg width="77" height="77" viewBox="0 0 77 77" fill="none" xmlns="http://www.w3.org/2000/svg">
<path d="M47.7778 63.1148C47.9675 62.7339 47.9983 62.2933 47.8635 61.8897C47.7287 61.4861 47.4393 61.1524 47.0588 60.9618L37.6118 56.2368C37.3891 56.1261 37.1436 56.0685 36.8948 56.0685C36.6461 56.0685 36.4006 56.1261 36.1778 56.2368L16.6578 65.9988L20.8248 45.1548C20.8755 44.896 20.8619 44.6288 20.7852 44.3765C20.7085 44.1242 20.571 43.8946 20.3848 43.7078L5.03885 28.3548L25.8938 25.5958C26.1538 25.5614 26.4013 25.4638 26.6149 25.3116C26.8284 25.1594 27.0014 24.9573 27.1188 24.7228L36.8938 5.12283L46.6688 24.7228C46.7863 24.9572 46.9594 25.1593 47.1729 25.3115C47.3864 25.4637 47.6339 25.5613 47.8938 25.5958L68.7478 28.3548L61.4108 35.6918C61.2619 35.8407 61.1438 36.0175 61.0632 36.2121C60.9826 36.4067 60.9411 36.6152 60.9411 36.8258C60.9411 37.0364 60.9826 37.245 61.0632 37.4395C61.1438 37.6341 61.2619 37.8109 61.4108 37.9598C61.5598 38.1087 61.7366 38.2269 61.9311 38.3075C62.1257 38.3881 62.3342 38.4295 62.5448 38.4295C62.7554 38.4295 62.964 38.3881 63.1586 38.3075C63.3531 38.2269 63.5299 38.1087 63.6788 37.9598L73.3118 28.3268C73.5235 28.115 73.6717 27.8482 73.7397 27.5565C73.8077 27.2649 73.7929 26.96 73.6968 26.6764C73.6006 26.3927 73.4272 26.1416 73.1959 25.9514C72.9646 25.7612 72.6847 25.6394 72.3878 25.5998L49.1568 22.5278L38.3268 0.812829C38.1781 0.564923 37.9677 0.359757 37.7162 0.217313C37.4646 0.074868 37.1804 0 36.8913 0C36.6023 0 36.3181 0.074868 36.0665 0.217313C35.815 0.359757 35.6046 0.564923 35.4558 0.812829L24.6258 22.5278L1.39385 25.6038C1.097 25.6434 0.817126 25.7652 0.585834 25.9554C0.354543 26.1456 0.181048 26.3967 0.0849434 26.6804C-0.0111611 26.964 -0.0260464 27.2689 0.0419686 27.5605C0.109984 27.8521 0.258189 28.119 0.469848 28.3308L17.5078 45.3678L12.8658 68.5868C12.8197 68.8196 12.8258 69.0598 12.8836 69.2899C12.9414 69.5201 13.0495 69.7346 13.2001 69.918C13.3507 70.1014 13.5401 70.2492 13.7546 70.3506C13.9692 70.4521 14.2035 70.5048 14.4408 70.5048C14.6887 70.5037 14.9331 70.4466 15.1558 70.3378L36.8928 59.4668L45.6248 63.8328C45.8132 63.9277 46.0185 63.9844 46.2289 63.9996C46.4393 64.0149 46.6506 63.9884 46.8507 63.9216C47.0508 63.8549 47.2357 63.7493 47.3948 63.6108C47.5539 63.4723 47.6841 63.3038 47.7778 63.1148Z" fill="#144353"/>
<path d="M70.3749 66.8261L65.5599 65.626L65.3598 64.818C66.6219 63.414 67.4867 61.6987 67.8648 59.849C68.2969 59.6242 68.6681 59.2981 68.9467 58.8987C69.2254 58.4992 69.4031 58.0381 69.4649 57.555L69.8149 54.767C69.8839 54.2174 69.7989 53.6595 69.5693 53.1554C69.3398 52.6513 68.9747 52.2208 68.5148 51.9121L68.5978 50.212L68.8978 49.9121C69.7228 49.0361 70.8418 47.156 69.0708 44.452C68.2268 43.166 66.4979 41.6321 63.0269 41.6321C61.0726 41.5543 59.1375 42.0432 57.4548 43.04C50.8548 43.271 50.0769 46.829 50.0769 49.514C50.0769 50.043 50.1769 51.035 50.2629 51.862C49.7819 52.1663 49.3975 52.6011 49.1544 53.1157C48.9113 53.6302 48.8195 54.2033 48.8898 54.768L49.2398 57.556C49.3037 58.0675 49.5013 58.5531 49.8128 58.9637C50.1243 59.3744 50.5386 59.6957 51.0139 59.8951C51.3858 61.6667 52.2016 63.3149 53.3848 64.685L53.1509 65.6281L48.3359 66.828C46.4428 67.3002 44.7624 68.3925 43.5624 69.9309C42.3624 71.4692 41.712 73.365 41.7149 75.316C41.7142 75.5269 41.7551 75.7358 41.8355 75.9308C41.9158 76.1257 42.0338 76.3028 42.1828 76.452C42.4851 76.7516 42.8933 76.9198 43.3189 76.92H75.3978C75.6079 76.92 75.816 76.8787 76.0101 76.7982C76.2043 76.7178 76.3806 76.6 76.5292 76.4514C76.6778 76.3028 76.7956 76.1265 76.876 75.9323C76.9565 75.7382 76.9978 75.5302 76.9978 75.32C77.0009 73.368 76.3504 71.4711 75.1501 69.9317C73.9498 68.3923 72.2687 67.299 70.3749 66.8261ZM45.1509 73.7141C45.4289 72.798 45.9392 71.9694 46.6323 71.309C47.3253 70.6485 48.1775 70.1787 49.1058 69.945L54.8548 68.511C55.1373 68.441 55.3954 68.2952 55.6012 68.0894C55.807 67.8836 55.9528 67.6256 56.0228 67.3431L56.7059 64.607C56.7756 64.3299 56.7698 64.0391 56.689 63.7649C56.6083 63.4908 56.4556 63.2432 56.2469 63.048C54.9779 61.8351 54.1925 60.2026 54.0368 58.454C53.9911 58.0694 53.7959 57.7181 53.4933 57.4762C53.1908 57.2342 52.8052 57.121 52.4198 57.161L52.0089 54.611C52.2367 54.6116 52.4621 54.5636 52.6699 54.4701C52.8777 54.3765 53.0631 54.2397 53.2138 54.0687C53.3644 53.8977 53.4768 53.6965 53.5433 53.4786C53.6099 53.2606 53.6292 53.031 53.5999 52.805C53.4779 51.836 53.2818 50.081 53.2818 49.517C53.2818 47.859 53.2819 46.29 57.9689 46.242C58.2981 46.2388 58.6183 46.134 58.8858 45.942C60.1101 45.1455 61.5565 44.7602 63.0148 44.842C65.4788 44.842 66.1518 45.872 66.3738 46.209C67.0278 47.209 66.7619 47.492 66.5859 47.681L65.8858 48.381C65.6026 48.6633 65.4344 49.0407 65.4139 49.44L65.2438 52.933C65.2161 53.1233 65.2318 53.3174 65.2896 53.5008C65.3475 53.6841 65.446 53.8521 65.5779 53.992C65.713 54.1302 65.8774 54.2362 66.0589 54.3023C66.2405 54.3684 66.4345 54.3929 66.6268 54.374L66.4179 56.982C66.014 56.982 65.625 57.1343 65.3284 57.4084C65.0319 57.6826 64.8496 58.0584 64.8179 58.461C64.6501 60.2528 63.8264 61.9195 62.5049 63.1411C62.2879 63.3355 62.1281 63.5855 62.0428 63.8642C61.9575 64.1428 61.9499 64.4394 62.0209 64.722L62.6788 67.3431C62.7498 67.6251 62.8959 67.8827 63.1015 68.0884C63.3072 68.294 63.5648 68.4401 63.8468 68.511L69.5959 69.945C70.5258 70.1776 71.3795 70.6475 72.0735 71.3089C72.7674 71.9702 73.2779 72.8003 73.5548 73.718L45.1509 73.7141Z" fill="#144353"/>
</svg>
