<svg id="Слой_1" data-name="Слой 1" xmlns="http://www.w3.org/2000/svg" viewBox="0 0 50 50"><defs><style>.cls-1{fill:red;}.cls-2{fill:#fff;}</style></defs><path class="cls-1" d="M42.64,7.36A24.95,24.95,0,1,0,26.81,49.88H50V25A24.88,24.88,0,0,0,42.64,7.36Z"/><path class="cls-2" d="M39.63,34.34l-4.32.06a3,3,0,0,1-2.14-.65c-1.63-1.12-3.16-4-4.34-3.63s-1.17,3-1.17,3a1.4,1.4,0,0,1-.26.86,1.71,1.71,0,0,1-.88.38H24.58a11.08,11.08,0,0,1-8-3.65C12.46,26.42,8.84,18,8.84,18s-.21-.57,0-.83,1-.33,1-.33l4.62,0a2.25,2.25,0,0,1,.75.3,1.54,1.54,0,0,1,.39.54,31,31,0,0,0,1.75,3.61c1.93,3.33,2.82,4.07,3.48,3.7,1-.51.67-4.71.67-4.71A4.7,4.7,0,0,0,21,18a2.19,2.19,0,0,0-1.44-.72c-.25,0,.17-.64.72-.91A10.86,10.86,0,0,1,24.32,16a8.36,8.36,0,0,1,2.27.24c1.59.38,1.05,1.86,1.05,5.44,0,1.14-.21,2.74.62,3.28.35.22,1.22,0,3.38-3.65a28.26,28.26,0,0,0,1.8-3.8,1.41,1.41,0,0,1,.43-.52,1.08,1.08,0,0,1,.62-.11l4.87,0s1.46-.19,1.7.48-.54,2.31-2.54,4.95c-3.25,4.36-3.62,4-.92,6.46a14.65,14.65,0,0,1,3.22,3.72C41.9,34.2,39.63,34.34,39.63,34.34Z"/></svg>