<svg id="Слой_1" data-name="Слой 1" xmlns="http://www.w3.org/2000/svg" viewBox="0 0 50 50"><defs><style>.cls-1{fill:red;}.cls-2{fill:#fff;}</style></defs><path class="cls-1" d="M42.64,7.36A24.95,24.95,0,1,0,26.81,49.88H50V25A24.88,24.88,0,0,0,42.64,7.36Z"/><path class="cls-2" d="M29.71,27.28l3,1.27a1.76,1.76,0,0,1,.94,2.34,1,1,0,0,1-.24.35C30.74,33.67,28,33.06,25.05,31a33.82,33.82,0,0,1-3.68-3.18,33.64,33.64,0,0,1-3.17-3.67c-2.08-2.93-2.7-5.69-.26-8.37a1.35,1.35,0,0,1,.35-.24,1.77,1.77,0,0,1,2.34.94l1.27,3a1.78,1.78,0,0,1-.29,1.86c-.48.55-.79.77-.5,1.27a17.92,17.92,0,0,0,2.39,3.08,18.24,18.24,0,0,0,3.09,2.39c.5.29.72,0,1.27-.49A1.74,1.74,0,0,1,29.71,27.28Z"/><path class="cls-2" d="M11.54,11.54A18.75,18.75,0,0,0,6,24.9c0,14.38,15.5,23.39,28.06,16.6l10.06,2.63-2.69-9.79A18.84,18.84,0,0,0,44,24.89C44,8.24,23.73-.33,11.52,11.48ZM9.16,24.85A15.79,15.79,0,0,1,24.94,9.12,15.73,15.73,0,0,1,38.32,33.18l-.38.6,1.6,5.79-6-1.55-.57.34A15.82,15.82,0,0,1,9.16,24.85Z"/></svg>