<svg width="18" height="13" viewBox="0 0 18 13" fill="none" xmlns="http://www.w3.org/2000/svg">
<path d="M0.402813 2.0057C0.770059 0.676089 1.89353 0.432812 1.96848 0.386145C3.81745 -0.127951 14.1813 -0.129481 16.058 0.386145C17.3434 0.765597 17.5794 1.9292 17.6237 2.0057C18.1131 4.6634 18.1453 8.12819 17.6012 11.1439L17.6237 10.994C17.2564 12.3236 16.1329 12.5669 16.058 12.6135C14.2338 13.1192 3.84293 13.1383 1.96848 12.6135C0.683119 12.2333 0.447032 11.0705 0.402813 10.994C-0.121075 8.20087 -0.147307 4.99618 0.402813 2.0057V2.0057ZM7.2126 3.70635V9.28568L11.9089 6.49181L7.2126 3.70635Z" fill="white"/>
</svg>
