<svg id="Слой_1" data-name="Слой 1" xmlns="http://www.w3.org/2000/svg" viewBox="0 0 50 50"><defs><style>.cls-1{fill:red;}.cls-2{fill:#fff;}</style></defs><path class="cls-1" d="M42.64,7.36A24.95,24.95,0,1,0,26.81,49.88H50V25A24.88,24.88,0,0,0,42.64,7.36Z"/><path class="cls-2" d="M40,25.24a37.6,37.6,0,0,1-.58,6.81,3.56,3.56,0,0,1-2.5,2.5c-2.21.58-11.08.58-11.08.58s-8.85,0-11.09-.61A3.52,3.52,0,0,1,12.25,32a36.94,36.94,0,0,1-.59-6.82,37,37,0,0,1,.59-6.81,3.58,3.58,0,0,1,2.49-2.52c2.22-.59,11.09-.59,11.09-.59s8.87,0,11.08.61a3.55,3.55,0,0,1,2.5,2.5A35.18,35.18,0,0,1,40,25.24Z"/><path class="cls-1" d="M23,29.46l7.38-4.25L23,21Z"/></svg>