<svg width="20" height="13" viewBox="0 0 20 13" fill="none" xmlns="http://www.w3.org/2000/svg">
<path d="M19.0982 10.9658C18.8734 11.7612 18.2148 12.3882 17.3796 12.6024C15.8537 13 9.74981 13 9.74981 13C9.74981 13 3.64612 13 2.12016 12.6175C1.30102 12.4035 0.626332 11.7611 0.401537 10.9658C0 9.51301 0 6.5 0 6.5C0 6.5 0 3.47183 0.401537 2.03417C0.626481 1.23892 1.28495 0.611811 2.12031 0.397627C3.66219 9.53674e-07 9.74996 9.53674e-07 9.74996 9.53674e-07C9.74996 9.53674e-07 15.8537 9.53674e-07 17.3796 0.38247C18.215 0.596512 18.8734 1.22362 19.0984 2.01887C19.4999 3.47183 19.4999 6.4847 19.4999 6.4847C19.4999 6.4847 19.516 9.51301 19.0982 10.9658Z" fill="#FF0000"/>
<path d="M7.80664 3.71612L12.8823 6.49966L7.80664 9.2832V3.71612Z" fill="white"/>
</svg>
