<svg id="Слой_1" data-name="Слой 1" xmlns="http://www.w3.org/2000/svg" viewBox="0 0 50 50"><defs><style>.cls-1{fill:red;}.cls-2{fill:#fff;}</style></defs><path class="cls-1" d="M42.64,7.36A24.95,24.95,0,1,0,26.81,49.88H50V25A24.88,24.88,0,0,0,42.64,7.36Z"/><path class="cls-2" d="M39.12,24.92V25H39c-.22,0-.43,0-.64,0-1.06,0-2.12-.07-3.17-.14a18,18,0,0,1-3.86-.55,6.72,6.72,0,0,1-3-1.71,6.61,6.61,0,0,1-1.6-2.55,12.6,12.6,0,0,1-.53-2.36c-.16-1.2-.23-2.4-.28-3.61,0-.76-.05-1.52-.08-2.28h0v-.1h2.13c1,0,2,0,3,.09l.32,0a16.31,16.31,0,0,1,3.26.46,7.14,7.14,0,0,1,1.79.72,4.48,4.48,0,0,1,1.89,2.29,11,11,0,0,1,.61,2.38c.07.49.13,1,.17,1.48s.07,1,.08,1.51c0,.72,0,1.44,0,2.16S39.12,24.23,39.12,24.92Z"/><path class="cls-2" d="M39.12,27.44c0,1.13-.06,2.27-.12,3.41,0,.14,0,.28,0,.42a14.68,14.68,0,0,1-.51,3.08,6,6,0,0,1-1,2.09,4.62,4.62,0,0,1-1.82,1.33,9.79,9.79,0,0,1-2.33.63q-.57.09-1.14.15c-.71.07-1.43.11-2.14.12-1.37,0-2.75,0-4.12,0H25.8V38c.05-1.06.08-2.12.14-3.18A19.24,19.24,0,0,1,26.47,31a6.83,6.83,0,0,1,1.7-3.09,6.67,6.67,0,0,1,2.62-1.65,11.89,11.89,0,0,1,2.42-.53c1.3-.17,2.6-.23,3.9-.28L39,25.39h.14v.11C39.12,26.14,39.13,26.79,39.12,27.44Z"/><path class="cls-2" d="M25.44,12.34c0,.59,0,1.18-.06,1.76A35.62,35.62,0,0,1,25.07,18a9.35,9.35,0,0,1-.93,3.1,6.5,6.5,0,0,1-4,3.21,12.69,12.69,0,0,1-2.38.47c-1.27.15-2.55.21-3.83.26l-1.67,0h-.14v-.15c0-1,0-2,0-3s0-1.87.13-2.81c0-.3.05-.6.09-.91A12.27,12.27,0,0,1,13,15.42a4.62,4.62,0,0,1,2.91-2.86A11.39,11.39,0,0,1,18.35,12q.79-.11,1.59-.15c.6-.05,1.21-.07,1.82-.08l3.62,0h.06a.41.41,0,0,0,0,.11C25.45,12,25.45,12.17,25.44,12.34Z"/><path class="cls-2" d="M25.46,38.6c0,.1,0,.12-.12.12H22.41c-.73,0-1.87-.07-3-.15l-.31,0A13.19,13.19,0,0,1,16.25,38a5.49,5.49,0,0,1-2.05-1.12,4.67,4.67,0,0,1-1.1-1.6,10.27,10.27,0,0,1-.65-2.43c-.08-.49-.14-1-.18-1.49s-.08-1.2-.1-1.8c0-1.35,0-2.7-.05-4.05,0-.11,0-.14.14-.14h0l3.17.13a23.11,23.11,0,0,1,4,.46,7.35,7.35,0,0,1,2.91,1.29,6.55,6.55,0,0,1,2.32,3.34,13.56,13.56,0,0,1,.52,2.61c.15,1.37.2,2.74.25,4.12,0,.4,0,.81,0,1.22Z"/></svg>