<svg id="Слой_1" data-name="Слой 1" xmlns="http://www.w3.org/2000/svg" viewBox="0 0 50 50"><defs><style>.cls-1{fill:red;}.cls-2{fill:#fff;}</style></defs><path class="cls-1" d="M42.64,7.36A24.95,24.95,0,1,0,26.81,49.88H50V25A24.88,24.88,0,0,0,42.64,7.36Z"/><path class="cls-2" d="M41,24.88V25h-.17c-.25,0-.49,0-.73,0-1.2-.05-2.41-.09-3.61-.16a21,21,0,0,1-4.39-.63,7.88,7.88,0,0,1-3.47-1.95,7.49,7.49,0,0,1-1.81-2.9,13,13,0,0,1-.61-2.69,40.37,40.37,0,0,1-.31-4.11c0-.87-.06-1.74-.09-2.6h0V9.86h.09c.78,0,1.55,0,2.33,0,1.15,0,2.3,0,3.44.1L32,10a18.54,18.54,0,0,1,3.71.53,8.22,8.22,0,0,1,2,.82,5,5,0,0,1,2.15,2.61,11.5,11.5,0,0,1,.7,2.71c.08.56.14,1.12.19,1.68s.08,1.15.1,1.72c0,.82,0,1.64,0,2.46S41,24.09,41,24.88Z"/><path class="cls-2" d="M41,27.74c0,1.3-.06,2.6-.13,3.89l0,.48a16.71,16.71,0,0,1-.58,3.51A6.66,6.66,0,0,1,39.1,38,5.17,5.17,0,0,1,37,39.51a11.07,11.07,0,0,1-2.65.72c-.43.06-.87.12-1.3.16-.81.09-1.62.13-2.44.15-1.56,0-3.13,0-4.69.05h-.12a1.34,1.34,0,0,0,0-.2c0-.22,0-.45,0-.67.05-1.21.09-2.42.16-3.62a20.63,20.63,0,0,1,.6-4.29,7.76,7.76,0,0,1,1.93-3.53,7.54,7.54,0,0,1,3-1.87,13.75,13.75,0,0,1,2.76-.61c1.47-.19,2.95-.26,4.43-.32l2.13-.07H41v.13C41,26.27,41,27,41,27.74Z"/><path class="cls-2" d="M25.42,10.55c0,.67,0,1.34-.07,2A43.25,43.25,0,0,1,25,17a10.59,10.59,0,0,1-1,3.53,7.37,7.37,0,0,1-4.55,3.66,15.48,15.48,0,0,1-2.71.54c-1.45.17-2.91.23-4.37.29l-1.9.06h-.16v-.17c0-1.14,0-2.27,0-3.4s.05-2.13.14-3.19c0-.35.07-.69.11-1a14,14,0,0,1,.72-3.18,5.27,5.27,0,0,1,3.32-3.26,12.61,12.61,0,0,1,2.78-.64c.6-.08,1.2-.14,1.81-.18s1.38-.07,2.07-.08c1.38,0,2.75,0,4.13-.05h.07v.69Z"/><path class="cls-2" d="M25.44,40.45c0,.12,0,.15-.14.15H22c-.83,0-2.13-.08-3.43-.17l-.35,0a14.81,14.81,0,0,1-3.24-.6,6.26,6.26,0,0,1-2.33-1.28,5.29,5.29,0,0,1-1.25-1.82,11.14,11.14,0,0,1-.75-2.77c-.09-.56-.16-1.13-.21-1.7s-.09-1.36-.1-2c0-1.54,0-3.07-.06-4.61,0-.12,0-.16.16-.15h0c1.21.05,2.41.08,3.62.14a25.58,25.58,0,0,1,4.53.53,8.47,8.47,0,0,1,3.32,1.46,7.45,7.45,0,0,1,2.63,3.8,15.12,15.12,0,0,1,.59,3c.18,1.55.24,3.12.29,4.69,0,.46,0,.92.05,1.38Z"/></svg>