<svg width="140" height="140" viewBox="0 0 140 140" fill="none" xmlns="http://www.w3.org/2000/svg">
<circle cx="70" cy="70" r="70" fill="#094049"/>
<g clip-path="url(#clip0)">
<path d="M117.7 80.4002C118.045 80.4002 118.375 80.2632 118.619 80.0193C118.863 79.7755 119 79.4447 119 79.0999V73.8997C119 73.5548 118.863 73.2241 118.619 72.9803C118.375 72.7364 118.045 72.5994 117.7 72.5994H111.984C110.341 72.5977 108.721 72.2046 107.26 71.4525C105.799 70.7005 104.538 69.6112 103.581 68.2748C102.241 66.4019 100.365 64.9782 98.2009 64.1905V60.8996C98.2008 60.7287 98.167 60.5595 98.1014 60.4017C98.0359 60.2438 97.9399 60.1005 97.8189 59.9798C97.6979 59.8591 97.5543 59.7635 97.3964 59.6983C97.2384 59.6332 97.0691 59.5998 96.8982 59.6001H91.698C91.3532 59.6001 91.0224 59.7371 90.7786 59.9809C90.5347 60.2248 90.3978 60.5555 90.3978 60.9004V64.1913C88.2333 64.9789 86.3577 66.4027 85.0172 68.2756C84.0606 69.6118 82.7995 70.7009 81.3383 71.4528C79.8771 72.2047 78.2579 72.5977 76.6146 72.5994H70.898C70.5534 72.6001 70.2232 72.7375 69.9798 72.9814C69.7365 73.2253 69.5999 73.5559 69.6001 73.9005V79.1007C69.6001 79.4455 69.7371 79.7763 69.9809 80.0201C70.2248 80.264 70.5555 80.4009 70.9003 80.4009H75.2968L72.6971 85.6012H70.9003C70.5561 85.6012 70.2258 85.7377 69.9821 85.9809C69.7383 86.224 69.6009 86.5539 69.6001 86.8982V87.548C69.6001 89.789 70.4904 91.9383 72.0751 93.523C73.6597 95.1077 75.8091 95.998 78.0501 95.998C80.2912 95.998 82.4405 95.1077 84.0252 93.523C85.6099 91.9383 86.5002 89.789 86.5002 87.548V86.8982C86.5002 86.5534 86.3632 86.2227 86.1194 85.9788C85.8755 85.735 85.5448 85.598 85.1999 85.598H83.4032L80.8035 80.3978H85.1999C85.4356 80.3977 85.6667 80.3337 85.8688 80.2126L90.1399 77.6504C90.2261 77.5972 90.3131 77.5474 90.4009 77.5011V98.2046L88.4055 101.198H83.9013C83.6599 101.198 83.4232 101.265 83.2178 101.392C83.0124 101.519 82.8464 101.7 82.7383 101.916L80.1386 107.116C80.0396 107.315 79.9929 107.535 80.0029 107.756C80.0129 107.978 80.0793 108.193 80.1958 108.381C80.3123 108.57 80.475 108.725 80.6686 108.833C80.8621 108.941 81.08 108.998 81.3016 108.998H107.302C107.523 108.998 107.741 108.941 107.935 108.833C108.128 108.725 108.291 108.57 108.408 108.381C108.524 108.193 108.591 107.978 108.601 107.756C108.611 107.535 108.564 107.315 108.465 107.116L105.865 101.916C105.757 101.7 105.591 101.519 105.386 101.392C105.18 101.265 104.944 101.198 104.702 101.198H100.198L98.2025 98.2046V77.5035C98.2903 77.5514 98.3773 77.6009 98.4627 77.6528L102.733 80.215C102.935 80.3361 103.166 80.4001 103.402 80.4002H107.798L105.199 85.6004H103.402C103.057 85.6004 102.726 85.7374 102.482 85.9812C102.239 86.225 102.102 86.5558 102.102 86.9006V87.5503C102.102 89.7914 102.992 91.9407 104.577 93.5254C106.161 95.1101 108.311 96.0004 110.552 96.0004C112.793 96.0004 114.942 95.1101 116.527 93.5254C118.111 91.9407 119.002 89.7914 119.002 87.5503V86.8982C119.002 86.5534 118.865 86.2227 118.621 85.9788C118.377 85.735 118.046 85.598 117.701 85.598H115.905L113.305 80.3978L117.7 80.4002ZM92.9998 62.2014H95.5996V63.5767C94.7359 63.476 93.8635 63.476 92.9998 63.5767V62.2014ZM78.0497 93.4011C76.6112 93.3992 75.2237 92.8682 74.1515 91.9092C73.0793 90.9502 72.3974 89.6303 72.2357 88.2009H83.8638C83.7019 89.6301 83.0199 90.9499 81.9477 91.9087C80.8756 92.8675 79.4881 93.3984 78.0497 93.4003V93.4011ZM75.6033 85.6012L78.0497 80.7083L80.4962 85.6012H75.6033ZM105.199 106.4H83.4088L84.709 103.801H103.902L105.199 106.4ZM95.8215 99.3213L97.0738 101.2H91.532L92.7843 99.3213C92.9264 99.1086 93.0024 98.8587 93.0031 98.6029V76.6063C93.8639 76.465 94.7419 76.465 95.6028 76.6063V98.6005C95.6034 98.8563 95.6794 99.1062 95.8215 99.3189V99.3213ZM99.8012 75.4226C98.1403 74.4262 96.2398 73.8998 94.3029 73.8998C92.366 73.8998 90.4655 74.4262 88.8046 75.4226L84.8431 77.7996H72.1998V75.1999H76.617C78.6742 75.1979 80.7013 74.7058 82.5304 73.7644C84.3596 72.823 85.9382 71.4594 87.1355 69.7866C87.9502 68.6462 89.0252 67.7168 90.2714 67.0756C91.5175 66.4343 92.8987 66.0998 94.3001 66.0998C95.7015 66.0998 97.0827 66.4343 98.3289 67.0756C99.575 67.7168 100.65 68.6462 101.465 69.7866C102.662 71.4594 104.241 72.823 106.07 73.7644C107.899 74.7058 109.926 75.1979 111.983 75.1999H116.4V77.7988H103.763L99.8012 75.4226ZM110.553 93.3995C109.114 93.3976 107.727 92.8666 106.655 91.9076C105.582 90.9486 104.901 89.6287 104.739 88.1993H116.367C116.205 89.6287 115.523 90.9486 114.451 91.9076C113.379 92.8666 111.991 93.3976 110.553 93.3995ZM108.106 85.5996L110.553 80.7067L112.999 85.5996H108.106Z" fill="#FFF1AC"/>
<path d="M94.3791 71.9083C95.922 71.9083 97.1728 70.8362 97.1728 69.5137C97.1728 68.1912 95.922 67.1191 94.3791 67.1191C92.8362 67.1191 91.5854 68.1912 91.5854 69.5137C91.5854 70.8362 92.8362 71.9083 94.3791 71.9083Z" fill="#FFF1AC"/>
<path d="M44.9 109H77.3975V106.4H44.9C44.5552 106.4 44.2248 106.263 43.981 106.019C43.7373 105.775 43.6001 105.445 43.5997 105.1V34.9C43.6001 34.5553 43.7373 34.2248 43.981 33.981C44.2248 33.7373 44.5552 33.6002 44.9 33.5997H80.4466C80.7339 33.5998 81.0203 33.6314 81.3006 33.6939V46.5999C81.3028 48.323 81.9882 49.975 83.2067 51.1935C84.4252 52.412 86.0771 53.0974 87.8003 53.0995H95.6002V50.4998H87.8003C86.7664 50.4986 85.7751 50.0873 85.044 49.3562C84.3129 48.625 83.9016 47.6338 83.9004 46.5999V35.4388L99.6582 51.1943C100.021 51.5556 100.309 51.9854 100.506 52.4587C100.702 52.9321 100.802 53.4396 100.8 53.952V63.4984H103.4V53.9536C103.402 53.0998 103.235 52.2541 102.908 51.4654C102.582 50.6766 102.102 49.9605 101.496 49.3584L85.0426 32.9037C84.4404 32.2982 83.7242 31.8182 82.9353 31.4915C82.1464 31.1647 81.3005 30.9977 80.4466 31H44.9C43.866 31.0013 42.8748 31.4126 42.1437 32.1437C41.4126 32.8748 41.0013 33.866 41 34.9V105.1C41.0013 106.134 41.4126 107.125 42.1437 107.856C42.8748 108.587 43.866 108.999 44.9 109Z" fill="#FFF1AC"/>
<path d="M76.819 42.375H50.4787C50.2583 42.375 50.0796 42.5537 50.0796 42.7741C50.0796 42.9945 50.2583 43.1732 50.4787 43.1732H76.819C77.0394 43.1732 77.2181 42.9945 77.2181 42.7741C77.2181 42.5537 77.0394 42.375 76.819 42.375Z" fill="#FFF1AC"/>
<path d="M76.4199 46.3662H50.8778C50.437 46.3662 50.0796 46.7236 50.0796 47.1644V47.9626C50.0796 48.4034 50.437 48.7608 50.8778 48.7608H76.4199C76.8607 48.7608 77.2181 48.4034 77.2181 47.9626V47.1644C77.2181 46.7236 76.8607 46.3662 76.4199 46.3662Z" fill="#FFF1AC"/>
<path d="M76.4199 50.3569H50.8778C50.437 50.3569 50.0796 50.7143 50.0796 51.1551V51.9533C50.0796 52.3941 50.437 52.7515 50.8778 52.7515H76.4199C76.8607 52.7515 77.2181 52.3941 77.2181 51.9533V51.1551C77.2181 50.7143 76.8607 50.3569 76.4199 50.3569Z" fill="#FFF1AC"/>
<path d="M76.4199 54.3477H50.8778C50.437 54.3477 50.0796 54.705 50.0796 55.1458V55.944C50.0796 56.3849 50.437 56.7422 50.8778 56.7422H76.4199C76.8607 56.7422 77.2181 56.3849 77.2181 55.944V55.1458C77.2181 54.705 76.8607 54.3477 76.4199 54.3477Z" fill="#FFF1AC"/>
<path d="M72.4289 59.1372H50.8778C50.437 59.1372 50.0796 59.4946 50.0796 59.9354C50.0796 60.3762 50.437 60.7336 50.8778 60.7336H72.4289C72.8698 60.7336 73.2271 60.3762 73.2271 59.9354C73.2271 59.4946 72.8698 59.1372 72.4289 59.1372Z" fill="#FFF1AC"/>
<path d="M59.6579 89.4683H50.8778C50.437 89.4683 50.0796 89.8256 50.0796 90.2665C50.0796 90.7073 50.437 91.0646 50.8778 91.0646H59.6579C60.0987 91.0646 60.4561 90.7073 60.4561 90.2665C60.4561 89.8256 60.0987 89.4683 59.6579 89.4683Z" fill="#FFF1AC"/>
<path d="M65.2452 63.1279H50.8778C50.437 63.1279 50.0796 63.4853 50.0796 63.9261C50.0796 64.3669 50.437 64.7243 50.8778 64.7243H65.2452C65.686 64.7243 66.0434 64.3669 66.0434 63.9261C66.0434 63.4853 65.686 63.1279 65.2452 63.1279Z" fill="#FFF1AC"/>
<path d="M65.2452 94.2573H50.8778C50.437 94.2573 50.0796 94.6147 50.0796 95.0555C50.0796 95.4963 50.437 95.8537 50.8778 95.8537H65.2452C65.686 95.8537 66.0434 95.4963 66.0434 95.0555C66.0434 94.6147 65.686 94.2573 65.2452 94.2573Z" fill="#FFF1AC"/>
<path d="M59.6579 67.1191H50.8778C50.437 67.1191 50.0796 67.4765 50.0796 67.9173C50.0796 68.3582 50.437 68.7155 50.8778 68.7155H59.6579C60.0987 68.7155 60.4561 68.3582 60.4561 67.9173C60.4561 67.4765 60.0987 67.1191 59.6579 67.1191Z" fill="#FFF1AC"/>
<path d="M59.6579 98.2485H50.8778C50.437 98.2485 50.0796 98.6059 50.0796 99.0467C50.0796 99.4876 50.437 99.8449 50.8778 99.8449H59.6579C60.0987 99.8449 60.4561 99.4876 60.4561 99.0467C60.4561 98.6059 60.0987 98.2485 59.6579 98.2485Z" fill="#FFF1AC"/>
<path d="M72.4286 63.1279H67.6395C67.1987 63.1279 66.8413 63.4853 66.8413 63.9261C66.8413 64.3669 67.1987 64.7243 67.6395 64.7243H72.4286C72.8695 64.7243 73.2268 64.3669 73.2268 63.9261C73.2268 63.4853 72.8695 63.1279 72.4286 63.1279Z" fill="#FFF1AC"/>
</g>
<defs>
<clipPath id="clip0">
<rect width="78" height="78" fill="white" transform="translate(41 31)"/>
</clipPath>
</defs>
</svg>
