<svg width="140" height="140" viewBox="0 0 140 140" fill="none" xmlns="http://www.w3.org/2000/svg">
<circle cx="70" cy="70" r="70" fill="#094049"/>
<g clip-path="url(#clip0)">
<path d="M94.4059 66.2729C89.6044 66.2729 84.9107 67.6968 80.9183 70.3644C76.926 73.032 73.8144 76.8235 71.9769 81.2595C70.1394 85.6956 69.6587 90.5769 70.5954 95.2862C71.5321 99.9954 73.8443 104.321 77.2395 107.716C80.6347 111.112 84.9604 113.424 89.6697 114.36C94.379 115.297 99.2603 114.816 103.696 112.979C108.132 111.142 111.924 108.03 114.592 104.038C117.259 100.045 118.683 95.3515 118.683 90.5499C118.683 84.1113 116.125 77.9363 111.572 73.3835C107.02 68.8307 100.845 66.2729 94.4059 66.2729ZM94.4059 111.973C90.1694 111.973 86.0282 110.716 82.5058 108.362C78.9834 106.008 76.2382 102.663 74.6171 98.7485C72.996 94.8344 72.572 90.5275 73.3986 86.3724C74.2252 82.2174 76.2653 78.4007 79.261 75.405C82.2566 72.4094 86.0733 70.3692 90.2284 69.5426C94.3835 68.7161 98.6904 69.1401 102.604 70.7611C106.519 72.3822 109.864 75.1275 112.218 78.6498C114.572 82.1722 115.829 86.3134 115.829 90.5499C115.829 93.3633 115.275 96.1492 114.199 98.7485C113.122 101.348 111.544 103.71 109.555 105.699C107.565 107.688 105.204 109.266 102.604 110.343C100.005 111.419 97.2193 111.973 94.4059 111.973Z" fill="#FFF1AC"/>
<path d="M95.8332 86.5278V77.6968H92.9772V86.5278C92.3798 86.7409 91.8374 87.0841 91.3889 87.5325C90.9405 87.9809 90.5973 88.5235 90.3842 89.1208H84.4092V91.9768H90.3842C90.6237 92.6586 91.0322 93.2686 91.5716 93.7497C92.1109 94.2308 92.7634 94.5672 93.4681 94.7276C94.1728 94.888 94.9066 94.8671 95.601 94.6668C96.2954 94.4665 96.9277 94.0934 97.4388 93.5824C97.9498 93.0713 98.3229 92.4391 98.5232 91.7447C98.7235 91.0503 98.7444 90.3164 98.584 89.6117C98.4236 88.907 98.0872 88.2545 97.6061 87.7152C97.125 87.1759 96.5151 86.7673 95.8332 86.5278ZM94.4092 91.9778C94.1267 91.9778 93.8506 91.894 93.6158 91.7371C93.381 91.5802 93.198 91.3572 93.0899 91.0963C92.9818 90.8353 92.9535 90.5482 93.0086 90.2712C93.0637 89.9942 93.1997 89.7397 93.3994 89.54C93.5992 89.3403 93.8536 89.2043 94.1306 89.1492C94.4076 89.0941 94.6947 89.1224 94.9557 89.2305C95.2166 89.3386 95.4396 89.5216 95.5965 89.7564C95.7534 89.9912 95.8372 90.2673 95.8372 90.5498C95.8372 90.9285 95.6867 91.2917 95.4189 91.5595C95.1511 91.8273 94.7879 91.9778 94.4092 91.9778Z" fill="#FFF1AC"/>
<path d="M75.8408 89.1211H78.6968V91.9771H75.8408V89.1211Z" fill="#FFF1AC"/>
<path d="M92.978 106.258H95.834V109.114H92.978V106.258Z" fill="#FFF1AC"/>
<path d="M110.114 89.1211H112.97V91.9771H110.114V89.1211Z" fill="#FFF1AC"/>
<path d="M92.978 71.9849H95.834V74.8409H92.978V71.9849Z" fill="#FFF1AC"/>
<path d="M35.856 93.406V51.992H101.546V64.845H104.4V44.852C104.398 42.9591 103.645 41.1444 102.306 39.8059C100.968 38.4674 99.1529 37.7144 97.26 37.712H87.26V36.284C87.26 35.1478 86.8087 34.0582 86.0052 33.2548C85.2018 32.4513 84.1122 32 82.976 32C81.8398 32 80.7502 32.4513 79.9468 33.2548C79.1433 34.0582 78.692 35.1478 78.692 36.284V37.712H58.7V36.284C58.7 35.1478 58.2487 34.0582 57.4452 33.2548C56.6418 32.4513 55.5522 32 54.416 32C53.2798 32 52.1902 32.4513 51.3868 33.2548C50.5833 34.0582 50.132 35.1478 50.132 36.284V37.712H40.132C38.2405 37.7165 36.4278 38.4704 35.0911 39.8087C33.7543 41.147 33.0024 42.9605 33 44.852V93.406C33.0024 95.2989 33.7554 97.1136 35.0939 98.4521C36.4324 99.7906 38.2471 100.544 40.14 100.546H68.7V97.69H40.14C39.0038 97.69 37.9142 97.2386 37.1108 96.4352C36.3073 95.6318 35.856 94.5422 35.856 93.406ZM81.556 36.285C81.556 35.9063 81.7064 35.5431 81.9743 35.2753C82.2421 35.0074 82.6053 34.857 82.984 34.857C83.3627 34.857 83.7259 35.0074 83.9937 35.2753C84.2616 35.5431 84.412 35.9063 84.412 36.285V42C84.412 42.3787 84.2616 42.7419 83.9937 43.0097C83.7259 43.2776 83.3627 43.428 82.984 43.428C82.6053 43.428 82.2421 43.2776 81.9743 43.0097C81.7064 42.7419 81.556 42.3787 81.556 42V36.285ZM52.995 36.285C52.995 35.9063 53.1455 35.5431 53.4133 35.2753C53.6811 35.0074 54.0443 34.857 54.423 34.857C54.8017 34.857 55.1649 35.0074 55.4327 35.2753C55.7006 35.5431 55.851 35.9063 55.851 36.285V42C55.851 42.3787 55.7006 42.7419 55.4327 43.0097C55.1649 43.2776 54.8017 43.428 54.423 43.428C54.0443 43.428 53.6811 43.2776 53.4133 43.0097C53.1455 42.7419 52.995 42.3787 52.995 42V36.285ZM40.14 40.568H50.14V42C50.1877 43.1031 50.6595 44.1452 51.4569 44.9089C52.2543 45.6726 53.3159 46.0989 54.42 46.0989C55.5241 46.0989 56.5857 45.6726 57.3831 44.9089C58.1805 44.1452 58.6523 43.1031 58.7 42V40.568H78.7V42C78.7 43.1362 79.1513 44.2258 79.9548 45.0292C80.7582 45.8327 81.8478 46.284 82.984 46.284C84.1202 46.284 85.2098 45.8327 86.0132 45.0292C86.8167 44.2258 87.268 43.1362 87.268 42V40.568H97.268C97.8306 40.568 98.3877 40.6788 98.9074 40.8941C99.4272 41.1094 99.8994 41.4249 100.297 41.8228C100.695 42.2206 101.011 42.6928 101.226 43.2126C101.441 43.7323 101.552 44.2894 101.552 44.852V49.136H35.856V44.852C35.856 43.7158 36.3073 42.6262 37.1108 41.8228C37.9142 41.0193 39.0038 40.568 40.14 40.568Z" fill="#FFF1AC"/>
<path d="M52.9919 63.417C52.9919 62.6596 52.691 61.9331 52.1554 61.3975C51.6198 60.8619 50.8933 60.561 50.1359 60.561H44.4239C43.6664 60.561 42.94 60.8619 42.4044 61.3975C41.8688 61.9331 41.5679 62.6596 41.5679 63.417V69.129C41.5679 69.8865 41.8688 70.6129 42.4044 71.1485C42.94 71.6841 43.6664 71.985 44.4239 71.985H50.1359C50.8933 71.985 51.6198 71.6841 52.1554 71.1485C52.691 70.6129 52.9919 69.8865 52.9919 69.129V63.417ZM44.4239 69.129V63.417H50.1359V69.129H44.4239Z" fill="#FFF1AC"/>
<path d="M67.2731 63.417C67.2731 62.6596 66.9722 61.9331 66.4366 61.3975C65.901 60.8619 65.1746 60.561 64.4171 60.561H58.7051C57.9477 60.561 57.2212 60.8619 56.6856 61.3975C56.15 61.9331 55.8491 62.6596 55.8491 63.417V69.129C55.8491 69.8865 56.15 70.6129 56.6856 71.1485C57.2212 71.6841 57.9477 71.985 58.7051 71.985H64.4171C65.1746 71.985 65.901 71.6841 66.4366 71.1485C66.9722 70.6129 67.2731 69.8865 67.2731 69.129V63.417ZM58.7051 69.129V63.417H64.4171V69.129H58.7051Z" fill="#FFF1AC"/>
<path d="M81.5529 67.701V63.417C81.5529 62.6596 81.252 61.9331 80.7164 61.3975C80.1808 60.8619 79.4544 60.561 78.6969 60.561H72.9849C72.2275 60.561 71.501 60.8619 70.9654 61.3975C70.4298 61.9331 70.1289 62.6596 70.1289 63.417V69.129C70.1289 69.8865 70.4298 70.6129 70.9654 71.1485C71.501 71.6841 72.2275 71.985 72.9849 71.985H75.8409V69.129H72.9849V63.417H78.6969V67.701H81.5529Z" fill="#FFF1AC"/>
<path d="M50.1359 77.6968H44.4239C43.6664 77.6968 42.94 77.9977 42.4044 78.5333C41.8688 79.0689 41.5679 79.7953 41.5679 80.5528V86.2648C41.5679 87.0222 41.8688 87.7487 42.4044 88.2843C42.94 88.8199 43.6664 89.1208 44.4239 89.1208H50.1359C50.8933 89.1208 51.6198 88.8199 52.1554 88.2843C52.691 87.7487 52.9919 87.0222 52.9919 86.2648V80.5528C52.9919 79.7953 52.691 79.0689 52.1554 78.5333C51.6198 77.9977 50.8933 77.6968 50.1359 77.6968ZM44.4239 86.2648V80.5528H50.1359V86.2648H44.4239Z" fill="#FFF1AC"/>
<path d="M64.4171 77.6968H58.7051C57.9477 77.6968 57.2212 77.9977 56.6856 78.5333C56.15 79.0689 55.8491 79.7953 55.8491 80.5528V86.2648C55.8491 87.0222 56.15 87.7487 56.6856 88.2843C57.2212 88.8199 57.9477 89.1208 58.7051 89.1208H64.4171C65.1746 89.1208 65.901 88.8199 66.4366 88.2843C66.9722 87.7487 67.2731 87.0222 67.2731 86.2648V80.5528C67.2731 79.7953 66.9722 79.0689 66.4366 78.5333C65.901 77.9977 65.1746 77.6968 64.4171 77.6968ZM58.7051 86.2648V80.5528H64.4171V86.2648H58.7051Z" fill="#FFF1AC"/>
<path d="M95.8332 64.845V63.417C95.8332 62.6596 95.5323 61.9331 94.9967 61.3975C94.4611 60.8619 93.7346 60.561 92.9772 60.561H87.2652C86.5077 60.561 85.7813 60.8619 85.2457 61.3975C84.7101 61.9331 84.4092 62.6596 84.4092 63.417V64.845H87.2652V63.417H92.9772V64.845H95.8332Z" fill="#FFF1AC"/>
</g>
<defs>
<clipPath id="clip0">
<rect width="85.682" height="82.826" fill="white" transform="translate(33 32)"/>
</clipPath>
</defs>
</svg>
