<svg xmlns="http://www.w3.org/2000/svg" xmlns:xlink="http://www.w3.org/1999/xlink" viewBox="0 0 591 936"><defs><style>.cls-1{fill:#e5e5e5;}.cls-2{fill:url(#Безымянный_градиент_48);}.cls-3{fill:#ffc095;}.cls-4{fill:url(#Безымянный_градиент_39);}.cls-5,.cls-9{fill:#fff;}.cls-5{opacity:0.3;}.cls-6{fill:#512a3b;}.cls-7{fill:#68453b;}.cls-8{fill:#e7915f;}.cls-10{fill:url(#Безымянный_градиент_66);}.cls-11{fill:#070605;}.cls-12{fill:#422030;}.cls-13{fill:url(#Безымянный_градиент_66-2);}.cls-14{fill:#e56266;opacity:0.1;}.cls-15{fill:url(#Безымянный_градиент_33);}.cls-16{fill:url(#Безымянный_градиент_39-2);}.cls-17{fill:url(#Безымянный_градиент_40);}.cls-18{fill:url(#Безымянный_градиент_69);}.cls-19{fill:url(#Безымянный_градиент_69-2);}.cls-20{fill:#8c5449;}.cls-21{fill:#7d8491;}.cls-22{fill:#efefef;}.cls-23{fill:#adb5c4;}.cls-24{fill:#363b3b;opacity:0.5;}.cls-25{fill:url(#Безымянный_градиент_2);}.cls-26{fill:url(#Безымянный_градиент_5);}.cls-27{fill:url(#Безымянный_градиент_5-2);}.cls-28{fill:#6e7277;}.cls-29{fill:#6b5743;}.cls-30{fill:#3f362e;}.cls-31{fill:#a398a2;}.cls-32{fill:#d2d5da;}.cls-33{fill:#50545d;}.cls-34{fill:#dfe7ea;}.cls-35{fill:#52545a;}.cls-36{fill:#e87400;}.cls-37{fill:url(#Безымянный_градиент_2-2);}</style><radialGradient id="Безымянный_градиент_48" cx="-3552" cy="-701.84" r="173.2" gradientTransform="matrix(-1, 0.02, 0.02, 1, -3255.93, 1071.89)" gradientUnits="userSpaceOnUse"><stop offset="0.04" stop-color="#cd8864"/><stop offset="0.06" stop-color="#d08b66"/><stop offset="0.2" stop-color="#e29e72"/><stop offset="0.37" stop-color="#eeab7b"/><stop offset="0.59" stop-color="#f6b380"/><stop offset="1" stop-color="#f8b581"/></radialGradient><linearGradient id="Безымянный_градиент_39" x1="-3324.58" y1="95.73" x2="-3324.58" y2="146.36" gradientTransform="matrix(-0.99, -0.11, -0.11, 0.99, -3010.82, -279.84)" gradientUnits="userSpaceOnUse"><stop offset="0" stop-color="#ffc095"/><stop offset="0.34" stop-color="#febd93"/><stop offset="0.54" stop-color="#fab58e"/><stop offset="0.71" stop-color="#f3a784"/><stop offset="0.86" stop-color="#ea9277"/><stop offset="1" stop-color="#de7865"/><stop offset="1" stop-color="#de7865"/></linearGradient><radialGradient id="Безымянный_градиент_66" cx="11783.79" cy="-895.87" r="9.2" gradientTransform="matrix(-1, -0.03, -0.03, 1, 12009.17, 1398.49)" gradientUnits="userSpaceOnUse"><stop offset="0.05" stop-color="#471b30"/><stop offset="0.15" stop-color="#451f35"/><stop offset="0.27" stop-color="#3f2b44"/><stop offset="0.4" stop-color="#363e5d"/><stop offset="0.54" stop-color="#295980"/><stop offset="0.68" stop-color="#187cad"/><stop offset="0.83" stop-color="#04a6e2"/><stop offset="0.86" stop-color="#00afee"/></radialGradient><radialGradient id="Безымянный_градиент_66-2" cx="3031.49" cy="13.94" r="9.2" gradientTransform="translate(-2633.56 -529.03) rotate(13.45)" xlink:href="#Безымянный_градиент_66"/><radialGradient id="Безымянный_градиент_33" cx="-1786.36" cy="337.08" r="30.24" gradientTransform="matrix(-0.72, -0.11, -0.08, 0.99, -986.14, -279.84)" gradientUnits="userSpaceOnUse"><stop offset="0" stop-color="#ffc095"/><stop offset="0.08" stop-color="#fdb992"/><stop offset="0.34" stop-color="#f8a98b"/><stop offset="0.63" stop-color="#f59f86"/><stop offset="1" stop-color="#f49c85"/></radialGradient><linearGradient id="Безымянный_градиент_39-2" x1="-3397.84" y1="115.04" x2="-3383.86" y2="115.04" xlink:href="#Безымянный_градиент_39"/><linearGradient id="Безымянный_градиент_40" x1="-3265.41" y1="117.94" x2="-3251.77" y2="117.94" gradientTransform="matrix(-0.99, -0.11, -0.11, 0.99, -3010.82, -279.84)" gradientUnits="userSpaceOnUse"><stop offset="0" stop-color="#de7865"/><stop offset="0" stop-color="#de7865"/><stop offset="0.14" stop-color="#ea9277"/><stop offset="0.29" stop-color="#f3a784"/><stop offset="0.46" stop-color="#fab58e"/><stop offset="0.66" stop-color="#febd93"/><stop offset="1" stop-color="#ffc095"/></linearGradient><linearGradient id="Безымянный_градиент_69" x1="7321.9" y1="1820.29" x2="7366.66" y2="1820.29" gradientTransform="matrix(-0.96, -0.27, -0.27, 0.96, 7878.83, 387.57)" gradientUnits="userSpaceOnUse"><stop offset="0.05" stop-color="#471b30"/><stop offset="0.61" stop-color="#602c14"/><stop offset="0.86" stop-color="#6c3506"/></linearGradient><linearGradient id="Безымянный_градиент_69-2" x1="4033.25" y1="1203.32" x2="4078" y2="1203.32" gradientTransform="translate(-3900.33 -642.97) rotate(-5.63)" xlink:href="#Безымянный_градиент_69"/><linearGradient id="Безымянный_градиент_2" x1="497.05" y1="553.91" x2="498.72" y2="553.91" gradientTransform="matrix(1, 0, 0, 1, 0, 0)" xlink:href="#Безымянный_градиент_48"/><linearGradient id="Безымянный_градиент_5" x1="265.57" y1="418.9" x2="317.8" y2="418.9" gradientUnits="userSpaceOnUse"><stop offset="0" stop-color="#f8b581"/><stop offset="0.41" stop-color="#f6b380"/><stop offset="0.63" stop-color="#eeab7b"/><stop offset="0.8" stop-color="#e29e72"/><stop offset="0.94" stop-color="#d08b66"/><stop offset="0.96" stop-color="#cd8864"/></linearGradient><linearGradient id="Безымянный_градиент_5-2" x1="339.67" y1="386.56" x2="215.4" y2="472.71" xlink:href="#Безымянный_градиент_5"/><linearGradient id="Безымянный_градиент_2-2" x1="496.78" y1="548.97" x2="526.93" y2="496.75" gradientTransform="translate(-78.99 95.17) rotate(-10)" xlink:href="#Безымянный_градиент_48"/></defs><g id="Слой_4" data-name="Слой 4"><path class="cls-1" d="M376.15,594.2c0,6.7,12.06,44.23,10.72,57.63S372.13,678.64,281,690.7s-116.6-18.76-116.6-18.76l-5.36-4c-5.36-4-6.7-8-5.36-26.81,1.28-17.83,22.79-38.87,13.4-57.63-3.83-7.67-20.1-41.54-20.1-41.54S94.7,393.17,110.79,367.71c9.6-15.2,93.81-63,93.81-63s8-25.47,10.72-29.49,20.11-6.7,20.11-6.7,79.07,9.38,81.75,12.06l44.22,44.23a12.85,12.85,0,0,1-5.36-2.68c-2.68-2.68-17.42-6.7-17.42-6.7a4.15,4.15,0,0,0,1.34,2.68c1.34,1.34,33.51,21.44,41.55,25.46s8,42.89,9.38,81.76-9.38,60.31-9.38,67c-2.72,8.19-4.93,60.62-3.15,85.31C377.6,581.46,376.15,589.28,376.15,594.2Z"/><path class="cls-2" d="M217.78,276.67c-7.68,29.45,79,64,92,89,2-3,32-112,9-158-13.61-27.23-20.55-13.52-48.59-15C209.77,189.57,229.78,230.67,217.78,276.67Z"/><path class="cls-3" d="M252.42,290.74c.74,4.93,8.2,7.36,15.3,5.83,7.57.83,10.9,6.52,16.81-1.15,3.24,0,51.3-32.28,55.32-51.07.66-3.1,3.58-54.73,3.71-54.84l-.06,0s5.4-53.71,5.53-54.87c3.61-32.76-20.21-47.24-53.27-50.88-13.86-1.53-27.15-.9-38.17,2.75a45,45,0,0,0-13.81,7.18C242.15,95,230.85,108,229.4,119.66c-.12,1-.25,2.09-.37,3.17-2.2,19.6-3.18,44.22-3.19,44.23-.92,4.76-1.93,8.9-3,12.61-.82,2.87-1.66,5.47-2.5,7.86,0,0-6.28,42.3-6.35,43C212.73,241.9,251.07,290.44,252.42,290.74Z"/><path class="cls-4" d="M262.68,217.69c.37-.94,4.94-6.91,6.12-10.44,4.79-14.36,11.18-41,15.6-40.53s4.4,26,6.13,41.81c.49,4.47,4.26,12.71,4.44,13.83.82,5.07-5.44,6.95-5.44,6.95l-1.82-.7c-2.89-1.84-8.93,3-10.48,3.28h0c-1.46-.6-6.3-6.64-9.52-5.48l-1.93.28S260.78,222.47,262.68,217.69Z"/><path class="cls-5" d="M273.6,221.12c-.29.95-.08,1.93.47,2.2s1.24-.27,1.54-1.21.08-1.93-.47-2.2S273.9,220.18,273.6,221.12Z"/><path class="cls-6" d="M269.2,226a5.81,5.81,0,0,1,3.49.94c1.7,1.17,3.15,2.47,4.78,2.65s3.34-.78,5.25-1.55a5.8,5.8,0,0,1,3.61-.15c.05,0,.08.18,0,.18-3.16,0-5.13,2.83-8.13,3.43a3.42,3.42,0,0,1-1.89-.21c-2.8-1.23-4.11-4.43-7.19-5.11C269.08,226.19,269.15,226,269.2,226Z"/><path class="cls-6" d="M270,227.32a8.3,8.3,0,0,1-2.75-.15c-1.26-.3-2.85-2.27-.7-3.33,1.8-.89,3.11.11,4,1,.66.67,1.07,1.52,1.92,2Z"/><path class="cls-6" d="M285.27,229a8.45,8.45,0,0,0,2.72.46c1.3,0,3.28-1.6,1.41-3.1a3.2,3.2,0,0,0-4.07.08A9.15,9.15,0,0,1,283,228Z"/><path class="cls-7" d="M219.45,177.11l8,18c5.25-13.3-4.17-86.19,26.23-80.38,4.38,4,11.05,7,20.52,8,7.31,5.52,17.65,7.68,29,5h0a27.35,27.35,0,0,0,3.53,1.06,9,9,0,0,0,.93.2,38.06,38.06,0,0,0,8.08.7,33.58,33.58,0,0,1,3.92-.19c1.79-.16,3.65-.43,5.52-.77.65-.11,1.31-.24,2-.38,7.38,3.73,10.26,4.73,13.49,17.92,1.59,6.49-7,55.3-9.07,65L346,189.71s21.58-68.63,10.32-78.45a26.34,26.34,0,0,0,2.33-4.55c3.86-9.83-2.68-14.59-3-14.83a1.51,1.51,0,0,1,.09.41c1.1,5.19-8.9,6.59-11.48-2.3-2.65-9.11-8-18.22-17.5-21.34a29.15,29.15,0,0,0-5.94-1.3,24.06,24.06,0,0,0-14.05,2.54v0c-3.42-18.3-31.2-19.08-31.2-19.08,1.95,1.26,9.43,5.33,5.07,16.37C284.46,50.84,265,54.68,265,54.68c7.79,1.11-6.76,5.86-19.78,19.26-9.95,10.26,3.34,15.5,3.34,15.5-11.06-3.51-24.88,6.82-26.7,13.46C218.13,116.41,217.15,161,219.45,177.11Z"/><path class="cls-8" d="M237.16,178.84s.12-13.71,18.39-12,15.18,19.35,15.18,19.43-4-11.8-16.52-13S237.16,178.84,237.16,178.84Z"/><path class="cls-9" d="M270,187.07c.27-2.81-2.78-10.3-14.32-12-13.59-2.07-18.52,4.16-18.52,4.16s1.94,8.45,14.46,11.26C264.57,193.37,270,187.07,270,187.07Z"/><path class="cls-10" d="M244.87,182.34a9.2,9.2,0,1,1,8.31,10A9.19,9.19,0,0,1,244.87,182.34Z"/><path class="cls-11" d="M258.53,183.61a4.52,4.52,0,1,0-4.92,4.08A4.53,4.53,0,0,0,258.53,183.61Z"/><path class="cls-9" d="M254.36,180.47a2.22,2.22,0,1,1,1.92,2.48A2.22,2.22,0,0,1,254.36,180.47Z"/><path class="cls-9" d="M248,184.89a1,1,0,0,1,1.12-.91,1,1,0,0,1,.92,1.12,1,1,0,1,1-2-.21Z"/><path class="cls-9" d="M256.33,183.85a.5.5,0,1,0-.57.42A.51.51,0,0,0,256.33,183.85Z"/><path class="cls-12" d="M270.11,187.16c-.43,0-.66-4.57-6-8.4-4.76-3.44-11.94-4.71-18-3.28a17.6,17.6,0,0,0-8.51,4.25c-1,1-2.16-.77.7-3.57,3.39-3.32,8-4.94,15.93-4.22,8.5.78,12.81,5.34,14.43,8.13C271.22,184.44,271.09,187.2,270.11,187.16Z"/><path class="cls-3" d="M237.34,179.85c0,.44,0,.93,0,1.51-.08,2.9,5.48,11.74,17,15S269,188,269,188l-.09,0c-2.1,1.62-7.58,4.66-17.37,2.45C241.2,188.1,238.1,181.87,237.34,179.85Z"/><path class="cls-8" d="M329,189.56s3.43-13.28-14.67-16.37S294.71,188,294.68,188s6.92-10.36,19.32-8.25S329,189.56,329,189.56Z"/><path class="cls-9" d="M295.22,189c.47-2.79,5.35-9.23,16.95-7.94,13.66,1.52,16.81,8.81,16.81,8.81s-4.06,7.66-16.88,7.14C298.8,196.49,295.22,189,295.22,189Z"/><path class="cls-13" d="M320.68,190.94a9.2,9.2,0,1,0-10.62,7.52A9.21,9.21,0,0,0,320.68,190.94Z"/><path class="cls-11" d="M307.15,188.63a4.52,4.52,0,1,1,3.7,5.22A4.52,4.52,0,0,1,307.15,188.63Z"/><path class="cls-9" d="M312,186.68a2.22,2.22,0,1,0-2.49,1.9A2.21,2.21,0,0,0,312,186.68Z"/><path class="cls-9" d="M317,192.6a1,1,0,1,0-1.17.84A1,1,0,0,0,317,192.6Z"/><path class="cls-9" d="M309.22,189.43a.51.51,0,0,1,.56-.44.5.5,0,0,1,.44.56.5.5,0,0,1-1-.12Z"/><path class="cls-12" d="M295.05,189.06c.42.09,1.82-4.24,7.94-6.57,5.49-2.09,12.75-1.46,18.25,1.49a17.51,17.51,0,0,1,7.11,6.31c.73,1.21,2.3-.18.26-3.63-2.42-4.09-6.45-6.84-14.3-8.19-8.41-1.45-13.76,1.84-16,4.11C294.69,186.14,294.1,188.85,295.05,189.06Z"/><path class="cls-3" d="M328.6,190.48c-.13.42-.25.9-.38,1.46-.67,2.82-8.33,9.93-20.28,10.05s-12.07-11.82-12.07-11.82H296c1.61,2.11,6.11,6.47,16.14,6.87C322.73,197.45,327.34,192.24,328.6,190.48Z"/><path class="cls-14" d="M246,211.38c-1.19,3.72-6.56,5.33-12,3.59s-8.84-6.17-7.65-9.9,6.56-5.33,12-3.59S247.24,207.65,246,211.38Z"/><path class="cls-14" d="M309.67,218.38c.36,3.9,5.25,6.63,10.92,6.11s10-4.1,9.62-8-5.25-6.64-10.92-6.12S309.32,214.48,309.67,218.38Z"/><path class="cls-9" d="M248,238.45c.13,2.49,19.23,15.05,26.8,16.2,9.81,1.49,24.49-2.74,30.82-8.38-8.95.36-17.26,2.38-29.05.59C267.08,245.42,255.61,240.89,248,238.45Z"/><path class="cls-15" d="M246.26,236.3l.34.8c1.62,2.24,12.46,21,27.7,23.31,17.23,2.61,30.91-10.65,31.91-14.34a1,1,0,0,0,0-.44,1,1,0,0,0-.59-.31l-.27,0-.46-.07-.93-.14-1.86-.22-3.7-.43c-2.48-.25-4.95-.5-7.41-.71l-7.39-.65c-2.45-.2-4.5,1-6.86.6s-5.24-2.31-7.67-2.82l-7.32-1.57c-4.88-1-9.79-2.05-14.72-2.85Zm1.82,1.31c2.52,1.71,8.59,5.69,13,6.91,4.87,1.31,10.24,2.89,15.29,3.79,5.11.73,19.94.86,28.35-2.12h0c-.25.22-9.63,9.14-29.17,6.18C262.75,250.42,251.37,241.92,248.08,237.61Z"/><path class="cls-3" d="M337.65,201.2c-1.17,10.65,3.28,20.06,10.19,22.41a11.45,11.45,0,0,0,2.25.5c8.16.9,15.82-7.9,17.11-19.66s5.38-21.83-2.78-22.73a18.89,18.89,0,0,0-7.19.93,35.85,35.85,0,0,0-11.54,6c-.21.16-.42.32-.61.49C341.15,192.44,338.16,196.57,337.65,201.2Z"/><path class="cls-8" d="M342.83,216.2a8.82,8.82,0,0,0,6.22,4.08c5.8.63,11.24-5.62,12.16-14s3.83-15.53-2-16.16c-3.13-.35-8.14,1.27-12.24,4.14a11.37,11.37,0,0,1-4.18,21.91Z"/><path class="cls-16" d="M340.21,204a18.3,18.3,0,0,0,2.62,12.21A11.37,11.37,0,0,0,347,194.29C343.49,196.76,340.64,200.14,340.21,204Z"/><path class="cls-3" d="M196.81,185.78c-1.29,11.74,4.28,22,12.44,22.91a10.63,10.63,0,0,0,4.78-.58c6.19-2.17,11.3-9.69,12.33-19.08a16.54,16.54,0,0,0-2.27-9.76,27.49,27.49,0,0,0-3.34-4.79,36.24,36.24,0,0,0-8.44-7.21,20.37,20.37,0,0,0-7.84-3.08C196.31,163.29,198.11,174,196.81,185.78Z"/><path class="cls-8" d="M203.08,189.83c-.85,7.67,2.78,14.37,8.11,15a7,7,0,0,0,2.62-.21,11.36,11.36,0,0,1,5.77-21c-3.14-4.23-8.19-7.45-11.5-7.81C202.75,175.14,203.92,182.15,203.08,189.83Z"/><path class="cls-17" d="M208.47,193.65a11.36,11.36,0,0,0,5.34,10.93c4.26-1.17,7.86-6.23,8.56-12.63a12.18,12.18,0,0,0-2.79-8.41A11.34,11.34,0,0,0,208.47,193.65Z"/><path class="cls-18" d="M295.47,157.64c-2.51.24-3.82,4.2.48,6.06,2.9,1.26,10.23.77,15.93,1.39s18.18,1.32,24.56,6.17c0,0-2.45-9.45-8.62-12.2S298.43,157.35,295.47,157.64Z"/><path class="cls-19" d="M274.46,155.8c2.43.68,3,4.8-1.52,5.89-3.08.73-10.22-1-15.94-1.4s-18.13-1.85-25.26,1.81c0,0,4.06-8.88,10.61-10.52S271.59,155,274.46,155.8Z"/><path class="cls-20" d="M252.2,84.67A24.94,24.94,0,0,0,255,97.1a55.38,55.38,0,0,0,10.88,13.83,27.59,27.59,0,0,0,11.6,12.25c-9.61.38-16.72-1.6-21.71-5a21,21,0,0,1-9.44-16.2A23.29,23.29,0,0,1,252.2,84.67Z"/><path class="cls-20" d="M275.77,63.08s-12.66,30.34,1.5,51.59a34.47,34.47,0,0,0,16.52,14.26A37.81,37.81,0,0,1,275,123.86c-9.8-5.84-16.22-16.27-16.55-29.6C258.11,81.62,269.63,69.57,275.77,63.08Z"/><path class="cls-21" d="M458.23,936.21h-120l-37-73-3,73h-136s-41.76-148.53-10-243c112.24,13.47,147.22,22.21,171,18.26,24.12-4,58.22-20.57,58.22-20.57l-.18-2.87c.26,1.82,18.38,27.28,27,41.18C417.42,744,458.23,936.21,458.23,936.21Z"/><path class="cls-22" d="M309.78,366.36c4-6.24,6.14-19.28,11.79-24.08,3.94-3.35,8.43-6.56,10.18-11.43.65-1.82.87-3.77,1.4-5.64a17.17,17.17,0,0,1,5.24-8.17,2.86,2.86,0,0,1,1-.63,3,3,0,0,1,1.51.1c7.31,1.8,13.86,6.85,22.86,10.85-11-30-32-43-38-43Z"/><path class="cls-22" d="M341.27,680.14S335.76,579.85,333.49,556,317.77,485.81,320,468.51s4.23-66.3-.77-77.3-8-26-12-33l-7-6s13.85,49.49,16,59-2,48.53-3,59.76,12.85,78.47,13.93,86.85,6.33,124.11,6.33,124.11Z"/><path class="cls-23" d="M127.49,399.31c-1.49,6.56,2.8,12.48,7.65,16.44a54.82,54.82,0,0,0,18.26,9.69c2.95.92,6.37,1.53,8.56,3.91,2,2.22,2.54,5.47,2.43,8.37a39.77,39.77,0,0,1-2.48,11.06c-1.24,3.72-2.53,7.41-3.8,11.12q-15.5,44.94-32.19,89.47-2.34,6.23-4.7,12.45c-1.15,3-2.45,6.49-5.22,8.42-5.23,3.66-12.17-1.08-14.15-6.23-.68-1.78-3.58-1-2.89.8,2,5.2,7,9.56,12.77,9.71,6.72.16,10.08-5.91,12.19-11.38,5.93-15.42,11.62-30.95,17.27-46.48S152.36,485.6,157.78,470c2.69-7.75,5.61-15.48,8-23.35,1.83-6.13,3.13-14-1.54-19.29-2.27-2.56-5.66-3.52-8.82-4.46a54.29,54.29,0,0,1-10.11-4.08c-5.74-3-12.76-7.5-14.72-14.12a9.08,9.08,0,0,1-.17-4.6c.43-1.88-2.47-2.68-2.89-.79Z"/><path class="cls-23" d="M155.55,442.49a4,4,0,0,0-5.05,1.45,8.67,8.67,0,0,0-1.12,2.26,12.69,12.69,0,0,0-.57,1.88,6,6,0,0,0,.36,4.26,3.66,3.66,0,0,0,4.25,1.66,5.6,5.6,0,0,0,3.53-3.94,1.5,1.5,0,0,0-2.89-.79l-.1.34c-.08.27.1-.16,0,.09a5.23,5.23,0,0,1-.41.69c-.09.14,0,0,0-.06l-.12.14-.26.26c-.08.07-.39.27-.11.11-.12.07-.23.15-.35.21l-.15.08s.25-.07.1,0a1.17,1.17,0,0,0-.32.09c-.17.07.15,0,.13,0s-.14,0-.16,0h-.16s.32.08.07,0-.27-.11-.06,0c0,0-.29-.12-.29-.17s.22.21.1.08a1.56,1.56,0,0,1-.21-.21c-.12-.1.12.22.06.07a2.07,2.07,0,0,0-.15-.25c-.1-.14.08.13.05.13l0-.14c0-.1-.06-.2-.08-.3a.4.4,0,0,1,0-.15s0,.33,0,.08a5.61,5.61,0,0,1,0-.71c0-.11,0-.22,0-.34s0,.12,0,.12,0-.21,0-.23a10.9,10.9,0,0,1,.36-1.39c.07-.24.16-.47.24-.7s.11-.27.16-.41,0,0,0,0l.12-.26c.07-.15.15-.3.23-.44l.11-.19s.23-.32.13-.19.06-.06.06-.06l.19-.2s.18-.14,0,0,.09-.05.11-.06l.17-.1c.13-.07.12,0,0,0l.18,0s.3-.07.1,0,0,0,.05,0h.24s-.23-.07-.1,0,.32.15,0,0a1.53,1.53,0,0,0,2.05-.54,1.52,1.52,0,0,0-.54-2.05Z"/><path class="cls-23" d="M423.31,554.63a4,4,0,0,0-4.51,2.84,9.54,9.54,0,0,0-.45,2.7,12.56,12.56,0,0,0,0,1.84,5.7,5.7,0,0,0,1.61,3.86,3.64,3.64,0,0,0,4.46.27,5.58,5.58,0,0,0,2.24-4.65,1.5,1.5,0,0,0-3,0,3.85,3.85,0,0,1,0,.48c0,.17,0,.16,0,0a2,2,0,0,1-.05.24c0,.16-.09.31-.13.47s-.06.15,0,0l-.1.22-.25.41c-.09.14-.08.13,0,0l-.15.18-.25.24c.27-.27-.06,0-.14.08s-.13.07.06,0l-.2.07c-.17,0-.14,0,.08,0h-.22c-.16,0-.14,0,.07,0l-.22-.05-.21-.07c.2.08.23.09.08,0s-.17-.15,0,0l-.28-.29c.27.3,0,0-.06-.12s-.19-.51-.07-.13a8.6,8.6,0,0,1-.24-.87,2.23,2.23,0,0,1,0-.23c0,.18,0,.22,0,.1s0-.27,0-.41a12,12,0,0,1,0-2s.07-.62,0-.38c0-.15,0-.31.09-.46a4.5,4.5,0,0,1,.17-.6c.06-.17.07-.19,0-.07l.14-.25c.09-.14.1-.15,0,0a1.8,1.8,0,0,1,.19-.2c.13-.11.13-.12,0,0l.23-.15c.15-.08.15-.08,0,0l.25-.07c-.18,0-.18,0,0,0s.18,0,0,0a1.5,1.5,0,0,0,.8-2.89Z"/><path class="cls-22" d="M256.34,345.3c8.61-11.4,50.89,12.91,50.89,12.91s-1-9-8-15c-29.65-25.42-78.65-61-78.65-61a13,13,0,0,1-3.2-4.26l-2.15-2.7c-4.52,7.1-11,26.63-11,28,.06,2.82,3.2,4.84,4.93,7.06a76.45,76.45,0,0,1,6.08,9.69L242,367.68a3.78,3.78,0,0,0,1.23-1.19c4.64-6.22,8-13.3,12.21-19.82Z"/><path class="cls-23" d="M131.4,510.64c-1.61-.9-3.29.12-4.64,1a7.38,7.38,0,0,0-3,3.6,6.75,6.75,0,0,0,.1,5,4.57,4.57,0,0,0,8.08.2,1.5,1.5,0,0,0-2.59-1.52,1.76,1.76,0,0,1-.14.23c.1-.12.1-.12,0,0l-.28.28c.21-.19-.09.06-.13.08s-.44.21-.3.16l-.33.09c-.29.08.2,0-.12,0h-.4c.35,0-.18-.07-.25-.09-.29-.08.14.11-.13-.06l-.34-.22c.25.18-.1-.11-.15-.16l-.13-.14c.1.13.1.12,0,0s-.14-.23-.19-.35c.13.29,0-.12,0-.18s0-.22,0-.1c0-.11,0-.22,0-.34s0-.34,0-.51,0-.32,0-.48,0-.22,0-.08c0-.08,0-.16,0-.24a5.36,5.36,0,0,1,.14-.54s.16-.43.07-.23c.06-.14.14-.27.21-.4s.36-.48.18-.27a7,7,0,0,1,.6-.62l.22-.19.07-.06c-.07.06,0,0,.09,0l.23-.17c.25-.17.49-.32.74-.47a7.49,7.49,0,0,1,.91-.51c-.21.09.21-.06.22-.06-.16,0-.15,0,0,0a.54.54,0,0,1-.22,0,1.51,1.51,0,0,0,2.05-.54,1.53,1.53,0,0,0-.54-2.05Z"/><path class="cls-1" d="M174.85,442.72c-1.41,7.48-3.07,15-6.06,22a86.2,86.2,0,0,0-4,9.6,61.87,61.87,0,0,0-1.66,11.37c-3.83,39.21-24,74.66-43.78,108.75-2.51,4.33-5.07,8.73-8.72,12.17-7,6.63-17.08,8.77-26.57,10.65-7.24,1.42-12.59,6.56-18.2,1.77-3.07-2.61-7.67-10.52-9-14.33-5.21-14.73-11-21-12.43-36.59-.76-8.44,1.52-26.19,4-34.28,2.18-7.06,6.28-13.34,10.13-19.65A336.55,336.55,0,0,0,89.5,448.29c1.87-5.46,3.62-11,4.19-16.76.53-5.32.06-10.7.52-16C99.39,355,140.28,346.73,145,340.23c0,0,36.88,20.77,38.82,37.62S176.35,434.69,174.85,442.72Z"/><path class="cls-23" d="M444.89,564.33A100.78,100.78,0,0,0,434,555.61c-1.9-1.34-3.82-2.64-5.76-3.92-.92-.61-1.85-1.21-2.78-1.81a6.56,6.56,0,0,0-3-1.46,4.09,4.09,0,0,0-2.7,1.09c-1.07.76-2.14,1.52-3.22,2.26-2.07,1.42-4.18,2.76-6.33,4.05-4.43,2.66-9,5.09-13.61,7.44-5,2.54-10,5.65-15.58,6.73-1.89.36-1.09,3.25.8,2.89,4.68-.91,8.93-3.3,13.14-5.43,4.41-2.22,8.81-4.48,13.11-6.91a143.17,143.17,0,0,0,12.26-7.77c.5-.36,1-.73,1.51-1.07.11-.08.37-.32.5-.32-.14,0-.17,0,.05.13a17.61,17.61,0,0,1,2.88,1.85q2.79,1.82,5.54,3.7a101.26,101.26,0,0,1,12,9.39c1.4,1.32,3.53-.8,2.12-2.12Z"/><path class="cls-24" d="M379.67,663l0-.73S380.35,662.34,379.67,663Z"/><path class="cls-25" d="M497.05,552.13c.94,2,1.6,3.41,1.67,3.57A21.6,21.6,0,0,1,497.05,552.13Z"/><path class="cls-26" d="M274.94,422.48s-9.93-3.5-9.34-8.76,3.5-4.67,3.5-4.67,16.27,3.28,18.36,4.85l6.76,5.08s3.5-11.69,6.42-13.44c0,0-3.5-7.59-2.92-10.51,0,0-10.51-10.52-4.67-15.78l3.51-2.33s9.93,7.59,11.09,8.76,8.18,16.94,9.93,21S310,445.26,310,447v1.76s.58,10.51-3.5,11.68-9.35,0-9.35-3.51S274.94,422.48,274.94,422.48Z"/><path class="cls-27" d="M356.72,420.73S310,431.35,303,434.51c-4.87,2.19-8.35,3.67-10,4.68a4.06,4.06,0,0,1,3.6.81c1.63,1.64.69,4.14,0,5.49-.31.57-.13.76.55.6,1.52-.38,4.27-.67,5.89,1.42,1.27,1.64.64,3.6-.2,5-.66,1.15-.43,1.37.75.95a3.91,3.91,0,0,1,4.12,1.69c1.17,2.34-1,5.11-1.16,5.26-2.92,2.92-36.22,13.43-44.4,16.35s-20.44,11.1-26.28,16.94S216,472.13,216,467.46s-1.17-3.56,0-5.87,9.93-8.15,9.93-8.15a27.86,27.86,0,0,0,0-10.43c-1.17-4.76-2.34-10.6-1.17-13.52s1.17-3.5,1.17-4.09,1.16-7.59,2.92-9.34,2.33-2.34,3.5-2.93,4.67-1.16,5.84-2.92,4.09-7.59,5.84-8.17,1.76-.59,2.34-.59,10.51,1.17,11.68,9.35-4.09,11.68-4.09,11.68,36.22-3.5,40.89-4.67,31.55-7.6,38-7.6,24.54-1.75,26.29,4.68S356.72,420.73,356.72,420.73Z"/><path class="cls-28" d="M311.23,790.21l-10,73,35,73h27.54S325.23,867.21,311.23,790.21Z"/><path class="cls-22" d="M59.62,610.29c.72,13.8,38.42,20.12,60.05,10.67S205.5,553,216.82,538s41.68-47,41.68-47-32-25.81-34.56-39.54c-2.74-14.75-24.65,17.35-38.48,23.16-3.41,1.43-6.88,2.69-10.24,4.22-16.09,7.35-37.14,20.58-51.77,30.52C112.15,517.09,56.07,542.75,59.62,610.29Z"/><path class="cls-22" d="M451.23,570.21c.3.91-32.2,4.23-42.92,5.57s-29.48-1.34-29.48-1.34-.19.85-.47,2.22c-1.78-24.69.43-77.12,3.15-85.31,0,6.7,9.38,14.74,12.06,16.08s9.78,9.25,27.21,11.93,29,4,26,6C444.28,527,448.23,561.21,451.23,570.21Z"/><path class="cls-28" d="M196.88,705.49s-30.35,88.4-56,96.56c0,0-.86-12.52-.9-29.38,19.83-10.76,38.73-36.74,51.51-73.8A77.43,77.43,0,0,1,196.88,705.49Z"/><path class="cls-29" d="M150.23,694.21s82,26,163,19c38.33-3.31,67.55-18,75-20l-4-34s-61,49-229,5C155.23,664.21,151.14,686.11,150.23,694.21Z"/><ellipse class="cls-30" cx="336.73" cy="691.71" rx="1.5" ry="3.5" transform="translate(-115 68.98) rotate(-10)"/><ellipse class="cls-30" cx="312.73" cy="696.71" rx="1.5" ry="3.5" transform="translate(-116.23 64.89) rotate(-10)"/><ellipse class="cls-30" cx="279.73" cy="698.71" rx="1.5" ry="3.5" transform="translate(-117.08 59.19) rotate(-10)"/><path class="cls-31" d="M311.55,712.92c1.71,2.14,3.6,3.38,5.55,3.24,7.42-.56,24.82-4.54,33.34-6.57a6.93,6.93,0,0,0,5.33-6.84c-.17-9.22-3-21.43-5.36-28-1.21-3.34-5.28-4.59-8.81-4.2-9.7,1.06-27.92,4.06-34.4,6.75-1.66.69-2.67,2.6-3.16,5.25,7.66-2.24,23.66-4.89,32.53-6,3.51-.44,7.52.38,8.59,2.93,2.09,5,4.42,14.44,4.22,21.61-.07,2.53-2.38,4.83-5.55,5.54C335.68,708.45,319.45,712,311.55,712.92Z"/><path class="cls-31" d="M351.23,686.21s-13.12,2-14.27,3.26.21,5,.87,4.92l14.26-2.51C352.83,691.75,351.23,686.21,351.23,686.21Z"/><path class="cls-32" d="M528.69,408.21V539c0,21.06-8.85,29.92-19.78,29.92H388.47a19.79,19.79,0,0,1-19.78-19.78V408.21Z"/><path class="cls-33" d="M528.69,342.56v65.65h-160V342.56a19.79,19.79,0,0,1,19.78-19.78H508.91A19.78,19.78,0,0,1,528.69,342.56Z"/><rect class="cls-34" x="381.9" y="358.26" width="132.49" height="39.82" rx="10.37"/><rect class="cls-35" x="388.24" y="433.19" width="27.28" height="17.21" rx="6.94"/><rect class="cls-35" x="420.6" y="433.19" width="27.28" height="17.21" rx="6.94"/><rect class="cls-35" x="388.24" y="457.84" width="27.28" height="17.21" rx="6.94"/><rect class="cls-35" x="420.6" y="457.84" width="27.28" height="17.21" rx="6.94"/><rect class="cls-35" x="388.24" y="483.23" width="27.28" height="17.21" rx="6.94"/><rect class="cls-35" x="420.6" y="483.23" width="27.28" height="17.21" rx="6.94"/><rect class="cls-36" x="388.24" y="508.61" width="27.28" height="17.21" rx="6.94"/><rect class="cls-35" x="420.6" y="508.61" width="27.28" height="17.21" rx="6.94"/><rect class="cls-35" x="388.2" y="533.99" width="91.36" height="17.21" rx="6.94"/><rect class="cls-35" x="452.32" y="433.19" width="27.28" height="17.21" rx="6.94"/><rect class="cls-35" x="452.32" y="457.84" width="27.28" height="17.21" rx="6.94"/><rect class="cls-35" x="452.32" y="483.23" width="27.28" height="17.21" rx="6.94"/><rect class="cls-35" x="452.32" y="508.61" width="27.28" height="17.21" rx="6.94"/><rect class="cls-35" x="484.04" y="433.19" width="27.28" height="17.21" rx="6.94"/><rect class="cls-35" x="452.32" y="416.09" width="27.28" height="10.86" rx="4.38"/><rect class="cls-35" x="484.04" y="416.09" width="27.28" height="10.86" rx="4.38"/><rect class="cls-35" x="484.04" y="457.84" width="27.28" height="17.21" rx="6.94"/><rect class="cls-35" x="484.04" y="483.23" width="27.28" height="17.21" rx="6.94"/><rect class="cls-35" x="484.04" y="508.26" width="27.28" height="42.59" rx="9.17"/><path class="cls-33" d="M441.3,380.94h-6.09v5.95h-4.52v-5.95h-6.05v-4.27h6.05v-5.95h4.52v5.95h6.09Z"/><path class="cls-33" d="M471.08,378.93a6.56,6.56,0,0,1,1.72,4.63,7.28,7.28,0,0,1-1.12,3.94,7.85,7.85,0,0,1-3.41,2.89,13.13,13.13,0,0,1-5.62,1.08,19,19,0,0,1-5.09-.68,13.07,13.07,0,0,1-4.26-1.94l2.21-4.34a10.72,10.72,0,0,0,3.24,1.63,12.6,12.6,0,0,0,3.76.57,6,6,0,0,0,3.36-.82,2.63,2.63,0,0,0,1.22-2.33c0-2-1.52-3-4.58-3h-2.59v-3.74l5-5.71H454.53v-4.55h17.15v3.68l-5.53,6.3A8.21,8.21,0,0,1,471.08,378.93Z"/><path class="cls-33" d="M476.35,378a8,8,0,0,1,0-9.84,6.15,6.15,0,0,1,8.77,0,8,8,0,0,1,0,9.84,6.17,6.17,0,0,1-8.77,0Zm6.27-2a5.11,5.11,0,0,0,.68-2.9,5.17,5.17,0,0,0-.68-2.91,2.25,2.25,0,0,0-3.73,0,6.32,6.32,0,0,0,0,5.78,2.26,2.26,0,0,0,3.73,0Zm12.72-9.38h4.16l-16.73,24.5h-4.16Zm-1.1,24a5.56,5.56,0,0,1-2.16-2.36,8.66,8.66,0,0,1,0-7.14,5.5,5.5,0,0,1,2.16-2.36,6,6,0,0,1,3.13-.83,5.71,5.71,0,0,1,4.39,1.84,8,8,0,0,1,0,9.84,5.71,5.71,0,0,1-4.39,1.83A6,6,0,0,1,494.24,390.51Zm5-3a6.48,6.48,0,0,0,0-5.78,2.16,2.16,0,0,0-1.87-1,2.19,2.19,0,0,0-1.86,1,5.08,5.08,0,0,0-.7,2.91,5,5,0,0,0,.7,2.9,2.17,2.17,0,0,0,1.86,1A2.15,2.15,0,0,0,499.24,387.47Z"/><path class="cls-37" d="M546.7,521.2c-.07,2.79-2.51,6.3-4.48,9.2.63,9.52-.79,18.05-7.71,18.77-16.15,1.67-36.46-1.95-37.82-2.91a1.59,1.59,0,0,1-.33-2.25,4.41,4.41,0,0,1,3.19-1.83c3.21-.57,23.32-3.1,26.43-3.49-3.65.22-23.77-.73-30.39-1.31-.75-.07-1.34-.12-1.69-.18-3.68-.54-4.09-2.86-2.75-4.89.84-1.26,4.41-1.85,7-2.12,1.6-.17,2.82-.21,2.82-.21s31.89-2,30.52-3-23.57,1.77-28.4,1.43c-1.85-.13-4.75-.25-7.61-.68-4.59-.68-9.05-2.16-8.77-5.73.44-5.8,8.54-4.15,14.33-5.18.84-.14,2-.31,3.49-.48,4.3-.51,10.79-1.09,16.21-1.54l.82-.07c2.43-.16,4.78-.35,6.69-.51-.27,0-.55,0-.85,0l2.18-.15-1.14.1a24.91,24.91,0,0,0,4.62-.41l-2.57.23-.27,0-4.78.3h-.09c-4.67.18-10.51.39-14.85.85-2.3.11-4.37.21-6,.27H503.1c-.69,0-1.42,0-2.18,0-5.93-.17-13.49-1.42-14-4.5-.61-3.47,3.62-6.6,7.41-7.78s18.21-2.7,22.23-3.91c2.49-.75,6.53-1.66,9.21-2.24l4.43-2c3.34,1,10.43,2.27,12,4.38,1.63,2.27-1.61,11.16-.66,13.18S546.83,516.23,546.7,521.2Z"/></g></svg>