<svg width="140" height="140" viewBox="0 0 140 140" fill="none" xmlns="http://www.w3.org/2000/svg">
<circle cx="70" cy="70" r="70" fill="#094049"/>
<path d="M92.714 106.433H46.4284C45.4055 106.433 44.4245 106.028 43.7012 105.306C42.9779 104.584 42.5715 103.605 42.5715 102.584V38.4164C42.5715 37.3954 42.9779 36.4163 43.7012 35.6943C44.4245 34.9723 45.4055 34.5668 46.4284 34.5668H86.2857V40.9832C86.2866 42.0038 86.6935 42.9822 87.4168 43.7034C88.1402 44.4246 89.1209 44.8296 90.1434 44.8294H96.5717V55.0999H99.1433V43.55C99.1431 43.2098 99.0075 42.8836 98.7664 42.6432L88.4803 32.3762C88.2394 32.1355 87.9127 32.0002 87.5719 32H46.4284C44.7241 32.0021 43.0902 32.6788 41.8851 33.8816C40.68 35.0845 40.0021 36.7153 40 38.4164V102.584C40.0021 104.285 40.68 105.916 41.8851 107.118C43.0902 108.321 44.7241 108.998 46.4284 109H92.714C94.2799 109.001 95.7921 108.43 96.9661 107.396L95.2654 105.471C94.5608 106.091 93.6536 106.433 92.714 106.433ZM88.8572 40.9832V36.3812L94.7531 42.2661H90.1434C89.9745 42.2663 89.8073 42.2332 89.6512 42.1687C89.4952 42.1043 89.3534 42.0098 89.2339 41.8907C89.1145 41.7715 89.0197 41.6301 88.9551 41.4744C88.8904 41.3187 88.8572 41.1518 88.8572 40.9832Z" fill="#FFF1AC"/>
<path d="M108.142 88.4671H105.572C105.572 88.215 105.496 87.9687 105.353 87.761L103.643 85.1942C103.222 84.5635 102.998 83.8218 103.002 83.0639V79.4708C103.02 77.4892 103.678 75.5662 104.877 73.9873C105.836 72.6781 106.47 71.161 106.727 69.5602C106.985 67.9595 106.86 66.3205 106.361 64.7775C105.862 63.2345 105.004 61.8314 103.857 60.683C102.711 59.5346 101.308 58.6736 99.7637 58.1704C98.2195 57.6673 96.5779 57.5363 94.9733 57.7883C93.3687 58.0402 91.8467 58.6679 90.5318 59.62C89.217 60.572 88.1467 61.8213 87.4087 63.2656C86.6707 64.7099 86.2858 66.3082 86.2856 67.9295C86.276 70.1864 87.0227 72.3816 88.4068 74.1662C89.5492 75.6916 90.1589 77.5489 90.1425 79.4533V83.0639C90.1453 83.822 89.9215 84.5637 89.4998 85.1942L87.7878 87.761C87.6448 87.9687 87.5685 88.215 87.5692 88.4671H84.9994C83.9778 88.4703 82.999 88.8767 82.2764 89.5975C81.5539 90.3184 81.1463 91.2953 81.1426 92.315V97.4485C81.1426 97.7888 81.278 98.1151 81.519 98.3557C81.7601 98.5963 82.087 98.7314 82.4279 98.7314H83.7132V102.581C83.7132 102.921 83.8486 103.248 84.0897 103.488C84.3307 103.729 84.6577 103.864 84.9986 103.864H108.142C108.483 103.864 108.81 103.729 109.051 103.488C109.292 103.248 109.428 102.921 109.428 102.581V98.7332H110.713C111.054 98.7332 111.381 98.598 111.622 98.3574C111.863 98.1168 111.998 97.7905 111.998 97.4503V92.315C111.995 91.295 111.588 90.3177 110.865 89.5964C110.142 88.8752 109.163 88.4685 108.141 88.4653L108.142 88.4671ZM88.8571 67.933C88.8565 66.7172 89.1443 65.5186 89.697 64.4351C90.2496 63.3517 91.0515 62.4143 92.0369 61.6996C93.0222 60.985 94.1632 60.5133 95.3662 60.3233C96.5693 60.1334 97.8004 60.2304 98.9587 60.6066C100.117 60.9828 101.17 61.6274 102.03 62.4876C102.891 63.3479 103.535 64.3993 103.911 65.5559C104.286 66.7125 104.382 67.9414 104.19 69.142C103.998 70.3426 103.524 71.4808 102.807 72.4635C101.284 74.4853 100.45 76.9412 100.429 79.4708V83.0639C100.426 84.3296 100.802 85.5672 101.508 86.6186L102.74 88.4671H90.3995L91.635 86.6186C92.3408 85.5671 92.7165 84.3295 92.714 83.0639V79.4577C92.729 76.9919 91.9342 74.5891 90.4511 72.6171C89.4148 71.275 88.8542 69.6275 88.8571 67.933ZM106.857 101.304H86.2856V98.7332H106.857V101.304ZM109.428 96.1708H83.7141V92.315C83.7141 91.9747 83.8495 91.6484 84.0906 91.4078C84.3316 91.1672 84.6585 91.0321 84.9994 91.0321H108.142C108.483 91.0321 108.81 91.1672 109.051 91.4078C109.292 91.6484 109.428 91.9747 109.428 92.315L109.428 96.1708Z" fill="#FFF1AC"/>
<path d="M60.5676 101.3C63.1094 101.3 65.5941 100.548 67.7077 99.1383C69.8212 97.729 71.4686 95.7257 72.4417 93.3819C73.4147 91.0381 73.6697 88.459 73.1744 85.9705C72.6791 83.4821 71.4558 81.1961 69.659 79.4015C67.8622 77.607 65.5727 76.3845 63.08 75.8886C60.5872 75.3927 58.0031 75.6456 55.6543 76.6154C53.3056 77.5853 51.2976 79.2284 49.8843 81.3372C48.4711 83.4459 47.7159 85.9256 47.7144 88.4627C47.7144 90.1475 48.0468 91.8157 48.6927 93.3723C49.3387 94.9288 50.2854 96.3431 51.479 97.5344C53.8894 99.9404 57.1587 101.292 60.5676 101.292V101.3ZM60.5676 78.2C62.6024 78.1992 64.5917 78.8007 66.2839 79.9285C67.9761 81.0563 69.2952 82.6598 70.0742 84.536C70.8533 86.4122 71.0574 88.4769 70.6606 90.469C70.2639 92.461 69.2841 94.2908 67.8453 95.7269C66.4065 97.163 64.5733 98.141 62.5776 98.537C60.5819 98.933 58.5133 98.7293 56.6336 97.9517C54.7539 97.1741 53.1475 95.8574 52.0176 94.1684C50.8877 92.4793 50.285 90.4937 50.2859 88.4627C50.287 85.7412 51.3707 83.1315 53.2986 81.2072C55.2265 79.2828 57.8411 78.2012 60.5676 78.2Z" fill="#FFF1AC"/>
<path d="M59.2862 93.6003C59.627 93.6001 59.9538 93.4648 60.1947 93.2242L67.9092 85.5239L66.0914 83.7095L59.2862 90.5021L56.3378 87.5557L54.52 89.3701L58.3734 93.2242C58.4932 93.3439 58.6355 93.4387 58.7922 93.5033C58.9488 93.5678 59.1167 93.6008 59.2862 93.6003Z" fill="#FFF1AC"/>
<path d="M82.9694 44.4375H49.7433C49.5019 44.4375 49.3062 44.6329 49.3062 44.8739C49.3062 45.1149 49.5019 45.3102 49.7433 45.3102H82.9694C83.2108 45.3102 83.4066 45.1149 83.4066 44.8739C83.4066 44.6329 83.2108 44.4375 82.9694 44.4375Z" fill="#FFF1AC"/>
<path d="M82.5322 48.8013H50.1805C49.6976 48.8013 49.3062 49.192 49.3062 49.674V50.5468C49.3062 51.0288 49.6976 51.4195 50.1805 51.4195H82.5322C83.0151 51.4195 83.4066 51.0288 83.4066 50.5468V49.674C83.4066 49.192 83.0151 48.8013 82.5322 48.8013Z" fill="#FFF1AC"/>
<path d="M82.5322 53.165H50.1805C49.6976 53.165 49.3062 53.5558 49.3062 54.0378V54.9105C49.3062 55.3925 49.6976 55.7833 50.1805 55.7833H82.5322C83.0151 55.7833 83.4066 55.3925 83.4066 54.9105V54.0378C83.4066 53.5558 83.0151 53.165 82.5322 53.165Z" fill="#FFF1AC"/>
<path d="M82.5322 57.5288H50.1805C49.6976 57.5288 49.3062 57.9196 49.3062 58.4016V59.2743C49.3062 59.7563 49.6976 60.1471 50.1805 60.1471H82.5322C83.0151 60.1471 83.4066 59.7563 83.4066 59.2743V58.4016C83.4066 57.9196 83.0151 57.5288 82.5322 57.5288Z" fill="#FFF1AC"/>
<path d="M82.5322 62.7651H50.1805C49.6976 62.7651 49.3062 63.1559 49.3062 63.6379C49.3062 64.1199 49.6976 64.5106 50.1805 64.5106H82.5322C83.0151 64.5106 83.4066 64.1199 83.4066 63.6379C83.4066 63.1559 83.0151 62.7651 82.5322 62.7651Z" fill="#FFF1AC"/>
<path d="M72.9141 67.1289H50.1805C49.6976 67.1289 49.3062 67.5196 49.3062 68.0017C49.3062 68.4837 49.6976 68.8744 50.1805 68.8744H72.9141C73.397 68.8744 73.7885 68.4837 73.7885 68.0017C73.7885 67.5196 73.397 67.1289 72.9141 67.1289Z" fill="#FFF1AC"/>
</svg>
