<svg width="140" height="140" viewBox="0 0 140 140" fill="none" xmlns="http://www.w3.org/2000/svg">
<circle cx="70" cy="70" r="70" fill="#094049"/>
<g clip-path="url(#clip0)">
<path d="M87.5672 81.428H84.4211C81.7953 81.428 79.7741 83.6033 77.8566 85.6756C77.3703 86.1962 76.893 86.7078 76.4708 87.1302C76.3665 87.2356 76.2423 87.3192 76.1055 87.3763C75.9687 87.4334 75.8219 87.4628 75.6737 87.4628C75.5255 87.4628 75.3787 87.4334 75.2419 87.3763C75.1051 87.3192 74.9809 87.2356 74.8766 87.1302L70.4428 82.6944C70.1592 82.411 69.8227 82.1862 69.4523 82.0329C69.082 81.8796 68.6851 81.8007 68.2843 81.8009C67.8834 81.801 67.4866 81.8802 67.1163 82.0338C66.7461 82.1873 66.4097 82.4124 66.1264 82.696C65.8431 82.9797 65.6184 83.3164 65.4652 83.6869C65.3119 84.0574 65.2331 84.4545 65.2333 84.8555C65.2334 85.2565 65.3125 85.6535 65.466 86.0239C65.6196 86.3943 65.8445 86.7308 66.128 87.0142L68.0163 88.9034C68.2281 89.1158 68.3467 89.4037 68.3463 89.7037C68.3458 90.0037 68.2263 90.2912 68.0139 90.503C67.8015 90.7148 67.5138 90.8336 67.2139 90.8331C66.914 90.8327 66.6266 90.7131 66.4149 90.5006L64.5307 88.6115C63.5344 87.6157 62.9744 86.2647 62.9738 84.8558C62.9732 83.4469 63.532 82.0955 64.5274 81.0988C65.5228 80.1021 66.8732 79.5418 68.2815 79.5412C69.6898 79.5406 71.0406 80.0997 72.0369 81.0955L75.6603 84.7205C75.8484 84.5243 76.0266 84.3322 76.2058 84.136C78.4523 81.7134 80.8187 79.1675 84.4211 79.1675H85.2867C84.3126 77.7559 83.7905 76.0814 83.7898 74.3661V66.4585C83.7917 65.0633 84.3466 63.7258 85.3327 62.7393C86.3188 61.7528 87.6557 61.1977 89.0503 61.1957H95.5427C96.9373 61.1977 98.2742 61.7528 99.2603 62.7393C100.246 63.7258 100.801 65.0633 100.803 66.4585V74.3661C100.804 76.0829 100.282 77.7593 99.3071 79.1724H100.228C102.288 79.1767 104.262 79.9971 105.718 81.4542C107.175 82.9113 107.995 84.8863 107.999 86.9469V105.875C107.999 106.023 107.97 106.169 107.914 106.306C107.857 106.443 107.774 106.567 107.67 106.671C107.565 106.776 107.441 106.859 107.304 106.916C107.168 106.972 107.021 107.001 106.873 107.001H83.4016C83.1025 107.001 82.8155 106.883 82.6037 106.672C82.3918 106.461 82.2725 106.174 82.2718 105.875V93.1567L79.428 96.0018C78.4316 96.9959 77.0818 97.5541 75.6745 97.5541C74.2673 97.5541 72.9174 96.9959 71.921 96.0018L70.0327 94.1126C69.8259 93.9002 69.711 93.6148 69.713 93.3183C69.7149 93.0218 69.8335 92.738 70.0431 92.5283C70.2527 92.3186 70.5364 92.1999 70.8328 92.198C71.1292 92.196 71.4145 92.3109 71.6268 92.5178L73.5151 94.4069C74.0889 94.978 74.8652 95.2985 75.6745 95.2985C76.4838 95.2985 77.2602 94.978 77.8339 94.4069L82.6041 89.6347C82.7616 89.4766 82.9624 89.3689 83.1812 89.3252C83.3999 89.2815 83.6267 89.3038 83.8328 89.3892C84.0388 89.4747 84.2149 89.6195 84.3385 89.8053C84.4622 89.991 84.5279 90.2093 84.5273 90.4325V104.744H98.2422V90.1114C98.2422 89.8122 98.361 89.5252 98.5725 89.3137C98.784 89.1021 99.0709 88.9832 99.3699 88.9832C99.669 88.9832 99.9559 89.1021 100.167 89.3137C100.379 89.5252 100.498 89.8122 100.498 90.1114V104.744H105.745V86.9469C105.741 85.4844 105.159 84.0829 104.125 83.0487C103.091 82.0145 101.691 81.4318 100.229 81.428L97.0314 81.4199C95.6344 82.3647 93.9869 82.8703 92.3006 82.8718C90.6142 82.8732 88.9659 82.3704 87.5672 81.428ZM52.2429 72.1178L44.7229 69.567L39.7436 72.0067V74.3661C39.7623 76.0119 40.429 77.5841 41.599 78.7413C42.769 79.8986 44.3479 80.5476 45.9932 80.5476C47.6385 80.5476 49.2175 79.8986 50.3875 78.7413C51.5575 77.5841 52.2242 76.0119 52.2429 74.3661V72.1178ZM39.7436 69.5014L44.0875 67.3771C44.2253 67.2964 44.3788 67.2463 44.5376 67.23C44.6965 67.2138 44.8569 67.2319 45.0082 67.2831L52.2429 69.7357V66.4577C52.2408 65.6621 51.9244 64.8997 51.3627 64.3365C50.801 63.7734 50.0395 63.4552 49.2443 63.4513H42.7446C41.95 63.4571 41.1896 63.7759 40.6284 64.3386C40.0671 64.9014 39.7501 65.6627 39.746 66.4577L39.7436 69.5014ZM98.5445 71.838C97.1325 72.1261 95.6731 72.0859 94.2791 71.7204C92.885 71.3549 91.5935 70.6739 90.5042 69.73C89.1777 70.5678 87.6061 70.9303 86.0468 70.7581V74.3661C86.0468 76.0237 86.7051 77.6135 87.8767 78.7857C89.0484 79.9579 90.6375 80.6164 92.2945 80.6164C93.9514 80.6164 95.5405 79.9579 96.7122 78.7857C97.8839 77.6135 98.5421 76.0237 98.5421 74.3661V71.8405L98.5445 71.838ZM86.0493 68.4814C86.7311 68.6016 87.4311 68.5666 88.0975 68.3791C88.764 68.1916 89.3796 67.8563 89.8988 67.3982C90.1246 67.2036 90.4183 67.1064 90.7156 67.128C91.0129 67.1496 91.2895 67.2881 91.4848 67.5133C93.8165 70.1962 97.0866 69.8719 98.5445 69.5516V66.4577C98.5424 65.6621 98.226 64.8997 97.6643 64.3365C97.1026 63.7734 96.3411 63.4552 95.5459 63.4513H89.0503C88.2557 63.4571 87.4953 63.7759 86.934 64.3386C86.3727 64.9014 86.0557 65.6627 86.0517 66.4577L86.0493 68.4814ZM54.5016 74.3661C54.5034 76.0825 53.983 77.7589 53.0096 79.1724H53.2187C55.2776 79.1779 57.2505 79.999 58.7059 81.4559C60.1613 82.9129 60.9807 84.8872 60.985 86.9469V105.875C60.9852 106.023 60.9563 106.169 60.8998 106.306C60.8433 106.443 60.7604 106.567 60.6558 106.671C60.5512 106.776 60.427 106.859 60.2904 106.916C60.1537 106.972 60.0072 107.001 59.8593 107.001H32.1336C31.9851 107.002 31.8379 106.973 31.7005 106.917C31.563 106.861 31.438 106.778 31.3326 106.673C31.2272 106.569 31.1435 106.444 31.0862 106.307C31.029 106.17 30.9993 106.023 30.999 105.875V86.9469C31.0052 84.8869 31.826 82.913 33.282 81.4563C34.7381 79.9997 36.7111 79.1786 38.7703 79.1724H38.9834C38.009 77.7592 37.4874 76.0828 37.4882 74.3661V66.4585C37.4901 65.064 38.0444 63.7272 39.0296 62.7407C40.0149 61.7543 41.3507 61.1987 42.7446 61.1957H49.2419C50.6363 61.1979 51.973 61.7531 52.959 62.7396C53.9449 63.7261 54.4996 65.0635 54.5016 66.4585V74.3661ZM50.729 81.4199C49.3309 82.3649 47.6822 82.8699 45.9949 82.8699C44.3075 82.8699 42.6588 82.3649 41.2607 81.4199L38.7711 81.4239C37.3097 81.4297 35.9099 82.013 34.8766 83.0468C33.8433 84.0805 33.2602 85.4809 33.2545 86.9429V104.744H38.5028V90.1114C38.5028 89.8122 38.6216 89.5252 38.8331 89.3137C39.0446 89.1021 39.3314 88.9832 39.6305 88.9832C39.9296 88.9832 40.2165 89.1021 40.428 89.3137C40.6394 89.5252 40.7583 89.8122 40.7583 90.1114V104.744H51.2282V90.1114C51.2282 89.8117 51.3473 89.5242 51.5591 89.3122C51.771 89.1003 52.0583 88.9812 52.358 88.9812C52.6576 88.9812 52.945 89.1003 53.1568 89.3122C53.3687 89.5242 53.4877 89.8117 53.4877 90.1114V104.744H58.7312V86.9469C58.7274 85.4844 58.1449 84.0829 57.1112 83.0487C56.0774 82.0145 54.6765 81.4318 53.2146 81.428L50.729 81.4199ZM75.8735 40.6554C75.5744 40.6554 75.2876 40.5365 75.0761 40.325C74.8646 40.1134 74.7458 39.8264 74.7458 39.5272C74.7458 39.228 74.8646 38.941 75.0761 38.7294C75.2876 38.5179 75.5744 38.399 75.8735 38.399H99.8153C100.114 38.399 100.401 38.5179 100.613 38.7294C100.824 38.941 100.943 39.228 100.943 39.5272C100.943 39.8264 100.824 40.1134 100.613 40.325C100.401 40.5365 100.114 40.6554 99.8153 40.6554H75.8735ZM75.8735 50.2859C75.5744 50.2859 75.2876 50.167 75.0761 49.9554C74.8646 49.7438 74.7458 49.4569 74.7458 49.1577C74.7458 48.8584 74.8646 48.5715 75.0761 48.3599C75.2876 48.1483 75.5744 48.0295 75.8735 48.0295H94.652C94.9511 48.0295 95.2379 48.1483 95.4494 48.3599C95.6609 48.5715 95.7797 48.8584 95.7797 49.1577C95.7797 49.4569 95.6609 49.7438 95.4494 49.9554C95.2379 50.167 94.9511 50.2859 94.652 50.2859H75.8735ZM75.8735 45.4706C75.5744 45.4706 75.2876 45.3518 75.0761 45.1402C74.8646 44.9286 74.7458 44.6416 74.7458 44.3424C74.7458 44.0432 74.8646 43.7562 75.0761 43.5447C75.2876 43.3331 75.5744 43.2142 75.8735 43.2142H99.8153C100.114 43.2142 100.401 43.3331 100.613 43.5447C100.824 43.7562 100.943 44.0432 100.943 44.3424C100.943 44.6416 100.824 44.9286 100.613 45.1402C100.401 45.3518 100.114 45.4706 99.8153 45.4706H75.8735ZM43.427 41.7816C43.427 42.0808 43.3082 42.3678 43.0967 42.5793C42.8852 42.7909 42.5984 42.9098 42.2993 42.9098C42.0002 42.9098 41.7134 42.7909 41.5019 42.5793C41.2904 42.3678 41.1716 42.0808 41.1716 41.7816C41.1724 40.8763 41.4279 39.9895 41.9087 39.2227C42.3895 38.4558 43.0763 37.8397 43.8906 37.4449C44.7049 37.0501 45.6138 36.8925 46.5134 36.99C47.413 37.0876 48.267 37.4365 48.9778 37.9967C49.6886 38.5569 50.2275 39.3059 50.5328 40.1581C50.8382 41.0102 50.8977 41.9311 50.7046 42.8155C50.5115 43.7 50.0736 44.5122 49.4409 45.1593C48.8081 45.8065 48.0062 46.2625 47.1266 46.4752C47.1161 46.7722 46.9889 47.053 46.7727 47.2568C46.5564 47.4605 46.2686 47.5707 45.9717 47.5634C45.6747 47.5562 45.3926 47.432 45.1866 47.218C44.9805 47.0039 44.8672 46.7172 44.8712 46.4201V45.4787C44.8708 45.1804 44.9884 44.894 45.1985 44.6822C45.4085 44.4704 45.6938 44.3504 45.992 44.3485C46.4985 44.3477 46.9934 44.1968 47.4142 43.9148C47.835 43.6327 48.1628 43.2323 48.3563 42.764C48.5497 42.2957 48.6001 41.7806 48.5011 41.2837C48.4021 40.7867 48.1581 40.3303 47.8 39.972C47.4419 39.6137 46.9856 39.3696 46.4889 39.2706C45.9922 39.1715 45.4773 39.222 45.0092 39.4155C44.5411 39.609 44.1408 39.937 43.8589 40.358C43.5771 40.779 43.4262 41.2741 43.4254 41.7808L43.427 41.7816ZM44.868 50.448C44.868 50.1488 44.9868 49.8618 45.1983 49.6503C45.4097 49.4387 45.6966 49.3198 45.9957 49.3198C46.2948 49.3198 46.5816 49.4387 46.7931 49.6503C47.0046 49.8618 47.1234 50.1488 47.1234 50.448V51.1388C47.1234 51.438 47.0046 51.725 46.7931 51.9366C46.5816 52.1481 46.2948 52.267 45.9957 52.267C45.6966 52.267 45.4097 52.1481 45.1983 51.9366C44.9868 51.725 44.868 51.438 44.868 51.1388V50.448ZM90.3981 35.2564C90.099 35.2564 89.8121 35.1375 89.6006 34.926C89.3891 34.7144 89.2703 34.4274 89.2703 34.1282C89.2703 33.829 89.3891 33.542 89.6006 33.3304C89.8121 33.1189 90.099 33 90.3981 33H104.517C105.441 33.0021 106.326 33.3701 106.979 34.0235C107.632 34.6769 108 35.5624 108.002 36.4864V52.1961C108 53.12 107.632 54.0056 106.979 54.6589C106.326 55.3123 105.441 55.6803 104.517 55.6824H85.4098L82.3407 59.7598C82.2347 59.9009 82.0969 60.015 81.9386 60.0929C81.7802 60.1709 81.6058 60.2104 81.4293 60.2083C81.2529 60.2063 81.0794 60.1627 80.9229 60.0811C80.7664 59.9996 80.6314 59.8823 80.5286 59.7388L77.4757 55.6848H71.1705C70.247 55.6827 69.3618 55.3147 68.7087 54.6614C68.0557 54.008 67.6878 53.1225 67.6857 52.1985V36.4888C67.6878 35.5648 68.0557 34.6793 68.7087 34.0259C69.3618 33.3726 70.247 33.0046 71.1705 33.0024H85.2907C85.5898 33.0024 85.8766 33.1213 86.0881 33.3329C86.2996 33.5445 86.4184 33.8314 86.4184 34.1306C86.4184 34.4299 86.2996 34.7168 86.0881 34.9284C85.8766 35.14 85.5898 35.2588 85.2907 35.2588H71.1714C70.8457 35.2612 70.5342 35.3919 70.3043 35.6226C70.0745 35.8534 69.9448 36.1655 69.9435 36.4912V52.1961C69.945 52.5217 70.0747 52.8337 70.3046 53.0644C70.5344 53.2951 70.8458 53.4259 71.1714 53.4284H78.0309C78.2056 53.4283 78.378 53.4691 78.5342 53.5475C78.6904 53.626 78.8261 53.7398 78.9304 53.88L81.4428 57.2156L83.8943 53.9619C83.9962 53.7992 84.1376 53.665 84.3055 53.5718C84.4733 53.4787 84.662 53.4296 84.8539 53.4293H104.517C104.842 53.4267 105.154 53.2959 105.383 53.0652C105.613 52.8345 105.743 52.5226 105.744 52.1969V36.4888C105.743 36.163 105.613 35.8509 105.384 35.6202C105.154 35.3895 104.842 35.2587 104.517 35.2564H90.3981ZM48.5514 35.2564C48.2523 35.2564 47.9654 35.1375 47.754 34.926C47.5425 34.7144 47.4237 34.4274 47.4237 34.1282C47.4237 33.829 47.5425 33.542 47.754 33.3304C47.9654 33.1189 48.2523 33 48.5514 33H54.6734C55.6058 33.0013 56.4997 33.3724 57.159 34.0321C57.8184 34.6917 58.1894 35.5859 58.1907 36.5188V52.1669C58.1894 53.0997 57.8184 53.994 57.159 54.6536C56.4997 55.3132 55.6058 55.6844 54.6734 55.6857H49.9631L46.894 59.7631C46.788 59.9042 46.6502 60.0183 46.4919 60.0962C46.3335 60.1741 46.1591 60.2136 45.9826 60.2116C45.8062 60.2095 45.6327 60.166 45.4762 60.0844C45.3198 60.0028 45.1847 59.8855 45.0819 59.742L42.0298 55.6881H37.3204C36.388 55.6868 35.4941 55.3157 34.8347 54.656C34.1754 53.9964 33.8044 53.1021 33.8031 52.1693V36.5188C33.8044 35.5859 34.1754 34.6917 34.8347 34.0321C35.4941 33.3724 36.388 33.0013 37.3204 33H43.4424C43.5905 33 43.7371 33.0292 43.874 33.0859C44.0108 33.1426 44.1351 33.2257 44.2398 33.3304C44.3445 33.4352 44.4276 33.5596 44.4843 33.6965C44.541 33.8333 44.5701 33.98 44.5701 34.1282C44.5701 34.2764 44.541 34.4231 44.4843 34.5599C44.4276 34.6968 44.3445 34.8212 44.2398 34.926C44.1351 35.0307 44.0108 35.1138 43.874 35.1705C43.7371 35.2272 43.5905 35.2564 43.4424 35.2564H37.3204C36.9861 35.2584 36.6659 35.3918 36.4289 35.6277C36.3113 35.7446 36.218 35.8835 36.1543 36.0366C36.0906 36.1897 36.0578 36.3538 36.0577 36.5196V52.1677C36.0578 52.3335 36.0906 52.4976 36.1543 52.6507C36.218 52.8038 36.3113 52.9427 36.4289 53.0595C36.666 53.2954 36.9861 53.4288 37.3204 53.4309H42.5882C42.763 53.4308 42.9353 53.4716 43.0915 53.55C43.2477 53.6284 43.3834 53.7423 43.4878 53.8825L46.0001 57.218L48.4517 53.9644C48.5535 53.8016 48.695 53.6674 48.8628 53.5743C49.0306 53.4811 49.2193 53.432 49.4112 53.4317H54.6791C55.0134 53.4306 55.3337 53.2973 55.5701 53.0608C55.8065 52.8243 55.9398 52.5038 55.9409 52.1693V36.5188C55.9398 36.1843 55.8065 35.8638 55.5701 35.6273C55.3337 35.3908 55.0134 35.2575 54.6791 35.2564H48.5514Z" fill="#FFF1AC"/>
</g>
<defs>
<clipPath id="clip0">
<rect width="77" height="74" fill="white" transform="translate(31 33)"/>
</clipPath>
</defs>
</svg>
