<svg width="36" height="53" viewBox="0 0 36 53" fill="none" xmlns="http://www.w3.org/2000/svg">
<path fill-rule="evenodd" clip-rule="evenodd" d="M35.838 40.5099C35.5139 44.6733 34.2177 49.4534 33.6506 53H28.4658C28.3848 50.5328 28.1417 46.5237 26.1974 44.6733C24.6582 43.1313 21.9037 43.2084 20.3645 44.5962C18.2581 46.5237 17.9341 50.5328 17.9341 53H12.7492C12.4252 49.7618 11.6961 46.9092 10.8049 44.1336C8.8606 38.5824 6.10615 33.4168 3.67576 28.0969C1.24537 22.7 -0.617937 17.226 0.192194 11.2122C0.59726 8.43664 1.65043 5.81526 3.51373 3.81068C6.75426 0.341214 12.5062 -0.815274 17.1239 0.572512C21.2556 1.8061 23.1999 5.12137 22.3898 9.13053C21.9037 11.829 19.4733 13.2168 17.1239 13.8336C16.1518 14.0649 13.8834 14.2962 13.0733 13.6794C12.4252 13.2168 12.4252 12.3687 12.9923 12.0603C13.3163 11.829 13.9644 11.829 15.0176 11.7519C15.2606 11.7519 15.4227 11.7519 15.5847 11.7519C18.6632 11.2893 20.8505 8.35954 19.1493 5.50686C17.8531 3.42518 13.7214 2.73129 10.5619 4.65877C7.80743 6.27786 6.43021 9.97862 6.83527 13.371C7.24034 16.5321 9.26567 19.616 12.9113 20.0015C16.7999 20.387 20.6885 19.6931 22.7138 20.8496C25.2253 22.3145 26.1164 25.9382 25.4683 28.4053C25.3063 29.4076 24.8202 30.3328 24.2531 31.1038C23.605 31.9519 22.9569 32.6458 22.3898 32.9542C20.6075 33.8794 20.2835 33.7252 18.6632 33.1855C18.2581 33.0313 17.772 32.8771 17.205 32.7229C15.8277 32.3374 14.6935 32.1832 13.8834 32.1061C12.9923 32.029 12.4252 32.029 12.1821 31.4893C11.453 30.1786 11.453 30.1786 11.453 30.1786C10.9669 30.1786 10.4809 30.1786 9.99478 30.1786C9.99478 30.1786 9.91377 30.4099 10.8049 32.1061C11.453 33.3397 12.3442 33.4168 13.7214 33.571C14.5315 33.571 15.5037 33.7252 16.7189 34.1107C17.286 34.2649 17.772 34.4191 18.1771 34.4962C20.2835 35.2672 20.7695 35.4214 23.1189 34.1878C23.848 33.8023 24.7392 32.9542 25.4683 31.8748C26.1164 30.9496 26.6835 29.8702 26.9265 28.7908C27.2506 27.5572 27.2506 26.3237 27.0886 25.3985C27.6556 25.5527 28.5468 25.784 29.843 26.2466C32.1924 27.0176 33.6506 28.4053 34.6228 29.9473C35.757 31.9519 36.081 34.1107 35.1899 36.1924C34.7038 37.5031 33.7316 38.6595 33.0835 39.3534C32.5974 39.9702 32.1114 40.2015 33.4076 39.8931C34.1367 39.7389 35.1899 39.3534 36 38.274V38.1969C36 39.045 35.919 39.816 35.838 40.5099ZM3.9188 24.5504C3.75677 23.471 4.72893 22.0832 5.86311 21.158C6.67325 20.5412 7.40236 20.1557 8.29351 19.9244C9.02263 19.6931 8.69857 20.0015 8.21249 20.387C7.24034 21.2351 6.59223 22.0832 6.18717 23.2397C5.86311 24.0878 5.53906 25.0901 5.45805 26.0153C5.45805 26.7092 5.37703 27.4801 5.37703 27.4801L3.9188 24.5504Z" fill="#C7141A"/>
</svg>
