<svg width="140" height="140" viewBox="0 0 140 140" fill="none" xmlns="http://www.w3.org/2000/svg">
<circle cx="70" cy="70" r="70" fill="#094049"/>
<path d="M104.794 67.247H102.864V46.4562C102.864 46.2955 102.832 46.1365 102.769 45.9886C102.707 45.8407 102.615 45.7069 102.5 45.595C102.385 45.4831 102.249 45.3955 102.1 45.3373C101.95 45.2791 101.791 45.2516 101.631 45.2563C101.313 45.2743 101.015 45.4146 100.799 45.6478C100.582 45.8811 100.464 46.1891 100.469 46.5076V67.247H92.4334C92.2733 67.2428 92.1141 67.2708 91.9651 67.3293C91.816 67.3877 91.6802 67.4755 91.5655 67.5875C91.4509 67.6994 91.3597 67.8333 91.2975 67.9811C91.2353 68.1289 91.2032 68.2877 91.2032 68.4481C91.2032 68.6085 91.2353 68.7673 91.2975 68.9151C91.3597 69.063 91.4509 69.1968 91.5655 69.3087C91.6802 69.4207 91.816 69.5085 91.9651 69.567C92.1141 69.6254 92.2733 69.6534 92.4334 69.6492H104.793C105.526 69.6669 106.223 69.9712 106.736 70.497C107.248 71.0229 107.535 71.7286 107.535 72.4634C107.535 73.1983 107.248 73.904 106.736 74.4299C106.223 74.9557 105.526 75.26 104.793 75.2776H80.3061V69.6492H86.8394C86.9994 69.6534 87.1586 69.6254 87.3077 69.567C87.4567 69.5085 87.5926 69.4207 87.7072 69.3087C87.8219 69.1968 87.913 69.063 87.9752 68.9151C88.0374 68.7673 88.0695 68.6085 88.0695 68.4481C88.0695 68.2877 88.0374 68.1289 87.9752 67.9811C87.913 67.8333 87.8219 67.6994 87.7072 67.5875C87.5926 67.4755 87.4567 67.3877 87.3077 67.3293C87.1586 67.2708 86.9994 67.2428 86.8394 67.247H80.0204C79.6086 67.2481 79.206 67.3696 78.8621 67.5967C78.5181 67.8237 78.2478 68.1464 78.0841 68.5252H69.6056C69.4599 68.1492 69.2044 67.826 68.8724 67.5979C68.5404 67.3699 68.1475 67.2475 67.745 67.247H64.2452C63.8428 67.2477 63.4499 67.37 63.1179 67.5981C62.786 67.8261 62.5304 68.1492 62.3846 68.5252H57.2448V67.4941C57.2441 67.0113 57.1189 66.5368 56.8813 66.1168C56.6437 65.6967 56.3018 65.3454 55.8888 65.0968V62.0362C57.063 61.6811 58.0708 60.9148 58.7284 59.8772C59.386 58.8396 59.6497 57.5996 59.4713 56.3835C59.2929 55.1673 58.6844 54.0558 57.7567 53.2518C56.8289 52.4477 55.6438 52.0045 54.4172 52.003H50.3762V31.4023H100.467V40.8514C100.468 41.0122 100.5 41.1712 100.563 41.3192C100.625 41.4672 100.717 41.6011 100.832 41.7129C100.947 41.8248 101.083 41.9124 101.233 41.9705C101.382 42.0287 101.542 42.0562 101.702 42.0513C102.019 42.0333 102.318 41.893 102.534 41.6598C102.75 41.4266 102.869 41.1185 102.864 40.8001V31.0018C102.864 30.471 102.653 29.962 102.279 29.5866C101.905 29.2112 101.397 29.0002 100.867 29H49.9765C49.4468 29 48.9388 29.2109 48.5642 29.5863C48.1896 29.9617 47.9792 30.4709 47.9792 31.0018V52.003H44.398C43.1715 52.0045 41.9863 52.4477 41.0586 53.2518C40.1308 54.0558 39.5223 55.1673 39.3439 56.3835C39.1656 57.5996 39.4292 58.8396 40.0868 59.8772C40.7444 60.9148 41.7522 61.6811 42.9265 62.0362V65.0951C42.5136 65.3438 42.1719 65.6952 41.9344 66.1153C41.697 66.5353 41.5719 67.0097 41.5713 67.4925V77.4352C41.5719 77.918 41.697 78.3924 41.9344 78.8124C42.1719 79.2325 42.5136 79.5839 42.9265 79.8326V82.8915C41.7522 83.2466 40.7444 84.0129 40.0868 85.0505C39.4292 86.0881 39.1656 87.3281 39.3439 88.5442C39.5223 89.7604 40.1308 90.8719 41.0586 91.6759C41.9863 92.48 43.1715 92.9232 44.398 92.9247H47.9792V97.0946H38.6119C37.8705 97.0955 37.1596 97.391 36.6354 97.9165C36.1111 98.4419 35.8162 99.1543 35.8153 99.8974V101.887H35.7966C35.0552 101.888 34.3443 102.183 33.8201 102.709C33.2958 103.234 33.0009 103.947 33 104.69V108.997C33.0006 109.527 33.2113 110.036 33.5857 110.411C33.9602 110.787 34.4678 110.998 34.9973 110.998H100.867C101.397 110.998 101.905 110.787 102.279 110.412C102.654 110.037 102.864 109.528 102.864 108.997V77.6824H104.794C106.145 77.6376 107.426 77.0682 108.366 76.0946C109.306 75.121 109.831 73.8193 109.831 72.4647C109.831 71.11 109.306 69.8083 108.366 68.8347C107.426 67.8611 106.145 67.2918 104.794 67.247ZM69.7424 70.9275H77.9108V74.0019H69.7424V70.9275ZM64.6416 69.6492H67.3446V75.2776H64.6424L64.6416 69.6492ZM57.2448 70.9275H62.2454V74.0019H57.2448V70.9275ZM41.682 57.1289C41.6828 56.4068 41.9694 55.7146 42.4789 55.204C42.9884 54.6934 43.6791 54.4061 44.3996 54.4053H54.4189C55.1397 54.4053 55.8311 54.6923 56.3408 55.2031C56.8506 55.714 57.1369 56.4069 57.1369 57.1293C57.1369 57.8518 56.8506 58.5447 56.3408 59.0555C55.8311 59.5664 55.1397 59.8534 54.4189 59.8534H44.3996C43.6791 59.8525 42.9884 59.5653 42.4789 59.0547C41.9694 58.5441 41.6828 57.8518 41.682 57.1297V57.1289ZM44.3679 77.8357C44.2619 77.8357 44.1603 77.7935 44.0853 77.7184C44.0104 77.6433 43.9683 77.5414 43.9683 77.4352V67.4941C43.9683 67.3879 44.0104 67.286 44.0853 67.2109C44.1603 67.1358 44.2619 67.0936 44.3679 67.0936H54.4482C54.5542 67.0936 54.6558 67.1358 54.7308 67.2109C54.8057 67.286 54.8478 67.3879 54.8478 67.4941V77.4352C54.8478 77.5414 54.8057 77.6433 54.7308 77.7184C54.6558 77.7935 54.5542 77.8357 54.4482 77.8357H44.3679ZM53.491 80.238V82.6737H45.325V80.238H53.491ZM45.325 64.6914V62.2557H53.4926V64.6914H45.325ZM44.3996 90.5241C43.6788 90.5241 42.9874 90.2371 42.4777 89.7262C41.9679 89.2153 41.6816 88.5225 41.6816 87.8C41.6816 87.0775 41.9679 86.3847 42.4777 85.8738C42.9874 85.3629 43.6788 85.0759 44.3996 85.0759H54.4189C55.1397 85.0759 55.8311 85.3629 56.3408 85.8738C56.8506 86.3847 57.1369 87.0775 57.1369 87.8C57.1369 88.5225 56.8506 89.2153 56.3408 89.7262C55.8311 90.2371 55.1397 90.5241 54.4189 90.5241H44.3996ZM63.4207 108.598H35.397V104.691C35.397 104.585 35.4391 104.483 35.514 104.408C35.589 104.333 35.6906 104.291 35.7966 104.291H43.2154C43.3754 104.295 43.5346 104.267 43.6837 104.209C43.8327 104.15 43.9686 104.062 44.0833 103.95C44.1979 103.838 44.289 103.704 44.3512 103.557C44.4135 103.409 44.4455 103.25 44.4455 103.09C44.4455 102.929 44.4135 102.77 44.3512 102.623C44.289 102.475 44.1979 102.341 44.0833 102.229C43.9686 102.117 43.8327 102.029 43.6837 101.971C43.5346 101.912 43.3754 101.884 43.2154 101.889H38.2123V99.899C38.2123 99.7928 38.2544 99.6909 38.3293 99.6158C38.4043 99.5407 38.5059 99.4985 38.6119 99.4985H60.2025C60.3085 99.4985 60.4102 99.5407 60.4851 99.6158C60.56 99.6909 60.6021 99.7928 60.6021 99.899V101.889H48.8078C48.6478 101.884 48.4885 101.912 48.3395 101.971C48.1904 102.029 48.0546 102.117 47.9399 102.229C47.8253 102.341 47.7341 102.475 47.6719 102.623C47.6097 102.77 47.5776 102.929 47.5776 103.09C47.5776 103.25 47.6097 103.409 47.6719 103.557C47.7341 103.704 47.8253 103.838 47.9399 103.95C48.0546 104.062 48.1904 104.15 48.3395 104.209C48.4885 104.267 48.6478 104.295 48.8078 104.291H63.0211C63.1271 104.291 63.2287 104.333 63.3037 104.408C63.3786 104.483 63.4207 104.585 63.4207 104.691V108.598ZM100.467 108.598H65.8185V104.691C65.8176 103.948 65.5227 103.236 64.9984 102.71C64.4742 102.185 63.7633 101.889 63.0219 101.889H63.0024V99.899C63.0015 99.1554 62.7061 98.4425 62.1812 97.9169C61.6562 97.3914 60.9445 97.0962 60.2025 97.0962H50.3762V92.9263H54.4181C55.6446 92.9248 56.8298 92.4817 57.7575 91.6776C58.6852 90.8735 59.2937 89.762 59.4721 88.5459C59.6505 87.3297 59.3868 86.0898 58.7292 85.0521C58.0716 84.0145 57.0638 83.2483 55.8896 82.8931V79.8342C56.3025 79.5855 56.6442 79.2341 56.8816 78.814C57.1191 78.394 57.2442 77.9196 57.2448 77.4368V76.4041H62.3822C62.5279 76.7802 62.7834 77.1033 63.1154 77.3314C63.4474 77.5595 63.8403 77.6818 64.2428 77.6824H67.7426C68.145 77.6817 68.5379 77.5593 68.8699 77.3313C69.2018 77.1032 69.4574 76.7801 69.6032 76.4041H78.0841C78.2478 76.7829 78.5181 77.1056 78.8621 77.3327C79.206 77.5597 79.6086 77.6812 80.0204 77.6824H100.467V108.598Z" fill="#FFF1AC"/>
<path d="M63.0103 48.9039C63.0103 51.3642 63.7382 53.7693 65.1021 55.815C66.4659 57.8607 68.4044 59.4551 70.6725 60.3966C72.9405 61.3381 75.4362 61.5844 77.8439 61.1045C80.2516 60.6245 82.4632 59.4397 84.1991 57.7C85.935 55.9603 87.1171 53.7438 87.596 51.3308C88.075 48.9177 87.8292 46.4165 86.8897 44.1435C85.9503 41.8705 84.3594 39.9277 82.3182 38.5608C80.277 37.1939 77.8773 36.4644 75.4224 36.4644C72.1316 36.468 68.9767 37.7798 66.6497 40.1119C64.3228 42.444 63.0139 45.6059 63.0103 48.9039ZM85.4367 48.9039C85.4367 50.8883 84.8496 52.8281 83.7496 54.4781C82.6495 56.128 81.086 57.414 79.2567 58.1734C77.4274 58.9328 75.4145 59.1315 73.4726 58.7444C71.5306 58.3572 69.7468 57.4017 68.3467 55.9985C66.9467 54.5953 65.9932 52.8076 65.6069 50.8613C65.2206 48.9151 65.4189 46.8977 66.1766 45.0644C66.9343 43.231 68.2175 41.6641 69.8638 40.5616C71.5101 39.4591 73.4456 38.8707 75.4257 38.8707C78.0796 38.8746 80.6237 39.9329 82.5003 41.8137C84.3769 43.6944 85.4329 46.2441 85.4367 48.9039Z" fill="#FFF1AC"/>
<path d="M72.0027 47.5853C71.7761 47.3691 71.4742 47.2502 71.1614 47.254C70.8486 47.2578 70.5497 47.384 70.3284 47.6057C70.1071 47.8273 69.9811 48.1268 69.9771 48.4403C69.9732 48.7538 70.0917 49.0565 70.3073 49.2836L73.9935 52.978C74.2183 53.2033 74.5232 53.3298 74.8412 53.3298C75.1591 53.3298 75.464 53.2033 75.6889 52.978L81.4034 47.2509C81.619 47.0237 81.7374 46.7211 81.7335 46.4076C81.7296 46.0941 81.6035 45.7946 81.3822 45.5729C81.161 45.3513 80.862 45.2251 80.5492 45.2213C80.2364 45.2175 79.9345 45.3364 79.708 45.5526L74.8416 50.4305L72.0027 47.5853Z" fill="#FFF1AC"/>
<path d="M69.5317 82.584C69.5316 82.7418 69.5626 82.8981 69.6228 83.0439C69.683 83.1898 69.7713 83.3223 69.8826 83.4339C69.994 83.5455 70.1262 83.634 70.2717 83.6943C70.4172 83.7547 70.5732 83.7857 70.7306 83.7856H92.7721C93.0846 83.7774 93.3815 83.6473 93.5996 83.4229C93.8177 83.1985 93.9398 82.8977 93.9398 82.5844C93.9398 82.2712 93.8177 81.9703 93.5996 81.7459C93.3815 81.5216 93.0846 81.3915 92.7721 81.3833H70.7306C70.5732 81.3832 70.4173 81.4142 70.2719 81.4745C70.1264 81.5348 69.9943 81.6232 69.8829 81.7347C69.7716 81.8462 69.6833 81.9786 69.623 82.1243C69.5628 82.2701 69.5317 82.4263 69.5317 82.584Z" fill="#FFF1AC"/>
<path d="M92.7709 87.2245H81.4079C81.2478 87.2203 81.0886 87.2483 80.9396 87.3068C80.7905 87.3653 80.6547 87.4531 80.54 87.565C80.4254 87.677 80.3342 87.8108 80.272 87.9586C80.2098 88.1064 80.1777 88.2652 80.1777 88.4257C80.1777 88.5861 80.2098 88.7449 80.272 88.8927C80.3342 89.0405 80.4254 89.1743 80.54 89.2863C80.6547 89.3982 80.7905 89.486 80.9396 89.5445C81.0886 89.603 81.2478 89.631 81.4079 89.6268H92.7717C92.9317 89.631 93.0909 89.603 93.24 89.5445C93.389 89.486 93.5249 89.3982 93.6395 89.2863C93.7542 89.1743 93.8453 89.0405 93.9075 88.8927C93.9697 88.7449 94.0018 88.5861 94.0018 88.4257C94.0018 88.2652 93.9697 88.1064 93.9075 87.9586C93.8453 87.8108 93.7542 87.677 93.6395 87.565C93.5249 87.4531 93.389 87.3653 93.24 87.3068C93.0909 87.2483 92.9317 87.2203 92.7717 87.2245H92.7709Z" fill="#FFF1AC"/>
<path d="M70.7306 89.6268H77.2533C77.4133 89.631 77.5725 89.603 77.7216 89.5445C77.8706 89.486 78.0065 89.3982 78.1212 89.2863C78.2358 89.1743 78.3269 89.0405 78.3891 88.8927C78.4514 88.7449 78.4834 88.5861 78.4834 88.4257C78.4834 88.2652 78.4514 88.1064 78.3891 87.9586C78.3269 87.8108 78.2358 87.677 78.1212 87.565C78.0065 87.4531 77.8706 87.3653 77.7216 87.3068C77.5725 87.2483 77.4133 87.2203 77.2533 87.2245H70.7306C70.5706 87.2203 70.4114 87.2483 70.2623 87.3068C70.1133 87.3653 69.9774 87.4531 69.8627 87.565C69.7481 87.677 69.657 87.8108 69.5948 87.9586C69.5325 88.1064 69.5005 88.2652 69.5005 88.4257C69.5005 88.5861 69.5325 88.7449 69.5948 88.8927C69.657 89.0405 69.7481 89.1743 69.8627 89.2863C69.9774 89.3982 70.1133 89.486 70.2623 89.5445C70.4114 89.603 70.5706 89.631 70.7306 89.6268Z" fill="#FFF1AC"/>
<path d="M92.7721 93.0668H70.7306C70.5706 93.0626 70.4114 93.0906 70.2623 93.1491C70.1133 93.2076 69.9774 93.2954 69.8628 93.4073C69.7481 93.5193 69.657 93.6531 69.5948 93.8009C69.5325 93.9487 69.5005 94.1075 69.5005 94.2679C69.5005 94.4284 69.5325 94.5872 69.5948 94.735C69.657 94.8828 69.7481 95.0166 69.8628 95.1285C69.9774 95.2405 70.1133 95.3283 70.2623 95.3868C70.4114 95.4453 70.5706 95.4732 70.7306 95.4691H92.7721C93.0846 95.4609 93.3815 95.3308 93.5996 95.1064C93.8177 94.882 93.9398 94.5812 93.9398 94.2679C93.9398 93.9547 93.8177 93.6538 93.5996 93.4295C93.3815 93.2051 93.0846 93.075 92.7721 93.0668Z" fill="#FFF1AC"/>
<path d="M92.7713 98.9081H87.0006C86.8406 98.9039 86.6814 98.9319 86.5323 98.9904C86.3833 99.0489 86.2474 99.1367 86.1328 99.2486C86.0181 99.3606 85.927 99.4944 85.8648 99.6422C85.8026 99.79 85.7705 99.9488 85.7705 100.109C85.7705 100.27 85.8026 100.428 85.8648 100.576C85.927 100.724 86.0181 100.858 86.1328 100.97C86.2474 101.082 86.3833 101.17 86.5323 101.228C86.6814 101.287 86.8406 101.315 87.0006 101.31H92.7713C93.0837 101.302 93.3806 101.172 93.5987 100.948C93.8168 100.723 93.9389 100.423 93.9389 100.109C93.9389 99.796 93.8168 99.4951 93.5987 99.2708C93.3806 99.0464 93.0837 98.9163 92.7713 98.9081Z" fill="#FFF1AC"/>
<path d="M83.3259 98.9081H70.7306C70.5706 98.9039 70.4114 98.9319 70.2623 98.9904C70.1133 99.0489 69.9774 99.1367 69.8627 99.2486C69.7481 99.3606 69.657 99.4944 69.5948 99.6422C69.5325 99.79 69.5005 99.9488 69.5005 100.109C69.5005 100.27 69.5325 100.428 69.5948 100.576C69.657 100.724 69.7481 100.858 69.8627 100.97C69.9774 101.082 70.1133 101.17 70.2623 101.228C70.4114 101.287 70.5706 101.315 70.7306 101.31H83.3259C83.6383 101.302 83.9352 101.172 84.1533 100.948C84.3715 100.723 84.4935 100.423 84.4935 100.109C84.4935 99.796 84.3715 99.4951 84.1533 99.2708C83.9352 99.0464 83.6383 98.9163 83.3259 98.9081Z" fill="#FFF1AC"/>
</svg>
