<svg id="Слой_1" data-name="Слой 1" xmlns="http://www.w3.org/2000/svg" xmlns:xlink="http://www.w3.org/1999/xlink" viewBox="0 0 1741 1032"><defs><style>.cls-1{fill:#f5f5f5;}.cls-2{fill:#e6e7eb;}.cls-3{fill:#eff0f2;}.cls-4{fill:#edeef2;}.cls-13,.cls-5,.cls-6{fill:#fff;}.cls-30,.cls-6{opacity:0.5;}.cls-7{fill:url(#Безымянный_градиент_2);}.cls-8{fill:#e1cfe2;}.cls-9{fill:#845b56;}.cls-10{fill:url(#Безымянный_градиент_48);}.cls-11{fill:#ffc095;}.cls-12{fill:url(#Безымянный_градиент_39);}.cls-13{opacity:0.3;}.cls-14{fill:#512a3b;}.cls-15{fill:#e7915f;}.cls-16{fill:url(#Безымянный_градиент_47);}.cls-17{fill:#070605;}.cls-18{fill:#422030;}.cls-19{fill:url(#Безымянный_градиент_47-2);}.cls-20,.cls-41{fill:#e56266;}.cls-20{opacity:0.1;}.cls-21{fill:url(#Безымянный_градиент_33);}.cls-22{fill:url(#Безымянный_градиент_39-2);}.cls-23{fill:url(#Безымянный_градиент_40);}.cls-24{fill:url(#Безымянный_градиент_45);}.cls-25{fill:url(#Безымянный_градиент_43);}.cls-26{fill:#7d8491;}.cls-27{fill:#e2d9e2;}.cls-28{fill:#adb5c4;}.cls-29{fill:url(#Безымянный_градиент_2-2);}.cls-30{fill:#363b3b;}.cls-31{fill:url(#Безымянный_градиент_2-3);}.cls-32{fill:url(#Безымянный_градиент_2-4);}.cls-33{fill:url(#Безымянный_градиент_2-5);}.cls-34{fill:#d9d8d9;}.cls-35{fill:#9fa0a3;}.cls-36{fill:#888;}.cls-37{fill:#6e7277;}.cls-38{fill:#6b5743;}.cls-39{fill:#3f362e;}.cls-40{fill:#a398a2;}.cls-42{fill:#efe1b6;}.cls-43{fill:#532e0b;}.cls-44{fill:#373747;}.cls-45{fill:url(#Безымянный_градиент_3);}.cls-46{fill:#724829;}.cls-47{fill:url(#Безымянный_градиент_2-6);}.cls-48{fill:url(#Безымянный_градиент_48-2);}.cls-49{fill:url(#Безымянный_градиент_39-3);}.cls-50{fill:#a5734c;}.cls-51{fill:url(#Безымянный_градиент_41);}.cls-52{fill:url(#Безымянный_градиент_41-2);}.cls-53{fill:url(#Безымянный_градиент_16);}.cls-54{fill:url(#Безымянный_градиент_16-2);}.cls-55{fill:url(#Безымянный_градиент_18);}.cls-56{fill:#d35760;}.cls-57{fill:url(#Безымянный_градиент_2-7);}.cls-58{fill:#5f6772;}.cls-59{fill:url(#Безымянный_градиент_2-8);}.cls-60{fill:url(#Безымянный_градиент_48-3);}.cls-61{fill:url(#Безымянный_градиент_39-4);}.cls-62{fill:#68453b;}.cls-63{fill:#650c00;}.cls-64{fill:url(#Безымянный_градиент_69);}.cls-65{fill:url(#Безымянный_градиент_69-2);}.cls-66{fill:url(#Безымянный_градиент_66);}.cls-67{fill:#e0e0e0;}.cls-68{fill:url(#Безымянный_градиент_33-2);}.cls-69{fill:url(#Безымянный_градиент_39-5);}.cls-70{fill:url(#Безымянный_градиент_40-2);}.cls-71{fill:#8c5449;}.cls-72{fill:#222428;}.cls-73{fill:#3a2412;}.cls-74{fill:red;}.cls-75{fill:url(#Безымянный_градиент_2-9);}.cls-76{fill:#dfe7ef;}.cls-77{fill:#e8dba7;}.cls-78{fill:none;stroke:#efe1b6;stroke-miterlimit:10;stroke-width:3px;}.cls-79{fill:#191319;}.cls-80{fill:#6d686c;}</style><linearGradient id="Безымянный_градиент_2" x1="1425.23" y1="639.58" x2="1475.37" y2="639.58" gradientUnits="userSpaceOnUse"><stop offset="0.04" stop-color="#cd8864"/><stop offset="0.06" stop-color="#d08b66"/><stop offset="0.2" stop-color="#e29e72"/><stop offset="0.37" stop-color="#eeab7b"/><stop offset="0.59" stop-color="#f6b380"/><stop offset="1" stop-color="#f8b581"/></linearGradient><radialGradient id="Безымянный_градиент_48" cx="1363.32" cy="-661.28" r="151.71" gradientTransform="matrix(-1, 0.02, 0.02, 1, 2616.28, 1018.15)" xlink:href="#Безымянный_градиент_2"/><linearGradient id="Безымянный_градиент_39" x1="1245.47" y1="269.16" x2="1245.47" y2="319.79" gradientTransform="matrix(-1, 0, 0, 1, 2476.96, 0)" gradientUnits="userSpaceOnUse"><stop offset="0" stop-color="#ffc095"/><stop offset="0.34" stop-color="#febd93"/><stop offset="0.54" stop-color="#fab58e"/><stop offset="0.71" stop-color="#f3a784"/><stop offset="0.86" stop-color="#ea9277"/><stop offset="1" stop-color="#de7865"/><stop offset="1" stop-color="#de7865"/></linearGradient><radialGradient id="Безымянный_градиент_47" cx="16515.27" cy="-896.45" r="9.2" gradientTransform="matrix(-1, 0.08, 0.08, 1, 17734.79, -193.85)" gradientUnits="userSpaceOnUse"><stop offset="0.05" stop-color="#471b30"/><stop offset="0.24" stop-color="#4c2033"/><stop offset="0.46" stop-color="#5a2f3c"/><stop offset="0.71" stop-color="#72484b"/><stop offset="0.86" stop-color="#845b56"/></radialGradient><radialGradient id="Безымянный_градиент_47-2" cx="10247.65" cy="-378.28" r="9.2" gradientTransform="translate(-8982.06 -193.85) rotate(4.73)" xlink:href="#Безымянный_градиент_47"/><radialGradient id="Безымянный_градиент_33" cx="1245.72" cy="338.24" r="30.24" gradientTransform="matrix(-0.72, 0, 0, 1, 2129.19, 0)" gradientUnits="userSpaceOnUse"><stop offset="0" stop-color="#ffc095"/><stop offset="0.08" stop-color="#fdb992"/><stop offset="0.34" stop-color="#f8a98b"/><stop offset="0.63" stop-color="#f59f86"/><stop offset="1" stop-color="#f49c85"/></radialGradient><linearGradient id="Безымянный_градиент_39-2" x1="1172.21" y1="285.47" x2="1186.2" y2="285.47" xlink:href="#Безымянный_градиент_39"/><linearGradient id="Безымянный_градиент_40" x1="1304.65" y1="288.38" x2="1318.28" y2="288.38" gradientTransform="matrix(-1, 0, 0, 1, 2476.96, 0)" gradientUnits="userSpaceOnUse"><stop offset="0" stop-color="#de7865"/><stop offset="0" stop-color="#de7865"/><stop offset="0.14" stop-color="#ea9277"/><stop offset="0.29" stop-color="#f3a784"/><stop offset="0.46" stop-color="#fab58e"/><stop offset="0.66" stop-color="#febd93"/><stop offset="1" stop-color="#ffc095"/></linearGradient><linearGradient id="Безымянный_градиент_45" x1="11020.25" y1="1780.9" x2="11065" y2="1780.9" gradientTransform="matrix(-0.98, -0.18, -0.18, 0.98, 12445.03, 534.33)" gradientUnits="userSpaceOnUse"><stop offset="0.05" stop-color="#592e33"/><stop offset="0.51" stop-color="#6d4a4a"/><stop offset="0.86" stop-color="#7f635e"/></linearGradient><linearGradient id="Безымянный_градиент_43" x1="4909.85" y1="634.55" x2="4954.6" y2="634.55" gradientTransform="translate(-3763.48 534.33) rotate(-10.63)" gradientUnits="userSpaceOnUse"><stop offset="0.05" stop-color="#471b30"/><stop offset="0.4" stop-color="#5d3742"/><stop offset="0.86" stop-color="#7f635e"/></linearGradient><linearGradient id="Безымянный_градиент_2-2" x1="414.8" y1="424.04" x2="520.02" y2="424.04" gradientTransform="translate(676)" xlink:href="#Безымянный_градиент_2"/><linearGradient id="Безымянный_градиент_2-3" x1="1452.44" y1="633.45" x2="1458.9" y2="633.45" xlink:href="#Безымянный_градиент_2"/><linearGradient id="Безымянный_градиент_2-4" x1="1458.97" y1="642.86" x2="1460.64" y2="642.86" xlink:href="#Безымянный_градиент_2"/><linearGradient id="Безымянный_градиент_2-5" x1="1399.68" y1="625.7" x2="1481.47" y2="625.7" xlink:href="#Безымянный_градиент_2"/><linearGradient id="Безымянный_градиент_3" x1="457.9" y1="699.25" x2="523.95" y2="681.34" gradientUnits="userSpaceOnUse"><stop offset="0" stop-color="#f8b581"/><stop offset="0.41" stop-color="#f6b380"/><stop offset="0.63" stop-color="#eeab7b"/><stop offset="0.8" stop-color="#e29e72"/><stop offset="0.94" stop-color="#d08b66"/><stop offset="0.96" stop-color="#cd8864"/></linearGradient><linearGradient id="Безымянный_градиент_2-6" x1="443.53" y1="882.6" x2="518.41" y2="882.6" xlink:href="#Безымянный_градиент_2"/><radialGradient id="Безымянный_градиент_48-2" cx="1771.35" cy="432.25" fy="337.84900678007995" r="100.59" gradientTransform="matrix(-1, 0, 0, 1, 2679.08, 0)" xlink:href="#Безымянный_градиент_2"/><linearGradient id="Безымянный_градиент_39-3" x1="93.47" y1="143.35" x2="93.47" y2="193.98" gradientTransform="translate(784.89 125.79) rotate(-7.42)" xlink:href="#Безымянный_градиент_39"/><linearGradient id="Безымянный_градиент_41" x1="5858.95" y1="683.74" x2="5903.7" y2="683.74" gradientTransform="matrix(-1, -0.06, -0.06, 1, 6835.92, -123.13)" gradientUnits="userSpaceOnUse"><stop offset="0.14" stop-color="#724829"/><stop offset="0.48" stop-color="#895b39"/><stop offset="0.95" stop-color="#a5734c"/></linearGradient><linearGradient id="Безымянный_градиент_41-2" x1="5317.6" y1="582.18" x2="5362.36" y2="582.18" gradientTransform="translate(-4396.84 1339.23) rotate(-18.04)" xlink:href="#Безымянный_градиент_41"/><radialGradient id="Безымянный_градиент_16" cx="15357.55" cy="-924.08" r="8.56" gradientTransform="translate(-14370.29 1903.31) rotate(-2.69)" gradientUnits="userSpaceOnUse"><stop offset="0.05" stop-color="#471b30"/><stop offset="0.17" stop-color="#492030"/><stop offset="0.3" stop-color="#512f31"/><stop offset="0.45" stop-color="#5c4832"/><stop offset="0.61" stop-color="#6d6b33"/><stop offset="0.78" stop-color="#829735"/><stop offset="0.86" stop-color="#8daf36"/></radialGradient><radialGradient id="Безымянный_градиент_16-2" cx="15851.65" cy="-964.93" r="8.56" gradientTransform="matrix(-0.98, 0.21, 0.21, 0.98, 16567.23, -2124.35)" xlink:href="#Безымянный_градиент_16"/><radialGradient id="Безымянный_градиент_18" cx="958.58" cy="245.21" r="23.11" gradientTransform="translate(-63.81 136.05) rotate(-3.13)" gradientUnits="userSpaceOnUse"><stop offset="0" stop-color="#ffa472"/><stop offset="0.11" stop-color="#fc7b5c"/><stop offset="0.23" stop-color="#fa5748"/><stop offset="0.36" stop-color="#f83937"/><stop offset="0.5" stop-color="#f6212a"/><stop offset="0.64" stop-color="#f51121"/><stop offset="0.8" stop-color="#f4071c"/><stop offset="1" stop-color="#f4041a"/></radialGradient><linearGradient id="Безымянный_градиент_2-7" x1="490.29" y1="683.57" x2="563.72" y2="680.7" xlink:href="#Безымянный_градиент_2"/><linearGradient id="Безымянный_градиент_2-8" x1="751.84" y1="663.79" x2="884.97" y2="663.79" xlink:href="#Безымянный_градиент_2"/><radialGradient id="Безымянный_градиент_48-3" cx="1585.98" cy="-747.89" r="173.2" gradientTransform="matrix(-1, 0.02, 0.02, 1, 1940.28, 1018.15)" xlink:href="#Безымянный_градиент_2"/><linearGradient id="Безымянный_градиент_39-4" x1="1556.14" y1="366.8" x2="1556.14" y2="417.44" gradientTransform="matrix(-0.99, -0.11, -0.11, 0.99, 1928.63, -8.82)" xlink:href="#Безымянный_градиент_39"/><linearGradient id="Безымянный_градиент_69" x1="1086.01" y1="-40.37" x2="1130.01" y2="-40.37" gradientTransform="matrix(-0.95, -0.32, -0.32, 0.95, 1408.6, 559.07)" gradientUnits="userSpaceOnUse"><stop offset="0.05" stop-color="#471b30"/><stop offset="0.61" stop-color="#602c14"/><stop offset="0.86" stop-color="#6c3506"/></linearGradient><linearGradient id="Безымянный_градиент_69-2" x1="4386.17" y1="632.59" x2="4430.17" y2="632.59" gradientTransform="translate(-4126.14 -137.69) rotate(-4.34)" xlink:href="#Безымянный_градиент_69"/><radialGradient id="Безымянный_градиент_66" cx="16832.18" cy="-821.66" r="9.2" gradientTransform="matrix(-1, -0.03, -0.03, 1, 17116.09, 1467.79)" gradientUnits="userSpaceOnUse"><stop offset="0.05" stop-color="#471b30"/><stop offset="0.15" stop-color="#451f35"/><stop offset="0.27" stop-color="#3f2b44"/><stop offset="0.4" stop-color="#363e5d"/><stop offset="0.54" stop-color="#295980"/><stop offset="0.68" stop-color="#187cad"/><stop offset="0.83" stop-color="#04a6e2"/><stop offset="0.86" stop-color="#00afee"/></radialGradient><radialGradient id="Безымянный_градиент_33-2" cx="1556.39" cy="438.88" r="30.24" gradientTransform="matrix(-0.99, -0.11, -0.11, 0.99, 1928.63, -8.82)" xlink:href="#Безымянный_градиент_33"/><linearGradient id="Безымянный_градиент_39-5" x1="1482.88" y1="386.11" x2="1496.87" y2="386.11" gradientTransform="matrix(-0.99, -0.11, -0.11, 0.99, 1928.63, -8.82)" xlink:href="#Безымянный_градиент_39"/><linearGradient id="Безымянный_градиент_40-2" x1="1615.32" y1="389.02" x2="1628.95" y2="389.02" gradientTransform="matrix(-0.99, -0.11, -0.11, 0.99, 1928.63, -8.82)" xlink:href="#Безымянный_градиент_40"/><linearGradient id="Безымянный_градиент_2-9" x1="763.78" y1="667.94" x2="763.82" y2="667.94" xlink:href="#Безымянный_градиент_2"/></defs><rect class="cls-1" x="107.15" y="35.41" width="1517.57" height="883.02" transform="translate(1731.88 953.84) rotate(-180)"/><rect class="cls-2" x="537.93" y="420.32" width="138.68" height="498.11" transform="translate(1214.54 1338.74) rotate(-180)"/><rect class="cls-3" x="151.93" y="420.32" width="237.22" height="498.11" transform="translate(541.08 1338.74) rotate(-180)"/><line class="cls-4" x1="1433.52" y1="919.03" x2="1670.74" y2="919.03"/><rect class="cls-3" x="886.04" y="346.73" width="166.98" height="571.7" transform="translate(1939.07 1265.16) rotate(-180)"/><rect class="cls-2" x="349.95" y="86.35" width="138.68" height="832.08" transform="translate(838.58 1004.78) rotate(-180)"/><polygon class="cls-3" points="464.35 304.28 464.35 918.43 611.52 918.43 611.52 304.28 596.71 304.28 557.09 134.47 549.25 134.47 537.93 85.98 526.61 134.47 518.77 134.47 479.15 304.28 464.35 304.28"/><rect class="cls-2" x="1044.53" y="157.11" width="206.6" height="761.32" transform="translate(2295.67 1075.54) rotate(-180)"/><polygon class="cls-3" points="1199.1 454.28 1199.1 918.43 1581.18 918.43 1581.18 346.73 1278.83 454.28 1199.1 454.28"/><rect class="cls-2" x="740.76" y="626.92" width="280.19" height="291.51" transform="translate(1761.71 1545.35) rotate(-180)"/><rect class="cls-2" x="755.86" y="420.32" width="249.06" height="208.26" transform="translate(1760.77 1048.89) rotate(-180)"/><rect class="cls-2" x="818.12" y="302.9" width="124.53" height="117.42" transform="translate(1760.77 723.21) rotate(-180)"/><polygon class="cls-2" points="843.59 302.9 917.18 302.9 880.38 63.71 843.59 302.9"/><rect class="cls-5" x="956.88" y="648.17" width="25.39" height="58.61" transform="translate(1939.15 1354.95) rotate(-180)"/><rect class="cls-5" x="921.77" y="648.17" width="25.39" height="58.61" transform="translate(1868.93 1354.95) rotate(-180)"/><rect class="cls-5" x="886.66" y="648.17" width="25.39" height="58.61" transform="translate(1798.71 1354.95) rotate(-180)"/><rect class="cls-5" x="851.55" y="648.17" width="25.39" height="58.61" transform="translate(1728.49 1354.95) rotate(-180)"/><rect class="cls-5" x="816.44" y="648.17" width="25.39" height="58.61" transform="translate(1658.27 1354.95) rotate(-180)"/><rect class="cls-5" x="781.33" y="648.17" width="25.39" height="58.61" transform="translate(1588.05 1354.95) rotate(-180)"/><rect class="cls-5" x="956.88" y="736.1" width="25.39" height="58.61" transform="translate(1939.15 1530.81) rotate(-180)"/><rect class="cls-5" x="921.77" y="736.1" width="25.39" height="58.61" transform="translate(1868.93 1530.81) rotate(-180)"/><rect class="cls-5" x="886.66" y="736.1" width="25.39" height="58.61" transform="translate(1798.71 1530.81) rotate(-180)"/><rect class="cls-5" x="851.55" y="736.1" width="25.39" height="58.61" transform="translate(1728.49 1530.81) rotate(-180)"/><rect class="cls-5" x="816.44" y="736.1" width="25.39" height="58.61" transform="translate(1658.27 1530.81) rotate(-180)"/><rect class="cls-5" x="781.33" y="736.1" width="25.39" height="58.61" transform="translate(1588.05 1530.81) rotate(-180)"/><rect class="cls-5" x="937.07" y="451.45" width="25.39" height="58.61" transform="translate(1899.53 961.5) rotate(-180)"/><rect class="cls-5" x="901.96" y="451.45" width="25.39" height="58.61" transform="translate(1829.31 961.5) rotate(-180)"/><rect class="cls-5" x="866.85" y="451.45" width="25.39" height="58.61" transform="translate(1759.08 961.5) rotate(-180)"/><rect class="cls-5" x="831.74" y="451.45" width="25.39" height="58.61" transform="translate(1688.86 961.5) rotate(-180)"/><rect class="cls-5" x="796.63" y="451.45" width="25.39" height="58.61" transform="translate(1618.64 961.5) rotate(-180)"/><rect class="cls-5" x="937.07" y="539.38" width="25.39" height="58.61" transform="translate(1899.53 1137.36) rotate(-180)"/><rect class="cls-5" x="901.96" y="539.38" width="25.39" height="58.61" transform="translate(1829.31 1137.36) rotate(-180)"/><rect class="cls-5" x="866.85" y="539.38" width="25.39" height="58.61" transform="translate(1759.08 1137.36) rotate(-180)"/><rect class="cls-5" x="831.74" y="539.38" width="25.39" height="58.61" transform="translate(1688.86 1137.36) rotate(-180)"/><rect class="cls-5" x="796.63" y="539.38" width="25.39" height="58.61" transform="translate(1618.64 1137.36) rotate(-180)"/><rect class="cls-5" x="956.88" y="825.86" width="25.39" height="58.61" transform="translate(1939.15 1710.33) rotate(-180)"/><rect class="cls-5" x="921.77" y="825.86" width="25.39" height="58.61" transform="translate(1868.93 1710.33) rotate(-180)"/><rect class="cls-5" x="886.66" y="825.86" width="25.39" height="58.61" transform="translate(1798.71 1710.33) rotate(-180)"/><rect class="cls-5" x="851.55" y="825.86" width="25.39" height="58.61" transform="translate(1728.49 1710.33) rotate(-180)"/><rect class="cls-5" x="816.44" y="825.86" width="25.39" height="58.61" transform="translate(1658.27 1710.33) rotate(-180)"/><rect class="cls-5" x="781.33" y="825.86" width="25.39" height="58.61" transform="translate(1588.05 1710.33) rotate(-180)"/><rect class="cls-2" x="1224.57" y="499.56" width="333.96" height="25.47" transform="translate(2783.11 1024.59) rotate(-180)"/><rect class="cls-2" x="1224.57" y="542.01" width="333.96" height="25.47" transform="translate(2783.11 1109.5) rotate(-180)"/><rect class="cls-2" x="1224.57" y="584.47" width="333.96" height="25.47" transform="translate(2783.11 1194.4) rotate(-180)"/><rect class="cls-2" x="1224.57" y="626.92" width="333.96" height="25.47" transform="translate(2783.11 1279.31) rotate(-180)"/><rect class="cls-2" x="1224.57" y="669.37" width="333.96" height="25.47" transform="translate(2783.11 1364.22) rotate(-180)"/><rect class="cls-2" x="1224.57" y="711.82" width="333.96" height="25.47" transform="translate(2783.11 1449.12) rotate(-180)"/><rect class="cls-2" x="1224.57" y="754.28" width="333.96" height="25.47" transform="translate(2783.11 1534.03) rotate(-180)"/><rect class="cls-2" x="1224.57" y="796.73" width="333.96" height="25.47" transform="translate(2783.11 1618.93) rotate(-180)"/><polygon class="cls-6" points="105.15 796.48 105.15 900.57 970.6 35.15 866.48 35.15 105.15 796.48"/><polygon class="cls-6" points="956.8 918.43 1060.92 918.43 1624.72 354.63 1624.72 250.5 956.8 918.43"/><path class="cls-7" d="M1474.79,636.85c-2.55-2.61-4.75-4.81-5.14-5.2-1-1-5-7-5-7s-12-3-13-2c-.23.23.12,1.5.79,3.33,2.09,4,4.72,10.74,6.46,14.94-1.94-4.19-5-10.91-6.46-14.94a16.3,16.3,0,0,0-1.7-2.76c-2.91-3.43-12.09-1.57-13.48-1.07s12,27.49,12,27.49c-2.34-2-12.65-27-12.65-27s-9-3-11.19.57c-1.87,3,8,26.58,10.89,33.43,2,1,7.7.92,8.93-.31s9.39,2.68,13.41,1.34,4-5.36,5.36-6.7,9.38-1.34,10.72-3.3S1474.94,639.83,1474.79,636.85ZM1459,641.07c.94,2,1.6,3.41,1.67,3.57A21.6,21.6,0,0,1,1459,641.07Z"/><path class="cls-8" d="M1338.07,683.14c0,6.7,12.06,44.23,10.72,57.63s-14.74,26.81-105.88,38.87-116.6-18.76-116.6-18.76l-5.36-4c-5.36-4-6.7-8.05-5.36-26.81,1.28-17.83,22.79-38.87,13.4-57.63-3.83-7.67-20.1-41.54-20.1-41.54s-52.27-148.77-36.18-174.23c9.6-15.2,93.81-63,93.81-63s8-25.47,10.72-29.49,20.11-6.7,20.11-6.7,79.07,9.38,81.75,12.06l44.22,44.23a12.85,12.85,0,0,1-5.36-2.68c-2.68-2.68-17.42-6.7-17.42-6.7a4.15,4.15,0,0,0,1.34,2.68c1.34,1.34,33.51,21.44,41.55,25.46s8,42.89,9.38,81.76-9.38,60.31-9.38,67c-2.72,8.19-4.93,60.62-3.15,85.31C1339.52,670.4,1338.07,678.22,1338.07,683.14Z"/><path class="cls-9" d="M1305.13,245.08s3.46,55.79-6,67.07c-5,5.94-125.89,6.92-132,0-6.32-7.15-6.17-10.66-6.59-11.83s4.23-39.73,4.91-47.45S1305.13,245.08,1305.13,245.08Z"/><path class="cls-10" d="M1187.15,374.15c2.7,30.32,69,48,82,73,2-3,10.77-54.79,10.14-85.22s-11.68-70.19-39.72-71.64C1179.15,287.15,1183.45,332.45,1187.15,374.15Z"/><path class="cls-11" d="M1213,380.57c1.28,4.82,9,6.42,15.85,4.12,7.62,0,11.55,5.29,16.58-3,3.22-.32,47.46-37.7,49.4-56.82.32-3.15-2.42-54.79-2.31-54.91l-.06,0s-.5-54-.5-55.15c0-33-25.26-44.75-58.52-44.75-13.94,0-27.08,2.08-37.64,6.91a45.38,45.38,0,0,0-12.94,8.65c-1.48,1.45-11.29,15.57-11.45,27.36,0,1,0,2.11,0,3.19,0,19.72,1.68,44.3,1.67,44.31-.39,4.83-.94,9.06-1.6,12.86-.5,3-1,5.63-1.63,8.09,0,0-1.61,42.74-1.61,43.4C1168.19,336.37,1211.61,380.43,1213,380.57Z"/><path class="cls-12" d="M1215.19,309.84c.27-1,4.15-7.41,4.94-11,3.19-14.79,6.62-42,11.07-42s7.22,25.36,10.67,40.88c1,4.4,5.63,12.17,5.93,13.26,1.37,5-4.65,7.51-4.65,7.51l-1.89-.5c-3.07-1.5-8.55,4-10.06,4.41h0c-1.51-.44-7-5.91-10-4.41l-1.89.5S1213.82,314.8,1215.19,309.84Z"/><path class="cls-13" d="M1226.42,312.06c-.19,1,.13,1.92.71,2.13s1.2-.41,1.39-1.37-.13-1.93-.71-2.14S1226.61,311.09,1226.42,312.06Z"/><path class="cls-14" d="M1222.58,317.42a5.75,5.75,0,0,1,3.57.55c1.82,1,3.4,2.11,5,2.11s3.23-1.14,5-2.11a5.73,5.73,0,0,1,3.56-.55c.06,0,.11.17,0,.18-3.13.34-4.78,3.37-7.7,4.3a3.41,3.41,0,0,1-1.9,0c-2.92-.93-4.57-4-7.7-4.3C1222.48,317.59,1222.53,317.43,1222.58,317.42Z"/><path class="cls-14" d="M1223.51,318.61a8.28,8.28,0,0,1-2.75.15c-1.29-.16-3.08-1.94-1.06-3.23a3.21,3.21,0,0,1,4,.53,9.25,9.25,0,0,0,2.13,1.77Z"/><path class="cls-14" d="M1238.89,318.61a8.26,8.26,0,0,0,2.75.15c1.28-.16,3.08-1.94,1.06-3.23a3.2,3.2,0,0,0-4,.53,9.25,9.25,0,0,1-2.13,1.77Z"/><path class="cls-15" d="M1184.57,271s-1.38-13.65,17-14,17.2,17.58,17.22,17.66-5.27-11.3-17.85-11.09S1184.57,271,1184.57,271Z"/><path class="cls-5" d="M1218.08,275.61c0-2.83-3.89-9.93-15.55-10.42-13.74-.56-18,6.17-18,6.17s2.85,8.18,15.6,9.61C1213.4,282.45,1218.08,275.61,1218.08,275.61Z"/><path class="cls-16" d="M1192.62,273.65a9.2,9.2,0,1,1,9.35,9A9.2,9.2,0,0,1,1192.62,273.65Z"/><path class="cls-17" d="M1206.34,273.42a4.52,4.52,0,1,0-4.45,4.59A4.52,4.52,0,0,0,1206.34,273.42Z"/><path class="cls-5" d="M1201.85,270.75A2.22,2.22,0,1,1,1204,273,2.22,2.22,0,0,1,1201.85,270.75Z"/><path class="cls-5" d="M1196,275.85a1,1,0,1,1,2,0,1,1,0,0,1-2,0Z"/><path class="cls-5" d="M1204.17,273.89a.49.49,0,0,0-.48-.51.5.5,0,1,0,.48.51Z"/><path class="cls-18" d="M1218.24,275.68c-.43,0-1.16-4.47-6.85-7.7-5.11-2.89-12.39-3.37-18.27-1.29a17.55,17.55,0,0,0-8,5.16c-.9,1.08-2.24-.53.3-3.63,3-3.67,7.41-5.78,15.38-5.93,8.53-.16,13.32,3.9,15.23,6.49C1219,272.85,1219.21,275.62,1218.24,275.68Z"/><path class="cls-11" d="M1184.86,272c.07.43.11.92.15,1.5.24,2.89,6.74,11.08,18.53,13s13.72-9.86,13.72-9.86l-.09,0c-1.91,1.84-7,5.46-17,4.34C1189.6,279.78,1185.83,273.93,1184.86,272Z"/><path class="cls-15" d="M1279.16,271s1.38-13.65-17-14S1245,274.64,1245,274.72s5.28-11.3,17.85-11.09S1279.16,271,1279.16,271Z"/><path class="cls-5" d="M1245.65,275.61c0-2.83,3.89-9.93,15.55-10.42,13.74-.56,18,6.17,18,6.17s-2.85,8.18-15.6,9.61C1250.33,282.45,1245.65,275.61,1245.65,275.61Z"/><path class="cls-19" d="M1271.11,273.65a9.2,9.2,0,1,0-9.35,9A9.19,9.19,0,0,0,1271.11,273.65Z"/><path class="cls-17" d="M1257.39,273.42a4.52,4.52,0,1,1,4.45,4.59A4.52,4.52,0,0,1,1257.39,273.42Z"/><path class="cls-5" d="M1261.88,270.75a2.22,2.22,0,1,0-2.18,2.26A2.22,2.22,0,0,0,1261.88,270.75Z"/><path class="cls-5" d="M1267.73,275.85a1,1,0,1,0-1,1A1,1,0,0,0,1267.73,275.85Z"/><path class="cls-5" d="M1259.56,273.89a.49.49,0,0,1,.49-.51.5.5,0,1,1-.49.51Z"/><path class="cls-18" d="M1245.5,275.68c.42,0,1.15-4.47,6.85-7.7,5.1-2.89,12.38-3.37,18.27-1.29a17.56,17.56,0,0,1,8,5.16c.9,1.08,2.24-.53-.3-3.63-3-3.67-7.41-5.78-15.38-5.93-8.53-.16-13.32,3.9-15.23,6.49C1244.69,272.85,1244.52,275.62,1245.5,275.68Z"/><path class="cls-11" d="M1278.87,272c-.06.43-.1.92-.15,1.5-.24,2.89-6.73,11.08-18.53,13s-13.72-9.86-13.72-9.86l.09,0c1.91,1.84,7,5.46,17,4.34C1274.13,279.78,1277.9,273.93,1278.87,272Z"/><path class="cls-20" d="M1198,302.38c-.78,3.84-5.93,6-11.51,4.89s-9.47-5.17-8.69-9,5.94-6,11.52-4.88S1198.75,298.55,1198,302.38Z"/><path class="cls-20" d="M1262,302.38c.78,3.84,5.93,6,11.51,4.89s9.47-5.17,8.69-9-5.94-6-11.52-4.88S1261.2,298.55,1262,302.38Z"/><path class="cls-5" d="M1203.09,330.26c.33,2.45,20.18,12.05,27.74,12.05,9.81,0,24-6.41,29.78-13-8.81,1.7-16.85,5-28.64,5C1222.53,334.3,1210.84,331.52,1203.09,330.26Z"/><path class="cls-21" d="M1201.24,328.37l.4.75c1.78,2,14,19,29.19,19,17.23,0,29.69-15.24,30.39-19.06a1.13,1.13,0,0,0,0-.45.94.94,0,0,0-.61-.22H1259l-1.86.06-3.69.13c-2.46.12-4.92.25-7.37.41l-7.35.47c-2.43.17-4.37,1.66-6.72,1.63s-5.36-1.51-7.8-1.65l-7.35-.46c-4.91-.29-9.83-.56-14.77-.61Zm1.9,1c2.62,1.32,8.93,4.37,13.43,4.91,4.91.56,10.34,1.33,15.4,1.45,5.1,0,19.75-2.14,27.82-6.38h0c-.23.26-8.79,10.54-28.31,10.54C1218.64,339.92,1206.73,333.19,1203.14,329.4Z"/><path class="cls-11" d="M1287.91,282.24c0,10.71,5.45,19.58,12.58,21.17a11.64,11.64,0,0,0,2.29.25c8.21,0,14.85-9.59,14.85-21.42s3-22.29-5.24-22.29a18.94,18.94,0,0,0-7.05,1.72,35.88,35.88,0,0,0-10.82,7.25c-.18.18-.37.37-.54.56C1290.42,273.16,1287.91,277.59,1287.91,282.24Z"/><path class="cls-15" d="M1294.69,296.59a8.83,8.83,0,0,0,6.64,3.37c5.83,0,10.56-6.81,10.56-15.22s2.1-15.85-3.73-15.85c-3.14,0-7.94,2.16-11.71,5.47a11.36,11.36,0,0,1-1.76,22.23Z"/><path class="cls-22" d="M1290.76,284.74a18.34,18.34,0,0,0,3.93,11.85,11.36,11.36,0,0,0,1.76-22.23C1293.22,277.19,1290.76,280.86,1290.76,284.74Z"/><path class="cls-11" d="M1146.23,282.32c0,11.82,6.66,21.42,14.87,21.42a10.73,10.73,0,0,0,4.69-1.1c5.91-2.83,10.16-10.87,10.16-20.32a16.61,16.61,0,0,0-3.32-9.45,27,27,0,0,0-3.85-4.39,36,36,0,0,0-9.17-6.25,20.41,20.41,0,0,0-8.13-2.2C1143.27,260,1146.23,270.49,1146.23,282.32Z"/><path class="cls-15" d="M1152.9,285.66c0,7.72,4.34,14,9.7,14a6.89,6.89,0,0,0,2.58-.5,11.36,11.36,0,0,1,3.43-21.55c-3.58-3.85-9-6.5-12.29-6.5C1151,271.1,1152.9,277.94,1152.9,285.66Z"/><path class="cls-23" d="M1158.67,288.87a11.37,11.37,0,0,0,6.51,10.28c4.11-1.62,7.13-7,7.13-13.49,0-2.92-1.52-5.71-3.7-8.06A11.37,11.37,0,0,0,1158.67,288.87Z"/><path class="cls-9" d="M1241.63,215a31.25,31.25,0,0,1-19.52.45c-5.73-1.74-15.51-8.55-24.94-6.32-10,2.38-14,6-16,16s-5.22,53.85-6,63c0,0-1.15-15.52-5.07-19.26s-12.93-8.74-12.93-12.74-1-4.46,0-5.73-5.23-12.73-4.61-17.5-1.39-15.77,1.61-27.77-3.68-15.61,8-23,5.24-11.46,17-16,22.09-14.92,34-13,19-2,27,0,10,2,22,4,23,9,26,14A220.65,220.65,0,0,0,1303,192c7.14,9.15,9.14,34.15,8.14,36.15a7.74,7.74,0,0,0-1,3,4.94,4.94,0,0,1-1,3c-1,1-2.85,18.3-4.42,19.65s-17.23,25.44-17.58,32.35c0,0-3-53.45-3-55-.11-6.07-.1-13.34-10-19C1267.17,208.15,1254.56,210.42,1241.63,215Z"/><path class="cls-24" d="M1242.82,245.56c-2.48.46-3.44,4.51,1,6,3,1,10.27-.13,16,0s18.22-.27,25,4c0,0-3.26-9.2-9.65-11.41S1245.74,245,1242.82,245.56Z"/><path class="cls-25" d="M1221.73,245.56c2.48.46,3.44,4.51-1,6-3,1-10.27-.13-16,0s-18.22-.27-25,4c0,0,3.26-9.2,9.65-11.41S1218.81,245,1221.73,245.56Z"/><circle class="cls-20" cx="1187.65" cy="285.65" r="1.5"/><circle class="cls-20" cx="1278.65" cy="287.65" r="1.5"/><circle class="cls-20" cx="1192.15" cy="289.15" r="1"/><circle class="cls-20" cx="1188.15" cy="291.15" r="1"/><circle class="cls-20" cx="1212.15" cy="291.15" r="1"/><circle class="cls-20" cx="1182.15" cy="291.15" r="1"/><circle class="cls-20" cx="1221.15" cy="286.15" r="1"/><circle class="cls-20" cx="1254.65" cy="289.65" r="0.5"/><circle class="cls-20" cx="1270.65" cy="292.65" r="0.5"/><circle class="cls-20" cx="1262.65" cy="293.65" r="0.5"/><circle class="cls-20" cx="1251.65" cy="292.65" r="0.5"/><circle class="cls-20" cx="1253.65" cy="293.65" r="0.5"/><circle class="cls-20" cx="1241.65" cy="289.65" r="0.5"/><circle class="cls-20" cx="1250.65" cy="289.65" r="0.5"/><circle class="cls-20" cx="1243.65" cy="287.65" r="0.5"/><circle class="cls-20" cx="1241.65" cy="285.65" r="0.5"/><circle class="cls-20" cx="1263.15" cy="290.15" r="1"/><circle class="cls-20" cx="1228.15" cy="283.15" r="1"/><circle class="cls-20" cx="1272.15" cy="289.15" r="1"/><circle class="cls-20" cx="1279.15" cy="284.15" r="1"/><circle class="cls-20" cx="1261.15" cy="298.15" r="1"/><circle class="cls-20" cx="1257.15" cy="292.15" r="1"/><circle class="cls-20" cx="1276.15" cy="286.15" r="1"/><circle class="cls-20" cx="1185.65" cy="289.65" r="0.5"/><circle class="cls-20" cx="1216.65" cy="287.65" r="0.5"/><circle class="cls-20" cx="1216.65" cy="291.65" r="0.5"/><circle class="cls-20" cx="1212.65" cy="295.65" r="0.5"/><circle class="cls-20" cx="1218.65" cy="288.65" r="0.5"/><circle class="cls-20" cx="1218.65" cy="293.65" r="0.5"/><circle class="cls-20" cx="1214.65" cy="299.65" r="0.5"/><circle class="cls-20" cx="1183.65" cy="286.65" r="0.5"/><path class="cls-26" d="M1420.15,1025.15h-120l-37-73-3,73h-136s-41.76-148.53-10-243c112.24,13.47,147.22,22.22,171,18.27,24.13-4,58.22-20.58,58.22-20.58l-.17-2.86c.25,1.82,18.37,27.28,27,41.17C1379.35,833,1420.15,1025.15,1420.15,1025.15Z"/><path class="cls-27" d="M1268.94,447.91a74.78,74.78,0,0,1,14.55-16.69c3.94-3.34,8.44-6.56,10.18-11.42.65-1.83.87-3.78,1.41-5.64a17.15,17.15,0,0,1,5.23-8.17,2.76,2.76,0,0,1,1-.63,2.85,2.85,0,0,1,1.5.1,77,77,0,0,1,20.83,8.5c-4-8.5-12.28-14-19.52-20C1295.8,387,1288.44,379,1281.1,371Z"/><path class="cls-28" d="M1089.41,488.25c-1.49,6.57,2.81,12.49,7.65,16.44a55,55,0,0,0,18.26,9.69c3,.93,6.37,1.53,8.56,3.91,2,2.23,2.54,5.47,2.44,8.38a39.78,39.78,0,0,1-2.49,11.06c-1.24,3.71-2.52,7.41-3.8,11.11q-15.48,45-32.19,89.48-2.33,6.23-4.69,12.44c-1.16,3-2.46,6.5-5.22,8.43-5.24,3.66-12.17-1.08-14.15-6.23-.69-1.79-3.59-1-2.89.8,2,5.2,7,9.56,12.76,9.7,6.73.17,10.08-5.9,12.19-11.37,5.93-15.43,11.63-31,17.27-46.48s11.17-31.07,16.59-46.66c2.7-7.75,5.61-15.48,8-23.35,1.83-6.13,3.13-14-1.54-19.29-2.27-2.56-5.65-3.53-8.82-4.46a55,55,0,0,1-10.11-4.08c-5.73-3-12.76-7.5-14.71-14.12a9,9,0,0,1-.18-4.6c.43-1.88-2.46-2.68-2.89-.8Z"/><path class="cls-28" d="M1117.48,531.43a4,4,0,0,0-5.06,1.46,8.67,8.67,0,0,0-1.12,2.26,12.22,12.22,0,0,0-.57,1.87,6.1,6.1,0,0,0,.36,4.27,3.67,3.67,0,0,0,4.26,1.65,5.63,5.63,0,0,0,3.53-3.93,1.5,1.5,0,1,0-2.9-.8c0,.12-.06.23-.1.35-.07.27.1-.16,0,.09a7,7,0,0,1-.41.69c-.09.14,0-.05,0-.06l-.12.14a3.19,3.19,0,0,1-.26.26c-.07.07-.38.27-.11.1l-.34.22-.16.08s.25-.07.1-.05a1.92,1.92,0,0,0-.32.09c-.17.08.15,0,.13,0s-.13,0-.16,0-.15,0-.16,0,.32.09.08,0-.28-.12-.07,0c0,0-.28-.12-.29-.16s.22.21.11.08l-.12-.1a.52.52,0,0,0-.1-.11c-.12-.1.12.21.06.07a2.15,2.15,0,0,0-.14-.26c-.1-.14.07.13.05.13a.58.58,0,0,1-.05-.14l-.08-.29a1.31,1.31,0,0,1,0-.15s0,.33,0,.08,0-.47,0-.71l0-.34c0-.18,0,.12,0,.11a2.07,2.07,0,0,1,0-.22,9.55,9.55,0,0,1,.35-1.4c.08-.23.16-.46.25-.7l.15-.4c.06-.16,0,0,0,0a1.59,1.59,0,0,1,.12-.27,4.64,4.64,0,0,1,.23-.44,1.74,1.74,0,0,1,.11-.18s.23-.32.13-.19l.06-.07c.06-.06.12-.13.19-.19s.17-.15,0,0,.08,0,.11-.07l.16-.09c.14-.08.12,0,0,0l.18-.06s.3-.07.11,0,0,0,0,0h.24s-.23-.07-.1,0,.33.15,0,0a1.5,1.5,0,0,0,1.52-2.59Z"/><path class="cls-28" d="M1385.23,643.58a4,4,0,0,0-4.5,2.84,9.5,9.5,0,0,0-.46,2.7,11.18,11.18,0,0,0,0,1.83,5.65,5.65,0,0,0,1.61,3.87,3.63,3.63,0,0,0,4.45.27,5.61,5.61,0,0,0,2.25-4.65,1.5,1.5,0,0,0-3,0c0,.16,0,.32,0,.48s0,.16,0,0c0,.08,0,.16,0,.23s-.1.32-.14.47-.05.16,0,0l-.11.22c-.07.14-.16.27-.24.41s-.09.13,0,0c0,.06-.1.12-.15.18l-.24.23c.26-.26-.07,0-.15.09s-.13.06.07,0l-.21.07q-.24,0,.09,0h-.22c-.17,0-.15,0,.06,0l-.22,0-.2-.06c.19.08.22.09.08,0s-.18-.15,0,0l-.28-.29c.27.3,0,0,0-.12s-.2-.51-.08-.13a8.79,8.79,0,0,1-.24-.88,2.23,2.23,0,0,0,0-.23c0,.19,0,.22,0,.11s0-.28,0-.42a14.55,14.55,0,0,1,0-2,3.47,3.47,0,0,0,0-.38c0-.16.05-.31.08-.46a5.25,5.25,0,0,1,.17-.6c.06-.17.07-.19,0-.07,0-.09.09-.17.14-.26s.1-.15,0,0l.18-.2c.13-.12.14-.13,0,0a1.5,1.5,0,0,1,.23-.15c.16-.08.16-.09,0,0l.26-.07c-.19,0-.19,0,0,0s.17,0,0,0a1.54,1.54,0,0,0,1.85-1.05,1.52,1.52,0,0,0-1-1.84Z"/><path class="cls-27" d="M1218.26,434.25c8.61-11.41,50.89,12.9,50.89,12.9s-1-9-8-15c-29.65-25.41-78.65-61-78.65-61a13,13,0,0,1-3.2-4.25l-2.15-2.71c-4.52,7.11-11,26.63-11,28,.06,2.83,3.2,4.84,4.93,7.07a77.56,77.56,0,0,1,6.09,9.68l26.74,47.73a3.74,3.74,0,0,0,1.24-1.2c4.64-6.22,8-13.3,12.2-19.81Z"/><path class="cls-28" d="M1093.33,599.59c-1.62-.91-3.29.11-4.65,1a7.45,7.45,0,0,0-3,3.6,6.78,6.78,0,0,0,.09,5,4.57,4.57,0,0,0,8.08.19,1.5,1.5,0,0,0-2.59-1.51c0,.08-.09.15-.14.23.11-.13.11-.12,0,0a3.7,3.7,0,0,1-.28.28c.22-.2-.08.05-.13.08s-.44.21-.29.16-.29.07-.33.08c-.29.09.2,0-.13,0h-.4c.35,0-.18-.07-.25-.09-.29-.09.15.11-.13-.07l-.33-.21c.24.18-.1-.11-.15-.16l-.13-.15c.09.13.09.13,0,0s-.13-.22-.19-.34c.13.29,0-.12,0-.18s0-.22,0-.1c0-.11,0-.23,0-.34a4.34,4.34,0,0,1,0-.51c0-.16,0-.33,0-.49s0-.21,0-.08c0-.07,0-.15,0-.23a5.29,5.29,0,0,1,.13-.54s.16-.43.08-.24a2.93,2.93,0,0,1,.21-.39c0-.05.35-.48.18-.28a4.93,4.93,0,0,1,.6-.61l.21-.19.08-.06.08-.06.24-.17.74-.47a9.93,9.93,0,0,1,.9-.51c-.2.09.21,0,.22,0h0a.42.42,0,0,1-.22,0,1.5,1.5,0,0,0,1.52-2.59Z"/><path class="cls-8" d="M1136.77,531.67c-1.4,7.47-3.07,15-6.06,22a87.73,87.73,0,0,0-4,9.6,63,63,0,0,0-1.67,11.38c-3.83,39.21-24,74.65-43.77,108.74-2.51,4.34-5.08,8.74-8.72,12.18-7,6.63-17.08,8.77-26.58,10.64-7.23,1.43-12.59,6.56-18.2,1.78-3.07-2.62-7.67-10.53-9-14.33-5.2-14.74-11-21-12.42-36.6-.76-8.43,1.52-26.18,4-34.28,2.18-7.06,6.28-13.34,10.13-19.65a336.24,336.24,0,0,0,30.92-65.84c1.87-5.46,3.61-11,4.18-16.76.53-5.33.07-10.7.52-16,5.19-60.53,46.08-68.78,50.75-75.27,0,0,36.88,20.77,38.83,37.62S1138.28,523.64,1136.77,531.67Z"/><path class="cls-28" d="M1067.44,530.56c0,3.08,2.35,5.89,4.34,8.06a37.26,37.26,0,0,0,7.33,6c5.92,3.78,12.54,6.29,18.44,10.1,1.63,1,3.14-1.55,1.52-2.59-5.45-3.52-11.5-5.93-17.06-9.25a38.06,38.06,0,0,1-6.84-5.06,24.34,24.34,0,0,1-2.94-3.32c-.82-1.15-1.78-2.45-1.79-3.91a1.5,1.5,0,0,0-3,0Z"/><path class="cls-28" d="M1116.24,558.32a10.5,10.5,0,0,1-4.54-.4,33.27,33.27,0,0,1-4.6-1.76,1.55,1.55,0,0,0-2,.54,1.52,1.52,0,0,0,.54,2c3.64,1.62,7.39,3.15,11.44,2.47a1.5,1.5,0,0,0-.79-2.9Z"/><path class="cls-28" d="M1345.69,591.81a1.8,1.8,0,0,1,.4-.1l-.4,0a2.91,2.91,0,0,1,.59,0l-.4,0a2.44,2.44,0,0,1,.53.14l-.36-.15.13.06a1.66,1.66,0,0,0,1.16.15,1.06,1.06,0,0,0,.51-.27,1,1,0,0,0,.38-.42,1.5,1.5,0,0,0-.54-2.05,3.7,3.7,0,0,0-.74-.3,4.53,4.53,0,0,0-.81-.12,3.38,3.38,0,0,0-.45,0,4.36,4.36,0,0,0-.8.16,1,1,0,0,0-.51.27,1.34,1.34,0,0,0-.57,1,1.22,1.22,0,0,0,0,.6,1.49,1.49,0,0,0,.69.9,1.52,1.52,0,0,0,1.16.15Z"/><path class="cls-28" d="M1406.81,653.27a99.73,99.73,0,0,0-10.94-8.71c-1.89-1.34-3.82-2.65-5.76-3.92-.92-.61-1.85-1.21-2.78-1.81a6.68,6.68,0,0,0-2.95-1.47,4.19,4.19,0,0,0-2.7,1.1c-1.07.76-2.14,1.52-3.22,2.26-2.06,1.41-4.18,2.76-6.32,4-4.44,2.66-9,5.09-13.62,7.44-5,2.54-10,5.65-15.57,6.72-1.9.37-1.1,3.26.79,2.89,4.69-.9,8.93-3.3,13.15-5.42,4.41-2.23,8.81-4.48,13.11-6.91a144.57,144.57,0,0,0,12.25-7.77c.5-.36,1-.73,1.51-1.08.11-.07.38-.31.5-.32-.14,0-.17,0,.06.13a18.84,18.84,0,0,1,2.88,1.86q2.79,1.82,5.53,3.7a102.23,102.23,0,0,1,12,9.38c1.41,1.33,3.53-.79,2.12-2.12Z"/><path class="cls-29" d="M1193.78,435.77c-3.13-1.9-2.94-2.84-2.94-2.84s3.79-9.56-7.59-20.4-16-12.89-16-12.89-14.72,3.36-15.08,2.71,4.79-35.92,4.79-35.92,3.88-18.91-.62-24-5.13-6.3-7.51-7-5.34,3.66-5.2,10.84-3.33,33-4.94,34.86-3.62-28.95-5.3-31.66-1.67-1.36-1.67-2.7-3.11-11-8.26-9.53-6.08,3.48-4.27,7.17,2,29.67,2,29.67-4.17-18.09-8.89-18-4.55-1.25-4.63,8.79,2.93,53.91,2.76,60.8-14.4,52.51-15.32,57.16-4.28,12.71-4.28,12.71S1103.07,509,1112,511.63c0,0,22.59,3.37,24.48-1.68,0,0,.79-12.37,7.36-15.41S1184.27,468,1184.27,468s10.61-10.18,11.18-14.78S1196.92,437.69,1193.78,435.77Zm-10.09.86c-.92.75-11.13,12.65-11.9,15.83s-10-.5-16.4-4.71-7-10.53-6.14-16.44,6.86-12.2,15.63-11.45c7,.61,19.07,15.35,19.07,15.35S1184.62,435.88,1183.69,436.63Z"/><path class="cls-30" d="M1341.6,751.94l0-.74S1342.28,751.28,1341.6,751.94Z"/><path class="cls-31" d="M1458.9,640.92c-1.94-4.19-5-10.91-6.46-14.94C1454.53,630,1457.16,636.72,1458.9,640.92Z"/><path class="cls-32" d="M1459,641.07c.94,2,1.6,3.41,1.67,3.57A21.6,21.6,0,0,1,1459,641.07Z"/><path class="cls-33" d="M1474.77,636.24c0,.18,0,.39,0,.61-2.55-2.61-4.75-4.81-5.14-5.2-1-1-5-7-5-7s-12-3-13-2c-.23.23.12,1.5.79,3.33a16.3,16.3,0,0,0-1.7-2.76c-2.91-3.43-12.09-1.57-13.48-1.07s12,27.49,12,27.49c-2.34-2-12.65-27-12.65-27s-9-3-11.19.57c-1.87,3,8,26.58,10.89,33.43a1.61,1.61,0,0,1-.45-.31c-1.34-1.34-23.57,4.32-25,1.24-1.81-3.92-18.86-12.86-7.17-30.73,0,0,2.68-10.72,5.36-12.06s9.38-5.36,13.4-9.38,17.42-10.72,21.44-12.06,8.74.5,10.93,1.89c9.28,5.91,17.28,4.91,18.28,9.91.88,4.39-12.64,5.34-18,4s-7.32-.34-10,1,36.32,18.05,36.32,18.05S1474.77,633.56,1474.77,636.24Z"/><polygon class="cls-5" points="1460.57 608.95 1367.97 613.21 1533.54 628.77 1600.75 621.5 1460.57 608.95"/><polygon class="cls-34" points="1367.97 613.21 1367.97 619.44 1539.72 633.24 1541.56 627.9 1367.97 613.21"/><path class="cls-35" d="M1601.42,460.73l47.91,14.5a5.1,5.1,0,0,1,3.35,6.51l-49.5,146.49a5.1,5.1,0,0,1-4.48,3.45l-55.34,3.72a5.09,5.09,0,0,1-5.15-6.74l56.92-164.72A5.09,5.09,0,0,1,1601.42,460.73Z"/><polygon class="cls-36" points="1445.29 617.48 1505.6 614.8 1545.14 617.56 1542.06 626.47 1445.29 617.48"/><path class="cls-34" d="M1604.1,460.73l47.91,14.5a5.1,5.1,0,0,1,3.35,6.51l-49.5,146.49a5.1,5.1,0,0,1-4.48,3.45L1546,635.4a5.09,5.09,0,0,1-5.15-6.74l56.92-164.72A5.09,5.09,0,0,1,1604.1,460.73Z"/><path class="cls-37" d="M1273.15,879.15l-10,73,35,73h27.54S1287.15,956.15,1273.15,879.15Z"/><path class="cls-27" d="M1027.81,707.94c7.53,11.59,43.34-1.79,57.34-20.79s40.36-101.77,42.68-120.38,12.59-61.54,12.59-61.54-40.61-6.35-49.69-17c-9.75-11.4-12.67,27.35-21.75,39.3-2.24,2.94-4.62,5.77-6.76,8.78-10.26,14.4-21.87,36.39-29.57,52.31C1026.71,601,991,651.23,1027.81,707.94Z"/><path class="cls-27" d="M1413.15,660.15c.31.92-32.2,4.23-42.92,5.57s-29.48-1.34-29.48-1.34-.19.85-.47,2.22c-1.78-24.69.43-77.12,3.15-85.31,0,6.7,9.38,14.74,12.06,16.08s17.42,12.06,34.85,14.74,21.44,5.36,18.76,6.7S1410.15,651.15,1413.15,660.15Z"/><path class="cls-27" d="M1303.19,769.09s-5.51-100.29-7.77-124.11-15.73-70.22-13.5-87.52,4.23-66.31-.77-77.31-8-26-12-33l-7-6s13.85,49.5,16,59-2,48.53-3,59.77,12.86,78.46,13.93,86.85,6.34,124.1,6.34,124.1Z"/><path class="cls-37" d="M1158.8,794.43s-30.35,88.4-56,96.56c0,0-.86-12.52-.9-29.38,19.83-10.76,38.73-36.74,51.51-73.8A77.43,77.43,0,0,1,1158.8,794.43Z"/><path class="cls-38" d="M1112.15,783.15s82,26,163,19c38.33-3.31,67.55-18,75-20l-4-34s-61,49-229,5C1117.15,753.15,1113.07,775.06,1112.15,783.15Z"/><ellipse class="cls-39" cx="1298.65" cy="780.65" rx="1.5" ry="3.5" transform="translate(-115.83 237.37) rotate(-10)"/><ellipse class="cls-39" cx="1274.65" cy="785.65" rx="1.5" ry="3.5" transform="translate(-117.06 233.28) rotate(-10)"/><ellipse class="cls-39" cx="1241.65" cy="787.65" rx="1.5" ry="3.5" transform="translate(-117.91 227.58) rotate(-10)"/><path class="cls-40" d="M1273.48,801.87c1.7,2.14,3.6,3.38,5.54,3.24,7.43-.56,24.82-4.54,33.35-6.58a6.9,6.9,0,0,0,5.32-6.83c-.16-9.23-3-21.43-5.35-28-1.21-3.34-5.29-4.59-8.82-4.2-9.7,1.06-27.92,4.06-34.4,6.74-1.65.69-2.67,2.61-3.15,5.25,7.65-2.23,23.66-4.88,32.52-6,3.52-.43,7.52.38,8.59,2.94,2.1,5,4.42,14.44,4.23,21.61-.07,2.53-2.39,4.83-5.56,5.54C1297.61,797.4,1281.37,800.93,1273.48,801.87Z"/><path class="cls-40" d="M1313.15,775.15s-13.12,2.05-14.26,3.26.2,5,.86,4.93l14.27-2.52C1314.75,780.69,1313.15,775.15,1313.15,775.15Z"/><path class="cls-41" d="M584.46,653.37c1-1.35,2.95-1.47,4.63-1.47l29.27,0c3.13,0,7,.47,8.11,3.4"/><path class="cls-42" d="M504.38,714.59s6.49,41.59,4.63,58.58,9.4,60.16,9.4,60.16-32.18-2.83-44.22,4-13.14,13.9-13.14,13.9l-4.87-41.44s-7.58-59.36-4.8-76.5S427.87,603.69,437,580.42s15.14-77.27,21.14-106.27-18.79-122.61-18.79-122.61,19.59,7.69,27.69,27.15S485.74,497.92,479,541.54s5.77,91.68,6.49,93.15S504.38,714.59,504.38,714.59Z"/><path class="cls-43" d="M707.15,1025.15s37.34-153,44.69-162.59.16-104.23,13.33-112.62,148.56,12,173.72,9.59,41.1,6.9,41.1,6.9,33.17,75.76,34.37,106.91-27.21,151.81-27.21,151.81h-124l.26-51.18-24.26,51.18Z"/><path class="cls-44" d="M205.15,1025.15l238,1s27.31-170.78,20.12-193.54-12.12-71.46-12.12-71.46l-67,13-184-10C188.14,769.58,194.15,936.15,205.15,1025.15Z"/><path class="cls-45" d="M523.82,656.61s4.24-4.91,0-9.1-5.44-5.39-13.82-5.39-10.92-4.51-16.24-1.06-27,6.87-28.13,14.15,6.56,10.27,5.7,42.32-4.59,34.31-4.59,34.31,15.7,10.91,24.09,7.32,7.37-7.32,7.37-7.32,6.17,3.46,12,0a9.27,9.27,0,0,0,4.61-9.45s9.65,8.35,16.77,4.79c4.79-2.4,7.19-7.19-2.4-18,0,0,14.38,10.78,19.17,10.78s12-8.38,9.59-10.78A158.48,158.48,0,0,0,540,690c-5.46-4.85-24.17-21-27.56-26.36C507.89,656.6,523.82,656.61,523.82,656.61Z"/><path class="cls-46" d="M854.24,285.08l-21.09,68.07,38.36,49.06,88.87-22.83s11.13-76.46,11.45-77.34S854.24,285.08,854.24,285.08Z"/><path class="cls-47" d="M491.22,823.88s21.69-3.62,24.43.72c0,0,0,40,1.37,47.3s3.76,12.14-4.63,20.52-22.76,26.36-22.76,26.36l-39.53,24s-9.59-1.2-3.6-9.59h-2.39s-3.6-7.18,7.18-12a248.17,248.17,0,0,0,22.77-12S487,886,485.3,882.6s-1.66-4.55-1.66-4.55L477,875.46s-7.76,26.55-8.95,27.74-4.8,9.59-13.18,8.39-.92-25.34-.92-25.34,4.51-7,5.71-26.18S479.64,823.63,491.22,823.88Z"/><path class="cls-48" d="M953,316.13s-23.87,45,17.13,87c26.76,27.41-28.28,88.42-34.23,95.1-8,9-54,58-57,58s-81.56-74.66-12.77-162.1c6.47-8.21-4-49-4.2-71.89C861.7,294.85,953,316.13,953,316.13Z"/><path class="cls-41" d="M783.81,462.31s-9.43,5.12-16,25.48S731.7,607.26,733.43,621.21s-22.76,4-44,15.47-56.21-1.27-65.23,8.6c-6.17,6.74-25.66,8.11-37.4,8.3a7.43,7.43,0,0,0-7.15,9c3.16,14.63,8.37,42.55,3.8,49.73-6.28,9.85,53.76,2.77,53.76,2.77s95.67,2.34,102.32-5.79,4.31-3.28,9-10.2l4.66-6.93S811.46,480.46,783.81,462.31Z"/><path class="cls-28" d="M266.4,641.43c-2.15-3.58-6.23-5-10.17-5.58a108.52,108.52,0,0,0-15.72-.67,72.68,72.68,0,0,0-29.92,7.13c-4.47,2.07-9.05,4.73-11.33,9.29-.87,1.72,1.72,3.24,2.59,1.52,1.78-3.57,5.17-5.72,8.64-7.44a78.72,78.72,0,0,1,13.3-5,57.31,57.31,0,0,1,14.11-2.42,138.51,138.51,0,0,1,14.55.22c3.92.28,9.11.75,11.36,4.49a1.5,1.5,0,0,0,2.59-1.51Z"/><path class="cls-28" d="M263.54,640.23c-7.76-1.83-14.88,4.09-20,9.21a25.93,25.93,0,0,0-6.26,9.65,71.49,71.49,0,0,0-2.56,11.85c-.83,4.9-1.6,9.82-2.1,14.77a1.49,1.49,0,0,0,1.1,1.44c1.76.26,3.32-.6,4.79-1.49a24.06,24.06,0,0,0,4.08-3.16,50,50,0,0,0,6.75-8.38c4.48-6.64,7.67-13.78,10.83-21.11a52.94,52.94,0,0,1,6.14-11.19c1.16-1.54-1.44-3-2.59-1.51-5.52,7.29-7.88,16.42-12.19,24.4A83.36,83.36,0,0,1,244,676.47a33.24,33.24,0,0,1-4.1,4.45,18.43,18.43,0,0,1-2.55,1.94c-.6.39-2.06,1.51-2.81,1.4l1.1,1.45c.52-5.17,1.36-10.29,2.24-15.4.77-4.47,1.36-9.2,3.56-13.24,2.1-3.85,5.46-6.86,8.85-9.57s7.82-5.47,12.47-4.38c1.88.44,2.68-2.45.8-2.89Z"/><path class="cls-28" d="M331.57,656.65c3.37.65,5.62,4.21,7.17,7a31.36,31.36,0,0,1,3.39,10c1.34,7.88-.17,16-2.52,23.5-.57,1.84,2.32,2.64,2.9.79,2.59-8.35,4.05-17.22,2.37-25.91a33,33,0,0,0-4.17-10.94c-1.91-3.1-4.56-6.59-8.34-7.31-1.89-.36-2.7,2.53-.8,2.89Z"/><path class="cls-28" d="M270.76,518.84a1.5,1.5,0,0,0,0-3,1.5,1.5,0,0,0,0,3Z"/><path class="cls-11" d="M883.33,163.47c-54.61,8.41-59,54.63-57.89,68.73s17.43,93.56,27.66,105.49c4.94,5.77,23,19.89,34.27,28.18,12.83,9.44,33.67,9.39,42-4.25,9.28-15.22,25-33.37,29.52-35,10.17-3.79,7-89.31,5.47-102.79C960.51,189.34,939.31,154.85,883.33,163.47Z"/><path class="cls-49" d="M914.11,294.55c-.34-.94-4.21-6.92-5.3-10.45-4.42-14.34-10.62-41-14.1-40.51s-2.39,25.88-3.09,41.63c-.2,4.46-2.84,12.64-2.94,13.75-.43,5.06,4.62,7,4.62,7l1.41-.68c2.22-1.81,7.22,3.06,8.46,3.34h0c1.13-.59,4.71-6.58,7.32-5.4l1.54.3S915.82,299.33,914.11,294.55Z"/><path class="cls-13" d="M905.59,297.9c.27.94.15,1.92-.28,2.18s-1-.28-1.27-1.22-.15-1.92.28-2.18S905.31,297,905.59,297.9Z"/><path class="cls-14" d="M909.29,302.82a3.75,3.75,0,0,0-2.73.91c-1.3,1.15-2.39,2.44-3.68,2.61s-2.68-.8-4.23-1.58a3.74,3.74,0,0,0-2.87-.18s-.06.18,0,.18c2.51,0,4.19,2.86,6.6,3.48a2.16,2.16,0,0,0,1.49-.2c2.17-1.21,3.07-4.39,5.48-5.05C909.39,303,909.33,302.82,909.29,302.82Z"/><path class="cls-14" d="M908.71,304.1a5.51,5.51,0,0,0,2.18-.13c1-.29,2.16-2.25.42-3.32-1.47-.9-2.47.09-3.1.94-.5.67-.79,1.51-1.45,2Z"/><path class="cls-14" d="M896.66,305.67a5.36,5.36,0,0,1-2.14.43c-1,0-2.66-1.62-1.24-3.1,1.18-1.24,2.4-.55,3.23.12.65.51,1.15,1.25,1.9,1.53Z"/><path class="cls-50" d="M1000.72,339.7c2.12-16.34-5.57-192.55-112.57-184.55,0,0-15.84-.2-41,7-71,20.34-63.15,173.31-46,209.58,15.3,32.29,48.21,29.42,59,26.42,0,0-11-24-21.3-132.17-3.52-37,41.45-68.93,51.67-83.37,96.91,8.56,55.63,163.54,64.63,204.54C955.47,388.6,996.18,374.58,1000.72,339.7Z"/><path class="cls-51" d="M904.78,230.17c-2.4.78-2.84,4.93,1.76,5.82,3.11.61,15.86-4.2,21.56-4.82a36.8,36.8,0,0,1,19.62,3.5s-6.84-9-13.45-10.36S907.6,229.25,904.78,230.17Z"/><path class="cls-52" d="M880.88,233.28c2.52.14,4,4-.22,6.08-2.84,1.38-16.4,0-22.07.86a36.8,36.8,0,0,0-18.07,8.4s4.31-10.44,10.35-13.45S877.91,233.12,880.88,233.28Z"/><path class="cls-15" d="M942.55,254.79s-.36-12.77-17.34-10.85-13.77,18.29-13.77,18.37,3.5-11.06,15.14-12.38S942.55,254.79,942.55,254.79Z"/><path class="cls-5" d="M912.17,263.05c-.3-2.61,2.39-9.64,13.1-11.48,12.62-2.18,17.32,3.53,17.32,3.53s-1.65,7.9-13.25,10.75C917.31,268.81,912.17,263.05,912.17,263.05Z"/><path class="cls-53" d="M935.43,258.18a8.56,8.56,0,1,0-7.54,9.47A8.56,8.56,0,0,0,935.43,258.18Z"/><path class="cls-17" d="M922.74,259.62a4.21,4.21,0,1,1,4.66,3.71A4.22,4.22,0,0,1,922.74,259.62Z"/><path class="cls-5" d="M926.57,256.62a2.07,2.07,0,1,0-4.09.6,2.07,2.07,0,0,0,4.09-.6Z"/><path class="cls-5" d="M932.58,260.62a1,1,0,1,0-.84,1.06A1,1,0,0,0,932.58,260.62Z"/><path class="cls-5" d="M924.8,259.79a.47.47,0,1,1,.53.39A.46.46,0,0,1,924.8,259.79Z"/><path class="cls-18" d="M912,263.13c.4,0,.53-4.26,5.4-7.93a21.61,21.61,0,0,1,16.71-3.38,16.24,16.24,0,0,1,8,3.8c1,.89,5.58-.78,5.66-7.36-4.5,1.52-12.38-1.07-19.75-.25-7.89.89-13.36,5.87-14.81,8.49C911,260.62,911.12,263.19,912,263.13Z"/><path class="cls-11" d="M942.4,255.73c0,.4,0,.86,0,1.4.13,2.69-4.88,11-15.54,14.24s-13.85-7.46-13.85-7.46l.08,0c2,1.48,7.14,4.2,16.21,2C939,263.48,941.73,257.62,942.4,255.73Z"/><path class="cls-15" d="M851.08,266.69s-2.92-12.43,14-14.92,18,14.16,18,14.23-6.22-9.79-17.8-8.09S851.08,266.69,851.08,266.69Z"/><path class="cls-5" d="M882.57,266.9c-.39-2.6-4.79-8.7-15.61-7.74-12.75,1.13-15.84,7.85-15.84,7.85s3.62,7.21,15.56,7C879.07,273.79,882.57,266.9,882.57,266.9Z"/><path class="cls-54" d="M858.83,268.15a8.56,8.56,0,1,1,9.72,7.23A8.55,8.55,0,0,1,858.83,268.15Z"/><path class="cls-17" d="M871.46,266.29a4.21,4.21,0,1,0-3.55,4.78A4.22,4.22,0,0,0,871.46,266.29Z"/><path class="cls-5" d="M867,264.37a2.07,2.07,0,1,1,2.29,1.82A2.06,2.06,0,0,1,867,264.37Z"/><path class="cls-5" d="M862.21,269.78a1,1,0,1,1,1.08.81A1,1,0,0,1,862.21,269.78Z"/><path class="cls-5" d="M869.52,267a.46.46,0,0,0-.51-.42.48.48,0,0,0-.42.51.47.47,0,0,0,.51.42A.46.46,0,0,0,869.52,267Z"/><path class="cls-18" d="M882.72,267c-.39.07-1.6-4-7.25-6.28a21.6,21.6,0,0,0-17,1,16.28,16.28,0,0,0-6.75,5.72c-.7,1.11-5.59.68-7.36-5.66,4.74.32,11.69-4.21,19-5.3,7.86-1.17,14.42,2.26,16.49,4.42C883.12,264.24,883.61,266.77,882.72,267Z"/><path class="cls-11" d="M851.47,267.57c.11.39.2.83.32,1.36.56,2.64,7.54,9.42,18.66,9.78S881.94,268,881.94,268h-.09c-1.54,1.94-5.82,5.89-15.17,6.06C856.78,274.18,852.6,269.23,851.47,267.57Z"/><path class="cls-20" d="M935.53,287.27c1.26,3.7,6.66,5.2,12.05,3.35s8.72-6.34,7.45-10-6.67-5.21-12-3.36S934.26,283.57,935.53,287.27Z"/><path class="cls-20" d="M872.05,295.53c-.28,3.9-5.11,6.74-10.79,6.33s-10.06-3.9-9.78-7.8,5.11-6.74,10.79-6.33S872.33,291.63,872.05,295.53Z"/><path class="cls-5" d="M935.12,317.77c0,2.5-19,14.79-26.7,15.8-10,1.3-25.28-3.27-32.06-9.09,9.21.54,17.83,2.75,29.85,1.19C915.84,324.41,927.39,320.07,935.12,317.77Z"/><path class="cls-55" d="M936,316c-5,.71-10,1.63-15,2.57L913.56,320c-2.47.47-5.31,2.37-7.73,2.69s-4.57-.89-7.07-.74l-7.56.51c-2.51.16-5,.37-7.56.57l-3.78.36-1.9.19-1,.11-.47.06-.27,0a1,1,0,0,0-.59.3,1,1,0,0,0,.06.44c1.21,3.72,15.89,17.28,33.45,15,15.53-2,25.74-20.62,27.3-22.83l.31-.8Zm-28.5,15.43c-19.9,2.59-30-6.54-30.23-6.76h0c8.77,3.16,24,3.31,29.19,2.67s10.58-2.28,15.51-3.5c4.51-1.13,10.55-5,13-6.67C931.82,321.43,920.55,329.72,907.47,331.43Z"/><path class="cls-56" d="M838,430.62S798.77,452.85,789.46,458s-8.7,1-11,7.08-22.71,93.4-26,108.24-1.21,18.68-2.25,19.76-21.43,110.5-3.74,136.28,43.23,36.29,59.46,35,153.8-3,180.52-6.15,25,1.4,30.35-4.85-6.15-198.73-2.39-236,15.56-58.67,1.16-73-17.66-19.83-17.66-19.83l-27.75-21.47s-74,34-75,36-49,65-49,65-7-51-1-64C848.9,432,838,430.62,838,430.62Z"/><path class="cls-28" d="M210.5,477.14l-.74-1.47a1,1,0,0,0-.39-.42,1.14,1.14,0,0,0-.51-.27,1.18,1.18,0,0,0-.59,0,1.12,1.12,0,0,0-.56.18l-.31.24a1.45,1.45,0,0,0-.38.66l-.05.4a1.41,1.41,0,0,0,.2.75l.74,1.48a1.18,1.18,0,0,0,.38.42,1.26,1.26,0,0,0,.51.27,1.82,1.82,0,0,0,1.16-.15l.3-.24a1.49,1.49,0,0,0,.39-.66l0-.4a1.57,1.57,0,0,0-.2-.76Z"/><path class="cls-28" d="M199.2,377.47a144.76,144.76,0,0,1,21.29,11.85c6.39,4.3,12.78,8.93,16.29,16a67.86,67.86,0,0,1,4.19,12.2,1.5,1.5,0,0,0,2.89-.8c-2.12-7.69-4.54-15.2-10.3-21a67.9,67.9,0,0,0-9.28-7.45q-5.17-3.63-10.67-6.8a143.73,143.73,0,0,0-12.9-6.61c-1.74-.79-3.27,1.79-1.51,2.59Z"/><path class="cls-41" d="M1015.56,444.45s-29.91,9.2-32.91,17.2-5.2,13.12-5.2,13.12-4.21,107.11,0,126,6,22,6.63,27.92,11.08,62.64,11.08,62.64l65.94,85.1s23.17-75.49,5.36-177.63c0,0-2.67-37.82-.74-50.48S1064.46,451.24,1015.56,444.45Z"/><path class="cls-28" d="M246.06,427.87a66.2,66.2,0,0,1,4.76,13.95c.42,1.88,3.31,1.09,2.89-.8a69.3,69.3,0,0,0-5.06-14.66,1.5,1.5,0,0,0-2.59,1.51Z"/><path class="cls-28" d="M399.1,720.1a11,11,0,0,0-5.27-.22,5.37,5.37,0,0,0-3.63,3.47,6.8,6.8,0,0,0-.15,5.11,5.45,5.45,0,0,0,3.46,2.68c1.63.49,3.8.47,5-.92a1.54,1.54,0,0,0,0-2.12,1.52,1.52,0,0,0-2.13,0,1.29,1.29,0,0,1-.16.17c.15-.1.16-.11,0,0a1.32,1.32,0,0,1-.2.12c.17-.07.18-.08,0,0s-.59.1-.2.07l-.5,0-.5,0c.4,0-.12,0-.2,0l-.47-.13c-.07,0-.55-.23-.22-.07a5.27,5.27,0,0,1-.83-.48c.29.22-.09-.1-.15-.16l-.15-.17c.11.15.12.16,0,0s-.25-.52-.11-.16a2.75,2.75,0,0,1-.14-.49c0,.24,0-.31,0-.38s0-.21,0-.31c0,.11,0,.12,0,0a9.66,9.66,0,0,1,.22-1.07,4.77,4.77,0,0,1,.15-.54c0-.06.23-.57.1-.29a4.59,4.59,0,0,1,.26-.49l.15-.23c-.09.13-.08.12,0,0s.46-.38.21-.21c.15-.1.31-.18.46-.27s.17-.08,0,0l.26-.09.53-.13c.18,0,.18,0,0,0l.28,0h.62l.66,0h.09l.32,0c.43.07.86.17,1.29.26a1.5,1.5,0,1,0,.8-2.9Z"/><path class="cls-28" d="M411.93,720c-2.06.09-4.31.23-6.06,1.47a5.76,5.76,0,0,0-1.95,2.18,6.85,6.85,0,0,0-.5,3.23,7.64,7.64,0,0,0,.75,3.32,6.2,6.2,0,0,0,1.9,2.11,5.65,5.65,0,0,0,5.72.39,4.82,4.82,0,0,0,2.39-5.8,1.53,1.53,0,0,0-1.84-1,1.5,1.5,0,0,0-1,1.84c0,.14.09.28.13.42s0,.25,0,.09,0,.13,0,.16v.22s0,.25,0,.1,0,.08,0,.09,0,.18-.08.28.05,0-.09.18l-.15.25s-.15.19-.06.09a1.82,1.82,0,0,1-.48.4c-.05,0-.38.19-.19.11a3,3,0,0,1-.51.16l-.22.05s.19,0,0,0a4.87,4.87,0,0,1-.54,0c-.26,0,0,0-.21,0a4.1,4.1,0,0,1-.5-.14l-.21-.07s.18.09,0,0-.3-.16-.44-.25l-.18-.12c-.2-.15.14.12,0,0l-.31-.3-.21-.24,0-.08c-.05-.09-.11-.17-.15-.25s-.09-.17-.14-.26.07.19,0,0a3.94,3.94,0,0,1-.14-.49,4.33,4.33,0,0,1-.14-1c0-.4,0-.8,0-1.2a3,3,0,0,1,.15-.81c0,.08.12-.21.16-.28a1.74,1.74,0,0,1,.11-.18s-.12.15,0,0a3.06,3.06,0,0,1,.3-.32c.05-.06.11-.1.16-.16l.11-.09c-.09.07-.09.07,0,0a7.25,7.25,0,0,1,.79-.47l.09,0,.36-.12q.35-.11.72-.18a15.25,15.25,0,0,1,2.58-.25,1.5,1.5,0,1,0,0-3Z"/><path class="cls-28" d="M397.3,721.25a4.44,4.44,0,0,0,.63-2.08l.33-2.09.68-4.35a1.54,1.54,0,0,0-1.05-1.84,1.51,1.51,0,0,0-1.84,1.05l-.66,4.18-.33,2.09c-.05.31-.09.62-.14.93,0,.13-.06.26-.08.39s0,.16,0,0a1.64,1.64,0,0,1-.14.22,1.51,1.51,0,0,0,.54,2,1.55,1.55,0,0,0,2.05-.54Z"/><path class="cls-28" d="M412.2,720.58c0-1.26,0-2.51.13-3.76.05-.61.11-1.22.19-1.83,0,0,.06-.48,0-.18l.06-.44c0-.34.11-.68.17-1a1.54,1.54,0,0,0-1-1.84,1.52,1.52,0,0,0-1.85,1,45.86,45.86,0,0,0-.67,8,1.5,1.5,0,0,0,3,0Z"/><path class="cls-57" d="M591.46,656.5s-14.37,1.19-22.76,1.19-39.17-1-46.54-1.08-9.69,2.29-10.46,4c-1.55,3.5,4.15,7.16,4.15,7.16s-11.84,3.06-19,9.05-9.59,7.19-8.39,9.59,6.54,1.93,6.54,1.93,6.64,4.06,16.22.46,12-6,12-6,7.21-.7,10.61,1.75c2.57,1.85,22.11,22.16,22.11,22.16s16.4-3.54,20-4.74,21.56,0,21.56,0S609.43,668.48,591.46,656.5Z"/><path class="cls-58" d="M1003.57,748.74S855.39,782.42,800.1,781.15c0,0-46.35-226.87-49.45-268.24a8.06,8.06,0,0,0,3.5,4.24c6.54,3.74,195.93-31.65,220.64-36.29C986.21,530.68,1003.57,748.74,1003.57,748.74Z"/><path class="cls-59" d="M885,681.65S873,714,873,720c0,0-33.54-10.78-38.34-10.78s-40.73,0-46.72-1.2c-4.38-.88-12.61-5-18.12-13.66-1-.38-2.41-1.92-4.13-5.74-1.92-4.26-1.76-6.41-.85-7.46-1.14-.58-2.68-3-2.68-8,0-3.75,1-4.82,1.63-5.25a.3.3,0,0,0,0,.1v-.12l0,0c-1.63.25-3.66-5.47-3.63-7.75,0-1.94,1.17-4.78,1.71-5.18-1.1-5.73-2.11-12.18-1.48-14.05,1.2-3.6,6.77-12.77,23.77-.77,1.4,1,6.38,3.38,4.34,1.48-4.1-3.8-10.27-9.16-14.93-11.49-7.19-3.6-14.38-8.39-16.78-14.38,0,0-6-4.79-4.79-7.19s16.77,0,20.37,2.4c0,0,9.58,2.39,12,3.59s52.92,33.38,58.7,40.73C856.22,672.07,885,681.65,885,681.65Z"/><path class="cls-28" d="M911.13,754.38c7-1.65,12-8.17,15.18-14.24,2.07-4,3.13-8.43,4.38-12.71,1.31-4.47,2.63-8.94,3.93-13.41a83.13,83.13,0,0,0,3.25-14.94c.19-1.92-2.81-1.91-3,0a71.1,71.1,0,0,1-2.62,12.32c-1.2,4.22-2.46,8.42-3.69,12.63-1.17,4-2.19,8.13-3.69,12a33.36,33.36,0,0,1-5.44,9.1c-2.4,2.9-5.36,5.45-9.1,6.33-1.87.44-1.08,3.34.8,2.89Z"/><path class="cls-28" d="M921.22,745a39.74,39.74,0,0,0,10.4,12,23,23,0,0,0,7.62,3.54,45.91,45.91,0,0,0,7.32,1.41c3.39.3,6.91-.53,10.23-1.08a82.74,82.74,0,0,1,14-1.36,46.43,46.43,0,0,1,19.41,4.29c1.74.8,3.27-1.78,1.52-2.59a49.8,49.8,0,0,0-17-4.53,67.2,67.2,0,0,0-14.86.69c-3.65.52-7.28,1.36-11,1.59a17.38,17.38,0,0,1-4.62-.42,30.3,30.3,0,0,1-8.57-2.51c-5.22-2.75-8.93-7.58-11.93-12.53-1-1.65-3.6-.14-2.59,1.52Z"/><path class="cls-41" d="M865.61,392.77s.54,19.38-15.46,40.38c-11.65,15.3-3.72,71-3.72,71s-20.46-40-19.37-46.48,5.39-19.85-1.76-20.18l-7.15-.34h0Z"/><path class="cls-60" d="M276.15,283.15c-7.68,29.45,79,64,92,89,2-3,32-112,9-158-13.61-27.22-20.55-13.51-48.59-15C268.15,196.05,288.15,237.15,276.15,283.15Z"/><path class="cls-11" d="M310.79,297.23c.74,4.93,8.21,7.36,15.3,5.83,7.58.83,10.9,6.51,16.81-1.15,3.24,0,51.3-32.28,55.32-51.07.66-3.11,3.59-54.74,3.71-54.84l-.06,0s5.4-53.71,5.53-54.87c3.61-32.76-20.21-47.25-53.27-50.89C340.27,88.75,327,89.38,316,93a45.22,45.22,0,0,0-13.81,7.19c-1.63,1.27-12.93,14.24-14.37,25.93-.13,1-.26,2.1-.38,3.17-2.2,19.6-3.18,44.22-3.19,44.23-.92,4.76-1.93,8.91-3,12.62-.83,2.87-1.67,5.47-2.51,7.86,0,0-6.28,42.3-6.35,43C271.11,248.39,309.44,296.93,310.79,297.23Z"/><path class="cls-61" d="M321.05,224.18c.37-1,4.94-6.91,6.12-10.45,4.79-14.35,11.18-41,15.6-40.52s4.4,26,6.13,41.81c.49,4.47,4.27,12.7,4.45,13.82.81,5.08-5.45,6.95-5.45,6.95l-1.82-.7c-2.89-1.83-8.93,3-10.48,3.28h0c-1.45-.6-6.3-6.64-9.52-5.48l-1.92.29S319.15,229,321.05,224.18Z"/><path class="cls-13" d="M332,227.61c-.3.94-.09,1.93.47,2.2s1.23-.27,1.53-1.21.08-1.93-.47-2.2S332.27,226.67,332,227.61Z"/><path class="cls-14" d="M327.57,232.52a5.79,5.79,0,0,1,3.49.94c1.7,1.17,3.15,2.47,4.79,2.65s3.33-.78,5.24-1.55a5.8,5.8,0,0,1,3.61-.16c.05,0,.09.19,0,.19-3.16,0-5.13,2.83-8.13,3.43a3.42,3.42,0,0,1-1.89-.21c-2.8-1.24-4.1-4.43-7.18-5.12C327.45,232.68,327.52,232.52,327.57,232.52Z"/><path class="cls-14" d="M328.37,233.81a8.94,8.94,0,0,1-2.76-.15c-1.26-.3-2.84-2.27-.7-3.33a3.2,3.2,0,0,1,4,1c.66.67,1.08,1.51,1.93,2Z"/><path class="cls-14" d="M343.65,235.49a8.67,8.67,0,0,0,2.72.45c1.29,0,3.27-1.6,1.4-3.1a3.2,3.2,0,0,0-4.07.09,9,9,0,0,1-2.31,1.52Z"/><path class="cls-62" d="M277.82,183.59l8,18c5.24-13.29-4.18-86.18,26.22-80.37,4.38,4,11.06,7,20.53,8,7.31,5.51,17.64,7.68,29,5h0a26.31,26.31,0,0,0,3.53,1.07c.3.08.61.14.93.2a38.12,38.12,0,0,0,8.08.7A34.82,34.82,0,0,1,378,136c1.78-.16,3.65-.42,5.52-.76.65-.12,1.3-.24,2-.38,7.38,3.72,10.26,4.73,13.49,17.91,1.59,6.49-7,55.31-9.07,65.05l14.38-21.58s21.58-68.63,10.32-78.46a26,26,0,0,0,2.33-4.55c3.86-9.82-2.67-14.58-3-14.82a2,2,0,0,1,.1.41c1.09,5.18-8.91,6.59-11.49-2.3-2.65-9.11-8-18.22-17.49-21.34a29.34,29.34,0,0,0-5.94-1.31,24.11,24.11,0,0,0-14.05,2.55l0,0c-3.42-18.3-31.2-19.08-31.2-19.08,2,1.26,9.43,5.33,5.08,16.37,3.89-16.32-15.6-12.48-15.6-12.48,7.8,1.11-6.76,5.86-19.77,19.26-10,10.25,3.33,15.5,3.33,15.5-11-3.51-24.88,6.82-26.7,13.46C276.5,122.9,275.53,167.43,277.82,183.59Z"/><path class="cls-63" d="M375.42,252.43s-30.44-1-40.24-2.12c-10.49-1.15-40.92-6.81-40.92-6.81s14.11,17.89,38.81,20.6C359,267,375.42,252.43,375.42,252.43Z"/><path class="cls-64" d="M366.43,159.72c-7.95-1.5-9.6-4.72-12.56-4.59-2.53.11-3.15,3.31.05,6.73,3.37,3.62,9.13,5,14.79,5.91s17,2.92,23.08,8.1c0,0-1.19-7.66-7.2-10.74S366.43,159.72,366.43,159.72Z"/><path class="cls-65" d="M324.22,155.27c8.07.52,10.46-2.18,13.3-1.32,2.42.73,2.23,4-1.72,6.5-4.17,2.67-10.09,2.56-15.8,2.05s-17.16-1.38-24.36,2.12c0,0,3.05-7.12,9.63-8.61S324.22,155.27,324.22,155.27Z"/><path class="cls-15" d="M295.53,185.33s.12-13.71,18.4-12,15.17,19.35,15.18,19.43-4-11.8-16.53-13S295.53,185.33,295.53,185.33Z"/><path class="cls-5" d="M328.33,193.56c.27-2.81-2.77-10.3-14.31-12.05-13.6-2.07-18.52,4.16-18.52,4.16s1.93,8.45,14.45,11.26C322.94,199.85,328.33,193.56,328.33,193.56Z"/><path class="cls-66" d="M303.25,188.83a9.19,9.19,0,1,1,8.3,10A9.2,9.2,0,0,1,303.25,188.83Z"/><path class="cls-17" d="M316.9,190.1a4.52,4.52,0,1,0-4.92,4.08A4.51,4.51,0,0,0,316.9,190.1Z"/><path class="cls-5" d="M312.73,187a2.22,2.22,0,1,1,1.93,2.48A2.22,2.22,0,0,1,312.73,187Z"/><path class="cls-5" d="M306.36,191.38a1,1,0,0,1,1.13-.92,1,1,0,0,1,.91,1.13,1,1,0,0,1-1.12.91A1,1,0,0,1,306.36,191.38Z"/><path class="cls-5" d="M314.7,190.33a.5.5,0,0,0-1-.14.5.5,0,1,0,1,.14Z"/><path class="cls-18" d="M328.48,193.65c-.43,0-.65-4.57-6-8.4-4.76-3.44-11.95-4.71-18-3.29a17.53,17.53,0,0,0-8.5,4.26c-1,1-2.17-.77.69-3.58,3.4-3.32,8-4.93,15.94-4.21,8.49.78,12.81,5.34,14.42,8.12C329.59,190.93,329.46,193.69,328.48,193.65Z"/><path class="cls-11" d="M295.71,186.34c0,.43,0,.93,0,1.51-.08,2.89,5.48,11.74,17,15s14.72-8.29,14.72-8.29l-.09,0c-2.1,1.63-7.58,4.67-17.37,2.46C299.57,194.59,296.47,188.36,295.71,186.34Z"/><path class="cls-20" d="M304.42,217.86c-1.2,3.73-6.56,5.34-12,3.6s-8.85-6.17-7.66-9.9,6.57-5.33,12-3.59S305.61,214.14,304.42,217.86Z"/><path class="cls-20" d="M368.05,224.87c.35,3.89,5.24,6.63,10.91,6.11s10-4.1,9.62-8-5.24-6.63-10.91-6.11S367.69,221,368.05,224.87Z"/><path class="cls-67" d="M294.26,243.5a.17.17,0,0,0,.05.05l.05.07c.34.39,1.51,1.76,3.47,3.63,9.92,2.4,21.91,5.35,34.57,6.74,15,1.65,28.66,1.2,39.92.71,1.17-.76,2-1.4,2.53-1.8s.57-.47.57-.47-30.44-1.07-40.24-2.14C324.69,249.13,294.26,243.5,294.26,243.5Z"/><path class="cls-5" d="M295.63,244.94c.18,2.49,26.5,15.05,36.93,16.19,13.53,1.49,33.77-2.73,42.48-8.38-12.33.36-23.78,2.38-40,.6C322,251.91,306.17,247.37,295.63,244.94Z"/><path class="cls-68" d="M293.28,242.78l.47.81c2.24,2.24,17.18,21,38.18,23.31,23.75,2.61,42.6-10.65,44-14.34a.73.73,0,0,0,0-.45,1.66,1.66,0,0,0-.81-.31l-.37,0-.63-.07-1.29-.13-2.55-.22-5.11-.43c-3.41-.25-6.82-.5-10.21-.71l-10.19-.65c-3.37-.2-6.2,1-9.44.6s-7.23-2.32-10.58-2.83l-10.09-1.57c-6.73-1-13.49-2-20.29-2.84Zm2.51,1.31c3.47,1.72,11.84,5.7,18,6.92,6.71,1.31,14.11,2.89,21.08,3.79,7,.73,27.47.86,39.06-2.12h0c-.35.21-13.27,9.14-40.19,6.17C316,256.91,300.33,248.41,295.79,244.09Z"/><path class="cls-11" d="M396,207.68c-1.18,10.65,3.27,20.06,10.19,22.42a11.19,11.19,0,0,0,2.24.5c8.16.89,15.82-7.91,17.11-19.66s5.38-21.84-2.78-22.74a19.12,19.12,0,0,0-7.19.94,35.76,35.76,0,0,0-11.54,6c-.2.16-.42.32-.61.49C399.52,198.93,396.54,203.06,396,207.68Z"/><path class="cls-15" d="M401.2,222.68a8.76,8.76,0,0,0,6.23,4.08c5.79.64,11.24-5.61,12.16-14s3.82-15.52-2-16.16c-3.13-.34-8.13,1.28-12.24,4.15a11.36,11.36,0,0,1-4.18,21.9Z"/><path class="cls-69" d="M398.59,210.48a18.27,18.27,0,0,0,2.61,12.2,11.36,11.36,0,0,0,4.18-21.9C401.86,203.24,399,206.62,398.59,210.48Z"/><path class="cls-11" d="M255.19,192.26c-1.3,11.75,4.27,22,12.43,22.92a11,11,0,0,0,4.79-.58c6.18-2.17,11.29-9.69,12.32-19.09a16.53,16.53,0,0,0-2.27-9.75,27.12,27.12,0,0,0-3.34-4.79,36.33,36.33,0,0,0-8.44-7.22,20.27,20.27,0,0,0-7.84-3.07C254.68,169.78,256.48,180.5,255.19,192.26Z"/><path class="cls-15" d="M261.45,196.31c-.85,7.68,2.79,14.38,8.11,15a7,7,0,0,0,2.62-.21A11.37,11.37,0,0,1,278,190c-3.14-4.22-8.19-7.44-11.5-7.81C261.12,181.63,262.29,188.63,261.45,196.31Z"/><path class="cls-70" d="M266.84,200.14a11.38,11.38,0,0,0,5.34,10.93c4.26-1.17,7.86-6.24,8.57-12.63.32-2.9-.89-5.85-2.8-8.42A11.37,11.37,0,0,0,266.84,200.14Z"/><path class="cls-15" d="M386,197.51s1.61-12.48-12.7-14.06-17.73,12.44-17.75,12.5,5.37-6.71,16.52-5.48S386,197.51,386,197.51Z"/><path class="cls-18" d="M355.47,196.83c.37.09,2.06-.89,7.73-2.16a30.57,30.57,0,0,1,14.32.48,22.46,22.46,0,0,1,7.59,3.75c1,.7,2.07.12.72-2.29s-3.52-4.88-10.49-6.27c-7.46-1.49-12.82.29-16.59,2.79S354.62,196.62,355.47,196.83Z"/><path class="cls-71" d="M312.57,90.16a25,25,0,0,0,2.8,12.43,55.38,55.38,0,0,0,10.89,13.83,27.62,27.62,0,0,0,11.59,12.25c-9.6.38-16.72-1.6-21.7-4.95a21,21,0,0,1-9.44-16.2A23.24,23.24,0,0,1,312.57,90.16Z"/><path class="cls-71" d="M339.15,68.56s-12.67,30.35,1.5,51.6a34.4,34.4,0,0,0,16.51,14.26,37.84,37.84,0,0,1-18.82-5.08c-9.8-5.83-16.22-16.27-16.55-29.6C321.48,87.1,333,75.06,339.15,68.56Z"/><path class="cls-72" d="M380.15,1025.15s34.4-141.23,31-149c0,0-23.73,50.49-45,71-7.51,7.25-23.5,78.5-23.5,78.5Z"/><path class="cls-73" d="M863.15,974.15l-24,51H808.41c7.87-22.69,28.9-118.86,26.74-178C842.94,882.7,862.37,962.47,863.15,974.15Z"/><path class="cls-74" d="M510.15,678.15c-1,6-15.18,10.23-15.18,10.23s-5.34.46-6.54-1.94,1.09-3.53,7.89-9.17c2.89-1.71,5.64-3.12,6.83-3.12C506.15,674.15,510.48,676.18,510.15,678.15Z"/><path class="cls-75" d="M763.82,667.88V668a.3.3,0,0,1,0-.1Z"/><path class="cls-75" d="M763.82,667.88V668a.3.3,0,0,1,0-.1Z"/><path class="cls-74" d="M772.36,611s-4.21,6.18-7.21,6.18a61,61,0,0,1-8.37-1.39s-6-4.79-4.79-7.19S768.76,608.57,772.36,611Z"/><path class="cls-41" d="M967.54,390.69l22.9,29.2L920.79,471.4s-21.49-37.11-25.56-30.18-48.8,62.93-48.8,62.93l48.7-67.69S966.93,408.23,967.54,390.69Z"/><path class="cls-41" d="M885,675.44s46.29,15.21,52.24,15.46,27.25.65,35.94.25c17.62-.8,35.8-1,41-1,48,0,55.94,76,47.47,84.48S930.37,779,908.76,752.09c0,0-32.61-16.94-41.61-17.94S881.79,674.72,885,675.44Z"/><path class="cls-76" d="M974.79,480.86c-24.71,4.64-214.1,40-220.64,36.29a8.06,8.06,0,0,1-3.5-4.24c-.25-3.33-.22-5.46.14-6.17,0,0,209.47-42.84,220.35-35.79C972.26,471.67,973.48,475.17,974.79,480.86Z"/><path class="cls-77" d="M270.76,300.3s-94.61,50.93-103.61,78.39S234.32,604.5,219,647.51c-18.81,52.64-18.81,117.64-18.81,117.64s197,12,230,8c7.7-.93,21-7,21-7s2.09-139.57-6.45-153.78,26.72-113.91,19.58-150.06-14.62-109.25-21.37-113.7l-6.76-4.46L396,319.41l-30.86,36.74-50-23Z"/><path class="cls-42" d="M365,356.46s-83.83-37.31-85.83-63.31.26-27.23.26-27.23-5.49.93-8.87,4.08-20.73,41.19-20.73,41.19,79.54,78,78.94,85.46S365,356.46,365,356.46Z"/><path class="cls-42" d="M384.86,284.58s-5.05,54.19-19.88,71.88c0,0,22.06,15.63,26.62,28.66s11.55-59,10.55-64l-1-5S391.57,285,384.86,284.58Z"/><path class="cls-42" d="M180.15,369.15s47.41-9,67.21,39S265,636.68,265,636.68s-44.16,89-71,76.74-16.15-98.92-25-129.59-38.3-123.75-19.07-173.21S180.15,369.15,180.15,369.15Z"/><path class="cls-42" d="M260.65,627.65s88,25.11,94.5,27.56,59.45,5.9,65.48,5.67,6.33.25,8.68,0,36.32-5.68,36.32-5.68,14.43,61-1.27,81.24c0,0-27.5-4.52-37.1-3.16s-65-.27-107.79-1.45-120.53.75-134.17-26.72S207.65,618.65,260.65,627.65Z"/><path class="cls-78" d="M365,356.46s13.8,42,11.67,51.19c-1.5,6.5,12.55,26.92,14.46,81.73,1.54,44.27-2,74.77-4,83.77a76.76,76.76,0,0,0-1.36,18.8s3.46,43.29,4.86,52.7-3.5,127.5-6.5,129.5"/><path class="cls-72" d="M194.15,768.15s11.46,11.31,167,13c11.81.13,36.46-2.2,51.18-3.72a147.25,147.25,0,0,0,22.72-4.19l19.1-4.09-3-25s-91,11-254,0C197.15,744.15,195.07,760.06,194.15,768.15Z"/><ellipse class="cls-79" cx="387.65" cy="764.65" rx="1.5" ry="3.5"/><path class="cls-80" d="M360.25,781c1.31,2.4,3,4,4.9,4.15,7.41.74,25.23-.16,34-.68a6.92,6.92,0,0,0,6.43-5.81c1.44-9.11.78-21.62-.41-28.51-.61-3.5-4.41-5.44-7.95-5.67-9.74-.64-28.2-.85-35.05.67-1.75.39-3.08,2.1-4,4.62,7.93-.87,24.15-.7,33.07-.25,3.54.18,7.34,1.68,7.95,4.38,1.19,5.33,1.85,15,.41,22-.51,2.48-3.19,4.34-6.43,4.49C384.79,780.79,368.19,781.45,360.25,781Z"/><path class="cls-80" d="M403.13,762.28s-13.86-1.13-15.2-.13-.67,5,0,5,15.4-1,15.4-1A4.27,4.27,0,0,0,403.13,762.28Z"/></svg>