<?xml version="1.0" standalone="no"?>
<!DOCTYPE svg PUBLIC "-//W3C//DTD SVG 20010904//EN"
 "http://www.w3.org/TR/2001/REC-SVG-20010904/DTD/svg10.dtd">
<svg version="1.0" xmlns="http://www.w3.org/2000/svg"
 width="848.000000pt" height="848.000000pt" viewBox="0 0 848.000000 848.000000"
 preserveAspectRatio="xMidYMid meet">
<metadata>
Created by potrace 1.11, written by Peter Selinger 2001-2013
</metadata>
<g transform="translate(0.000000,848.000000) scale(0.100000,-0.100000)"
fill="#000000" stroke="none">
<path d="M3279 8476 c-2 -2 -35 -7 -74 -10 -63 -6 -131 -16 -205 -31 -67 -13
-95 -18 -95 -16 0 1 -25 -7 -55 -17 -30 -11 -57 -19 -60 -20 -13 0 -96 -25
-105 -30 -5 -4 -14 -7 -20 -8 -27 -5 -190 -77 -270 -119 -73 -38 -185 -107
-240 -147 -81 -59 -243 -212 -293 -278 -15 -19 -34 -42 -42 -51 -40 -46 -120
-164 -120 -178 0 -5 -3 -11 -7 -13 -17 -7 -106 -187 -157 -316 -69 -175 -129
-417 -152 -607 -26 -218 -25 -698 1 -834 5 -29 18 -132 19 -158 1 -13 5 -23 9
-23 5 0 6 -3 3 -8 -4 -6 -1 -28 18 -127 2 -11 7 -31 10 -45 3 -14 8 -36 10
-50 3 -14 13 -54 22 -90 9 -36 18 -74 19 -85 6 -32 83 -289 120 -396 18 -55
31 -99 28 -99 -3 0 1 -7 8 -16 7 -9 14 -22 15 -29 1 -8 21 -63 44 -122 44
-116 47 -123 79 -195 12 -26 21 -50 21 -53 0 -4 9 -25 19 -49 11 -23 21 -48
23 -56 2 -8 5 -17 8 -20 3 -3 22 -43 42 -90 40 -94 90 -203 148 -325 21 -44
56 -118 78 -165 47 -101 118 -250 197 -415 119 -249 168 -352 195 -410 15 -33
39 -85 53 -115 13 -30 43 -94 65 -141 22 -47 70 -155 107 -240 37 -85 75 -172
85 -194 10 -22 30 -71 45 -110 15 -38 35 -88 45 -110 17 -39 94 -235 96 -245
0 -3 6 -18 12 -33 7 -15 15 -40 18 -55 4 -15 10 -31 14 -37 15 -20 166 -521
175 -580 1 -11 9 -40 16 -65 16 -57 19 -69 24 -103 2 -15 7 -31 9 -36 3 -5 8
-24 11 -42 2 -19 7 -45 10 -59 10 -45 26 -125 29 -145 2 -11 6 -36 10 -55 10
-58 16 -93 22 -140 3 -25 7 -56 9 -70 3 -14 8 -52 11 -85 4 -33 8 -67 10 -75
1 -8 3 -21 3 -27 1 -10 91 -13 416 -13 l415 0 1 83 c1 103 5 174 13 257 4 36
9 88 11 115 3 28 7 61 10 75 3 14 8 43 11 65 4 31 44 198 68 290 3 11 6 17 52
128 34 82 111 212 154 261 58 66 155 146 179 146 5 0 11 4 13 8 5 13 137 61
202 73 74 13 174 15 251 4 61 -9 73 -11 78 -15 1 -1 10 -3 19 -5 28 -5 130
-54 173 -82 59 -39 185 -171 185 -193 0 -6 3 -10 8 -10 4 0 12 -10 18 -23 6
-12 24 -47 40 -77 15 -30 28 -57 29 -60 0 -3 11 -32 24 -65 28 -73 75 -255 90
-350 18 -109 20 -127 36 -275 3 -37 13 -189 19 -320 l1 -25 418 -3 c229 -1
416 1 415 5 -1 5 4 42 11 83 17 98 17 95 46 240 13 69 27 136 29 150 3 14 7
36 10 50 3 14 8 36 11 50 3 14 8 36 11 50 3 14 7 34 8 45 2 11 6 31 10 45 3
14 8 36 10 50 2 14 7 36 10 50 3 14 8 36 11 50 2 14 9 48 15 75 6 28 13 61 15
75 3 14 7 36 10 50 3 14 10 48 15 75 5 28 13 75 19 105 6 30 12 69 15 85 3 17
7 41 10 55 5 23 13 69 21 127 2 15 6 42 9 58 3 17 12 89 21 160 8 72 17 146
20 165 2 19 7 67 11 105 3 39 8 81 10 95 1 14 6 76 9 138 l7 114 -65 -66 c-36
-36 -67 -66 -70 -66 -4 0 -25 -13 -49 -29 -24 -16 -71 -40 -104 -55 -62 -25
-242 -67 -257 -59 -9 6 5 25 79 109 100 112 164 191 164 202 0 6 4 12 9 14 22
8 131 202 162 288 42 116 49 138 63 206 16 75 19 290 5 352 -4 20 -10 52 -14
70 -5 33 -42 148 -67 212 -23 58 -92 185 -125 229 -127 173 -282 312 -448 403
-76 41 -269 125 -308 133 -9 2 -59 18 -110 35 -50 18 -99 33 -108 35 -14 3
-146 40 -175 50 -8 2 -9 -7 -4 -32 9 -38 6 -332 -3 -373 -3 -14 -8 -41 -11
-60 -15 -103 -77 -271 -146 -399 -47 -86 -52 -94 -148 -231 -41 -60 -182 -206
-248 -258 -47 -36 -232 -128 -329 -161 -84 -30 -144 -37 -250 -30 -26 2 -162
41 -240 69 -33 12 -69 24 -80 26 -11 2 -76 20 -145 39 -69 20 -133 38 -142 40
-10 3 -26 7 -35 10 -49 13 -102 24 -138 29 -23 4 -52 9 -65 12 -14 3 -59 7
-100 9 -296 17 -416 62 -502 190 -51 77 -168 338 -156 350 4 4 90 7 174 6 l60
-1 22 -42 c87 -171 117 -214 163 -232 43 -18 66 -22 174 -31 77 -7 195 -22
238 -30 15 -3 37 -7 50 -9 81 -14 112 -21 192 -42 122 -31 196 -53 359 -108
160 -54 241 -64 332 -40 61 15 229 92 267 122 31 24 168 165 192 196 11 15 29
37 41 49 22 24 99 148 131 212 23 45 70 185 77 230 3 17 7 41 10 55 14 60 20
132 20 225 0 85 -7 188 -14 205 -1 3 -2 9 -1 13 2 11 -38 166 -50 192 -4 11
-18 45 -29 75 -24 60 -96 192 -125 226 -99 117 -155 168 -240 221 -45 28 -155
71 -202 79 -23 4 -39 7 -98 18 -72 13 -147 17 -415 21 -476 8 -783 15 -815 19
-79 10 -154 22 -165 26 -3 1 -9 2 -13 1 -37 -7 -310 119 -360 165 -15 13 -30
24 -35 24 -15 0 -156 152 -205 220 -26 36 -50 70 -54 75 -15 20 -91 181 -104
220 -7 22 -16 45 -20 50 -3 6 -10 24 -14 40 -47 176 -62 295 -58 460 3 132 8
210 13 210 0 0 3 16 5 35 12 103 76 308 132 422 38 79 120 211 134 216 5 2 9
8 9 13 0 23 146 169 232 232 51 37 219 129 273 148 11 4 34 12 50 18 230 81
535 87 755 13 293 -97 456 -296 465 -566 5 -172 -49 -311 -179 -454 -104 -115
-330 -228 -476 -238 -30 -2 -100 -6 -154 -9 -159 -8 -198 -14 -252 -40 -118
-58 -104 -210 26 -280 64 -34 141 -44 309 -40 91 2 177 6 191 8 14 3 41 8 60
11 19 3 67 15 105 26 39 12 75 22 80 23 6 2 15 5 20 8 6 4 28 12 50 19 22 7
60 24 84 37 24 12 48 23 52 23 12 0 108 60 174 109 157 116 288 298 319 443 3
13 10 41 15 63 5 22 13 56 16 75 10 49 11 366 1 415 -30 154 -77 275 -151 391
-61 94 -73 108 -140 176 -69 70 -221 188 -241 188 -3 0 -26 12 -52 27 -26 16
-49 28 -52 28 -3 1 -14 6 -25 12 -23 12 -190 73 -219 79 -10 2 -42 10 -70 18
-28 8 -69 17 -91 22 -22 4 -42 8 -45 9 -3 1 -34 5 -70 9 -36 5 -74 10 -85 13
-23 6 -431 14 -436 9z m-565 -3223 c-194 -168 -288 -293 -359 -478 -33 -86
-75 -212 -81 -244 -3 -14 -7 -28 -9 -31 -4 -6 -11 -41 -21 -100 -5 -30 -13
-128 -18 -230 -2 -41 -5 -77 -5 -80 -1 -3 -53 99 -117 225 -120 239 -127 263
-111 349 8 44 65 167 94 205 90 116 152 181 222 231 19 14 42 32 52 40 25 22
96 63 104 61 4 -2 11 1 14 6 20 29 263 109 270 90 2 -6 -14 -25 -35 -44z"/>
</g>
</svg>
