<svg width="140" height="140" viewBox="0 0 140 140" fill="none" xmlns="http://www.w3.org/2000/svg">
<circle cx="70" cy="70" r="70" fill="#094049"/>
<path d="M108.841 97.63H102.355V89.4266C102.355 89.2747 102.325 89.1243 102.266 88.9839C102.207 88.8436 102.121 88.7161 102.013 88.6086C101.904 88.5012 101.775 88.416 101.634 88.3579C101.492 88.2998 101.34 88.2698 101.186 88.2698C101.033 88.2698 100.881 88.2998 100.739 88.3579C100.597 88.416 100.468 88.5012 100.36 88.6086C100.251 88.7161 100.165 88.8436 100.107 88.9839C100.048 89.1243 100.018 89.2747 100.018 89.4266V97.63H90.22V79.2559C90.22 79.1838 90.2489 79.1147 90.3004 79.0638C90.3519 79.0128 90.4217 78.9842 90.4945 78.9842H99.7431C99.816 78.9842 99.8858 79.0128 99.9373 79.0638C99.9887 79.1147 100.018 79.1838 100.018 79.2559V82.0699C100.018 82.3767 100.141 82.6709 100.36 82.8878C100.579 83.1048 100.876 83.2266 101.186 83.2266C101.496 83.2266 101.794 83.1048 102.013 82.8878C102.232 82.6709 102.355 82.3767 102.355 82.0699V79.2559C102.354 78.5705 102.079 77.9134 101.589 77.4288C101.1 76.9441 100.436 76.6715 99.7431 76.6707H90.4937C89.8012 76.6715 89.1374 76.9441 88.6477 77.4288C88.158 77.9134 87.8826 78.5705 87.8818 79.2559V97.63H80.3486V69.7392C80.3478 69.0538 80.0723 68.3967 79.5827 67.9121C79.093 67.4274 78.4291 67.1548 77.7366 67.154H68.4872C67.7947 67.1548 67.1308 67.4274 66.6412 67.9121C66.1515 68.3967 65.8761 69.0538 65.8753 69.7392V97.63H58.9291C61.0166 96.301 62.7239 94.4631 63.887 92.2929C65.0501 90.1226 65.63 87.6929 65.571 85.2369C65.512 82.7809 64.816 80.3812 63.55 78.2681C62.2839 76.1551 60.4903 74.3996 58.3413 73.1703V59.2419C58.3405 58.5565 58.065 57.8994 57.5754 57.4148C57.0857 56.9301 56.4218 56.6575 55.7293 56.6567H46.4807C45.7882 56.6575 45.1243 56.9301 44.6346 57.4148C44.145 57.8994 43.8695 58.5565 43.8687 59.2419V73.1741C41.7176 74.4017 39.9219 76.1566 38.6543 78.2699C37.3867 80.3831 36.6899 82.7837 36.631 85.2407C36.572 87.6976 37.1529 90.1282 38.3176 92.2987C39.4824 94.4691 41.1919 96.3064 43.2817 97.6337H35.1592V38.1344C35.1584 37.5686 34.9309 37.0261 34.5267 36.626C34.1224 36.2259 33.5744 36.0008 33.0027 36H31.1565C30.5848 36.0008 30.0367 36.2259 29.6325 36.626C29.2283 37.0261 29.0008 37.5686 29 38.1344V46.6305C29 46.9373 29.1231 47.2315 29.3423 47.4485C29.5615 47.6654 29.8588 47.7873 30.1687 47.7873C30.4787 47.7873 30.776 47.6654 30.9951 47.4485C31.2143 47.2315 31.3374 46.9373 31.3374 46.6305V38.3135H32.8248V97.8106C32.8256 98.3764 33.053 98.9188 33.4573 99.3189C33.8615 99.7191 34.4096 99.9442 34.9813 99.945H108.663V101.686H31.3374V54.0986C31.3374 53.7918 31.2143 53.4976 30.9951 53.2807C30.776 53.0637 30.4787 52.9419 30.1687 52.9419C29.8588 52.9419 29.5615 53.0637 29.3423 53.2807C29.1231 53.4976 29 53.7918 29 54.0986V101.865C29.0008 102.431 29.2283 102.973 29.6325 103.373C30.0367 103.773 30.5848 103.998 31.1565 103.999H108.841C109.413 103.998 109.961 103.773 110.365 103.373C110.769 102.973 110.997 102.431 110.998 101.865V99.7659C110.997 99.1998 110.77 98.6569 110.366 98.2565C109.961 97.8561 109.413 97.6308 108.841 97.63ZM46.4807 58.971H55.7301C55.8029 58.971 55.8727 58.9996 55.9242 59.0505C55.9757 59.1015 56.0046 59.1706 56.0046 59.2427V72.0956C52.8362 70.9786 49.3753 70.9786 46.2069 72.0956V59.2419C46.2071 59.1701 46.236 59.1013 46.2873 59.0505C46.3386 58.9998 46.4081 58.9712 46.4807 58.971ZM56.1757 96.4943C54.5839 97.2146 52.8541 97.5874 51.1039 97.5874C49.3536 97.5874 47.6238 97.2146 46.032 96.4943L45.9697 96.4664C43.9163 95.515 42.1731 94.0134 40.9374 92.1319C39.7018 90.2504 39.0231 88.064 38.9783 85.8204C38.9334 83.5768 39.5241 81.3655 40.6836 79.4371C41.843 77.5086 43.5248 75.94 45.5385 74.9089C45.5492 74.9036 45.5606 74.8998 45.5712 74.8946C46.8499 74.2464 48.2348 73.8287 49.6614 73.661L49.6926 73.6573C50.0175 73.6196 50.3435 73.5946 50.6704 73.582C50.7465 73.582 50.8271 73.5775 50.9062 73.576C51.039 73.576 51.1718 73.576 51.3046 73.576C51.3806 73.576 51.462 73.576 51.5403 73.582C51.8668 73.5936 52.1927 73.6186 52.5182 73.6573L52.5501 73.661C53.9764 73.8288 55.3611 74.2465 56.6395 74.8946C56.6494 74.8998 56.6593 74.9028 56.6692 74.9074C58.6848 75.9368 60.3686 77.5046 61.5298 79.433C62.6909 81.3614 63.2829 83.5733 63.2386 85.8178C63.1942 88.0622 62.5154 90.2495 61.279 92.1315C60.0426 94.0136 58.2981 95.515 56.2434 96.4657L56.1757 96.4943ZM78.0111 97.63H68.2135V69.7392C68.2135 69.6672 68.2424 69.5981 68.2939 69.5471C68.3453 69.4962 68.4152 69.4675 68.488 69.4675H77.7366C77.8094 69.4675 77.8792 69.4962 77.9307 69.5471C77.9822 69.5981 78.0111 69.6672 78.0111 69.7392V97.63Z" fill="#FFF1AC"/>
<path d="M101.696 68.0088L97.2735 62.8271C97.1745 62.7111 97.0533 62.6154 96.9169 62.5457C96.7805 62.476 96.6315 62.4335 96.4786 62.4208C96.3256 62.408 96.1716 62.4252 96.0253 62.4714C95.8791 62.5175 95.7434 62.5917 95.6261 62.6898C95.5089 62.7878 95.4122 62.9078 95.3418 63.0428C95.2713 63.1778 95.2285 63.3252 95.2156 63.4766C95.2027 63.628 95.2201 63.7804 95.2667 63.9252C95.3133 64.07 95.3883 64.2042 95.4874 64.3203L98.0643 67.3405C90.2114 66.3769 82.5089 64.4557 75.1324 61.6207C69.3904 59.4022 63.9735 56.4343 59.0258 52.7957C51.0607 46.8501 47.956 41.3817 47.924 41.3275C47.7749 41.058 47.5237 40.8582 47.2258 40.7721C46.9278 40.6859 46.6074 40.7204 46.3352 40.868C46.0629 41.0156 45.8611 41.2642 45.774 41.5592C45.687 41.8541 45.7218 42.1711 45.871 42.4406C46.0025 42.6784 49.1787 48.3184 57.4883 54.5507C62.6049 58.3358 68.2116 61.4239 74.1583 63.7325C81.7797 66.6739 89.7423 68.6621 97.8613 69.651L95.26 71.7696C95.1415 71.8661 95.0433 71.9849 94.9712 72.119C94.899 72.2531 94.8542 72.3999 94.8394 72.5512C94.8245 72.7024 94.84 72.855 94.8847 73.0004C94.9295 73.1457 95.0028 73.2809 95.1003 73.3982C95.1979 73.5155 95.3178 73.6127 95.4533 73.6841C95.5888 73.7555 95.7372 73.7999 95.89 73.8145C96.0428 73.8292 96.197 73.8139 96.3439 73.7696C96.4907 73.7253 96.6273 73.6528 96.7458 73.5563L101.536 69.6517C101.656 69.5546 101.755 69.4348 101.827 69.2994C101.9 69.1641 101.945 69.0158 101.959 68.8633C101.973 68.7107 101.956 68.5569 101.91 68.4107C101.863 68.2645 101.788 68.1289 101.688 68.0118L101.696 68.0088Z" fill="#FFF1AC"/>
<path d="M49.6805 86.3794V88.7162H54.0839V90.2854H49.6805V93.5968H47.8099V90.2854H46.4526V88.7162H47.8099V86.3794H46.4526V84.8094H47.8099V77.4068H52.2362C52.9127 77.4038 53.5864 77.4932 54.2383 77.6725C54.8431 77.8337 55.4119 78.1061 55.915 78.4755C56.3985 78.8385 56.792 79.306 57.0654 79.8422C57.3631 80.4462 57.51 81.1121 57.4935 81.784C57.5095 82.4727 57.38 83.1571 57.1133 83.7934C56.867 84.3544 56.485 84.8468 56.0009 85.2271C55.473 85.6313 54.8676 85.9253 54.2216 86.0911C53.4399 86.2933 52.6342 86.3903 51.8263 86.3794H49.6805ZM49.6805 78.973V84.8102H51.586C52.1726 84.8174 52.7584 84.7669 53.335 84.6597C53.7895 84.5782 54.2234 84.4095 54.6124 84.1629C54.9538 83.9377 55.2242 83.6219 55.3926 83.2515C55.5791 82.8165 55.6686 82.3467 55.6549 81.8743C55.6681 81.4113 55.5866 80.9506 55.4154 80.5196C55.2637 80.1607 55.0151 79.85 54.6968 79.6217C54.3371 79.3751 53.9291 79.2059 53.4992 79.125C52.9471 79.0172 52.3852 78.9667 51.8225 78.9745L49.6805 78.973Z" fill="#FFF1AC"/>
</svg>
