<svg width="50" height="50" viewBox="0 0 50 50" fill="none" xmlns="http://www.w3.org/2000/svg">
<rect width="50" height="50" fill="url(#paint0_linear)"/>
<path fill-rule="evenodd" clip-rule="evenodd" d="M36.4345 34.1502C36.2268 36.8694 35.3959 39.9914 35.0323 42.3078H31.7087C31.6568 40.6964 31.501 38.0779 30.2546 36.8694C29.2679 35.8623 27.5023 35.9127 26.5156 36.8191C25.1653 38.0779 24.9576 40.6964 24.9576 42.3078H21.634C21.4263 40.1929 20.9589 38.3297 20.3877 36.5169C19.1413 32.8914 17.3756 29.5176 15.8177 26.0431C14.2597 22.5182 13.0653 18.943 13.5846 15.0153C13.8443 13.2025 14.5194 11.4904 15.7138 10.1812C17.7911 7.91524 21.4782 7.15991 24.4383 8.0663C27.0868 8.87198 28.3332 11.0373 27.8139 13.6557C27.5023 15.4181 25.9443 16.3245 24.4383 16.7274C23.8151 16.8784 22.361 17.0295 21.8417 16.6267C21.4263 16.3245 21.4263 15.7706 21.7898 15.5692C21.9975 15.4181 22.413 15.4181 23.0881 15.3678C23.2439 15.3678 23.3477 15.3678 23.4516 15.3678C25.425 15.0657 26.8272 13.1522 25.7366 11.289C24.9057 9.92944 22.2572 9.47624 20.2319 10.7351C18.4662 11.7926 17.5834 14.2096 17.843 16.4252C18.1027 18.4898 19.401 20.504 21.7379 20.7558C24.2306 21.0076 26.7233 20.5544 28.0216 21.3097C29.6315 22.2664 30.2027 24.6331 29.7873 26.2445C29.6834 26.8991 29.3718 27.5034 29.0083 28.0069C28.5928 28.5608 28.1774 29.014 27.8139 29.2154C26.6714 29.8197 26.4636 29.719 25.425 29.3665C25.1653 29.2658 24.8538 29.1651 24.4902 29.0644C23.6074 28.8126 22.8804 28.7119 22.361 28.6615C21.7898 28.6112 21.4263 28.6112 21.2705 28.2587C20.8031 27.4027 20.8031 27.4027 20.8031 27.4027C20.4915 27.4027 20.1799 27.4027 19.8683 27.4027C19.8683 27.4027 19.8164 27.5537 20.3877 28.6615C20.8031 29.4672 21.3744 29.5176 22.2572 29.6183C22.7765 29.6183 23.3997 29.719 24.1787 29.9708C24.5422 30.0715 24.8538 30.1722 25.1134 30.2225C26.4636 30.7261 26.7752 30.8268 28.2812 30.0211C28.7486 29.7694 29.3199 29.2154 29.7873 28.5105C30.2027 27.9062 30.5662 27.2012 30.722 26.4963C30.9297 25.6906 30.9297 24.8849 30.8259 24.2806C31.1894 24.3814 31.7606 24.5324 32.5916 24.8346C34.0976 25.3381 35.0323 26.2445 35.6555 27.2516C36.3826 28.5608 36.5903 29.9708 36.019 31.3304C35.7074 32.1864 35.0843 32.9417 34.6688 33.3949C34.3572 33.7978 34.0456 33.9488 34.8765 33.7474C35.3439 33.6467 36.019 33.3949 36.5383 32.6899V32.6396C36.5383 33.1935 36.4864 33.697 36.4345 34.1502ZM15.9735 23.7267C15.8696 23.0218 16.4928 22.1154 17.2198 21.5111C17.7391 21.1083 18.2065 20.8565 18.7778 20.7054C19.2452 20.5544 19.0374 20.7558 18.7258 21.0076C18.1027 21.5615 17.6872 22.1154 17.4276 22.8707C17.2198 23.4246 17.0121 24.0792 16.9602 24.6835C16.9602 25.1367 16.9082 25.6402 16.9082 25.6402L15.9735 23.7267Z" fill="white"/>
<defs>
<linearGradient id="paint0_linear" x1="50" y1="0" x2="0" y2="50" gradientUnits="userSpaceOnUse">
<stop stop-color="#FF543E"/>
<stop offset="1" stop-color="#C7141A"/>
</linearGradient>
</defs>
</svg>
